<svg width="70" height="70" viewBox="0 0 70 70" fill="none" xmlns="http://www.w3.org/2000/svg">
<path d="M69.9494 6.35732C69.849 4.71753 69.1522 3.17109 67.9905 2.00941C66.8288 0.84773 65.2823 0.151035 63.6424 0.0506068C59.2235 -0.208527 47.9422 0.191953 38.576 9.55442L37.3543 10.7693H18.292C17.4077 10.7664 16.5316 10.9392 15.7146 11.2777C14.8977 11.6163 14.1561 12.1138 13.5331 12.7414L1.97258 24.2948C1.08756 25.1793 0.466653 26.2931 0.179558 27.5109C-0.107536 28.7288 -0.0494487 30.0026 0.347299 31.1893C0.744046 32.376 1.46375 33.4286 2.42559 34.229C3.38744 35.0293 4.55336 35.5457 5.79244 35.7202L18.292 37.4635L32.5349 51.7057L34.2816 64.2182C34.4517 65.4592 34.9668 66.6275 35.7683 67.5901C36.5697 68.5528 37.6253 69.2711 38.8149 69.6634C39.5068 69.89 40.2307 70.0037 40.9588 69.9999C41.8409 69.9993 42.7142 69.8245 43.5286 69.4855C44.3429 69.1465 45.0823 68.65 45.7042 68.0244L57.2614 56.4644C57.8881 55.8409 58.3848 55.0992 58.7228 54.2824C59.0608 53.4655 59.2332 52.5897 59.2302 51.7057V32.6443L60.4418 31.4361C69.808 22.0568 70.2085 10.7693 69.9494 6.35732ZM18.8439 18.8462H29.2771L18.7598 29.3731L9.59548 28.0943L18.8439 18.8462ZM44.2873 15.2688C46.5918 12.9454 49.3415 11.1109 52.3717 9.8751C55.402 8.63935 58.6504 8.02778 61.9226 8.07702C61.9738 11.3501 61.3628 14.5998 60.1263 17.6308C58.8898 20.6618 57.0533 23.4116 54.7271 25.715L36.3447 44.0865L25.9115 33.6539L44.2873 15.2688ZM51.153 51.1538L41.9011 60.4052L40.6222 51.2413L51.153 40.7212V51.1538ZM26.9212 58.5576C23.9898 62.5456 18.1069 67.3076 6.72806 67.3076C5.65695 67.3076 4.62971 66.8821 3.87232 66.1248C3.11493 65.3674 2.68943 64.3402 2.68943 63.2692C2.68943 51.8807 7.44155 45.9981 11.4398 43.0769C11.8628 42.7215 12.3542 42.4567 12.8837 42.2989C13.4132 42.141 13.9694 42.0935 14.5179 42.1592C15.0665 42.2249 15.5958 42.4024 16.073 42.6808C16.5502 42.9593 16.9652 43.3326 17.2923 43.7778C17.6194 44.2231 17.8517 44.7307 17.9748 45.2692C18.0979 45.8078 18.1091 46.3659 18.0079 46.909C17.9066 47.4521 17.695 47.9687 17.3862 48.4268C17.0773 48.8848 16.6777 49.2746 16.2121 49.5721C14.2332 51.0293 11.948 53.7788 11.1032 58.8942C16.2222 58.0495 18.9685 55.7644 20.4257 53.7855C20.7232 53.32 21.113 52.9204 21.5711 52.6115C22.0292 52.3027 22.5458 52.0911 23.0889 51.9898C23.632 51.8886 24.1902 51.8998 24.7288 52.0229C25.2674 52.146 25.775 52.3783 26.2202 52.7054C26.6655 53.0325 27.0389 53.4475 27.3173 53.9247C27.5957 54.4018 27.7733 54.9311 27.839 55.4796C27.9047 56.0282 27.8571 56.5844 27.6993 57.1138C27.5414 57.6432 27.2766 58.1346 26.9212 58.5576Z" fill="white"/>
</svg>
