<svg width="79" height="70" viewBox="0 0 79 70" fill="none" xmlns="http://www.w3.org/2000/svg">
<path d="M55.0179 30.8H71.9464C73.8172 30.8 75.6113 30.0625 76.9341 28.7497C78.2569 27.437 79 25.6565 79 23.8V7C79 5.14348 78.2569 3.36301 76.9341 2.05025C75.6113 0.737498 73.8172 0 71.9464 0L55.0179 0C53.1471 0 51.353 0.737498 50.0302 2.05025C48.7074 3.36301 47.9643 5.14348 47.9643 7V11.2H43.7321C41.1131 11.2 38.6014 12.2325 36.7495 14.0704C34.8975 15.9082 33.8571 18.4009 33.8571 21V30.8H25.3929V29.4C25.3929 27.5435 24.6497 25.763 23.3269 24.4503C22.0041 23.1375 20.21 22.4 18.3393 22.4H7.05357C6.12728 22.4 5.21006 22.5811 4.35429 22.9328C3.49851 23.2846 2.72093 23.8002 2.06594 24.4503C0.743142 25.763 0 27.5435 0 29.4L0 40.6C0 41.5193 0.182446 42.4295 0.536921 43.2788C0.891396 44.1281 1.41096 44.8997 2.06594 45.5497C2.72093 46.1998 3.49851 46.7154 4.35429 47.0672C5.21006 47.4189 6.12728 47.6 7.05357 47.6H18.3393C19.2656 47.6 20.1828 47.4189 21.0386 47.0672C21.8943 46.7154 22.6719 46.1998 23.3269 45.5497C23.9819 44.8997 24.5015 44.1281 24.8559 43.2788C25.2104 42.4295 25.3929 41.5193 25.3929 40.6V39.2H33.8571V49C33.8571 51.5991 34.8975 54.0918 36.7495 55.9296C38.6014 57.7675 41.1131 58.8 43.7321 58.8H47.9643V63C47.9643 64.8565 48.7074 66.637 50.0302 67.9497C51.353 69.2625 53.1471 70 55.0179 70H71.9464C73.8172 70 75.6113 69.2625 76.9341 67.9497C78.2569 66.637 79 64.8565 79 63V46.2C79 44.3435 78.2569 42.563 76.9341 41.2503C75.6113 39.9375 73.8172 39.2 71.9464 39.2H55.0179C53.1471 39.2 51.353 39.9375 50.0302 41.2503C48.7074 42.563 47.9643 44.3435 47.9643 46.2V50.4H43.7321C43.358 50.4 42.9992 50.2525 42.7346 49.9899C42.4701 49.7274 42.3214 49.3713 42.3214 49V21C42.3214 20.6287 42.4701 20.2726 42.7346 20.01C42.9992 19.7475 43.358 19.6 43.7321 19.6H47.9643V23.8C47.9643 25.6565 48.7074 27.437 50.0302 28.7497C51.353 30.0625 53.1471 30.8 55.0179 30.8ZM16.9286 39.2H8.46429V30.8H16.9286V39.2ZM56.4286 47.6H70.5357V61.6H56.4286V47.6ZM56.4286 8.4H70.5357V22.4H56.4286V8.4Z" fill="white"/>
</svg>
