<svg width="73" height="70" viewBox="0 0 73 70" fill="none" xmlns="http://www.w3.org/2000/svg">
<path d="M60.469 24.6787C60.469 24.4944 60.469 24.3102 60.469 24.1225C60.469 17.7248 57.9437 11.5892 53.4486 7.06533C48.9536 2.54147 42.857 0 36.5 0C30.143 0 24.0464 2.54147 19.5514 7.06533C15.0563 11.5892 12.531 17.7248 12.531 24.1225C12.531 24.3102 12.531 24.4944 12.531 24.6787C9.71819 26.2159 7.23978 28.3045 5.242 30.8213C3.24422 33.3381 1.76755 36.232 0.899112 39.3325C0.0306715 42.4329 -0.211947 45.677 0.185572 48.8734C0.583092 52.0697 1.6127 55.1535 3.21364 57.9429C4.81458 60.7323 6.95443 63.1707 9.50693 65.1143C12.0594 67.0579 14.9729 68.4674 18.0754 69.2594C21.1779 70.0515 24.4066 70.2101 27.571 69.7261C30.7355 69.242 33.7715 68.1249 36.5 66.4408C39.2285 68.1249 42.2645 69.242 45.429 69.7261C48.5934 70.2101 51.8221 70.0515 54.9246 69.2594C58.0271 68.4674 60.9406 67.0579 63.4931 65.1143C66.0456 63.1707 68.1854 60.7323 69.7864 57.9429C71.3873 55.1535 72.4169 52.0697 72.8144 48.8734C73.2119 45.677 72.9693 42.4329 72.1009 39.3325C71.2324 36.232 69.7558 33.3381 67.758 30.8213C65.7602 28.3045 63.2818 26.2159 60.469 24.6787ZM46.7268 36.4786C45.8401 34.2906 44.6376 32.2461 43.158 30.4111C45.8256 29.4535 48.6991 29.2314 51.4806 29.7679C50.4955 32.3824 48.8529 34.6947 46.7134 36.4786H46.7268ZM36.5 56.1854C34.4616 53.8652 33.1353 51 32.6816 47.9368C35.2108 48.3476 37.7892 48.3476 40.3184 47.9368C39.8647 51 38.5384 53.8652 36.5 56.1854ZM21.5394 29.7679C24.3209 29.2314 27.1944 29.4535 29.8619 30.4111C28.3824 32.2461 27.1799 34.2906 26.2932 36.4786C24.1586 34.6931 22.5207 32.3809 21.5394 29.7679ZM36.5 40.2042C35.5013 40.2033 34.5048 40.108 33.5238 39.9194C34.2077 38.093 35.2162 36.4071 36.5 34.9442C37.7838 36.4071 38.7923 38.093 39.4761 39.9194C38.4952 40.108 37.4987 40.2033 36.5 40.2042ZM36.5 8.04084C40.328 8.04608 44.0272 9.43211 46.9267 11.9475C49.8261 14.4628 51.7335 17.9408 52.3029 21.7505C46.8562 20.8642 41.2725 21.9023 36.5 24.6887C31.7275 21.9023 26.1438 20.8642 20.6971 21.7505C21.2665 17.9408 23.1739 14.4628 26.0733 11.9475C28.9727 9.43211 32.672 8.04608 36.5 8.04084ZM8.53619 45.5648C8.53538 43.2053 9.05169 40.8746 10.0483 38.7388C11.0449 36.6031 12.4974 34.7149 14.3021 33.2087C16.3188 38.1689 19.91 42.3179 24.5155 45.0086C24.5155 45.1929 24.5155 45.3772 24.5155 45.5648C24.5077 51.082 26.3887 56.4334 29.8419 60.7184C27.4324 61.5758 24.8537 61.839 22.3222 61.486C19.7907 61.1329 17.3803 60.174 15.2932 58.6895C13.2061 57.2051 11.5033 55.2385 10.3275 52.9548C9.15181 50.6711 8.53751 48.1368 8.53619 45.5648ZM48.4845 61.6465C46.6693 61.646 44.8677 61.3321 43.158 60.7184C46.6113 56.4334 48.4923 51.082 48.4845 45.5648C48.4845 45.3772 48.4845 45.1929 48.4845 45.0086C53.095 42.3202 56.6911 38.1709 58.7113 33.2087C61.2345 35.3241 63.0488 38.1706 63.9074 41.3608C64.7659 44.551 64.6268 47.9299 63.5092 51.0377C62.3916 54.1455 60.3496 56.8313 57.6612 58.7296C54.9728 60.6278 51.7686 61.6463 48.4845 61.6465Z" fill="white"/>
</svg>
