<svg width="70" height="70" viewBox="0 0 70 70" fill="none" xmlns="http://www.w3.org/2000/svg">
<path d="M32.4441 29.1116C32.7804 29.449 33.1801 29.7167 33.6201 29.8993C34.0601 30.082 34.5319 30.176 35.0083 30.176C35.4847 30.176 35.9565 30.082 36.3965 29.8993C36.8365 29.7167 37.2362 29.449 37.5725 29.1116L49.0358 17.6515C49.3733 17.3152 49.6411 16.9157 49.8238 16.4758C50.0065 16.0359 50.1005 15.5643 50.1005 15.088C50.1005 14.6117 50.0065 14.1401 49.8238 13.7002C49.6411 13.2603 49.3733 12.8608 49.0358 12.5246L37.5725 1.06442C37.2362 0.727038 36.8365 0.459341 36.3965 0.276683C35.9565 0.094025 35.4847 0 35.0083 0C34.5319 0 34.0601 0.094025 33.6201 0.276683C33.1801 0.459341 32.7804 0.727038 32.4441 1.06442L20.9808 12.5246C20.6433 12.8608 20.3755 13.2603 20.1928 13.7002C20.0101 14.1401 19.9161 14.6117 19.9161 15.088C19.9161 15.5643 20.0101 16.0359 20.1928 16.4758C20.3755 16.9157 20.6433 17.3152 20.9808 17.6515L32.4441 29.1116ZM35.0053 8.7578L41.3403 15.091L35.0053 21.4243L28.6703 15.091L35.0053 8.7578ZM37.5664 40.8884C37.2301 40.551 36.8305 40.2833 36.3905 40.1007C35.9505 39.918 35.4787 39.824 35.0023 39.824C34.5258 39.824 34.0541 39.918 33.614 40.1007C33.174 40.2833 32.7744 40.551 32.4381 40.8884L20.9747 52.3485C20.6373 52.6847 20.3695 53.0843 20.1868 53.5242C20.0041 53.9641 19.91 54.4357 19.91 54.912C19.91 55.3883 20.0041 55.8599 20.1868 56.2998C20.3695 56.7397 20.6373 57.1392 20.9747 57.4754L32.4381 68.9356C32.7744 69.273 33.174 69.5407 33.614 69.7233C34.0541 69.906 34.5258 70 35.0023 70C35.4787 70 35.9505 69.906 36.3905 69.7233C36.8305 69.5407 37.2301 69.273 37.5664 68.9356L49.0298 57.4754C49.3673 57.1392 49.635 56.7397 49.8177 56.2998C50.0005 55.8599 50.0945 55.3883 50.0945 54.912C50.0945 54.4357 50.0005 53.9641 49.8177 53.5242C49.635 53.0843 49.3673 52.6847 49.0298 52.3485L37.5664 40.8884ZM35.0053 61.2332L28.6703 54.8999L35.0053 48.5667L41.3403 54.8999L35.0053 61.2332ZM29.1198 32.426L17.6564 20.9659C17.3201 20.6285 16.9205 20.3608 16.4805 20.1781C16.0404 19.9955 15.5687 19.9014 15.0922 19.9014C14.6158 19.9014 14.144 19.9955 13.704 20.1781C13.264 20.3608 12.8644 20.6285 12.5281 20.9659L1.06472 32.426C0.727242 32.7622 0.459469 33.1617 0.27676 33.6016C0.0940514 34.0415 0 34.5131 0 34.9894C0 35.4658 0.0940514 35.9374 0.27676 36.3773C0.459469 36.8172 0.727242 37.2167 1.06472 37.5529L12.5281 49.013C12.8644 49.3504 13.264 49.6181 13.704 49.8008C14.144 49.9834 14.6158 50.0775 15.0922 50.0775C15.5687 50.0775 16.0404 49.9834 16.4805 49.8008C16.9205 49.6181 17.3201 49.3504 17.6564 49.013L29.1198 37.5529C29.7986 36.8742 30.1799 35.9537 30.1799 34.994C30.1799 34.0342 29.7986 33.1137 29.1198 32.435V32.426ZM15.0953 41.3287L8.76025 34.9955L15.0953 28.6622L21.4303 34.9955L15.0953 41.3287ZM68.9398 32.426L57.4765 20.9659C57.1402 20.6285 56.7405 20.3608 56.3005 20.1781C55.8605 19.9955 55.3887 19.9014 54.9123 19.9014C54.4359 19.9014 53.9641 19.9955 53.5241 20.1781C53.0841 20.3608 52.6844 20.6285 52.3481 20.9659L40.8848 32.426C40.5473 32.7622 40.2795 33.1617 40.0968 33.6016C39.9141 34.0415 39.8201 34.5131 39.8201 34.9894C39.8201 35.4658 39.9141 35.9374 40.0968 36.3773C40.2795 36.8172 40.5473 37.2167 40.8848 37.5529L52.3481 49.013C52.6844 49.3504 53.0841 49.6181 53.5241 49.8008C53.9641 49.9834 54.4359 50.0775 54.9123 50.0775C55.3887 50.0775 55.8605 49.9834 56.3005 49.8008C56.7405 49.6181 57.1402 49.3504 57.4765 49.013L68.9398 37.5529C69.6186 36.8742 70 35.9537 70 34.994C70 34.0342 69.6186 33.1137 68.9398 32.435V32.426ZM54.9153 41.3287L48.5803 34.9955L54.9153 28.6622L61.2503 34.9955L54.9153 41.3287Z" fill="white"/>
</svg>
