<svg width="67" height="24" viewBox="0 0 67 24" fill="none" xmlns="http://www.w3.org/2000/svg">
<path d="M1.19798 24C1.0534 23.278 0.908816 22.3538 0.764233 21.2274C0.61965 20.1011 0.503984 18.917 0.417234 17.6751C0.330484 16.4332 0.287109 15.3213 0.287109 14.3394C0.287109 11.7112 0.576275 9.14079 1.15461 6.62816C1.73294 4.11552 2.5426 1.90614 3.5836 0H17.4636C18.5046 1.90614 19.3142 4.11552 19.8926 6.62816C20.4709 9.14079 20.7601 11.7112 20.7601 14.3394C20.7601 15.3213 20.7167 16.4332 20.6299 17.6751C20.5432 18.917 20.4275 20.1011 20.2829 21.2274C20.1673 22.3538 20.0227 23.278 19.8492 24H12.3887C12.649 22.8736 12.8514 21.8773 12.996 21.0108C13.1405 20.1444 13.2562 19.2635 13.343 18.3682C13.4297 17.4729 13.502 16.4477 13.5598 15.2924H7.48734C7.54518 16.4477 7.61747 17.4729 7.70422 18.3682C7.79097 19.2635 7.90663 20.1444 8.05122 21.0108C8.22472 21.8773 8.42713 22.8736 8.65847 24H1.19798ZM7.70422 10.3538H13.343C13.1405 8.88087 12.7935 7.36462 12.302 5.80505C11.8104 4.24549 11.2176 2.87365 10.5236 1.68953C9.82959 2.87365 9.2368 4.24549 8.74522 5.80505C8.25363 7.33574 7.90663 8.85198 7.70422 10.3538Z" fill="#1D1D1B"/>
<path d="M21.8221 24L29.5862 5.19856H21.8654L23.2968 0H39.7793L32.0152 18.8014H39.6492L38.2178 24H21.8221Z" fill="#1D1D1B"/>
<path d="M45.6407 24L47.6359 12.7365H51.8433V12.5632C50.3974 11.4368 49.2408 10.2816 48.3733 9.09747C47.5058 7.91336 46.8841 6.58484 46.5082 5.11191C46.1322 3.63899 45.9443 1.93502 45.9443 0H53.6216C53.6216 1.27076 53.6939 2.33935 53.8385 3.20578C54.012 4.0722 54.3012 4.85199 54.706 5.54513C55.1108 6.23827 55.7036 6.96029 56.4844 7.71119L58.0459 0H65.3762L63.2509 10.3538H59.9978V10.4838C61.5014 11.5523 62.7014 12.7076 63.5979 13.9495C64.4943 15.1913 65.1594 16.6209 65.5931 18.2383C66.0269 19.8556 66.2582 21.7762 66.2871 24H58.523C58.523 21.7473 58.2338 19.9278 57.6555 18.5415C57.0772 17.1264 56.1229 15.8845 54.7928 14.8159L53.1445 24H45.6407Z" fill="#1D1D1B"/>
</svg>
