<svg width="84" height="28" viewBox="0 0 84 28" fill="none" xmlns="http://www.w3.org/2000/svg">
<path d="M0.109111 0.806478H6.03979V21.208H0.109111V0.806478ZM11.5553 13.3499H7.28523V8.60532H11.5553V0.806478H17.486V21.208H11.5553V13.3499ZM28.8379 11.8375C28.8379 11.3235 28.8181 10.9578 28.7786 10.7404C28.7391 10.5229 28.6205 10.3648 28.4228 10.2659C28.2448 10.1671 27.9088 10.0979 27.4146 10.0583C27.118 10.0386 26.4755 10.0287 25.4871 10.0287C24.5382 10.0287 23.6585 10.0682 22.8479 10.1473L21.2763 10.2363V6.38132C23.1346 6.02547 25.1411 5.84755 27.2959 5.84755C28.9565 5.84755 30.2514 5.96617 31.1805 6.20339C32.1294 6.44062 32.8411 6.81623 33.3156 7.33022C33.7307 7.80468 33.9976 8.40763 34.1162 9.13908C34.2546 9.87053 34.3238 10.8886 34.3238 12.1934V21.208H28.8379V11.8375ZM24.4492 21.4156C23.0852 21.4156 22.0769 21.04 21.4246 20.2888C20.7722 19.5178 20.446 18.3613 20.446 16.8193C20.446 15.8704 20.5152 15.1093 20.6536 14.536C20.792 13.9429 21.0292 13.4784 21.3653 13.1423C21.7013 12.7864 22.1659 12.5393 22.759 12.401C23.352 12.2428 24.1329 12.1637 25.1016 12.1637L27.5925 12.223V14.8622H27.2959C26.8413 14.8622 26.5447 14.8721 26.4063 14.8918C26.011 14.9116 25.8034 15.0994 25.7836 15.4553C25.7638 15.5739 25.754 15.821 25.754 16.1966C25.754 16.4931 25.7638 16.7205 25.7836 16.8786C25.8232 17.0368 25.8825 17.1653 25.9615 17.2641C26.0604 17.4025 26.2086 17.4816 26.4063 17.5013C26.6831 17.5409 26.9796 17.5606 27.2959 17.5606H27.5925V20.5853C27.1576 20.9214 26.693 21.1388 26.1988 21.2377C25.7243 21.3563 25.1411 21.4156 24.4492 21.4156ZM41.8741 21.4156C40.0948 21.4156 38.8988 20.8719 38.286 19.7846C38.0092 19.3102 37.8214 18.7369 37.7226 18.0647C37.6237 17.3728 37.5743 16.5327 37.5743 15.5442V6.08478H43.0602V13.2312C43.0602 14.279 43.0701 14.9709 43.0898 15.307C43.1294 15.8012 43.1887 16.157 43.2678 16.3745C43.3468 16.592 43.4753 16.7303 43.6533 16.7897C43.8312 16.8292 44.1475 16.849 44.6022 16.849H44.8987V20.5556C44.1277 21.1289 43.1195 21.4156 41.8741 21.4156ZM46.1441 6.08478H51.63V21.208H46.1441V6.08478ZM66.2176 10.2066C65.842 10.1868 65.328 10.1374 64.6757 10.0583C63.45 9.93972 62.4615 9.88041 61.7103 9.88041H60.7318V5.84755C62.1353 5.84755 63.4697 5.9464 64.735 6.14409L66.2176 6.41097V10.2066ZM61.9179 16.6117C61.9179 16.3152 61.8685 16.1274 61.7696 16.0483C61.6708 15.9692 61.4632 15.9099 61.1469 15.8704L57.9443 15.4256C57.1536 15.307 56.5111 15.1192 56.0169 14.8622C55.5424 14.6052 55.1866 14.2592 54.9493 13.8243C54.7121 13.4487 54.554 12.994 54.4749 12.4603C54.3958 11.9265 54.3563 11.2642 54.3563 10.4735C54.3563 8.85243 54.8406 7.66629 55.8093 6.91508C56.6198 6.32201 57.8455 5.97605 59.4863 5.87721V10.5328C59.4863 10.8293 59.5258 11.027 59.6049 11.1259C59.684 11.2049 59.9311 11.2741 60.3463 11.3334L63.9047 11.8079C64.4187 11.8672 64.8635 11.9759 65.2391 12.1341C65.6147 12.2725 65.931 12.4899 66.188 12.7864C66.7613 13.4191 67.0479 14.6348 67.0479 16.4338C67.0479 18.3316 66.5636 19.6561 65.5949 20.4074C64.7448 21.04 63.5192 21.376 61.9179 21.4156V16.6117ZM60.6724 21.4452C59.0909 21.4255 57.7071 21.3266 56.521 21.1487L54.8307 20.8818V17.0862C55.6215 17.1653 56.689 17.2443 58.0333 17.3234C58.7845 17.363 59.3183 17.3827 59.6346 17.3827H60.6724V21.4452ZM74.0772 21.119C72.298 21.119 71.1019 20.5754 70.4891 19.4881C70.2123 19.0137 70.0245 18.4404 69.9257 17.7682C69.8268 17.0763 69.7774 16.2361 69.7774 15.2477V6.08478H75.2633V12.9347C75.2633 13.9825 75.2732 14.6744 75.293 15.0105C75.3325 15.5244 75.3918 15.8803 75.4709 16.078C75.55 16.2954 75.6784 16.4338 75.8564 16.4931C76.0343 16.5327 76.3506 16.5524 76.8053 16.5524H77.1018V20.2294C76.3111 20.8225 75.3028 21.119 74.0772 21.119ZM76.1232 27.3166C75.0953 27.3166 73.8894 27.2573 72.5055 27.1387L70.7856 26.9608V23.1355H74.7592C75.4709 23.1355 76.1628 23.1157 76.8349 23.0762C77.3094 23.0366 77.6553 22.9378 77.8728 22.7796C78.11 22.6413 78.2484 22.3941 78.2879 22.0383C78.3275 21.5638 78.3473 21.0597 78.3473 20.526V6.08478H83.8331V19.5474C83.8331 21.1289 83.7639 22.3546 83.6256 23.2244C83.5069 24.0943 83.2203 24.8158 82.7656 25.3891C82.2516 26.0415 81.4707 26.5258 80.423 26.8422C79.3752 27.1585 77.942 27.3166 76.1232 27.3166Z" fill="#1D1D1B"/>
</svg>
