<svg width="130" height="21" viewBox="0 0 130 21" fill="none" xmlns="http://www.w3.org/2000/svg">
<path d="M16.0179 3.42376H11.2437L7.71495 20H1.30982L4.83857 3.42376H0.123682L0.657443 1.1701H16.522L16.0179 3.42376ZM18.8737 14.0397C18.7946 14.4746 18.7353 14.8897 18.6957 15.2851C18.676 15.6805 18.6661 16.0363 18.6661 16.3526C18.6661 16.5306 18.676 16.7282 18.6957 16.9457C18.7155 17.1632 18.755 17.3707 18.8143 17.5684C18.8934 17.7463 18.9923 17.9045 19.1109 18.0429C19.2493 18.1615 19.4371 18.2208 19.6743 18.2208C19.8522 18.2208 20.0499 18.1615 20.2674 18.0429C20.5046 17.9243 20.7319 17.7562 20.9494 17.5388C21.1866 17.3213 21.4041 17.0544 21.6018 16.7381C21.8192 16.4218 21.9873 16.066 22.1059 15.6706H26.969L26.198 18.8435C25.8027 19.1005 25.348 19.318 24.834 19.4959C24.32 19.6738 23.7763 19.8221 23.2031 19.9407C22.6298 20.0395 22.0466 20.1087 21.4535 20.1483C20.8604 20.2076 20.297 20.2372 19.7633 20.2372C18.7748 20.2372 17.8556 20.1483 17.0055 19.9703C16.1554 19.7924 15.4141 19.486 14.7815 19.0511C14.1489 18.6162 13.6448 18.0429 13.2692 17.3312C12.9133 16.5997 12.7354 15.7003 12.7354 14.6327C12.7354 13.6641 12.8837 12.7152 13.1802 11.786C13.4965 10.8569 14.0105 10.0365 14.7222 9.32478C15.4536 8.59333 16.4223 8.01015 17.6282 7.57523C18.8539 7.14031 20.3761 6.92286 22.1948 6.92286C24.1717 6.92286 25.6544 7.22927 26.6428 7.84211C27.6511 8.45495 28.1552 9.41374 28.1552 10.7185C28.1552 11.2523 28.0761 11.8354 27.9179 12.468C27.7598 13.0809 27.5226 13.6048 27.2063 14.0397H18.8737ZM22.8176 10.5109C22.8176 9.89808 22.7187 9.48293 22.521 9.26547C22.3233 9.04802 22.0861 8.93929 21.8093 8.93929C21.493 8.93929 21.1965 9.04802 20.9197 9.26547C20.6627 9.46316 20.4255 9.73993 20.2081 10.0958C19.9906 10.4318 19.7929 10.8272 19.615 11.2819C19.4371 11.7168 19.2888 12.1814 19.1702 12.6756H22.5507C22.5902 12.4384 22.6298 12.1913 22.6693 11.9343C22.7088 11.7168 22.7385 11.4796 22.7582 11.2226C22.7978 10.9656 22.8176 10.7284 22.8176 10.5109ZM41.792 19.2883C40.9617 19.6244 40.082 19.8616 39.1529 20C38.2435 20.1582 37.2056 20.2372 36.0393 20.2372C35.0113 20.2372 34.0624 20.1384 33.1925 19.9407C32.3425 19.7232 31.6011 19.3872 30.9685 18.9325C30.3359 18.4778 29.8417 17.8946 29.4859 17.1829C29.13 16.4515 28.9521 15.5718 28.9521 14.5438C28.9521 13.4763 29.13 12.4878 29.4859 11.5784C29.8615 10.6493 30.415 9.83877 31.1465 9.14686C31.8977 8.45495 32.8466 7.9113 33.9932 7.51592C35.1398 7.12055 36.5038 6.92286 38.0853 6.92286C39.3703 6.92286 40.4873 7.03159 41.4362 7.24904C42.3851 7.44673 43.166 7.9113 43.7788 8.64275L42.9485 12.4384H38.9156C38.9354 12.1023 38.9552 11.8058 38.9749 11.5488C38.9947 11.2918 39.0046 11.0051 39.0046 10.6888C39.0046 10.0562 38.9354 9.61143 38.797 9.35443C38.6586 9.07767 38.4313 8.93929 38.115 8.93929C37.5615 8.93929 37.0771 9.21605 36.662 9.76958C36.2468 10.3033 35.9009 10.9557 35.6241 11.7267C35.3671 12.4779 35.1694 13.2786 35.031 14.1286C34.9124 14.9589 34.8531 15.6706 34.8531 16.2637C34.8531 16.4811 34.863 16.7085 34.8828 16.9457C34.9025 17.1632 34.9421 17.3707 35.0014 17.5684C35.0805 17.7661 35.1793 17.9243 35.2979 18.0429C35.4165 18.1615 35.5846 18.2208 35.802 18.2208C35.9997 18.2208 36.2271 18.1615 36.4841 18.0429C36.7411 17.9243 36.9882 17.7463 37.2254 17.5091C37.4626 17.2521 37.69 16.9259 37.9074 16.5306C38.1249 16.1352 38.2929 15.6607 38.4115 15.1072H42.652L41.792 19.2883ZM52.1554 9.14686H52.363C52.7386 8.77125 53.1735 8.42529 53.6677 8.10899C54.0829 7.83223 54.5771 7.58512 55.1504 7.36766C55.7237 7.1502 56.3662 7.04147 57.0779 7.04147C58.1059 7.04147 58.9559 7.30835 59.6281 7.84211C60.3002 8.3561 60.6363 9.06778 60.6363 9.97715C60.6363 10.2539 60.6066 10.5702 60.5473 10.9261C60.488 11.2621 60.4188 11.6279 60.3397 12.0232C60.2607 12.3988 60.1717 12.7843 60.0729 13.1797C59.9938 13.5553 59.9246 13.9013 59.8653 14.2176L58.6199 20H52.6002L54.2311 12.2605C54.2707 12.0035 54.3201 11.7465 54.3794 11.4895C54.4387 11.2127 54.4684 10.9656 54.4684 10.7481C54.4684 10.4516 54.3893 10.2144 54.2311 10.0365C54.0928 9.83877 53.8753 9.73993 53.5788 9.73993C53.2229 9.73993 52.877 9.86843 52.5409 10.1254C52.2246 10.3824 51.9775 10.6098 51.7996 10.8075L49.8424 20H43.7932L48.0039 0.0729237H54.0829L52.1554 9.14686ZM80.3067 19.2883C79.4764 19.6244 78.5967 19.8616 77.6675 20C76.7581 20.1582 75.7203 20.2372 74.5539 20.2372C73.5259 20.2372 72.577 20.1384 71.7072 19.9407C70.8571 19.7232 70.1158 19.3872 69.4832 18.9325C68.8506 18.4778 68.3564 17.8946 68.0005 17.1829C67.6447 16.4515 67.4668 15.5718 67.4668 14.5438C67.4668 13.4763 67.6447 12.4878 68.0005 11.5784C68.3761 10.6493 68.9297 9.83877 69.6611 9.14686C70.4123 8.45495 71.3612 7.9113 72.5078 7.51592C73.6544 7.12055 75.0185 6.92286 76.6 6.92286C77.885 6.92286 79.0019 7.03159 79.9508 7.24904C80.8997 7.44673 81.6806 7.9113 82.2934 8.64275L81.4631 12.4384H77.4303C77.4501 12.1023 77.4698 11.8058 77.4896 11.5488C77.5094 11.2918 77.5192 11.0051 77.5192 10.6888C77.5192 10.0562 77.4501 9.61143 77.3117 9.35443C77.1733 9.07767 76.946 8.93929 76.6296 8.93929C76.0761 8.93929 75.5918 9.21605 75.1766 9.76958C74.7615 10.3033 74.4155 10.9557 74.1388 11.7267C73.8818 12.4779 73.6841 13.2786 73.5457 14.1286C73.4271 14.9589 73.3678 15.6706 73.3678 16.2637C73.3678 16.4811 73.3777 16.7085 73.3974 16.9457C73.4172 17.1632 73.4567 17.3707 73.516 17.5684C73.5951 17.7661 73.694 17.9243 73.8126 18.0429C73.9312 18.1615 74.0992 18.2208 74.3167 18.2208C74.5144 18.2208 74.7417 18.1615 74.9987 18.0429C75.2557 17.9243 75.5028 17.7463 75.74 17.5091C75.9773 17.2521 76.2046 16.9259 76.4221 16.5306C76.6395 16.1352 76.8076 15.6607 76.9262 15.1072H81.1666L80.3067 19.2883ZM84.7394 8.34622C85.7476 7.852 86.7756 7.49616 87.8233 7.2787C88.8909 7.04147 90.077 6.92286 91.3817 6.92286C92.647 6.92286 93.6947 7.0217 94.525 7.21939C95.3553 7.41708 96.0176 7.70373 96.5118 8.07934C97.006 8.45495 97.352 8.89975 97.5496 9.41374C97.7473 9.92773 97.8462 10.5109 97.8462 11.1633C97.8462 11.5389 97.8165 11.9442 97.7572 12.3791C97.7177 12.814 97.6683 13.1797 97.609 13.4763L96.2152 20H91.441L90.9073 18.1022H90.7294C90.0968 18.7941 89.3554 19.3279 88.5054 19.7035C87.6751 20.0593 86.8448 20.2372 86.0145 20.2372C85.54 20.2372 85.0755 20.168 84.6208 20.0297C84.1661 19.8913 83.7608 19.6837 83.405 19.4069C83.0491 19.1104 82.7625 18.7447 82.545 18.3098C82.3276 17.8551 82.2188 17.3114 82.2188 16.6788C82.2188 15.6508 82.4956 14.8403 83.0491 14.2472C83.6224 13.6344 84.3638 13.1797 85.2731 12.8832C86.2023 12.5669 87.2402 12.3692 88.3867 12.2901C89.5531 12.211 90.7195 12.1715 91.8858 12.1715C91.9254 11.9738 91.9748 11.6971 92.0341 11.3412C92.0934 10.9656 92.1231 10.6394 92.1231 10.3626C92.1231 10.0068 92.0242 9.68062 91.8265 9.38409C91.6486 9.06778 91.2631 8.90963 90.6701 8.90963C89.9781 8.90963 89.4642 9.11721 89.1281 9.53235C88.8118 9.92773 88.6042 10.4121 88.5054 10.9854H84.176L84.7394 8.34622ZM91.5597 13.5652H91.0259C90.4526 13.5652 89.9584 13.6443 89.5432 13.8024C89.1479 13.9408 88.8217 14.1286 88.5647 14.3659C88.3274 14.6031 88.1495 14.87 88.0309 15.1665C87.9123 15.463 87.853 15.7596 87.853 16.0561C87.853 16.5306 87.9716 16.8864 88.2088 17.1236C88.4658 17.3608 88.7624 17.4795 89.0984 17.4795C89.5136 17.4795 89.9188 17.3312 90.3142 17.0347C90.7294 16.7381 90.9864 16.3427 91.0852 15.8485L91.5597 13.5652ZM101.368 7.24904H106.201L106.646 9.47305H106.854C107.308 8.76137 107.891 8.15841 108.603 7.66419C109.315 7.16997 110.254 6.92286 111.42 6.92286C111.499 6.92286 111.618 6.93274 111.776 6.95251C111.954 6.95251 112.142 6.98216 112.34 7.04147C112.557 7.08101 112.774 7.1502 112.992 7.24904C113.229 7.32812 113.456 7.44673 113.674 7.60488L112.369 13.7135H109.137C109.097 12.4878 108.989 11.6377 108.811 11.1633C108.633 10.6691 108.346 10.422 107.951 10.422C107.753 10.422 107.536 10.4714 107.298 10.5702C107.081 10.6493 106.854 10.8371 106.616 11.1336L104.719 20H98.6693L101.368 7.24904ZM119.765 14.0397C119.686 14.4746 119.626 14.8897 119.587 15.2851C119.567 15.6805 119.557 16.0363 119.557 16.3526C119.557 16.5306 119.567 16.7282 119.587 16.9457C119.607 17.1632 119.646 17.3707 119.705 17.5684C119.784 17.7463 119.883 17.9045 120.002 18.0429C120.14 18.1615 120.328 18.2208 120.565 18.2208C120.743 18.2208 120.941 18.1615 121.158 18.0429C121.396 17.9243 121.623 17.7562 121.84 17.5388C122.078 17.3213 122.295 17.0544 122.493 16.7381C122.71 16.4218 122.878 16.066 122.997 15.6706H127.86L127.089 18.8435C126.694 19.1005 126.239 19.318 125.725 19.4959C125.211 19.6738 124.667 19.8221 124.094 19.9407C123.521 20.0395 122.938 20.1087 122.345 20.1483C121.751 20.2076 121.188 20.2372 120.654 20.2372C119.666 20.2372 118.747 20.1483 117.896 19.9703C117.046 19.7924 116.305 19.486 115.672 19.0511C115.04 18.6162 114.536 18.0429 114.16 17.3312C113.804 16.5997 113.626 15.7003 113.626 14.6327C113.626 13.6641 113.775 12.7152 114.071 11.786C114.388 10.8569 114.902 10.0365 115.613 9.32478C116.345 8.59333 117.313 8.01015 118.519 7.57523C119.745 7.14031 121.267 6.92286 123.086 6.92286C125.063 6.92286 126.545 7.22927 127.534 7.84211C128.542 8.45495 129.046 9.41374 129.046 10.7185C129.046 11.2523 128.967 11.8354 128.809 12.468C128.651 13.0809 128.414 13.6048 128.097 14.0397H119.765ZM123.709 10.5109C123.709 9.89808 123.61 9.48293 123.412 9.26547C123.214 9.04802 122.977 8.93929 122.7 8.93929C122.384 8.93929 122.088 9.04802 121.811 9.26547C121.554 9.46316 121.317 9.73993 121.099 10.0958C120.882 10.4318 120.684 10.8272 120.506 11.2819C120.328 11.7168 120.18 12.1814 120.061 12.6756H123.442C123.481 12.4384 123.521 12.1913 123.56 11.9343C123.6 11.7168 123.629 11.4796 123.649 11.2226C123.689 10.9656 123.709 10.7284 123.709 10.5109Z" fill="#1D1D1B"/>
</svg>
