<svg width="140" height="27" viewBox="0 0 140 27" fill="none" xmlns="http://www.w3.org/2000/svg">
<path fill-rule="evenodd" clip-rule="evenodd" d="M0.787842 6.52193H4.35741H4.42231V6.52119C5.93362 6.48671 7.14815 5.25078 7.14815 3.73118V0.161621H7.92697V3.79609C7.92697 5.30153 9.14737 6.52193 10.6528 6.52193C12.1583 6.52193 13.3787 5.30153 13.3787 3.79609V0.161621H14.1575V3.79609C14.1575 5.30153 15.3779 6.52193 16.8833 6.52193C18.3888 6.52193 19.6092 5.30153 19.6092 3.79609V0.161621H20.5178V3.79609C20.5178 5.30153 21.7382 6.52193 23.2436 6.52193H26.7483V7.30075H23.1138C21.6084 7.30075 20.388 8.52115 20.388 10.0266C20.388 11.532 21.6084 12.7524 23.1138 12.7524H26.7483V13.5313H23.1138C21.6084 13.5313 20.388 14.7517 20.388 16.2571C20.388 17.7626 21.6084 18.983 23.1138 18.983H26.7483V19.7618H23.2436C21.7382 19.7618 20.5178 20.9822 20.5178 22.4876V22.6174V26.1221H19.6092V22.4876C19.6092 20.9822 18.3888 19.7618 16.8833 19.7618C15.3779 19.7618 14.1575 20.9822 14.1575 22.4876V26.1221H13.3787V22.4876C13.3787 20.9822 12.1583 19.7618 10.6528 19.7618C9.14737 19.7618 7.92697 20.9822 7.92697 22.4876V26.1221H7.14815V22.5525C7.14815 21.0329 5.93362 19.7969 4.42231 19.7625V19.7618H4.35741H0.787842V18.983H4.42231C5.92775 18.983 7.14815 17.7626 7.14815 16.2571C7.14815 14.7517 5.92775 13.5313 4.42231 13.5313H0.787842V12.7524H4.42231C5.92775 12.7524 7.14815 11.532 7.14815 10.0266C7.14815 8.52115 5.92775 7.30075 4.42231 7.30075H0.787842V6.52193ZM10.6528 12.7524C12.1583 12.7524 13.3787 11.532 13.3787 10.0266C13.3787 8.52115 12.1583 7.30075 10.6528 7.30075C9.14737 7.30075 7.92697 8.52115 7.92697 10.0266C7.92697 11.532 9.14737 12.7524 10.6528 12.7524ZM16.8833 12.7524C18.3888 12.7524 19.6092 11.532 19.6092 10.0266C19.6092 8.52115 18.3888 7.30075 16.8833 7.30075C15.3779 7.30075 14.1575 8.52115 14.1575 10.0266C14.1575 11.532 15.3779 12.7524 16.8833 12.7524ZM13.3787 16.2571C13.3787 17.7626 12.1583 18.983 10.6528 18.983C9.14737 18.983 7.92697 17.7626 7.92697 16.2571C7.92697 14.7517 9.14737 13.5313 10.6528 13.5313C12.1583 13.5313 13.3787 14.7517 13.3787 16.2571ZM16.8833 18.983C18.3888 18.983 19.6092 17.7626 19.6092 16.2571C19.6092 14.7517 18.3888 13.5313 16.8833 13.5313C15.3779 13.5313 14.1575 14.7517 14.1575 16.2571C14.1575 17.7626 15.3779 18.983 16.8833 18.983Z" fill="white"/>
<path d="M37.5885 20.7701C35.7825 20.7701 34.2023 20.4721 32.8478 19.8762C31.5114 19.2621 30.4098 18.3772 29.543 17.2214L32.0623 15.1356C32.8388 16.0205 33.6786 16.6887 34.5816 17.1402C35.4845 17.5916 36.55 17.8174 37.7781 17.8174C38.8436 17.8174 39.7195 17.5826 40.4057 17.1131C41.092 16.6255 41.4351 15.9844 41.4351 15.1897C41.4351 14.9008 41.3809 14.6389 41.2726 14.4042C41.1642 14.1694 40.9746 13.9436 40.7037 13.7269C40.4328 13.5102 40.0716 13.2935 39.6201 13.0768C39.1687 12.842 38.6088 12.5892 37.9406 12.3183C37.2182 12.0293 36.5591 11.7223 35.9631 11.3973C35.3671 11.0722 34.8524 10.711 34.419 10.3137C33.9856 9.91638 33.6515 9.46489 33.4167 8.95923C33.1819 8.45356 33.0646 7.87566 33.0646 7.22552C33.0646 6.34061 33.2542 5.52793 33.6334 4.7875C34.0127 4.04706 34.5274 3.42401 35.1775 2.91834C35.8457 2.39462 36.6223 1.98828 37.5072 1.69933C38.3921 1.41038 39.3402 1.2659 40.3516 1.2659C41.9408 1.2659 43.3043 1.52777 44.442 2.05149C45.5798 2.55715 46.5369 3.24341 47.3135 4.11027L44.9838 6.38576C44.2614 5.68144 43.512 5.14869 42.7354 4.7875C41.9769 4.40825 41.101 4.21862 40.1077 4.21862C39.5479 4.21862 39.0513 4.29086 38.6178 4.43534C38.1844 4.57981 37.8142 4.76944 37.5072 5.00421C37.2182 5.22092 36.9925 5.48279 36.83 5.7898C36.6674 6.07875 36.5862 6.38576 36.5862 6.71083C36.5862 7.01784 36.6494 7.28873 36.7758 7.5235C36.9022 7.75828 37.1099 7.98402 37.3988 8.20073C37.6878 8.41745 38.067 8.64319 38.5366 8.87796C39.0061 9.09468 39.584 9.33848 40.2703 9.60937C40.9927 9.89832 41.6428 10.2053 42.2207 10.5304C42.8167 10.8374 43.3133 11.1986 43.7106 11.614C44.126 12.0113 44.442 12.4628 44.6587 12.9684C44.8754 13.4741 44.9838 14.052 44.9838 14.7021C44.9838 15.6232 44.7851 16.4629 44.3878 17.2214C43.9905 17.9619 43.4578 18.603 42.7896 19.1448C42.1214 19.6685 41.3358 20.0748 40.4328 20.3638C39.5298 20.6347 38.5817 20.7701 37.5885 20.7701Z" fill="white"/>
<path d="M54.2949 18.007C54.945 18.007 55.5771 17.8535 56.1911 17.5465C56.8232 17.2395 57.374 16.8241 57.8435 16.3004C58.3311 15.7767 58.7194 15.1717 59.0084 14.4854C59.2973 13.7992 59.4418 13.0768 59.4418 12.3183C59.4418 11.2528 59.1077 10.3859 58.4395 9.71773C57.7713 9.04953 56.8954 8.71543 55.8118 8.71543C55.1437 8.71543 54.5116 8.86893 53.9156 9.17594C53.3196 9.46489 52.7959 9.87123 52.3444 10.395C51.893 10.9006 51.5318 11.5056 51.2609 12.2099C51.008 12.9142 50.8816 13.6637 50.8816 14.4583C50.8816 15.5419 51.1886 16.4088 51.8027 17.0589C52.4347 17.691 53.2655 18.007 54.2949 18.007ZM57.6268 18.5759C56.9947 19.2441 56.3085 19.7859 55.568 20.2012C54.8276 20.5985 53.9878 20.7972 53.0488 20.7972C52.2541 20.7972 51.5137 20.6618 50.8274 20.3909C50.1592 20.1019 49.5723 19.6956 49.0666 19.1718C48.561 18.6301 48.1637 17.989 47.8747 17.2485C47.6038 16.49 47.4684 15.6322 47.4684 14.675C47.4684 13.4109 47.6851 12.246 48.1185 11.1805C48.57 10.097 49.166 9.16691 49.9064 8.39036C50.6468 7.6138 51.4956 7.00881 52.4528 6.57538C53.4099 6.1239 54.4032 5.89815 55.4326 5.89815C56.6968 5.89815 57.7081 6.16904 58.4666 6.71083C59.2251 7.23455 59.821 7.90275 60.2545 8.71543L60.9317 6.19613H64.2095L58.9542 25.9171H55.6764L57.6268 18.5759Z" fill="white"/>
<path d="M69.491 20.7972C68.1546 20.7972 67.0891 20.4179 66.2945 19.6595C65.518 18.8829 65.1297 17.8354 65.1297 16.5171C65.1297 16.1379 65.1748 15.7315 65.2651 15.2981C65.3554 14.8466 65.4548 14.4132 65.5631 13.9978L67.649 6.19613H70.9268L68.7867 14.1333C68.7325 14.35 68.6874 14.5938 68.6513 14.8647C68.6152 15.1356 68.5971 15.3703 68.5971 15.569C68.5971 16.2914 68.8048 16.8512 69.2201 17.2485C69.6536 17.6278 70.2676 17.8174 71.0622 17.8174C71.9832 17.8174 72.7959 17.4923 73.5002 16.8422C74.2046 16.174 74.7012 15.3071 74.9901 14.2416L77.1573 6.19613H80.4351L76.6155 20.4992H73.3377L73.8253 18.6572C73.2474 19.2351 72.6063 19.7407 71.902 20.1741C71.2157 20.5895 70.4121 20.7972 69.491 20.7972Z" fill="white"/>
<path d="M86.0199 18.3863C86.5255 18.3863 87.0131 18.296 87.4827 18.1154C87.9522 17.9348 88.3766 17.691 88.7559 17.384C89.1532 17.0589 89.4873 16.6977 89.7582 16.3004C90.0471 15.885 90.2458 15.4606 90.3541 15.0272L90.5167 14.4042C90.0652 14.2597 89.5686 14.1333 89.0268 14.0249C88.485 13.9165 87.8981 13.8624 87.266 13.8624C86.1644 13.8624 85.2975 14.1062 84.6654 14.5938C84.0514 15.0633 83.7444 15.6773 83.7444 16.4358C83.7444 17.0679 83.943 17.5555 84.3404 17.8987C84.7557 18.2237 85.3156 18.3863 86.0199 18.3863ZM84.7467 20.7972C84.1327 20.7972 83.5548 20.6979 83.013 20.4992C82.4893 20.3186 82.0287 20.0658 81.6314 19.7407C81.2522 19.3976 80.9452 18.9822 80.7104 18.4946C80.4937 18.007 80.3853 17.4652 80.3853 16.8693C80.3853 16.0385 80.5388 15.3071 80.8458 14.675C81.1709 14.0249 81.6134 13.4831 82.1732 13.0497C82.7511 12.6163 83.4283 12.2912 84.2049 12.0745C84.9815 11.8397 85.8303 11.7223 86.7513 11.7223C87.5459 11.7223 88.2954 11.7855 88.9997 11.912C89.7221 12.0384 90.3993 12.2099 91.0314 12.4266L91.1126 12.1287C91.1668 11.9119 91.2029 11.7223 91.221 11.5598C91.2571 11.3973 91.2752 11.2076 91.2752 10.9909C91.2752 10.3588 91.0314 9.85317 90.5438 9.47392C90.0562 9.07662 89.2616 8.87796 88.1599 8.87796C87.4375 8.87796 86.7423 8.9502 86.0741 9.09468C85.4239 9.23915 84.8099 9.42877 84.232 9.66355L83.6902 6.95463C84.4306 6.64762 85.2253 6.41285 86.0741 6.25031C86.9229 6.06972 87.8349 5.97942 88.8101 5.97942C90.7063 5.97942 92.133 6.3677 93.0902 7.14425C94.0654 7.92081 94.553 9.01341 94.553 10.422C94.553 10.7652 94.5259 11.0993 94.4717 11.4243C94.4175 11.7494 94.3453 12.0925 94.255 12.4537L92.1149 20.4992H88.8913L89.3789 18.6301C88.7469 19.2983 88.0606 19.831 87.3202 20.2283C86.5797 20.6076 85.7219 20.7972 84.7467 20.7972Z" fill="white"/>
<path d="M101.163 20.8243C100.079 20.8243 98.9597 20.6166 97.8039 20.2012C96.6661 19.7678 95.6819 19.1177 94.8512 18.2508L96.8016 16.2462C97.5601 17.0047 98.3366 17.5284 99.1312 17.8174C99.9259 18.1063 100.684 18.2508 101.407 18.2508C102.057 18.2508 102.599 18.0973 103.032 17.7903C103.484 17.4833 103.709 17.0679 103.709 16.5442C103.709 16.183 103.538 15.876 103.195 15.6232C102.87 15.3523 102.346 15.0633 101.623 14.7563C101.027 14.5215 100.477 14.2777 99.971 14.0249C99.4653 13.7721 99.0319 13.4922 98.6707 13.1851C98.3095 12.8601 98.0206 12.4989 97.8039 12.1016C97.6052 11.6862 97.5059 11.2076 97.5059 10.6658C97.5059 9.99765 97.6323 9.3746 97.8851 8.79669C98.156 8.21879 98.5353 7.72216 99.0229 7.30679C99.5105 6.87336 100.097 6.53926 100.784 6.30449C101.47 6.05166 102.247 5.92524 103.113 5.92524C104.251 5.92524 105.299 6.13293 106.256 6.54829C107.231 6.9456 108.017 7.40612 108.612 7.92984L106.797 10.0428C105.479 8.99535 104.17 8.47162 102.87 8.47162C102.165 8.47162 101.623 8.62513 101.244 8.93214C100.865 9.23915 100.675 9.62743 100.675 10.097C100.675 10.4582 100.847 10.7742 101.19 11.0451C101.551 11.316 102.138 11.623 102.951 11.9661C103.493 12.2009 103.998 12.4447 104.468 12.6975C104.955 12.9504 105.371 13.2303 105.714 13.5373C106.075 13.8443 106.355 14.1965 106.554 14.5938C106.77 14.9911 106.879 15.4516 106.879 15.9753C106.879 16.7158 106.734 17.384 106.445 17.9799C106.156 18.5759 105.75 19.0906 105.226 19.524C104.721 19.9394 104.116 20.2644 103.411 20.4992C102.725 20.7159 101.976 20.8243 101.163 20.8243Z" fill="white"/>
<path d="M113.652 0.724121H116.93L114.98 8.0382C115.558 7.4603 116.19 6.96366 116.876 6.54829C117.58 6.11487 118.393 5.89815 119.314 5.89815C120.65 5.89815 121.707 6.28643 122.483 7.06299C123.278 7.82148 123.675 8.8599 123.675 10.1782C123.675 10.5575 123.63 10.9729 123.54 11.4243C123.45 11.8578 123.35 12.2822 123.242 12.6975L121.183 20.4992H117.905L120.018 12.5621C120.091 12.3273 120.145 12.0835 120.181 11.8307C120.217 11.5598 120.235 11.325 120.235 11.1264C120.235 10.404 120.018 9.85317 119.585 9.47392C119.151 9.07662 118.537 8.87796 117.743 8.87796C116.822 8.87796 116.009 9.21206 115.305 9.88026C114.6 10.5304 114.104 11.3882 113.815 12.4537L111.648 20.4992H108.37L113.652 0.724121Z" fill="white"/>
<path d="M136.52 12.2912C136.61 12.0564 136.655 11.7314 136.655 11.316C136.655 10.5756 136.43 9.93444 135.978 9.39266C135.527 8.85087 134.804 8.57998 133.811 8.57998C132.691 8.57998 131.716 8.93214 130.885 9.63646C130.055 10.3227 129.459 11.2076 129.098 12.2912H136.52ZM128.745 14.5396C128.763 15.6232 129.08 16.4991 129.694 17.1672C130.326 17.8174 131.247 18.1425 132.457 18.1425C133.143 18.1425 133.766 18.0341 134.326 17.8174C134.904 17.5826 135.5 17.2305 136.114 16.7609L137.685 18.8468C136.999 19.4066 136.213 19.8762 135.328 20.2554C134.443 20.6347 133.378 20.8243 132.132 20.8243C131.138 20.8243 130.235 20.6798 129.423 20.3909C128.628 20.1019 127.951 19.6865 127.391 19.1448C126.831 18.603 126.398 17.9438 126.091 17.1672C125.784 16.3907 125.63 15.5238 125.63 14.5667C125.63 13.5192 125.829 12.4808 126.226 11.4514C126.642 10.404 127.219 9.47392 127.96 8.66125C128.718 7.83051 129.612 7.16231 130.642 6.65665C131.671 6.15098 132.809 5.89815 134.055 5.89815C134.976 5.89815 135.789 6.04263 136.493 6.33158C137.197 6.62053 137.793 7.01784 138.281 7.5235C138.768 8.01111 139.139 8.59804 139.391 9.2843C139.644 9.9525 139.771 10.6749 139.771 11.4514C139.771 11.9571 139.717 12.4718 139.608 12.9955C139.5 13.5012 139.346 14.0159 139.148 14.5396H128.745Z" fill="white"/>
</svg>
