<svg width="141" height="27" viewBox="0 0 141 27" fill="none" xmlns="http://www.w3.org/2000/svg">
<path fill-rule="evenodd" clip-rule="evenodd" d="M13.2725 0.67334H0.292236L13.2725 13.6536H0.292236L13.2725 26.6338H26.2527L13.2725 13.6536H26.2527L13.2725 0.67334Z" fill="white"/>
<path d="M47.9168 18.3581L47.8904 20.7721C47.8904 21.0498 47.3547 21.4356 46.2833 21.9294C44.2727 22.8553 42.2975 23.3183 40.3575 23.3183C38.2279 23.3183 36.3805 22.8333 34.8153 21.8633C33.109 20.8051 31.9318 19.2708 31.2837 17.2603C30.9398 16.1844 30.7678 15.0227 30.7678 13.7749C30.7678 12.5271 30.9354 11.4006 31.2705 10.3954C31.6055 9.3857 32.0729 8.51271 32.6725 7.7764C33.2766 7.03568 33.9908 6.40518 34.8153 5.88491C36.4555 4.84879 38.4109 4.33073 40.6816 4.33073C42.7935 4.33073 44.6277 4.87083 46.1841 5.95105C46.4001 6.11859 46.5081 6.10978 46.5081 5.9246V5.25001C46.5081 5.07806 46.5368 4.96342 46.5941 4.90611C46.6558 4.84438 46.7925 4.81352 47.0041 4.81352C47.2158 4.81352 47.3657 4.84218 47.4539 4.89949C47.5464 4.95681 47.5927 5.07365 47.5927 5.25001L47.5068 10.2631C47.5068 10.4306 47.4715 10.5409 47.4009 10.5938C47.3304 10.6423 47.1827 10.6665 46.9578 10.6665C46.733 10.6665 46.5831 10.6445 46.5081 10.6004C46.4332 10.5519 46.3957 10.4571 46.3957 10.316L46.5081 8.09385C46.5081 7.88221 46.1157 7.46335 45.3309 6.83727C43.9729 5.76146 42.3879 5.22356 40.5757 5.22356C39.619 5.22356 38.7151 5.4396 37.8642 5.87169C37.0176 6.30377 36.2879 6.89459 35.6751 7.64412C35.0666 8.38925 34.5839 9.2909 34.2267 10.3491C33.8696 11.4028 33.691 12.4544 33.691 13.5037C33.691 14.5531 33.8079 15.5077 34.0415 16.3674C34.2752 17.2272 34.6147 18.0164 35.06 18.7351C35.5053 19.4493 36.0278 20.0776 36.6274 20.6199C37.9017 21.7707 39.3985 22.3461 41.1181 22.3461C42.6392 22.3461 43.8627 22.0661 44.7886 21.5062C45.2163 21.246 45.4367 21.0454 45.4499 20.9043C45.5029 20.4414 45.5293 19.6544 45.5293 18.5433C45.5293 17.4278 45.4676 16.8701 45.3441 16.8701H42.9831C42.7847 16.8701 42.6855 16.7091 42.6855 16.3873C42.6855 16.061 42.7759 15.8979 42.9566 15.8979L46.5875 15.9772L49.0279 15.8979C49.2263 15.8979 49.3255 16.061 49.3255 16.3873C49.3255 16.7091 49.2263 16.8701 49.0279 16.8701H48.188C48.0733 16.8701 47.9984 16.9803 47.9631 17.2007C47.9322 17.4168 47.9168 17.8026 47.9168 18.3581Z" fill="white"/>
<path d="M50.5363 13.3781C50.4084 13.3781 50.3445 13.356 50.3445 13.312C50.3445 13.2679 50.3511 13.215 50.3644 13.1532C50.3776 13.0871 50.393 13.0165 50.4107 12.9416C50.4327 12.8666 50.4503 12.7939 50.4636 12.7233C50.49 12.6175 50.6487 12.5646 50.9397 12.5646C52.4476 12.5117 53.3515 12.4853 53.6513 12.4853C53.9555 12.4853 54.1209 12.4963 54.1473 12.5183C54.1782 12.536 54.1936 12.6043 54.1936 12.7233L54.1672 14.2974V14.4826L54.1738 14.5884C54.1738 14.5619 54.2068 14.4826 54.273 14.3503C54.5728 13.6316 54.9674 13.0606 55.4568 12.6374C55.9462 12.2097 56.4025 11.9959 56.8258 11.9959C57.2535 11.9959 57.6393 12.148 57.9832 12.4522C58.3271 12.7564 58.499 13.0121 58.499 13.2194C58.499 13.4222 58.3734 13.6801 58.1221 13.9931C57.8708 14.3062 57.6525 14.4627 57.4673 14.4627C57.2822 14.4627 57.1102 14.4186 56.9515 14.3304C56.7927 14.2379 56.6539 14.1386 56.5348 14.0328C56.2174 13.7418 55.9683 13.5963 55.7875 13.5963C54.8131 13.5963 54.3259 15.4107 54.3259 19.0393C54.3259 21.0057 54.4075 21.989 54.5706 21.989H56.3563C56.5062 21.989 56.6032 22.0242 56.6472 22.0948C56.6913 22.1609 56.7134 22.2535 56.7134 22.3725C56.7134 22.4872 56.7112 22.5643 56.7068 22.604C56.7024 22.6437 56.6891 22.6878 56.6671 22.7363C56.6274 22.8333 56.5238 22.8818 56.3563 22.8818L53.4066 22.8289L50.9926 22.8818C50.8427 22.8818 50.7457 22.8465 50.7016 22.776C50.662 22.7098 50.6421 22.615 50.6421 22.4916C50.6421 22.3637 50.6443 22.2799 50.6487 22.2403C50.6531 22.2006 50.6642 22.1587 50.6818 22.1146C50.7127 22.0308 50.8075 21.989 50.9662 21.989H52.1566C52.3021 21.989 52.3749 20.545 52.3749 17.6571C52.3749 14.7691 52.3021 13.3252 52.1566 13.3252L50.5363 13.3781Z" fill="white"/>
<path d="M67.0641 16.7378L61.0193 16.5989C60.9664 16.7312 60.94 17.0817 60.94 17.6505C60.94 18.2192 61.0502 18.7858 61.2707 19.3501C61.4911 19.9145 61.7821 20.3774 62.1437 20.739C62.9152 21.5018 63.8059 21.8831 64.8155 21.8831C66.0457 21.8831 67.1656 21.3563 68.1752 20.3025C68.2943 20.1834 68.3692 20.1239 68.4001 20.1239C68.431 20.1239 68.5257 20.1945 68.6845 20.3356C68.8476 20.4722 68.9292 20.5582 68.9292 20.5935C68.9292 20.6288 68.8564 20.739 68.7109 20.9242C68.5698 21.1049 68.3538 21.3276 68.0628 21.5921C67.7762 21.8523 67.4477 22.1058 67.0774 22.3527C66.1867 22.9435 65.2719 23.2389 64.3327 23.2389C63.398 23.2389 62.5956 23.1022 61.9254 22.8289C61.2552 22.5599 60.6997 22.1829 60.2588 21.698C59.8223 21.2086 59.4872 20.6288 59.2535 19.9586C59.0243 19.284 58.9096 18.5433 58.9096 17.7364C58.9096 16.9296 59.0463 16.1712 59.3197 15.4614C59.593 14.7515 59.97 14.1386 60.4506 13.6228C61.4955 12.5029 62.8403 11.9429 64.4849 11.9429C65.8208 11.9429 66.8525 12.3883 67.58 13.2789C68.2634 14.1166 68.6051 15.1329 68.6051 16.3277C68.6051 16.6011 68.0915 16.7378 67.0641 16.7378ZM65.9663 15.8582C66.3719 15.8582 66.5747 15.8251 66.5747 15.759C66.5747 14.4627 66.1735 13.5633 65.3711 13.0606C64.9831 12.8181 64.5797 12.6969 64.1608 12.6969C63.7463 12.6969 63.3473 12.7983 62.9637 13.0011C62.5846 13.2039 62.2627 13.4619 61.9982 13.7749C61.4338 14.4495 61.1252 15.1395 61.0723 15.8449C61.0723 15.9331 61.1538 15.9772 61.317 15.9772L65.9663 15.8582Z" fill="white"/>
<path d="M78.0035 16.7378L71.9587 16.5989C71.9058 16.7312 71.8794 17.0817 71.8794 17.6505C71.8794 18.2192 71.9896 18.7858 72.21 19.3501C72.4305 19.9145 72.7215 20.3774 73.083 20.739C73.8546 21.5018 74.7452 21.8831 75.7549 21.8831C76.985 21.8831 78.1049 21.3563 79.1146 20.3025C79.2336 20.1834 79.3086 20.1239 79.3395 20.1239C79.3703 20.1239 79.4651 20.1945 79.6238 20.3356C79.787 20.4722 79.8685 20.5582 79.8685 20.5935C79.8685 20.6288 79.7958 20.739 79.6503 20.9242C79.5092 21.1049 79.2932 21.3276 79.0022 21.5921C78.7156 21.8523 78.3871 22.1058 78.0167 22.3527C77.1261 22.9435 76.2112 23.2389 75.2721 23.2389C74.3374 23.2389 73.535 23.1022 72.8648 22.8289C72.1946 22.5599 71.6391 22.1829 71.1982 21.698C70.7617 21.2086 70.4266 20.6288 70.1929 19.9586C69.9636 19.284 69.849 18.5433 69.849 17.7364C69.849 16.9296 69.9857 16.1712 70.259 15.4614C70.5324 14.7515 70.9094 14.1386 71.3899 13.6228C72.4349 12.5029 73.7797 11.9429 75.4242 11.9429C76.7602 11.9429 77.7919 12.3883 78.5194 13.2789C79.2028 14.1166 79.5445 15.1329 79.5445 16.3277C79.5445 16.6011 79.0308 16.7378 78.0035 16.7378ZM76.9057 15.8582C77.3113 15.8582 77.5141 15.8251 77.5141 15.759C77.5141 14.4627 77.1129 13.5633 76.3104 13.0606C75.9225 12.8181 75.519 12.6969 75.1002 12.6969C74.6857 12.6969 74.2867 12.7983 73.9031 13.0011C73.5239 13.2039 73.2021 13.4619 72.9375 13.7749C72.3732 14.4495 72.0645 15.1395 72.0116 15.8449C72.0116 15.9331 72.0932 15.9772 72.2563 15.9772L76.9057 15.8582Z" fill="white"/>
<path d="M82.369 13.345L80.7024 13.4574C80.6142 13.4574 80.5701 13.4156 80.5701 13.3318C80.5701 13.248 80.6076 13.1113 80.6825 12.9218C80.7575 12.7278 80.8126 12.6197 80.8479 12.5977C80.8876 12.5712 80.9802 12.5536 81.1257 12.5448C81.2712 12.5316 81.7451 12.5007 82.5476 12.4522C83.3544 12.3993 83.8372 12.3662 83.9959 12.353C84.1547 12.3398 84.2495 12.3376 84.2803 12.3464C84.3112 12.3508 84.3376 12.353 84.3597 12.353C84.3861 12.3486 84.4082 12.353 84.4258 12.3662C84.4435 12.3794 84.4589 12.3883 84.4721 12.3927C84.4853 12.3927 84.4942 12.4037 84.4986 12.4257C84.5074 12.4434 84.514 12.4566 84.5184 12.4654C84.5228 12.4742 84.525 12.4919 84.525 12.5183V13.6492C84.525 13.7551 84.5361 13.808 84.5581 13.808C84.5845 13.808 84.6066 13.8014 84.6242 13.7881C84.6419 13.7749 84.6595 13.7617 84.6771 13.7484C84.73 13.7088 84.7852 13.6713 84.8425 13.636C84.9042 13.5963 85.0365 13.5082 85.2393 13.3715C85.4421 13.2348 85.603 13.129 85.7221 13.054C85.8411 12.9791 86.0109 12.8843 86.2313 12.7696C86.4562 12.655 86.6634 12.5668 86.853 12.5051C87.3336 12.3464 87.8076 12.267 88.2749 12.267C88.7467 12.267 89.1611 12.3133 89.5183 12.4059C89.8798 12.4941 90.1862 12.6153 90.4376 12.7696C90.6933 12.9195 90.9137 13.1157 91.0989 13.3582C91.2885 13.5963 91.4406 13.8477 91.5553 14.1122C91.6699 14.3723 91.7603 14.6766 91.8264 15.0249C91.941 15.6245 91.9984 16.3299 91.9984 17.1412L91.8661 21.7442C91.8661 21.8677 91.8749 21.9405 91.8925 21.9625C91.9102 21.9801 91.9741 21.989 92.0843 21.989H92.8978C93.0742 21.989 93.1932 22.0198 93.2549 22.0815C93.3211 22.1389 93.3541 22.2491 93.3541 22.4122C93.3541 22.5709 93.3299 22.6878 93.2814 22.7627C93.2329 22.8421 93.1227 22.8818 92.9507 22.8818L90.9203 22.8289L88.5593 22.8818C88.3697 22.8818 88.2551 22.8553 88.2154 22.8024C88.1757 22.7495 88.1559 22.6327 88.1559 22.4519C88.1559 22.1433 88.2992 21.989 88.5858 21.989H89.7497C89.86 21.989 89.9151 21.0564 89.9151 19.1914C89.9151 17.322 89.893 16.2241 89.849 15.8979C89.8049 15.5716 89.7255 15.2585 89.6109 14.9587C89.4962 14.6589 89.3463 14.4098 89.1611 14.2114C88.7599 13.7793 88.1713 13.5633 87.3953 13.5633C86.7957 13.5633 86.0969 13.7683 85.2988 14.1783C84.924 14.3723 84.7102 14.5068 84.6573 14.5818C84.6044 14.6523 84.5779 14.7471 84.5779 14.8661L84.5515 21.5591C84.5515 21.7707 84.5647 21.8964 84.5912 21.936C84.6176 21.9713 84.6948 21.989 84.8226 21.989H85.8544C86.0263 21.989 86.1321 22.022 86.1718 22.0882C86.2115 22.1499 86.2313 22.2425 86.2313 22.3659C86.2313 22.485 86.2291 22.5643 86.2247 22.604C86.2203 22.6437 86.2093 22.6878 86.1916 22.7363C86.152 22.8333 86.0484 22.8818 85.8808 22.8818L83.6057 22.8289L81.1389 22.8818C80.9669 22.8818 80.8677 22.8509 80.8413 22.7892C80.806 22.701 80.7884 22.5798 80.7884 22.4254C80.7884 22.2711 80.8082 22.1609 80.8479 22.0948C80.892 22.0242 80.989 21.989 81.1389 21.989H82.3558C82.5013 21.989 82.574 20.739 82.574 18.2391C82.574 15.7391 82.563 14.3348 82.541 14.0262C82.5233 13.7132 82.5101 13.5368 82.5013 13.4971C82.4925 13.4574 82.4836 13.4266 82.4748 13.4045C82.4528 13.3649 82.4175 13.345 82.369 13.345Z" fill="white"/>
<path d="M92.1642 7.98803C92.151 8.15557 92.1201 8.26139 92.0716 8.30548C92.0231 8.34516 91.86 8.365 91.5822 8.365C91.3045 8.365 91.1656 8.2658 91.1656 8.06739C91.1656 8.05417 91.192 7.85135 91.2449 7.45894C91.4301 6.15828 91.5381 5.29851 91.569 4.87965C91.5999 4.45638 91.644 4.21389 91.7013 4.15216C91.763 4.09043 91.9195 4.05957 92.1708 4.05957C92.4222 4.05957 92.5478 4.14114 92.5478 4.30427V4.57543C92.5478 4.66361 93.4958 4.7077 95.3916 4.7077H105.061C106.974 4.7077 107.933 4.62834 107.938 4.46961C107.946 4.31089 107.982 4.20286 108.043 4.14555C108.105 4.08823 108.204 4.05957 108.341 4.05957C108.478 4.05957 108.57 4.06177 108.619 4.06618C108.667 4.07059 108.718 4.08382 108.771 4.10587C108.863 4.14114 108.91 4.25136 108.91 4.43654L108.797 8.09385C108.797 8.22171 108.764 8.29887 108.698 8.32532C108.632 8.35178 108.5 8.365 108.301 8.365C108.107 8.365 107.975 8.33855 107.905 8.28564C107.834 8.23273 107.799 8.13353 107.799 7.98803L107.878 5.81878C107.878 5.69092 106.884 5.62699 104.895 5.62699H101.78C101.666 5.62699 101.602 6.28834 101.589 7.61106C101.58 8.92936 101.573 9.66788 101.569 9.8266L101.403 20.2562C101.403 21.3761 101.421 21.936 101.456 21.936H103.381C103.535 21.936 103.637 21.9669 103.685 22.0286C103.734 22.0904 103.758 22.216 103.758 22.4056C103.758 22.5952 103.734 22.7275 103.685 22.8024C103.637 22.8774 103.535 22.9149 103.381 22.9149L100.134 22.8289L96.8003 22.9149C96.6196 22.9149 96.5049 22.8796 96.4564 22.809C96.4123 22.7429 96.3903 22.604 96.3903 22.3924C96.3903 22.1763 96.419 22.0463 96.4763 22.0022C96.538 21.9581 96.6813 21.936 96.9062 21.936H98.586C98.6918 21.936 98.7756 20.1857 98.8373 16.6849C98.9035 13.1797 98.9365 10.4615 98.9365 8.53034C98.9365 6.59477 98.8836 5.62699 98.7778 5.62699H94.9287C93.2577 5.62699 92.4089 5.71737 92.3825 5.89814L92.1642 7.98803Z" fill="white"/>
<path d="M115.028 16.7378L108.983 16.5989C108.93 16.7312 108.904 17.0817 108.904 17.6505C108.904 18.2192 109.014 18.7858 109.234 19.3501C109.455 19.9145 109.746 20.3774 110.107 20.739C110.879 21.5018 111.77 21.8831 112.779 21.8831C114.009 21.8831 115.129 21.3563 116.139 20.3025C116.258 20.1834 116.333 20.1239 116.364 20.1239C116.395 20.1239 116.489 20.1945 116.648 20.3356C116.811 20.4722 116.893 20.5582 116.893 20.5935C116.893 20.6288 116.82 20.739 116.675 20.9242C116.534 21.1049 116.318 21.3276 116.027 21.5921C115.74 21.8523 115.411 22.1058 115.041 22.3527C114.15 22.9435 113.236 23.2389 112.296 23.2389C111.362 23.2389 110.559 23.1022 109.889 22.8289C109.219 22.5599 108.663 22.1829 108.223 21.698C107.786 21.2086 107.451 20.6288 107.217 19.9586C106.988 19.284 106.873 18.5433 106.873 17.7364C106.873 16.9296 107.01 16.1712 107.283 15.4614C107.557 14.7515 107.934 14.1386 108.414 13.6228C109.459 12.5029 110.804 11.9429 112.449 11.9429C113.785 11.9429 114.816 12.3883 115.544 13.2789C116.227 14.1166 116.569 15.1329 116.569 16.3277C116.569 16.6011 116.055 16.7378 115.028 16.7378ZM113.93 15.8582C114.336 15.8582 114.538 15.8251 114.538 15.759C114.538 14.4627 114.137 13.5633 113.335 13.0606C112.947 12.8181 112.543 12.6969 112.125 12.6969C111.71 12.6969 111.311 12.7983 110.927 13.0011C110.548 13.2039 110.226 13.4619 109.962 13.7749C109.398 14.4495 109.089 15.1395 109.036 15.8449C109.036 15.9331 109.118 15.9772 109.281 15.9772L113.93 15.8582Z" fill="white"/>
<path d="M123.58 11.857C124.171 11.857 124.748 11.9782 125.312 12.2207C125.881 12.4588 126.349 12.7873 126.715 13.2061C127.081 13.625 127.263 14.0703 127.263 14.5421C127.263 14.7846 127.133 15.0072 126.873 15.21C126.613 15.4129 126.349 15.5143 126.08 15.5143C125.815 15.5143 125.652 15.4261 125.59 15.2497C125.529 15.0734 125.469 14.8926 125.412 14.7074C125.354 14.5178 125.308 14.3679 125.273 14.2577C125.242 14.1431 125.196 14.0086 125.134 13.8543C125.072 13.6999 125.01 13.5787 124.949 13.4905C124.891 13.3979 124.812 13.2987 124.711 13.1929C124.614 13.0871 124.508 13.0055 124.393 12.9482C124.115 12.8203 123.774 12.7564 123.368 12.7564C122.967 12.7564 122.572 12.8468 122.184 13.0276C121.801 13.2039 121.468 13.442 121.186 13.7418C120.908 14.0416 120.665 14.3856 120.458 14.7736C120.048 15.5407 119.843 16.2638 119.843 16.9428C119.843 17.6218 119.896 18.1773 120.002 18.6094C120.108 19.0371 120.271 19.4427 120.491 19.8263C120.716 20.2055 120.987 20.5362 121.305 20.8183C121.992 21.4356 122.868 21.7442 123.93 21.7442C124.936 21.7442 125.961 21.5018 127.006 21.0168C127.125 20.9638 127.215 20.9374 127.277 20.9374C127.413 20.9374 127.482 21.0366 127.482 21.235C127.482 21.3629 127.288 21.5635 126.9 21.8368C126.516 22.1058 126.157 22.324 125.822 22.4916C125.019 22.8972 124.12 23.1 123.123 23.1C121.523 23.1 120.255 22.6349 119.321 21.7046C118.386 20.7699 117.919 19.4427 117.919 17.7232C117.919 16.0037 118.489 14.5972 119.631 13.5037C120.778 12.4059 122.094 11.857 123.58 11.857Z" fill="white"/>
<path d="M129.625 5.60053L128.025 5.79233C127.919 5.79233 127.866 5.67108 127.866 5.42858C127.866 5.18167 127.875 5.03176 127.892 4.97886C127.914 4.92154 128.13 4.86422 128.54 4.8069C128.955 4.74518 129.614 4.6592 130.518 4.54897C131.426 4.43875 131.931 4.38364 132.032 4.38364C132.134 4.38364 132.196 4.40788 132.218 4.45638C132.24 4.50488 132.251 4.57543 132.251 4.66802C132.251 4.7562 132.233 5.2456 132.198 6.13623C132.088 8.92716 132.032 10.8319 132.032 11.8504C132.032 12.8688 132.037 13.3847 132.046 13.3979C132.054 13.4067 132.209 13.3296 132.509 13.1665C132.808 13.0033 133.307 12.8093 134.003 12.5845C134.704 12.3552 135.297 12.2406 135.782 12.2406C136.267 12.2406 136.682 12.2957 137.026 12.4059C137.374 12.5161 137.667 12.6616 137.905 12.8424C138.143 13.0232 138.348 13.2568 138.52 13.5434C138.697 13.83 138.836 14.1232 138.937 14.423C139.038 14.7228 139.12 15.0778 139.182 15.4878C139.274 16.1359 139.321 16.9318 139.321 17.8753V20.1768C139.321 21.3849 139.349 21.989 139.407 21.989H140.326C140.489 21.989 140.593 22.022 140.637 22.0882C140.681 22.1543 140.703 22.2667 140.703 22.4254C140.703 22.7297 140.577 22.8818 140.326 22.8818L138.322 22.8289L135.934 22.8818C135.762 22.8818 135.657 22.8487 135.617 22.7826C135.577 22.7209 135.557 22.6084 135.557 22.4453C135.557 22.2777 135.577 22.1609 135.617 22.0948C135.657 22.0242 135.745 21.989 135.882 21.989H137.184C137.273 21.989 137.317 21.0608 137.317 19.2046C137.317 17.344 137.286 16.2418 137.224 15.8979C137.162 15.5495 137.065 15.2299 136.933 14.9389C136.801 14.6435 136.638 14.39 136.444 14.1783C136.029 13.733 135.443 13.5104 134.684 13.5104C133.931 13.5104 133.174 13.6999 132.416 14.0791C132.16 14.207 132.032 14.315 132.032 14.4032C132.054 17.6923 132.065 19.78 132.065 20.6662C132.065 21.548 132.101 21.989 132.171 21.989H133.415C133.573 21.989 133.673 22.022 133.712 22.0882C133.752 22.1499 133.772 22.2425 133.772 22.3659C133.772 22.485 133.77 22.5643 133.765 22.604C133.761 22.6437 133.748 22.6878 133.725 22.7363C133.686 22.8333 133.582 22.8818 133.415 22.8818L131.087 22.8289L128.706 22.8818C128.472 22.8818 128.346 22.798 128.329 22.6305C128.324 22.5864 128.322 22.518 128.322 22.4254C128.322 22.1345 128.459 21.989 128.732 21.989H129.896C129.967 21.989 130.002 20.7037 130.002 18.1332C130.002 12.7895 129.962 9.38129 129.883 7.90867C129.804 6.43605 129.755 5.6843 129.738 5.65344C129.72 5.61817 129.682 5.60053 129.625 5.60053Z" fill="white"/>
</svg>
