<svg width="112" height="19" viewBox="0 0 112 19" fill="none" xmlns="http://www.w3.org/2000/svg">
<path d="M11.1708 0.243164C12.4891 0.243164 13.5269 0.663892 14.2842 1.50535C15.0415 2.3468 15.4482 3.56692 15.5043 5.16568C16.4018 3.39862 17.3976 2.13644 18.4915 1.37913C19.5854 0.621819 20.8896 0.243164 22.4042 0.243164C23.3579 0.243164 24.1713 0.397431 24.8445 0.705964C25.5457 0.98645 26.1207 1.39315 26.5694 1.92608C27.0182 2.43095 27.3548 3.03399 27.5792 3.73521C27.8036 4.40837 27.9158 5.13763 27.9158 5.92299C27.9158 6.7925 27.7896 7.76017 27.5371 8.82602C27.3127 9.86381 26.9902 10.9156 26.5694 11.9815C26.1768 13.0193 25.6999 14.015 25.139 14.9686C24.606 15.8942 24.017 16.6796 23.3719 17.3247C23.0634 17.6333 22.7829 17.8296 22.5304 17.9137C22.278 17.9979 22.0116 18.04 21.7311 18.04C21.3664 18.04 21.0439 17.9137 20.7634 17.6613C20.511 17.4089 20.3847 17.1424 20.3847 16.8619C20.3847 16.7217 20.4128 16.5814 20.4689 16.4412C20.553 16.2729 20.7073 16.0485 20.9317 15.768C21.2402 15.3473 21.5347 14.8144 21.8152 14.1693C22.1237 13.5241 22.3902 12.8089 22.6146 12.0236C22.867 11.2382 23.0634 10.4108 23.2036 9.54125C23.3439 8.67175 23.414 7.83029 23.414 7.01689C23.414 4.15593 22.5164 2.72546 20.7213 2.72546C20.0762 2.72546 19.4451 2.9779 18.828 3.48277C18.239 3.95959 17.7061 4.63276 17.2293 5.50226C16.7525 6.34372 16.3598 7.35347 16.0512 8.53151C15.7708 9.6815 15.6305 10.9437 15.6305 12.3181V16.1888C15.6305 16.6656 15.4622 17.0583 15.1256 17.3668C14.8171 17.7034 14.2842 17.8717 13.5269 17.8717C12.7976 17.8717 12.2647 17.7034 11.9281 17.3668C11.6196 17.0583 11.4653 16.6656 11.4653 16.1888V6.42787C11.4653 5.05349 11.311 4.09984 11.0025 3.56692C10.722 3.00594 10.2592 2.72546 9.6141 2.72546C9.05313 2.72546 8.49216 2.9779 7.93119 3.48277C7.39826 3.98764 6.90741 4.67483 6.45864 5.54434C6.00986 6.38579 5.64523 7.39554 5.36474 8.57358C5.08426 9.72357 4.94402 10.9577 4.94402 12.276V16.1888C4.94402 16.6656 4.77573 17.0583 4.43914 17.3668C4.13061 17.7034 3.59769 17.8717 2.84038 17.8717C2.11111 17.8717 1.57819 17.7034 1.24161 17.3668C0.933076 17.0583 0.778809 16.6656 0.778809 16.1888V2.30473C0.778809 1.82791 0.933076 1.43523 1.24161 1.12669C1.55014 0.79011 2.05502 0.621818 2.75623 0.621818C3.48549 0.621818 4.00439 0.79011 4.31292 1.12669C4.62146 1.43523 4.77573 1.82791 4.77573 2.30473V5.62848C5.44889 3.66509 6.30437 2.27668 7.34217 1.46327C8.37996 0.649868 9.65617 0.243164 11.1708 0.243164Z" fill="white"/>
<path d="M46.4081 0.243164C48.9885 0.243164 50.8398 0.719989 51.9617 1.67364C53.1117 2.62729 53.6867 3.87545 53.6867 5.41812C53.6867 6.84859 53.294 8.30712 52.5086 9.79369C51.7233 11.2522 50.6715 12.5985 49.3532 13.8327C48.0349 15.0388 46.4922 16.0345 44.7252 16.8199C42.9581 17.5772 41.0929 17.9558 39.1295 17.9558C36.5771 17.9558 34.7259 17.479 33.5759 16.5253C32.4539 15.5436 31.893 14.2815 31.893 12.7388C31.893 11.3083 32.2856 9.84979 33.071 8.36321C33.8564 6.87664 34.9082 5.53031 36.2265 4.32423C37.5728 3.11814 39.1155 2.13644 40.8545 1.37913C42.6215 0.621819 44.4727 0.243164 46.4081 0.243164ZM44.641 2.89375C43.463 2.89375 42.3691 3.11814 41.3593 3.56692C40.3776 4.01569 39.5222 4.61874 38.7929 5.37605C38.0636 6.13336 37.4886 7.00286 37.0679 7.98456C36.6472 8.96626 36.4368 9.97601 36.4368 11.0138C36.4368 12.3601 36.8295 13.412 37.6149 14.1693C38.4002 14.9266 39.4661 15.3052 40.8124 15.3052C41.9624 15.3052 43.0423 15.0808 44.052 14.6321C45.0618 14.1552 45.9453 13.5382 46.7026 12.7809C47.4599 12.0236 48.0629 11.154 48.5117 10.1723C48.9605 9.19065 49.1849 8.16688 49.1849 7.10103C49.1849 5.83885 48.7782 4.8291 47.9648 4.07179C47.1794 3.28643 46.0715 2.89375 44.641 2.89375Z" fill="white"/>
<path d="M68.6922 0.243164C70.0105 0.243164 71.0483 0.663892 71.8056 1.50535C72.5629 2.3468 72.9696 3.56692 73.0257 5.16568C73.9233 3.39862 74.919 2.13644 76.0129 1.37913C77.1068 0.621819 78.411 0.243164 79.9257 0.243164C80.8793 0.243164 81.6927 0.397431 82.3659 0.705964C83.0671 0.98645 83.6421 1.39315 84.0909 1.92608C84.5396 2.43095 84.8762 3.03399 85.1006 3.73521C85.325 4.40837 85.4372 5.13763 85.4372 5.92299C85.4372 6.7925 85.311 7.76017 85.0585 8.82602C84.8341 9.86381 84.5116 10.9156 84.0909 11.9815C83.6982 13.0193 83.2214 14.015 82.6604 14.9686C82.1275 15.8942 81.5384 16.6796 80.8933 17.3247C80.5848 17.6333 80.3043 17.8296 80.0519 17.9137C79.7994 17.9979 79.533 18.04 79.2525 18.04C78.8878 18.04 78.5653 17.9137 78.2848 17.6613C78.0324 17.4089 77.9062 17.1424 77.9062 16.8619C77.9062 16.7217 77.9342 16.5814 77.9903 16.4412C78.0744 16.2729 78.2287 16.0485 78.4531 15.768C78.7616 15.3473 79.0561 14.8144 79.3366 14.1693C79.6452 13.5241 79.9116 12.8089 80.136 12.0236C80.3885 11.2382 80.5848 10.4108 80.725 9.54125C80.8653 8.67175 80.9354 7.83029 80.9354 7.01689C80.9354 4.15593 80.0378 2.72546 78.2427 2.72546C77.5976 2.72546 76.9665 2.9779 76.3495 3.48277C75.7604 3.95959 75.2275 4.63276 74.7507 5.50226C74.2739 6.34372 73.8812 7.35347 73.5727 8.53151C73.2922 9.6815 73.1519 10.9437 73.1519 12.3181V16.1888C73.1519 16.6656 72.9836 17.0583 72.647 17.3668C72.3385 17.7034 71.8056 17.8717 71.0483 17.8717C70.319 17.8717 69.7861 17.7034 69.4495 17.3668C69.141 17.0583 68.9867 16.6656 68.9867 16.1888V6.42787C68.9867 5.05349 68.8325 4.09984 68.5239 3.56692C68.2434 3.00594 67.7806 2.72546 67.1355 2.72546C66.5745 2.72546 66.0136 2.9779 65.4526 3.48277C64.9197 3.98764 64.4288 4.67483 63.9801 5.54434C63.5313 6.38579 63.1666 7.39554 62.8862 8.57358C62.6057 9.72357 62.4654 10.9577 62.4654 12.276V16.1888C62.4654 16.6656 62.2971 17.0583 61.9606 17.3668C61.652 17.7034 61.1191 17.8717 60.3618 17.8717C59.6325 17.8717 59.0996 17.7034 58.763 17.3668C58.4545 17.0583 58.3002 16.6656 58.3002 16.1888V2.30473C58.3002 1.82791 58.4545 1.43523 58.763 1.12669C59.0716 0.79011 59.5764 0.621818 60.2776 0.621818C61.0069 0.621818 61.5258 0.79011 61.8343 1.12669C62.1429 1.43523 62.2971 1.82791 62.2971 2.30473V5.62848C62.9703 3.66509 63.8258 2.27668 64.8636 1.46327C65.9014 0.649868 67.1776 0.243164 68.6922 0.243164Z" fill="white"/>
<path d="M103.929 0.243164C106.51 0.243164 108.361 0.719989 109.483 1.67364C110.633 2.62729 111.208 3.87545 111.208 5.41812C111.208 6.84859 110.815 8.30712 110.03 9.79369C109.245 11.2522 108.193 12.5985 106.875 13.8327C105.556 15.0388 104.014 16.0345 102.247 16.8199C100.48 17.5772 98.6143 17.9558 96.6509 17.9558C94.0985 17.9558 92.2473 17.479 91.0973 16.5253C89.9753 15.5436 89.4144 14.2815 89.4144 12.7388C89.4144 11.3083 89.8071 9.84979 90.5924 8.36321C91.3778 6.87664 92.4296 5.53031 93.7479 4.32423C95.0942 3.11814 96.6369 2.13644 98.3759 1.37913C100.143 0.621819 101.994 0.243164 103.929 0.243164ZM102.162 2.89375C100.984 2.89375 99.8905 3.11814 98.8808 3.56692C97.8991 4.01569 97.0436 4.61874 96.3143 5.37605C95.5851 6.13336 95.0101 7.00286 94.5893 7.98456C94.1686 8.96626 93.9582 9.97601 93.9582 11.0138C93.9582 12.3601 94.3509 13.412 95.1363 14.1693C95.9216 14.9266 96.9875 15.3052 98.3338 15.3052C99.4838 15.3052 100.564 15.0808 101.573 14.6321C102.583 14.1552 103.467 13.5382 104.224 12.7809C104.981 12.0236 105.584 11.154 106.033 10.1723C106.482 9.19065 106.706 8.16688 106.706 7.10103C106.706 5.83885 106.3 4.8291 105.486 4.07179C104.701 3.28643 103.593 2.89375 102.162 2.89375Z" fill="white"/>
</svg>
