<svg xmlns="http://www.w3.org/2000/svg" xmlns:xlink="http://www.w3.org/1999/xlink" width="2560" zoomAndPan="magnify" viewBox="0 0 1920 1079.999946" height="1440" preserveAspectRatio="xMidYMid meet" version="1.0"><path fill="#000000" d="M 746.960938 136.832031 C 753.65625 128.796875 764.34375 115.617188 786.890625 111.445312 C 792.921875 110.328125 798.414062 110.613281 804.667969 111.363281 C 821.464844 113.382812 832.773438 119.527344 839.917969 125.015625 C 871.222656 149.058594 862.976562 177.75 865.632812 203.480469 C 865.960938 206.699219 869.09375 209.730469 869.789062 212.925781 C 870.335938 215.417969 868.257812 219.0625 871.71875 221.140625 C 873.53125 220.527344 871.519531 219.851562 874.148438 219.519531 C 873.972656 219.296875 873.691406 219.078125 873.617188 218.84375 C 872.984375 216.867188 881.957031 202.214844 883.4375 198.5625 C 891.867188 177.785156 900.3125 157.113281 910.65625 136.433594 C 916.945312 123.851562 922.894531 110.632812 934.886719 98.570312 C 940.101562 93.320312 947.910156 86.832031 960.25 83.230469 C 967.023438 81.25 974.085938 80.464844 982.3125 79.617188 C 1001.835938 81.957031 1012.488281 87.082031 1021.40625 93.472656 C 1032.996094 101.777344 1038.59375 110.992188 1042.488281 120.105469 C 1058.917969 158.519531 1035.828125 195.9375 1018.378906 233.738281 L 988.394531 300.046875 C 986.730469 303.570312 976.378906 320.40625 981.945312 322.390625 C 991.429688 323.140625 1000.136719 321.515625 1010.070312 322.824219 C 1034.9375 326.09375 1067.695312 343.175781 1083.585938 350.742188 C 1091.160156 354.34375 1099.523438 357.855469 1106.398438 361.632812 C 1111.722656 364.554688 1115.574219 367.675781 1118.644531 370.976562 C 1128.875 381.980469 1134.753906 393.699219 1142.007812 404.996094 C 1151.328125 419.496094 1161.875 434.109375 1168.746094 448.785156 C 1171.871094 455.457031 1170.472656 462.71875 1175.320312 469.191406 C 1175.371094 469.269531 1175.421875 469.34375 1175.476562 469.421875 C 1206.269531 478.070312 1216.453125 492.988281 1220.964844 506.230469 C 1224.957031 518.207031 1224.933594 530.3125 1220.890625 542.28125 C 1217.65625 551.902344 1212.5625 561.40625 1210.347656 571.070312 C 1207.851562 581.984375 1207.714844 592.90625 1205.894531 603.816406 C 1203.078125 620.375 1197.011719 636.839844 1187.730469 653.085938 C 1178.121094 669.167969 1163.652344 685.355469 1147.851562 700.800781 C 1144.121094 704.445312 1139.363281 707.945312 1135.675781 711.601562 C 1126.703125 720.488281 1118.570312 729.515625 1110.015625 738.460938 C 1100.019531 749.09375 1090.65625 759.800781 1081.945312 770.570312 C 1073.636719 781.128906 1066.207031 792.140625 1054.699219 802.308594 C 1043.792969 811.957031 1028.78125 820.855469 1013.882812 829.765625 C 1014.507812 836.277344 1016.226562 859.109375 1011.15625 863.988281 C 1006.691406 865.46875 995.574219 864.996094 989.59375 864.921875 C 985.9375 864.882812 982.179688 864.613281 979.640625 863.578125 C 973.550781 861.089844 974.296875 846.117188 974.4375 842.488281 C 948.832031 846.566406 920.449219 849.394531 892.851562 845.554688 C 876.851562 843.324219 864.796875 838.886719 855.328125 833.902344 L 856.148438 833.328125 C 857.726562 832.242188 858.871094 831.121094 862.035156 830.511719 C 871.28125 830.03125 880.257812 831.371094 889.570312 831.140625 C 917.464844 830.4375 932.289062 825.535156 953.058594 819.777344 C 957.996094 818.414062 964 817.445312 967.730469 815.605469 C 1001.484375 798.96875 1026.269531 779.761719 1044.25 760.304688 C 1055.222656 748.425781 1063.984375 736.3125 1075.066406 724.425781 C 1080.109375 719.019531 1082.875 712.945312 1088.976562 707.730469 L 1090.339844 708.523438 C 1095.488281 706.601562 1103.890625 692.460938 1106.976562 689.050781 C 1124.125 670.089844 1143.765625 651.691406 1157.128906 632.289062 C 1160.917969 626.78125 1165.097656 621.054688 1167.050781 615.421875 C 1173.148438 597.796875 1169.726562 579.894531 1174.335938 562.1875 C 1177.765625 549.035156 1189.015625 535.863281 1188.289062 522.609375 C 1187.910156 515.65625 1181.742188 509.40625 1167.460938 504.511719 L 1166.46875 504.175781 C 1159.574219 516.628906 1146.1875 529.550781 1115.324219 536.917969 C 1113.964844 537.238281 1112.597656 537.554688 1111.21875 537.867188 C 1098.378906 559.175781 1098.023438 580.316406 1106.660156 601.859375 C 1107.734375 604.546875 1113.371094 614.128906 1111.417969 615.960938 C 1111.070312 616.28125 1110.113281 616.472656 1109.460938 616.726562 C 1106.449219 616.816406 1105.257812 616.6875 1102.96875 615.941406 C 1091.679688 612.238281 1084.714844 604.730469 1080.5 599.609375 C 1069.105469 604.742188 1061.386719 610.828125 1050.347656 616.070312 C 1047.730469 633.519531 1048.972656 651.078125 1046.121094 668.5 C 1029.816406 653.886719 1029.828125 633.8125 1029.519531 618.148438 C 1015.382812 616.722656 998.34375 615.699219 990.433594 610.78125 C 979.996094 604.289062 973.21875 596.347656 965.054688 589.414062 C 951.742188 578.074219 938.832031 566.671875 926.335938 555.214844 C 918.359375 548.039062 909.371094 540.902344 903.660156 533.445312 C 914.882812 535.929688 934.828125 542.574219 946.019531 543.589844 C 948.925781 540.265625 947.097656 535.507812 946.800781 532.003906 C 946.191406 524.714844 946.574219 517.140625 944.21875 509.898438 C 940.546875 498.621094 932.308594 486.621094 927.003906 475.257812 C 933.167969 478.28125 941.570312 483.710938 952.542969 484.382812 C 953.269531 484.421875 954.003906 484.453125 954.730469 484.496094 L 955.789062 483.492188 L 956.082031 483.875 C 956.097656 483.757812 956.089844 483.640625 956.125 483.519531 C 956.804688 481.554688 971.46875 466.902344 974.550781 465.367188 C 975.578125 466.203125 975.328125 465.84375 975.617188 466.410156 C 979.035156 464.171875 980.101562 460.972656 982.257812 458.488281 C 985.132812 455.1875 990.15625 451.578125 991.796875 448.207031 C 994.183594 443.3125 987.203125 432.449219 985.257812 427.1875 C 983.476562 422.425781 982.191406 417.644531 981.40625 412.851562 C 999.484375 424.460938 1015.816406 436.757812 1035.785156 447.945312 C 1041.101562 443.546875 1046.550781 439.238281 1053 435.03125 C 1056.421875 451.3125 1064.417969 490.964844 1100.179688 501.988281 C 1103.125 502.890625 1106.78125 503.65625 1110.839844 503.496094 C 1117.628906 503.226562 1122.964844 500.5625 1126.167969 498.65625 C 1154.015625 482.0625 1128.414062 450.8125 1117.523438 433.074219 C 1110.550781 421.714844 1103.980469 410.203125 1095.589844 398.972656 C 1093.570312 396.277344 1090.886719 393.847656 1086.953125 391.433594 C 1075.296875 384.289062 1029.566406 363.691406 1010.945312 360.03125 C 1005.601562 358.980469 1000.257812 358.5625 994.367188 359.246094 C 982.585938 360.613281 975.074219 365.109375 970.039062 368.902344 C 962.261719 374.753906 957.339844 381.40625 951.734375 387.570312 L 921.992188 419.585938 C 916.1875 425.71875 910.988281 432.140625 903.53125 438.046875 C 901.417969 427.839844 907.015625 416.894531 910.40625 406.75 C 918.503906 382.554688 930.390625 358.257812 935.417969 333.972656 C 930.324219 331.347656 908.777344 321.59375 909.546875 318.828125 C 909.816406 317.859375 912.230469 317.1875 914.316406 316.679688 C 926.828125 313.617188 936.953125 311.503906 947.316406 307.34375 C 958.058594 287.023438 965.523438 266.496094 969.675781 245.871094 C 970.550781 241.53125 942.640625 229.660156 951.261719 227.546875 C 961.058594 225.144531 974.5625 224.765625 985.15625 222.90625 C 990.609375 212.039062 994.933594 201.082031 999.601562 190.164062 C 1007.652344 171.34375 1027.449219 136.230469 995.523438 119.722656 C 992.457031 118.136719 987.605469 115.964844 981.742188 115.796875 C 977.914062 115.6875 974.800781 116.480469 972.3125 117.417969 C 961.242188 121.589844 955.796875 128.855469 952.191406 134.289062 C 945.078125 145.007812 941.957031 156.191406 936.949219 167.0625 L 905.269531 235.789062 C 892.042969 264.449219 877.839844 292.988281 866.484375 321.753906 C 864.324219 327.234375 859.539062 332.636719 858.0625 338.140625 C 856.089844 345.464844 856.769531 353.113281 856.40625 360.480469 C 855.53125 378.445312 855.675781 396.441406 851.171875 414.355469 C 849.078125 422.667969 846.617188 431.425781 838.894531 439.335938 C 836.078125 409.875 832.40625 380.355469 831.621094 350.878906 C 824.9375 349.84375 803.820312 347.394531 800.4375 345.3125 C 799.480469 344.726562 800.84375 343.429688 801.515625 342.84375 C 807.96875 337.191406 821.453125 331.90625 830.996094 326.847656 C 831.480469 305.183594 831.210938 283.363281 830.148438 261.703125 C 821.664062 259.519531 811.460938 258.074219 801.851562 256.636719 C 810.265625 250.703125 818.75 244.898438 830.203125 239.621094 L 830.378906 197.785156 C 830.34375 186.859375 831.59375 175.332031 826.707031 164.527344 C 824.417969 159.46875 820.042969 152.765625 809.816406 148.96875 C 807.820312 148.226562 805.402344 147.722656 802.960938 147.195312 C 802.839844 147.171875 802.722656 147.140625 802.601562 147.113281 C 802.332031 146.953125 802.140625 146.769531 801.78125 146.632812 C 799.746094 145.851562 796.617188 146.226562 793.847656 146.265625 C 788.71875 144.726562 793.511719 139.914062 792.800781 137.730469 C 792.035156 135.390625 788.4375 133.507812 788.535156 131.058594 C 788.59375 129.726562 792.175781 129.1875 791.609375 127.625 C 789.683594 128.546875 787.304688 129.449219 784.335938 129.925781 L 780.339844 129.378906 C 773.929688 130.753906 776.988281 132.503906 774.261719 134.519531 C 773.230469 135.277344 770.234375 134.921875 768.316406 135.984375 C 767.964844 137.023438 768.386719 137.449219 769.761719 138.335938 C 770.859375 139.042969 771.550781 139.402344 771.449219 140.242188 C 763.71875 139.972656 757.191406 139.621094 750.074219 138.503906 C 747.585938 138.113281 747.890625 137.699219 746.960938 136.832031 Z M 1038.414062 583.980469 C 1038.535156 583.839844 1038.652344 583.699219 1038.777344 583.566406 C 1044.972656 576.832031 1057.109375 570.800781 1064.851562 564.261719 C 1070.953125 559.117188 1077.019531 536.460938 1076.757812 530.324219 C 1059.769531 521.433594 1050.410156 510.003906 1043.050781 499.632812 C 1036.144531 489.90625 1035.363281 483.828125 1018.203125 475.414062 C 1011.222656 482.316406 1005.410156 489.34375 998.855469 496.289062 C 993.496094 501.96875 986.527344 507.761719 983.253906 513.652344 C 980.457031 518.6875 981.808594 554.375 984.667969 559.105469 C 987.625 563.988281 995.21875 568.949219 1001.148438 573.472656 C 1004.347656 575.96875 1007.820312 578.421875 1011.542969 580.828125 C 1019.792969 582.582031 1028.125 584.546875 1038.183594 584.007812 C 1038.261719 584.003906 1038.335938 583.988281 1038.414062 583.980469 Z M 1038.414062 583.980469 " fill-opacity="1" fill-rule="nonzero"/><path fill="#000000" d="M 732.101562 217.570312 C 736.074219 216.703125 739.597656 215.742188 744.414062 215.703125 C 747.410156 216.046875 749.390625 216.488281 750.949219 217.484375 C 756.246094 220.867188 758.039062 225.261719 765.507812 228.09375 L 765.382812 229.238281 C 765.40625 251.867188 765.320312 274.542969 764.335938 297.167969 C 763.992188 305.148438 765.335938 313.398438 763.789062 321.335938 C 764.195312 336.960938 764.175781 352.589844 763.726562 368.214844 C 763.5 375.980469 761.988281 384.003906 763.160156 391.75 C 764.171875 398.464844 769.085938 405.476562 771.914062 412.148438 C 779.925781 431.039062 786.90625 452.328125 776.449219 471.273438 C 766.992188 454.636719 760.277344 437.742188 754.1875 420.910156 C 745.820312 423.164062 737.746094 425.507812 729.703125 427.910156 C 731.886719 422.113281 734.570312 416.34375 737.765625 410.605469 C 739.6875 406.96875 742.386719 403.171875 743.054688 399.480469 C 744.347656 392.3125 731.164062 369.96875 726.59375 361.605469 C 718.9375 363.28125 711.519531 365.054688 704.125 366.871094 C 705.839844 357.605469 716.382812 348.777344 717.480469 339.570312 C 718.160156 333.84375 714.300781 327.601562 712.160156 321.925781 C 707.554688 309.703125 703.707031 296.894531 695.265625 284.929688 C 692.949219 281.648438 690.273438 277.617188 684.082031 274.976562 C 681.5 273.871094 678.339844 273.105469 674.273438 272.917969 C 670.535156 272.75 666.472656 273.238281 663.707031 274.128906 C 648.277344 279.105469 647.035156 292.371094 646.84375 299.199219 C 646.183594 322.566406 658.457031 349.609375 665.445312 373.191406 C 681.519531 423.992188 696.574219 474.835938 710.605469 525.71875 C 714.949219 542.105469 718.070312 558.535156 719.976562 574.980469 C 720.503906 580.226562 722.171875 585.859375 721.234375 591.074219 C 721.046875 593.117188 722.105469 596.320312 719.90625 598.128906 L 717.445312 598.441406 C 714.546875 597.738281 710.128906 596.429688 706.421875 596.554688 L 705.695312 596.953125 C 707.378906 597.917969 710.121094 598.878906 709.457031 600.003906 L 707.601562 600.082031 C 700.238281 600.421875 692.992188 601.164062 686.144531 602.15625 C 685.746094 602.210938 685.40625 602.316406 685.035156 602.398438 C 683.726562 587.320312 684.609375 572.292969 681.988281 557.214844 C 678.132812 537.855469 673.253906 518.523438 667.355469 499.230469 L 637.5625 400.621094 L 622.351562 349.53125 C 617.085938 332.097656 611.484375 314.828125 611.886719 297.257812 C 612.246094 281.589844 617.019531 264.144531 637.242188 250.046875 C 643.449219 245.71875 653.21875 240.160156 667.019531 238.742188 C 673.332031 238.09375 679.722656 238.476562 685.363281 239.640625 C 715.078125 245.765625 724.074219 265.503906 731.503906 276.515625 C 731.742188 271.039062 731.824219 265.5625 731.753906 260.085938 L 731.96875 251.308594 C 731.355469 240.0625 731.402344 228.8125 732.101562 217.570312 Z M 732.101562 217.570312 " fill-opacity="1" fill-rule="nonzero"/><path fill="#0d0f0b" d="M 732.101562 217.570312 C 736.074219 216.703125 739.597656 215.742188 744.414062 215.703125 C 747.410156 216.046875 749.390625 216.488281 750.949219 217.484375 C 756.246094 220.867188 758.039062 225.261719 765.507812 228.09375 L 765.382812 229.238281 C 765.40625 251.867188 765.320312 274.542969 764.335938 297.167969 C 763.992188 305.148438 765.335938 313.398438 763.789062 321.335938 C 761.632812 318.125 763.3125 313.207031 763.238281 309.773438 C 763.054688 301.117188 762.308594 292.460938 762.269531 283.804688 C 762.253906 279.164062 763.59375 274.078125 762.390625 269.484375 C 762.117188 268.449219 761.125 268.085938 759.03125 267.421875 L 756.828125 267.683594 C 753.390625 269.40625 751.578125 271.738281 749.460938 273.710938 C 746.164062 272.792969 743.21875 270.695312 741.59375 269.292969 C 740.777344 268.585938 740.226562 268.375 741.101562 267.644531 C 742.503906 268.066406 742.925781 268.175781 744.757812 268.363281 C 745.605469 267.925781 745.792969 267.890625 746.289062 267.304688 C 748.257812 264.964844 745.207031 260.261719 741.273438 258.3125 L 740.234375 258.511719 L 739.921875 259.746094 L 738.503906 259.796875 C 737.535156 259.355469 736.355469 258.902344 735.519531 258.425781 C 735.464844 258.394531 735.46875 258.355469 735.441406 258.320312 C 733.597656 258.863281 732.828125 259.324219 731.753906 260.085938 L 731.96875 251.308594 C 731.355469 240.0625 731.402344 228.8125 732.101562 217.570312 Z M 732.101562 217.570312 " fill-opacity="1" fill-rule="nonzero"/><path fill="#000000" d="M 732.101562 217.570312 C 736.074219 216.703125 739.597656 215.742188 744.414062 215.703125 C 747.410156 216.046875 749.390625 216.488281 750.949219 217.484375 C 756.246094 220.867188 758.039062 225.261719 765.507812 228.09375 L 765.382812 229.238281 C 763.050781 229.683594 761.261719 229.992188 759.636719 230.761719 C 751.84375 234.429688 741.972656 251.785156 732.988281 253.394531 L 732.761719 252.773438 C 732.414062 251.867188 732.582031 252.226562 731.96875 251.308594 C 731.355469 240.0625 731.402344 228.8125 732.101562 217.570312 Z M 732.101562 217.570312 " fill-opacity="1" fill-rule="nonzero"/><path fill="#000000" d="M 722.433594 672.410156 C 722.441406 678.367188 722.960938 684.402344 722.085938 690.351562 C 722.597656 694.359375 722.476562 698.367188 722.402344 702.378906 L 722.914062 742.820312 L 722.910156 822.769531 L 723.039062 848.628906 C 723.074219 852.882812 723.808594 857.289062 722.996094 861.519531 C 722.839844 862.332031 722.519531 862.894531 721.308594 863.613281 C 720.15625 864.300781 717.898438 864.683594 715.714844 864.777344 C 708.757812 865.09375 693.523438 865.429688 688.109375 863.855469 C 683.335938 857.792969 686.339844 826.472656 686.328125 818.195312 L 686.066406 710.398438 C 685.328125 699.199219 685.910156 687.945312 685.726562 676.734375 L 689.488281 677.703125 C 695.0625 677.8125 700.671875 677.800781 705.425781 676.617188 C 707.554688 676.085938 706.875 676.140625 709.28125 675.910156 C 711.308594 675.714844 711.214844 675.605469 712.597656 675.046875 C 715.503906 672.800781 719.066406 673.871094 722.433594 672.410156 Z M 722.433594 672.410156 " fill-opacity="1" fill-rule="nonzero"/><path fill="#000000" d="M 722.433594 672.410156 C 722.441406 678.367188 722.960938 684.402344 722.085938 690.351562 C 722.597656 694.359375 722.476562 698.367188 722.402344 702.378906 L 722.914062 742.820312 C 722.0625 742.59375 721.0625 742.378906 720.453125 742.050781 C 717.917969 740.683594 717.714844 736.875 718.523438 735.265625 C 713.84375 726.925781 711.457031 718.332031 707.035156 709.929688 L 693.261719 709.957031 C 694.0625 711.832031 695.207031 713.691406 694.523438 715.585938 C 691.59375 715.375 691.4375 715.449219 689.648438 714.617188 C 689.542969 713.730469 689.597656 713.253906 690.476562 712.40625 C 690.730469 712.164062 691.085938 711.929688 691.265625 711.679688 C 691.941406 710.742188 690.976562 710.523438 689.441406 709.84375 L 686.066406 710.398438 C 685.328125 699.199219 685.910156 687.945312 685.726562 676.734375 L 689.488281 677.703125 C 695.0625 677.8125 700.671875 677.800781 705.425781 676.617188 C 707.554688 676.085938 706.875 676.140625 709.28125 675.910156 C 711.308594 675.714844 711.214844 675.605469 712.597656 675.046875 C 715.503906 672.800781 719.066406 673.871094 722.433594 672.410156 Z M 722.433594 672.410156 " fill-opacity="1" fill-rule="nonzero"/><path fill="#0d0f0b" d="M 722.433594 672.410156 C 722.441406 678.367188 722.960938 684.402344 722.085938 690.351562 C 719.519531 688.785156 719.574219 686.144531 715.453125 685.0625 L 710.445312 685.707031 C 710.019531 684.199219 710.273438 683.746094 707.546875 682.527344 L 705.375 682.390625 C 702.117188 683.265625 701.351562 684.710938 700.734375 686.082031 C 699.84375 688.042969 700.171875 689.757812 701.667969 691.65625 C 702.886719 693.199219 702.277344 694.953125 702.058594 696.539062 C 705.96875 698.839844 705.554688 704.085938 706.234375 706.8125 C 700.3125 706.796875 694.152344 706.890625 688.265625 706.730469 C 686.933594 707.402344 686.5625 707.765625 687.242188 708.609375 C 687.578125 709.03125 688.589844 709.523438 689.441406 709.84375 L 686.066406 710.398438 C 685.328125 699.199219 685.910156 687.945312 685.726562 676.734375 L 689.488281 677.703125 C 695.0625 677.8125 700.671875 677.800781 705.425781 676.617188 C 707.554688 676.085938 706.875 676.140625 709.28125 675.910156 C 711.308594 675.714844 711.214844 675.605469 712.597656 675.046875 C 715.503906 672.800781 719.066406 673.871094 722.433594 672.410156 Z M 722.433594 672.410156 " fill-opacity="1" fill-rule="nonzero"/><path fill="#000000" d="M 687.347656 695.78125 C 687.378906 694.558594 686.875 692.648438 688.777344 691.589844 C 690.414062 690.679688 691.589844 690.542969 694.28125 690.242188 C 696.890625 690.664062 698.773438 690.910156 700.003906 691.941406 C 701.378906 693.089844 700.449219 693.730469 699.308594 694.792969 L 699.746094 695.957031 L 702.058594 696.539062 C 705.96875 698.839844 705.554688 704.085938 706.234375 706.8125 C 700.3125 706.796875 694.152344 706.890625 688.265625 706.730469 C 684.871094 704.222656 687.050781 698.59375 687.347656 695.78125 Z M 687.347656 695.78125 " fill-opacity="1" fill-rule="nonzero"/><path fill="#000000" d="M 710.445312 685.707031 L 715.453125 685.0625 C 719.574219 686.144531 719.519531 688.785156 722.085938 690.351562 C 722.597656 694.359375 722.476562 698.367188 722.402344 702.378906 L 719.035156 702.179688 C 718.75 702.855469 718.523438 703.539062 718.320312 704.222656 C 715.605469 704.660156 713.589844 704.335938 710.800781 703.992188 C 710.171875 703.914062 709.5625 703.820312 708.941406 703.738281 C 706.8125 698.6875 704.355469 693.144531 703.8125 688.054688 C 705.285156 686.917969 706.582031 686.914062 709.675781 686.390625 Z M 710.445312 685.707031 " fill-opacity="1" fill-rule="nonzero"/><path fill="#0d0f0b" d="M 708.941406 703.738281 C 709.5625 703.820312 710.171875 703.914062 710.800781 703.992188 C 713.589844 704.335938 715.605469 704.660156 718.320312 704.222656 C 718.523438 703.539062 718.75 702.855469 719.035156 702.179688 L 722.402344 702.378906 L 722.914062 742.820312 C 722.0625 742.59375 721.0625 742.378906 720.453125 742.050781 C 717.917969 740.683594 717.714844 736.875 718.523438 735.265625 C 723.9375 729.746094 708.414062 711.558594 711.800781 709.617188 C 714.382812 709.695312 716.789062 709.726562 719.382812 709.664062 L 720.738281 708.804688 C 720.5625 707.851562 721.152344 707.578125 719.125 706.894531 C 715.851562 706.929688 713.347656 706.953125 710.222656 706.519531 C 708.359375 705.386719 708.75 705.019531 708.941406 703.738281 Z M 708.941406 703.738281 " fill-opacity="1" fill-rule="nonzero"/><path fill="#000000" d="M 791.050781 550.589844 C 791.640625 550.621094 792.234375 550.652344 792.816406 550.695312 C 808.554688 551.832031 825.90625 560.664062 833.582031 565.25 C 879.636719 592.75 903.222656 649.929688 906.035156 682.242188 C 906.683594 689.742188 905.617188 697.3125 905.035156 704.8125 C 903.4375 725.269531 900.042969 745.605469 886.066406 765.523438 L 880.363281 772.71875 C 879.8125 759.394531 883.847656 745.953125 884.148438 732.597656 C 885.132812 688.566406 875.492188 643.992188 842.34375 601.410156 C 835.675781 592.84375 827.96875 584 818.828125 575.726562 C 809.773438 567.53125 798.988281 559.40625 791.429688 551.019531 Z M 791.050781 550.589844 " fill-opacity="1" fill-rule="nonzero"/><path fill="#1d201c" d="M 746.960938 136.832031 C 747.890625 137.699219 747.585938 138.113281 750.074219 138.503906 C 757.191406 139.621094 763.71875 139.972656 771.449219 140.242188 C 771.550781 139.402344 770.859375 139.042969 769.761719 138.335938 C 768.386719 137.449219 767.964844 137.023438 768.316406 135.984375 C 770.234375 134.921875 773.230469 135.277344 774.261719 134.519531 C 776.988281 132.503906 773.929688 130.753906 780.339844 129.378906 L 784.335938 129.925781 C 787.304688 129.449219 789.683594 128.546875 791.609375 127.625 C 792.175781 129.1875 788.59375 129.726562 788.535156 131.058594 C 788.4375 133.507812 792.035156 135.390625 792.800781 137.730469 C 793.511719 139.914062 788.71875 144.726562 793.847656 146.265625 C 796.617188 146.226562 799.746094 145.851562 801.78125 146.632812 C 802.140625 146.769531 802.332031 146.953125 802.601562 147.113281 C 795.285156 147.085938 790.65625 147.484375 785.34375 149.367188 C 776.851562 152.386719 773.828125 157.699219 770.851562 161.726562 C 764.890625 178.976562 765.726562 196.378906 765.839844 213.738281 L 765.507812 228.09375 C 758.039062 225.261719 756.246094 220.867188 750.949219 217.484375 C 749.390625 216.488281 747.410156 216.046875 744.414062 215.703125 C 739.597656 215.742188 736.074219 216.703125 732.101562 217.570312 C 732.09375 206.277344 732.261719 194.984375 732.597656 183.691406 C 733.460938 169.769531 735.96875 156.277344 743.363281 142.589844 Z M 746.960938 136.832031 " fill-opacity="1" fill-rule="nonzero"/><path fill="#0d0f0b" d="M 746.960938 136.832031 C 747.890625 137.699219 747.585938 138.113281 750.074219 138.503906 C 757.191406 139.621094 763.71875 139.972656 771.449219 140.242188 C 771.550781 139.402344 770.859375 139.042969 769.761719 138.335938 C 768.386719 137.449219 767.964844 137.023438 768.316406 135.984375 C 770.234375 134.921875 773.230469 135.277344 774.261719 134.519531 C 776.988281 132.503906 773.929688 130.753906 780.339844 129.378906 L 784.335938 129.925781 C 787.304688 129.449219 789.683594 128.546875 791.609375 127.625 C 792.175781 129.1875 788.59375 129.726562 788.535156 131.058594 C 788.4375 133.507812 792.035156 135.390625 792.800781 137.730469 C 793.511719 139.914062 788.71875 144.726562 793.847656 146.265625 C 796.617188 146.226562 799.746094 145.851562 801.78125 146.632812 C 802.140625 146.769531 802.332031 146.953125 802.601562 147.113281 C 795.285156 147.085938 790.65625 147.484375 785.34375 149.367188 C 776.851562 152.386719 773.828125 157.699219 770.851562 161.726562 C 771.066406 160.726562 771.632812 159.464844 771.316406 158.476562 C 771.316406 158.472656 770.679688 157.304688 770.171875 157.183594 C 766.886719 156.394531 749.824219 157.621094 741.199219 155.628906 L 740.859375 154.796875 C 743.546875 153.71875 744.242188 153.566406 748.054688 153.085938 L 742.34375 152.625 L 740.550781 151.195312 C 741.113281 149.980469 741.574219 149.804688 743.804688 148.851562 C 750.347656 148.597656 759.304688 150.074219 765.742188 150.695312 C 766.074219 150.460938 766.558594 150.082031 767.042969 149.890625 C 769.46875 148.941406 774.824219 149.460938 778.273438 149.242188 C 780.617188 149.097656 779.757812 149.289062 781.046875 148.621094 C 780.613281 148.28125 780.464844 148.105469 779.644531 147.816406 C 773.828125 145.746094 754.585938 143.554688 746.433594 143.429688 C 745.964844 143.421875 745.496094 143.421875 745.03125 143.417969 L 743.363281 142.589844 Z M 746.960938 136.832031 " fill-opacity="1" fill-rule="nonzero"/><path fill="#000000" d="M 748.054688 153.085938 L 742.34375 152.625 L 740.550781 151.195312 C 741.113281 149.980469 741.574219 149.804688 743.804688 148.851562 C 750.347656 148.597656 759.304688 150.074219 765.742188 150.695312 C 770.015625 150.910156 772.199219 150.847656 775.640625 151.8125 L 776.382812 152.609375 C 775.046875 153.539062 774.054688 153.859375 771.246094 154.21875 C 765.1875 154.996094 754.621094 154.371094 749.019531 153.308594 C 748.679688 153.242188 748.375 153.160156 748.054688 153.085938 Z M 748.054688 153.085938 " fill-opacity="1" fill-rule="nonzero"/><path fill="#0d0f0b" d="M 732.597656 183.691406 C 733.019531 184.957031 733.027344 186.144531 735.304688 187.183594 C 737.269531 187.566406 738.246094 187.496094 740.367188 187.417969 C 743.9375 187.289062 745.515625 187.410156 748.363281 188.261719 C 750.1875 188.804688 753.195312 189.417969 752.953125 190.363281 C 752.910156 190.542969 752.039062 191.226562 751.816406 191.414062 L 753.148438 191.742188 C 754.859375 191.574219 754.984375 191.554688 756.695312 191.632812 C 756.90625 191.644531 757.109375 191.609375 757.3125 191.597656 C 757.34375 191.730469 757.367188 191.863281 757.394531 191.996094 C 757.832031 193.855469 761.949219 197.632812 760.566406 199.292969 C 759.589844 200.460938 756.574219 201.730469 755.214844 202.941406 C 752.839844 202.90625 751.472656 202.648438 749.394531 202.253906 L 748.441406 202.453125 C 748.25 203.417969 747.828125 204.300781 749.632812 205.125 C 753.839844 207.042969 761.707031 207.730469 765.292969 209.738281 L 765.015625 210.582031 C 754.210938 210.441406 745.230469 205.488281 735.699219 205.023438 L 734.515625 205.535156 C 734.882812 206.789062 736.230469 207.320312 738.972656 208.109375 C 745.847656 210.09375 757.191406 212.882812 765.65625 213.699219 C 765.726562 213.707031 765.777344 213.726562 765.839844 213.738281 L 765.507812 228.09375 C 758.039062 225.261719 756.246094 220.867188 750.949219 217.484375 C 749.390625 216.488281 747.410156 216.046875 744.414062 215.703125 C 739.597656 215.742188 736.074219 216.703125 732.101562 217.570312 C 732.09375 206.277344 732.261719 194.984375 732.597656 183.691406 Z M 732.597656 183.691406 " fill-opacity="1" fill-rule="nonzero"/><path fill="#1d201c" d="M 721.234375 591.074219 C 724.46875 618.082031 722.464844 645.371094 722.433594 672.410156 C 719.066406 673.871094 715.503906 672.800781 712.597656 675.046875 C 711.214844 675.605469 711.308594 675.714844 709.28125 675.910156 C 706.875 676.140625 707.554688 676.085938 705.425781 676.617188 C 700.671875 677.800781 695.0625 677.8125 689.488281 677.703125 L 685.726562 676.734375 L 685.035156 602.398438 C 685.40625 602.316406 685.746094 602.210938 686.144531 602.15625 C 692.992188 601.164062 700.238281 600.421875 707.601562 600.082031 L 709.457031 600.003906 C 710.121094 598.878906 707.378906 597.917969 705.695312 596.953125 L 706.421875 596.554688 C 710.128906 596.429688 714.546875 597.738281 717.445312 598.441406 L 719.90625 598.128906 C 722.105469 596.320312 721.046875 593.117188 721.234375 591.074219 Z M 721.234375 591.074219 " fill-opacity="1" fill-rule="nonzero"/><path fill="#0d0f0b" d="M 702.570312 612.867188 L 693.492188 611.941406 C 691.53125 611.242188 690.597656 610.992188 690.722656 609.90625 C 690.855469 608.773438 691.6875 608.332031 693.578125 607.515625 C 696.6875 607.09375 698.414062 607.117188 701.570312 607.292969 C 706.761719 607.589844 711.964844 607.847656 717.183594 608.070312 C 717.351562 608.242188 717.503906 608.417969 717.695312 608.59375 C 718.488281 609.304688 719.476562 609.75 720.816406 610.332031 L 720.492188 611.882812 C 720.246094 613.25 720.808594 614.476562 717.761719 615.5 C 716.132812 616.046875 713.625 616.085938 711.613281 615.816406 C 710.628906 615.6875 709.148438 615.28125 708.269531 615.058594 C 710.214844 614.574219 711.226562 614.539062 713.511719 614.40625 L 714.628906 613.695312 L 713.84375 613.105469 C 709.601562 612.59375 706.808594 612.929688 702.570312 612.867188 Z M 702.570312 612.867188 " fill-opacity="1" fill-rule="nonzero"/><path fill="#0d0f0b" d="M 693.980469 617.527344 C 698.234375 618.453125 698.726562 618.898438 703.808594 618.652344 C 704.382812 619.3125 705.253906 619.777344 704.671875 620.425781 C 703.574219 621.65625 705.382812 622.953125 704.289062 624.324219 L 703.484375 624.492188 C 700.214844 623.605469 702.601562 623.128906 698.128906 623.199219 C 697.417969 622.980469 696.707031 622.757812 695.988281 622.542969 C 693.234375 621.722656 691.734375 621.238281 690.0625 620.082031 C 692.03125 620.015625 694 619.964844 695.96875 619.929688 C 696.691406 618.890625 695.304688 618.445312 693.980469 617.527344 Z M 693.980469 617.527344 " fill-opacity="1" fill-rule="nonzero"/></svg>