<svg width="14" height="14" viewBox="0 0 14 14" fill="none" xmlns="http://www.w3.org/2000/svg">
<path d="M14 1.10517V10.6834C14 10.9766 13.8836 11.2577 13.6763 11.4649C13.4691 11.6722 13.188 11.7886 12.895 11.7886C12.6019 11.7886 12.3208 11.6722 12.1136 11.4649C11.9063 11.2577 11.7899 10.9766 11.7899 10.6834V3.77604L1.88969 13.6757C1.6821 13.8833 1.40054 14 1.10696 14C0.813373 14 0.531815 13.8833 0.32422 13.6757C0.116626 13.4681 0 13.1865 0 12.8929C0 12.5993 0.116626 12.3177 0.32422 12.11L10.2244 2.21036H3.31796C3.02488 2.21036 2.74381 2.09392 2.53657 1.88666C2.32934 1.67939 2.21292 1.39829 2.21292 1.10517C2.21292 0.81206 2.32934 0.530952 2.53657 0.323689C2.74381 0.116427 3.02488 -1.14441e-05 3.31796 -1.14441e-05H12.895C13.188 -1.14441e-05 13.4691 0.116427 13.6763 0.323689C13.8836 0.530952 14 0.81206 14 1.10517Z" fill="#1D1D1B"/>
</svg>
