<?xml version="1.0" encoding="UTF-8"?>
<svg id="Layer_2" data-name="Layer 2" xmlns="http://www.w3.org/2000/svg" viewBox="0 0 23.28 29.97">
  <defs>
    <style>
      .cls-1 {
        fill: #0d0f0b;
      }

      .cls-2 {
        fill: #1d201c;
      }

      .cls-3 {
        fill: #555753;
      }

      .cls-4 {
        fill: #7a7c78;
      }
    </style>
  </defs>
  <g id="Layer_1-2" data-name="Layer 1">
    <path d="M5.14,2.18c.26-.31.66-.81,1.52-.97.23-.04.44-.03.68,0,.64.07,1.07.31,1.34.52,1.19.92.88,2.01.98,2.99.01.12.13.23.16.36.02.09-.06.23.07.31.07-.03,0-.05.09-.06,0-.01-.02-.02-.02-.03-.02-.07.32-.64.38-.77.32-.8.64-1.58,1.04-2.38.24-.48.46-.98.92-1.44.2-.2.49-.45.96-.59.26-.07.53-.1.84-.14.74.09,1.15.29,1.48.53.44.31.66.67.8,1.02.63,1.46-.25,2.89-.92,4.33l-1.14,2.53c-.06.14-.45.78-.24.85.36.03.69-.04,1.07.02.94.13,2.19.78,2.79,1.07.29.14.61.27.87.41.2.11.35.23.46.36.39.42.61.86.89,1.3.35.55.76,1.11,1.02,1.67.12.26.07.53.25.78,0,0,0,.01,0,.01,1.17.33,1.56.9,1.73,1.41.15.46.15.92,0,1.38-.13.36-.32.73-.4,1.1-.09.42-.1.83-.17,1.25-.1.63-.34,1.26-.69,1.88-.37.61-.92,1.23-1.52,1.82-.14.14-.32.28-.46.42-.34.34-.65.68-.98,1.02-.38.41-.73.82-1.07,1.23-.31.4-.6.82-1.04,1.21-.41.37-.98.71-1.55,1.05.03.25.09,1.12-.1,1.31-.17.06-.59.04-.82.04-.14,0-.28-.01-.38-.05-.23-.09-.2-.67-.2-.8-.97.15-2.05.26-3.1.11-.61-.08-1.07-.26-1.43-.44l.03-.03c.06-.04.1-.08.22-.1.35-.02.69.03,1.05.02,1.06-.03,1.63-.21,2.41-.43.19-.05.42-.09.56-.16,1.29-.64,2.23-1.37,2.91-2.11.42-.45.75-.91,1.17-1.36.19-.21.3-.44.53-.64l.05.03c.19-.07.52-.61.63-.74.65-.72,1.4-1.42,1.91-2.17.15-.21.3-.43.38-.64.23-.67.1-1.35.28-2.03.13-.51.56-1.01.53-1.51-.02-.27-.25-.51-.79-.69h-.04c-.26.46-.77.96-1.94,1.24-.05.01-.1.02-.16.04-.49.81-.5,1.62-.17,2.44.04.1.26.47.18.54-.01.01-.05.02-.07.03-.11,0-.16,0-.24-.03-.43-.14-.7-.43-.85-.63-.43.2-.73.43-1.15.63-.1.66-.05,1.33-.16,2-.62-.56-.62-1.32-.63-1.92-.54-.06-1.19-.09-1.49-.28-.4-.25-.66-.55-.96-.82-.51-.43-1-.86-1.47-1.3-.3-.28-.65-.55-.86-.83.43.09,1.18.35,1.61.39.11-.13.04-.31.03-.44-.03-.28-.01-.57-.1-.84-.14-.43-.45-.89-.66-1.32.23.11.55.32.97.35.03,0,.06,0,.08,0l.04-.04v.02s.01-.01.02-.02c.03-.07.58-.63.7-.69.04.04.03.02.04.04.13-.08.17-.21.25-.3.11-.13.3-.27.36-.39.09-.19-.17-.6-.25-.8-.07-.18-.11-.36-.15-.55.69.44,1.31.91,2.07,1.34.2-.17.41-.33.66-.49.13.62.43,2.14,1.79,2.56.11.03.26.06.41.06.26-.01.46-.11.58-.19,1.06-.63.09-1.82-.33-2.5-.27-.43-.52-.88-.83-1.3-.08-.1-.18-.2-.33-.29-.44-.28-2.18-1.06-2.89-1.2-.2-.04-.41-.06-.63-.03-.45.05-.73.22-.93.37-.3.22-.48.47-.69.71l-1.14,1.22c-.22.23-.42.48-.7.7-.08-.39.13-.81.26-1.19.31-.92.76-1.85.95-2.78-.19-.1-1.01-.47-.98-.58.01-.04.1-.06.18-.08.48-.11.86-.2,1.26-.35.41-.78.69-1.56.85-2.35.03-.17-1.03-.62-.7-.7.38-.09.89-.1,1.29-.18.2-.42.37-.83.55-1.25.31-.72,1.06-2.06-.16-2.69-.11-.06-.3-.15-.52-.15-.15,0-.27.03-.36.06-.42.16-.63.44-.77.65-.27.41-.39.83-.58,1.25l-1.21,2.62c-.5,1.09-1.04,2.18-1.47,3.28-.08.21-.27.42-.32.63-.08.28-.05.57-.06.85-.04.69-.03,1.37-.2,2.06-.08.32-.17.65-.46.95-.11-1.13-.25-2.25-.28-3.38-.26-.04-1.06-.14-1.19-.21-.04-.03.02-.07.04-.09.24-.22.76-.42,1.12-.61.02-.82.01-1.66-.03-2.48-.32-.08-.71-.14-1.08-.19.32-.22.65-.45,1.08-.65v-1.59c0-.42.05-.86-.13-1.27-.09-.19-.26-.45-.65-.59-.07-.03-.17-.05-.26-.07h-.01s-.02-.02-.03-.02c-.08-.03-.2-.02-.3-.02-.2-.06-.02-.24-.04-.32-.03-.09-.17-.16-.16-.26,0-.05.14-.07.11-.13-.07.04-.16.07-.28.09l-.15-.02c-.24.05-.13.12-.23.19-.04.03-.16.02-.23.06-.01.04,0,.06.06.09.04.03.07.04.06.07-.29-.01-.54-.02-.81-.07-.09-.01-.08-.03-.12-.06ZM16.22,19.24s.01-.01.02-.02c.23-.26.7-.48.99-.73.23-.2.46-1.06.45-1.3-.65-.34-1-.78-1.28-1.17-.26-.37-.29-.6-.94-.92-.27.27-.49.53-.73.8-.21.22-.47.44-.59.66-.11.19-.06,1.56.05,1.73.11.19.4.38.63.55.13.1.26.19.4.28.31.07.63.15,1.02.13,0,0,0,0,0,0Z"/>
    <path d="M4.57,5.27c.15-.04.29-.07.47-.07.11.02.19.03.25.07.2.13.27.3.55.41v.04c0,.86,0,1.73-.05,2.59-.01.3.04.62-.02.92.02.6.02,1.19,0,1.79-.01.29-.07.6-.02.9.04.26.22.53.33.78.3.72.57,1.54.17,2.26-.36-.64-.61-1.28-.85-1.92-.32.08-.63.17-.93.27.08-.22.19-.44.31-.66.07-.14.18-.28.2-.42.05-.28-.45-1.13-.63-1.45-.29.06-.57.13-.85.2.06-.35.46-.69.51-1.04.03-.22-.12-.46-.2-.68-.17-.46-.32-.95-.64-1.41-.09-.13-.19-.28-.43-.38-.09-.04-.22-.07-.37-.08-.15,0-.3.02-.4.05-.59.19-.64.7-.64.96-.03.89.44,1.92.7,2.82.61,1.94,1.19,3.88,1.72,5.82.17.63.29,1.25.35,1.88.02.2.08.41.05.61-.01.08.03.2-.05.27h-.09c-.11-.02-.28-.06-.42-.06h-.03c.06.05.17.09.15.13h-.07c-.28.02-.56.04-.82.08-.01,0-.03,0-.04,0-.05-.57-.02-1.15-.11-1.72-.15-.73-.33-1.47-.56-2.21l-1.13-3.76-.58-1.95C.2,9.64-.01,8.97,0,8.31c.02-.6.2-1.27.96-1.8.24-.17.61-.38,1.14-.43.24-.03.48-.01.7.04,1.13.23,1.47.98,1.76,1.41,0-.21.01-.42,0-.63v-.33c-.01-.43-.01-.86.02-1.29Z"/>
    <path class="cls-1" d="M4.57,5.27c.15-.04.29-.07.47-.07.11.02.19.03.25.07.2.13.27.3.55.41v.04c0,.86,0,1.73-.05,2.59-.01.3.04.62-.02.92-.08-.12-.02-.31-.02-.44,0-.33-.03-.66-.04-.99,0-.18.05-.37,0-.55-.01-.04-.05-.05-.13-.08h-.08c-.14.08-.2.17-.28.24-.13-.04-.24-.11-.3-.17-.03-.03-.05-.04-.02-.06.05.02.07.02.14.03.04-.02.04-.02.06-.04.07-.09-.04-.27-.19-.34h-.04s-.01.06-.01.06h-.05s-.08-.03-.11-.05h0c-.07.02-.1.04-.14.06v-.33c-.01-.43-.01-.86.02-1.29Z"/>
    <path d="M4.57,5.27c.15-.04.29-.07.47-.07.11.02.19.03.25.07.2.13.27.3.55.41v.04c-.09.02-.16.03-.22.06-.3.14-.67.8-1.02.86v-.02s-.01-.02-.04-.06c-.02-.43-.02-.86,0-1.29Z"/>
    <path d="M4.2,22.62c0,.23.02.46-.01.69.02.15.02.31.01.46l.02,1.54v4.04c0,.16.03.33,0,.49-.01.03-.02.05-.07.08-.04.03-.13.04-.21.05-.26.01-.84.03-1.05-.04-.18-.23-.07-1.43-.07-1.74v-4.11c-.04-.43-.02-.86-.03-1.29l.15.04c.21,0,.43,0,.6-.04.08-.02.06-.02.15-.03.08,0,.07-.01.13-.03.11-.09.24-.05.37-.1Z"/>
    <path class="cls-4" d="M4.2,22.62c0,.23.02.46-.01.69.02.15.02.31.01.46l.02,1.54s-.07-.02-.09-.03c-.1-.05-.1-.2-.07-.26-.18-.32-.27-.65-.44-.97h-.53c.03.07.08.15.05.22-.11-.01-.12,0-.19-.04,0-.04,0-.05.03-.09.01,0,.03-.02.03-.03.03-.04-.01-.04-.07-.07l-.13.02c-.03-.43,0-.86-.02-1.29l.15.04c.21,0,.43,0,.6-.04.08-.02.06-.02.15-.03.08,0,.07-.01.13-.03.11-.09.24-.05.37-.1Z"/>
    <path class="cls-1" d="M4.2,22.62c0,.23.02.46-.01.69-.1-.06-.09-.16-.26-.2l-.19.03c-.02-.06,0-.08-.11-.12h-.08c-.13.03-.16.08-.18.14-.04.07-.02.14.04.21.05.06.02.13.02.19.15.09.13.29.16.39-.22,0-.46,0-.68,0-.05.03-.07.04-.04.07.02.02.05.03.09.05l-.13.02c-.03-.43,0-.86-.02-1.29l.15.04c.21,0,.43,0,.6-.04.08-.02.06-.02.15-.03.08,0,.07-.01.13-.03.11-.09.24-.05.37-.1Z"/>
    <path d="M2.87,23.52s-.02-.12.06-.16c.06-.04.1-.04.21-.05.1.02.17.03.22.06.05.05.02.07-.03.11l.02.05.09.02c.15.09.13.29.16.39-.22,0-.46,0-.68,0-.13-.1-.05-.31-.04-.42Z"/>
    <path d="M3.75,23.13l.19-.03c.16.04.16.14.26.2.02.15.02.31.01.46h-.13s-.02.04-.03.07c-.1.02-.18,0-.29,0-.02,0-.05,0-.07-.01-.08-.19-.18-.41-.2-.6.06-.04.11-.04.22-.06l.03-.03Z"/>
    <path class="cls-1" d="M3.69,23.82s.05,0,.07.01c.11.01.19.03.29,0,.01-.03.02-.05.03-.08h.13s.02,1.55.02,1.55c-.03,0-.07-.02-.09-.03-.1-.05-.1-.2-.07-.26.2-.21-.39-.91-.26-.98.1,0,.19,0,.29,0l.05-.03s.02-.05-.06-.07c-.13,0-.22,0-.34-.02-.07-.04-.06-.06-.05-.1Z"/>
    <path d="M6.81,17.97s.05,0,.07,0c.6.04,1.26.38,1.55.55,1.75,1.05,2.65,3.23,2.76,4.46.03.29-.02.58-.04.86-.06.78-.19,1.56-.72,2.32l-.22.27c-.02-.51.14-1.02.15-1.53.04-1.68-.33-3.38-1.59-5.01-.26-.33-.55-.66-.9-.98-.34-.31-.76-.63-1.04-.94l-.02-.02Z"/>
    <path class="cls-2" d="M5.14,2.18s.03.05.12.06c.27.05.52.06.81.07,0-.03-.02-.05-.06-.07-.05-.03-.07-.05-.06-.09.07-.04.19-.03.23-.06.1-.07-.02-.14.23-.19l.15.02c.11-.02.2-.05.28-.09.03.06-.11.08-.11.13,0,.09.14.17.16.26.03.08-.16.27.04.32.1,0,.22-.02.3.02.01,0,.02.01.03.02-.28,0-.45.01-.66.08-.32.11-.44.32-.55.47-.23.66-.19,1.32-.19,1.98v.55c-.3-.11-.36-.28-.56-.41-.06-.04-.14-.05-.25-.07-.18,0-.32.04-.47.07,0-.43,0-.86.02-1.29.03-.53.13-1.05.41-1.57l.14-.22Z"/>
    <path class="cls-1" d="M5.14,2.18s.03.05.12.06c.27.05.52.06.81.07,0-.03-.02-.05-.06-.07-.05-.03-.07-.05-.06-.09.07-.04.19-.03.23-.06.1-.07-.02-.14.23-.19l.15.02c.11-.02.2-.05.28-.09.03.06-.11.08-.11.13,0,.09.14.17.16.26.03.08-.16.27.04.32.1,0,.22-.02.3.02.01,0,.02.01.03.02-.28,0-.45.01-.66.08-.32.11-.44.32-.55.47,0-.04.03-.09.02-.13,0,0-.02-.05-.04-.05-.13-.03-.78.02-1.1-.06v-.03c.09-.04.12-.05.26-.07l-.21-.02-.07-.06s.04-.05.12-.09c.25-.01.59.05.84.07.01-.01.03-.03.05-.03.09-.04.3-.02.43-.03.09,0,.06,0,.1-.02-.02-.02-.02-.02-.05-.03-.22-.08-.95-.17-1.26-.17-.02,0-.04,0-.06,0l-.06-.03.14-.22Z"/>
    <path class="cls-3" d="M5.18,2.8l-.21-.02-.07-.06s.04-.05.12-.09c.25-.01.59.05.84.07.16,0,.24,0,.38.04l.03.03s-.09.05-.19.06c-.23.03-.64,0-.84-.04-.02,0-.03,0-.04-.01Z"/>
    <path class="cls-1" d="M4.59,3.97s.02.09.1.13c.08.02.11.01.19.01.14,0,.2,0,.31.03.07.02.18.05.17.08,0,.01-.03.04-.04.04l.05.02c.06-.01.07-.01.14,0,0,0,.02,0,.02,0,0,0,0,.01,0,.02.02.07.17.22.12.28-.04.04-.15.09-.2.14-.09,0-.15-.02-.22-.03h-.04s-.02.08.05.11c.16.07.46.1.59.17v.04c-.42,0-.76-.2-1.13-.21l-.04.02s.06.07.17.09c.26.08.69.18,1.02.21,0,0,0,0,0,0v.55c-.3-.11-.36-.28-.56-.41-.06-.04-.14-.05-.25-.07-.18,0-.32.04-.47.07,0-.43,0-.86.02-1.29Z"/>
    <path class="cls-2" d="M4.16,19.52c.12,1.03.05,2.07.04,3.1-.13.06-.26.02-.37.1-.06.02-.05.03-.13.03-.09.01-.06,0-.15.03-.18.05-.39.05-.6.04l-.15-.04-.03-2.84s.03,0,.04,0c.26-.04.54-.07.82-.08h.07s-.08-.08-.15-.12h.03c.14-.02.31.03.42.06h.09c.08-.08.04-.2.05-.28Z"/>
    <path class="cls-1" d="M3.45,20.35l-.34-.04c-.07-.03-.11-.04-.1-.08s.04-.06.11-.09c.11-.02.18-.02.3-.01.2.01.4.02.59.03,0,0,.01.02.02.02.03.03.07.04.12.07l-.02.06c-.01.05.02.1-.1.14-.06.02-.16.03-.23.02-.04,0-.09-.02-.13-.03.07-.02.11-.02.2-.03l.04-.03-.03-.02c-.16-.02-.27,0-.43-.01Z"/>
    <path class="cls-1" d="M3.13,20.53c.16.04.18.05.37.05.03.02.06.04.04.07-.04.05.03.09-.02.15h-.03c-.13-.03-.03-.05-.2-.04-.03-.01-.05-.02-.08-.03-.1-.03-.16-.05-.22-.09.07,0,.15,0,.22,0,.03-.04-.03-.06-.07-.09Z"/>
  </g>
</svg>