<svg xmlns="http://www.w3.org/2000/svg" xmlns:xlink="http://www.w3.org/1999/xlink" width="100" zoomAndPan="magnify" viewBox="0 0 75 37.5" height="50" preserveAspectRatio="xMidYMid meet" version="1.0"><defs><g/></defs><g fill="#191718" fill-opacity="1"><g transform="translate(21.956047, 28.360464)"><g><path d="M 9.640625 -13.765625 C 9.753906 -13.765625 9.847656 -13.71875 9.921875 -13.625 C 10.003906 -13.539062 10.046875 -13.4375 10.046875 -13.3125 C 9.828125 -11.09375 9.695312 -9.03125 9.65625 -7.125 C 9.644531 -6.914062 9.640625 -6.613281 9.640625 -6.21875 L 9.625 -5.3125 L 9.515625 -5.3125 C 9.441406 -5.3125 9.394531 -5.304688 9.375 -5.296875 C 9.363281 -5.285156 9.28125 -5.28125 9.125 -5.28125 L 9.15625 -5.234375 L 9.125 -5.203125 L 9.15625 -5.203125 L 9.234375 -5.21875 C 9.265625 -5.207031 9.332031 -5.203125 9.4375 -5.203125 L 9.578125 -5.203125 C 9.609375 -5.203125 9.625 -5.195312 9.625 -5.1875 L 9.625 -5.140625 L 9.515625 -5.140625 L 9.5625 -5.125 L 9.515625 -5.078125 L 9.625 -5.078125 C 9.601562 -4.066406 9.59375 -2.554688 9.59375 -0.546875 C 9.59375 -0.265625 9.460938 -0.125 9.203125 -0.125 L 6.5625 -0.0625 C 6.375 -0.0625 6.238281 -0.144531 6.15625 -0.3125 L 5.859375 -1.15625 L 5.875 -1.15625 L 5.875 -1.1875 L 5.84375 -1.1875 L 4.265625 -5.375 C 4.367188 -5.425781 4.445312 -5.472656 4.5 -5.515625 L 4.40625 -5.5 L 4.359375 -5.515625 L 4.265625 -5.5 L 4.21875 -5.484375 L 3.453125 -7.484375 L 3.3125 -0.40625 C 3.289062 -0.132812 3.15625 0 2.90625 0 L 0.203125 0 C 0.078125 0 -0.0195312 -0.0351562 -0.09375 -0.109375 C -0.164062 -0.191406 -0.203125 -0.296875 -0.203125 -0.421875 C -0.171875 -1.109375 -0.117188 -2.09375 -0.046875 -3.375 L -0.015625 -3.859375 C 0.128906 -6.367188 0.238281 -8.148438 0.3125 -9.203125 L 0.6875 -13.375 C 0.695312 -13.613281 0.828125 -13.742188 1.078125 -13.765625 L 3 -13.8125 C 3.425781 -13.84375 3.789062 -13.738281 4.09375 -13.5 C 4.40625 -13.257812 4.65625 -12.925781 4.84375 -12.5 L 4.859375 -12.484375 L 6.515625 -8.140625 L 6.84375 -13.4375 C 6.84375 -13.6875 6.984375 -13.8125 7.265625 -13.8125 Z M 2.3125 -10.953125 C 2.289062 -10.953125 2.265625 -10.9375 2.234375 -10.90625 L 2.359375 -10.84375 C 2.359375 -10.894531 2.34375 -10.929688 2.3125 -10.953125 Z M 2.078125 -9.921875 L 2.078125 -9.984375 L 1.953125 -9.984375 L 1.953125 -9.921875 Z M 2.40625 -9.8125 C 2.457031 -9.851562 2.484375 -9.898438 2.484375 -9.953125 L 2.359375 -9.953125 L 2.359375 -9.875 C 2.390625 -9.851562 2.40625 -9.832031 2.40625 -9.8125 Z M 3.34375 -9.84375 C 3.269531 -9.90625 3.222656 -9.941406 3.203125 -9.953125 C 3.203125 -9.898438 3.210938 -9.847656 3.234375 -9.796875 L 3.296875 -9.8125 Z M 2.875 -9.703125 C 2.914062 -9.703125 2.972656 -9.722656 3.046875 -9.765625 L 3.0625 -9.796875 L 2.703125 -9.796875 L 2.703125 -9.859375 L 2.546875 -9.859375 L 2.546875 -9.78125 L 2.703125 -9.78125 L 2.703125 -9.796875 L 2.734375 -9.765625 L 2.8125 -9.71875 C 2.8125 -9.707031 2.832031 -9.703125 2.875 -9.703125 Z M 3.1875 -9.6875 L 3.21875 -9.734375 L 3.0625 -9.78125 L 3.0625 -9.71875 Z M 3.3125 -9.65625 C 3.382812 -9.65625 3.441406 -9.675781 3.484375 -9.71875 C 3.429688 -9.757812 3.382812 -9.78125 3.34375 -9.78125 C 3.3125 -9.75 3.300781 -9.726562 3.3125 -9.71875 Z M 2.65625 -9.640625 C 2.695312 -9.578125 2.757812 -9.5625 2.84375 -9.59375 C 2.800781 -9.625 2.738281 -9.640625 2.65625 -9.640625 Z M 2.359375 -8.578125 L 2.359375 -8.5 L 2.515625 -8.5 L 2.515625 -8.578125 Z M 3.21875 -8.3125 L 3.421875 -8.3125 L 3.421875 -8.40625 L 3.21875 -8.40625 Z M 3.5 -7.765625 C 3.5 -7.796875 3.453125 -7.832031 3.359375 -7.875 C 3.390625 -7.769531 3.421875 -7.707031 3.453125 -7.6875 Z M 4.921875 -7.84375 C 4.921875 -7.769531 4.910156 -7.722656 4.890625 -7.703125 C 4.867188 -7.691406 4.8125 -7.6875 4.71875 -7.6875 L 4.765625 -7.625 L 5.015625 -7.796875 Z M 3.234375 -7.6875 L 3.234375 -7.796875 L 3.09375 -7.796875 L 3.09375 -7.6875 Z M 4.625 -7.515625 L 4.625 -7.640625 L 4.515625 -7.640625 L 4.515625 -7.515625 Z M 2.734375 -7.578125 C 2.785156 -7.515625 2.828125 -7.484375 2.859375 -7.484375 C 2.898438 -7.492188 2.925781 -7.523438 2.9375 -7.578125 Z M 4.875 -7.484375 C 4.875 -7.484375 4.875 -7.492188 4.875 -7.515625 L 4.84375 -7.5625 L 4.8125 -7.5 L 4.859375 -7.421875 L 4.875 -7.421875 Z M 3.578125 -7.515625 C 3.703125 -7.472656 3.796875 -7.472656 3.859375 -7.515625 Z M 3.140625 -7.359375 L 3.140625 -7.28125 L 3.34375 -7.28125 L 3.34375 -7.359375 Z M 2.515625 -7.15625 C 2.515625 -7.1875 2.503906 -7.226562 2.484375 -7.28125 L 2.484375 -7.3125 C 2.390625 -7.3125 2.320312 -7.296875 2.28125 -7.265625 L 2.28125 -7.15625 Z M 4.953125 -7.15625 L 5.046875 -7.15625 L 5.046875 -7.234375 L 4.953125 -7.234375 Z M 4.84375 -6.984375 L 4.84375 -7.046875 L 4.703125 -7.046875 L 4.703125 -6.984375 Z M 6.59375 -6.984375 L 6.640625 -7.046875 L 6.59375 -7.046875 L 6.578125 -7 Z M 2.40625 -6.8125 C 2.4375 -6.84375 2.453125 -6.863281 2.453125 -6.875 C 2.453125 -6.925781 2.394531 -6.960938 2.28125 -6.984375 L 2.28125 -6.859375 Z M 2.65625 -6.796875 L 2.65625 -6.875 L 2.515625 -6.875 L 2.515625 -6.796875 Z M 5.015625 -6.640625 C 4.992188 -6.722656 4.984375 -6.800781 4.984375 -6.875 C 4.960938 -6.863281 4.945312 -6.851562 4.9375 -6.84375 C 4.9375 -6.84375 4.9375 -6.832031 4.9375 -6.8125 L 4.875 -6.765625 L 4.8125 -6.734375 L 4.796875 -6.703125 C 4.828125 -6.671875 4.84375 -6.648438 4.84375 -6.640625 L 4.875 -6.625 Z M 4.234375 -6.546875 C 4.234375 -6.546875 4.226562 -6.546875 4.21875 -6.546875 C 4.21875 -6.554688 4.21875 -6.5625 4.21875 -6.5625 C 4.195312 -6.5625 4.171875 -6.570312 4.140625 -6.59375 C 4.109375 -6.59375 4.09375 -6.566406 4.09375 -6.515625 L 4.09375 -6.484375 L 4.234375 -6.484375 Z M 2.421875 -6.515625 C 2.347656 -6.472656 2.3125 -6.425781 2.3125 -6.375 L 2.515625 -6.375 Z M 7.625 -6.515625 L 7.625 -6.453125 L 7.65625 -6.453125 L 7.65625 -6.515625 Z M 2.921875 -6.34375 L 2.921875 -6.1875 L 3.046875 -6.1875 L 3.046875 -6.34375 Z M 2 -6.3125 L 2 -6.1875 L 2.15625 -6.1875 L 2.15625 -6.3125 Z M 5.0625 -6 C 5.0625 -5.914062 5.117188 -5.875 5.234375 -5.875 L 5.234375 -6 Z M 5.71875 -5.734375 C 5.582031 -5.804688 5.488281 -5.84375 5.4375 -5.84375 C 5.4375 -5.769531 5.488281 -5.722656 5.59375 -5.703125 C 5.613281 -5.710938 5.632812 -5.71875 5.65625 -5.71875 Z M 5 -5.59375 L 5.078125 -5.71875 L 4.953125 -5.734375 L 4.90625 -5.640625 Z M 5.0625 -5.6875 L 5.078125 -5.625 L 5.3125 -5.6875 L 5.28125 -5.734375 Z M 7.15625 -5.640625 L 7.21875 -5.71875 L 7.140625 -5.734375 L 7.078125 -5.6875 Z M 5.765625 -5.578125 L 5.734375 -5.65625 L 5.578125 -5.625 L 5.59375 -5.5625 Z M 1.71875 -5.453125 C 1.800781 -5.453125 1.867188 -5.46875 1.921875 -5.5 L 1.875 -5.625 C 1.769531 -5.570312 1.71875 -5.515625 1.71875 -5.453125 Z M 4.84375 -5.515625 C 4.789062 -5.566406 4.742188 -5.601562 4.703125 -5.625 C 4.691406 -5.582031 4.644531 -5.554688 4.5625 -5.546875 C 4.570312 -5.523438 4.59375 -5.515625 4.625 -5.515625 L 4.65625 -5.5 L 4.734375 -5.453125 L 4.796875 -5.484375 Z M 2.15625 -5.484375 L 2.15625 -5.40625 L 2.3125 -5.453125 L 2.28125 -5.546875 Z M 2.40625 -5.203125 C 2.28125 -5.265625 2.21875 -5.296875 2.21875 -5.296875 L 2.15625 -5.34375 L 1.953125 -5.375 L 2 -5.203125 Z M 5.09375 -5 C 5.082031 -5.082031 5.046875 -5.125 4.984375 -5.125 C 4.960938 -5.101562 4.960938 -5.082031 4.984375 -5.0625 C 4.984375 -5.0625 4.984375 -5.054688 4.984375 -5.046875 C 4.992188 -5.046875 5 -5.046875 5 -5.046875 Z M 7.078125 -5.015625 C 7.109375 -4.953125 7.132812 -4.914062 7.15625 -4.90625 C 7.1875 -4.914062 7.195312 -4.945312 7.1875 -5 L 7.09375 -5 Z M 5.125 -4.875 L 5.140625 -4.875 C 5.148438 -4.875 5.171875 -4.890625 5.203125 -4.921875 L 5.21875 -4.921875 L 5.234375 -4.9375 L 5.078125 -4.984375 L 5.078125 -4.859375 Z M 5.953125 -4.8125 L 5.921875 -4.953125 L 5.859375 -4.9375 L 5.859375 -4.8125 Z M 2.515625 -4.84375 L 2.515625 -4.9375 L 2.3125 -4.9375 L 2.3125 -4.84375 Z M 5.265625 -4.640625 L 5.359375 -4.59375 L 5.40625 -4.6875 L 5.296875 -4.703125 Z M 2.4375 -4.65625 L 2.4375 -4.515625 L 2.5625 -4.515625 L 2.5625 -4.65625 Z M 5.015625 -4.515625 C 4.992188 -4.515625 4.972656 -4.503906 4.953125 -4.484375 C 4.941406 -4.460938 4.953125 -4.445312 4.984375 -4.4375 L 5.09375 -4.453125 Z M 5.859375 -4.34375 C 5.847656 -4.320312 5.828125 -4.3125 5.796875 -4.3125 L 5.765625 -4.3125 C 5.765625 -4.300781 5.789062 -4.257812 5.84375 -4.1875 L 5.921875 -4.078125 C 5.972656 -4.109375 6.015625 -4.132812 6.046875 -4.15625 C 6.054688 -4.175781 6.078125 -4.191406 6.109375 -4.203125 C 6.140625 -4.222656 6.171875 -4.25 6.203125 -4.28125 L 6.078125 -4.265625 L 6.046875 -4.265625 L 6 -4.234375 L 5.953125 -4.21875 C 5.929688 -4.25 5.921875 -4.269531 5.921875 -4.28125 C 5.921875 -4.300781 5.90625 -4.320312 5.875 -4.34375 Z M 5.359375 -4.265625 L 5.3125 -4.3125 L 5.1875 -4.296875 L 5.21875 -4.21875 Z M 2.3125 -4.203125 C 2.238281 -4.203125 2.203125 -4.195312 2.203125 -4.1875 C 2.171875 -4.164062 2.15625 -4.144531 2.15625 -4.125 L 2.28125 -4.046875 L 2.3125 -4.140625 Z M 6.203125 -4.0625 L 6.140625 -4.046875 L 6.15625 -4.078125 L 6 -4.078125 C 5.988281 -4.066406 5.960938 -4.0625 5.921875 -4.0625 C 5.929688 -4.007812 5.957031 -3.984375 6 -3.984375 L 6.046875 -3.9375 C 6.078125 -3.976562 6.09375 -4 6.09375 -4 L 6.28125 -4 L 6.4375 -4.046875 L 6.40625 -4.09375 L 6.234375 -4.0625 Z M 6.5625 -3.875 L 6.640625 -3.921875 L 6.578125 -4.046875 L 6.484375 -4 Z M 5.046875 -3.9375 C 5.078125 -3.925781 5.132812 -3.925781 5.21875 -3.9375 C 5.175781 -3.988281 5.117188 -4.015625 5.046875 -4.015625 Z M 3.15625 -3.875 L 3.15625 -3.765625 L 3.296875 -3.765625 L 3.296875 -3.875 Z M 6.046875 -3.734375 C 6.117188 -3.679688 6.207031 -3.671875 6.3125 -3.703125 L 6.3125 -3.765625 C 6.3125 -3.816406 6.273438 -3.847656 6.203125 -3.859375 L 6.046875 -3.8125 Z M 5.5 -3.71875 L 5.5 -3.8125 L 5.421875 -3.8125 L 5.421875 -3.71875 Z M 5.921875 -3.6875 C 5.910156 -3.707031 5.882812 -3.71875 5.84375 -3.71875 C 5.8125 -3.726562 5.785156 -3.742188 5.765625 -3.765625 L 5.6875 -3.78125 L 5.765625 -3.640625 Z M 7.078125 -3.40625 C 7.160156 -3.375 7.207031 -3.359375 7.21875 -3.359375 C 7.25 -3.367188 7.257812 -3.382812 7.25 -3.40625 C 7.238281 -3.4375 7.222656 -3.460938 7.203125 -3.484375 Z M 6.3125 -3.125 L 6.40625 -3.140625 L 6.28125 -3.421875 L 6.203125 -3.40625 Z M 5.421875 -3.40625 L 5.421875 -3.296875 L 5.5625 -3.296875 L 5.5625 -3.40625 Z M 5.546875 -3.125 C 5.515625 -3.144531 5.519531 -3.191406 5.5625 -3.265625 L 5.359375 -3.203125 C 5.359375 -3.171875 5.382812 -3.15625 5.4375 -3.15625 C 5.4375 -3.144531 5.453125 -3.140625 5.484375 -3.140625 Z M 6.859375 -2.796875 C 6.890625 -2.773438 6.914062 -2.765625 6.9375 -2.765625 L 7.09375 -2.796875 C 6.9375 -2.878906 6.851562 -2.945312 6.84375 -3 L 6.84375 -3.09375 C 6.84375 -3.09375 6.84375 -3.097656 6.84375 -3.109375 C 6.851562 -3.117188 6.859375 -3.125 6.859375 -3.125 L 6.84375 -3.140625 L 6.71875 -3.09375 C 6.71875 -3.082031 6.6875 -3.070312 6.625 -3.0625 L 6.578125 -3.015625 L 6.515625 -2.984375 L 6.65625 -2.953125 L 6.78125 -2.9375 C 6.800781 -2.882812 6.828125 -2.835938 6.859375 -2.796875 Z M 6.15625 -2.953125 C 6.15625 -2.984375 6.117188 -3.019531 6.046875 -3.0625 L 6.125 -2.875 Z M 6.4375 -2.578125 C 6.539062 -2.609375 6.601562 -2.628906 6.625 -2.640625 L 6.6875 -2.6875 L 6.71875 -2.71875 L 6.765625 -2.734375 L 6.703125 -2.875 L 6.625 -2.875 L 6.515625 -2.921875 C 6.515625 -2.890625 6.53125 -2.847656 6.5625 -2.796875 C 6.5625 -2.796875 6.5625 -2.789062 6.5625 -2.78125 C 6.570312 -2.78125 6.578125 -2.78125 6.578125 -2.78125 L 6.578125 -2.734375 C 6.609375 -2.722656 6.609375 -2.707031 6.578125 -2.6875 C 6.578125 -2.664062 6.5625 -2.648438 6.53125 -2.640625 C 6.5 -2.628906 6.46875 -2.609375 6.4375 -2.578125 Z M 2.203125 -2.875 L 2.203125 -2.734375 L 2.3125 -2.734375 L 2.3125 -2.875 Z M 5.921875 -2.484375 L 6 -2.4375 L 6.4375 -2.6875 C 6.375 -2.65625 6.300781 -2.640625 6.21875 -2.640625 C 6.195312 -2.609375 6.148438 -2.59375 6.078125 -2.59375 C 5.972656 -2.570312 5.898438 -2.546875 5.859375 -2.515625 L 5.90625 -2.5 L 5.921875 -2.5 Z M 7.453125 -2.6875 C 7.453125 -2.613281 7.441406 -2.570312 7.421875 -2.5625 C 7.410156 -2.550781 7.359375 -2.546875 7.265625 -2.546875 L 7.296875 -2.453125 L 7.5625 -2.65625 Z M 2.359375 -2.515625 C 2.460938 -2.554688 2.53125 -2.59375 2.5625 -2.625 C 2.507812 -2.644531 2.441406 -2.65625 2.359375 -2.65625 Z M 7.125 -2.1875 L 7.21875 -2.15625 L 7.234375 -2.28125 L 7.140625 -2.28125 Z M 2.59375 -2.234375 L 2.59375 -2.125 L 2.796875 -2.125 L 2.796875 -2.234375 Z M 6.734375 -2.203125 L 6.625 -2.078125 L 6.65625 -2.0625 C 6.675781 -2.0625 6.6875 -2.054688 6.6875 -2.046875 C 6.695312 -2.046875 6.703125 -2.035156 6.703125 -2.015625 L 6.875 -2.0625 Z M 6.984375 -2.078125 C 6.941406 -2.023438 6.945312 -2 7 -2 C 7.039062 -2 7.066406 -2.003906 7.078125 -2.015625 L 7.0625 -2.046875 C 7.03125 -2.046875 7.003906 -2.054688 6.984375 -2.078125 Z M 7.203125 -1.921875 C 7.203125 -1.910156 7.179688 -1.90625 7.140625 -1.90625 L 7.125 -1.90625 L 7.046875 -1.78125 L 7.046875 -1.765625 L 7.0625 -1.765625 L 7.140625 -1.875 C 7.191406 -1.894531 7.242188 -1.894531 7.296875 -1.875 L 7.3125 -1.90625 Z M 7.5625 -1.90625 C 7.519531 -1.875 7.484375 -1.835938 7.453125 -1.796875 L 7.4375 -1.796875 L 7.453125 -1.78125 C 7.484375 -1.832031 7.519531 -1.863281 7.5625 -1.875 L 7.578125 -1.875 Z M 6.234375 -1.546875 C 6.265625 -1.554688 6.289062 -1.582031 6.3125 -1.625 L 6.125 -1.578125 L 6.078125 -1.578125 L 6 -1.5625 C 6.050781 -1.519531 6.050781 -1.472656 6 -1.421875 C 6.09375 -1.421875 6.144531 -1.441406 6.15625 -1.484375 C 6.195312 -1.503906 6.222656 -1.519531 6.234375 -1.53125 C 6.253906 -1.550781 6.253906 -1.554688 6.234375 -1.546875 Z M 6.234375 -1.546875 "/></g></g></g><g fill="#191718" fill-opacity="1"><g transform="translate(36.999632, 28.360464)"><g><path d="M 11.0625 -0.40625 C 11.0625 -0.289062 11.023438 -0.191406 10.953125 -0.109375 C 10.878906 -0.0351562 10.78125 0 10.65625 0 L 7.640625 0 C 7.398438 0 7.265625 -0.117188 7.234375 -0.359375 L 7.046875 -2.796875 L 4.015625 -2.203125 L 3.578125 -0.359375 C 3.523438 -0.160156 3.394531 -0.0625 3.1875 -0.0625 L 0.21875 -0.125 C 0.0820312 -0.125 -0.0195312 -0.171875 -0.09375 -0.265625 C -0.164062 -0.367188 -0.1875 -0.492188 -0.15625 -0.640625 C 0.175781 -1.890625 0.632812 -3.460938 1.21875 -5.359375 C 1.53125 -6.359375 1.9375 -7.5 2.4375 -8.78125 C 2.90625 -9.96875 3.53125 -11.476562 4.3125 -13.3125 C 4.375 -13.4375 4.476562 -13.519531 4.625 -13.5625 L 5.046875 -13.640625 C 5.441406 -13.722656 5.742188 -13.773438 5.953125 -13.796875 C 6.078125 -13.828125 6.28125 -13.84375 6.5625 -13.84375 C 6.8125 -13.84375 7 -13.832031 7.125 -13.8125 C 7.757812 -13.757812 8.269531 -13.300781 8.65625 -12.4375 C 8.78125 -12.113281 8.921875 -11.65625 9.078125 -11.0625 C 9.253906 -10.34375 9.414062 -9.609375 9.5625 -8.859375 L 11.0625 -0.484375 Z M 4.796875 -12.953125 L 4.796875 -13.078125 L 4.71875 -13.078125 L 4.71875 -12.953125 Z M 7.21875 -12.4375 L 7.21875 -12.59375 L 7.15625 -12.59375 L 7.15625 -12.4375 Z M 7.0625 -12.09375 C 7.082031 -12.15625 7.09375 -12.210938 7.09375 -12.265625 C 7.03125 -12.265625 7 -12.269531 7 -12.28125 L 7 -12.15625 Z M 4.734375 -12.1875 L 4.734375 -11.921875 C 4.734375 -11.972656 4.769531 -12.050781 4.84375 -12.15625 L 4.78125 -12.15625 Z M 7.375 -12.125 C 7.40625 -12.144531 7.425781 -12.15625 7.4375 -12.15625 L 7.21875 -12.1875 L 7.21875 -12.09375 C 7.226562 -12.082031 7.234375 -12.066406 7.234375 -12.046875 L 7.3125 -12.046875 C 7.3125 -12.054688 7.332031 -12.082031 7.375 -12.125 Z M 7.21875 -12.046875 L 7.21875 -12.078125 L 7.1875 -12.15625 L 7.1875 -12.09375 Z M 7.59375 -11.9375 C 7.539062 -11.9375 7.492188 -11.890625 7.453125 -11.796875 L 7.5 -11.765625 L 7.765625 -11.765625 L 7.84375 -11.796875 C 7.769531 -11.835938 7.734375 -11.878906 7.734375 -11.921875 L 7.78125 -11.984375 C 7.695312 -11.953125 7.632812 -11.9375 7.59375 -11.9375 Z M 7.546875 -11.40625 C 7.484375 -11.40625 7.453125 -11.375 7.453125 -11.3125 C 7.484375 -11.289062 7.519531 -11.28125 7.5625 -11.28125 C 7.570312 -11.28125 7.601562 -11.265625 7.65625 -11.234375 C 7.6875 -11.265625 7.703125 -11.285156 7.703125 -11.296875 L 7.71875 -11.34375 C 7.65625 -11.382812 7.597656 -11.40625 7.546875 -11.40625 Z M 5.921875 -11.21875 L 5.9375 -11.28125 L 5.921875 -11.28125 L 5.875 -11.234375 Z M 6.140625 -11.015625 L 6.234375 -11.015625 C 6.253906 -11.003906 6.269531 -11 6.28125 -11 C 6.289062 -11.007812 6.300781 -11.015625 6.3125 -11.015625 C 6.3125 -11.066406 6.300781 -11.109375 6.28125 -11.140625 C 6.269531 -11.140625 6.253906 -11.132812 6.234375 -11.125 C 6.222656 -11.125 6.210938 -11.125 6.203125 -11.125 L 6.125 -11.125 Z M 7.875 -10.765625 C 7.875 -10.742188 7.84375 -10.722656 7.78125 -10.703125 C 7.75 -10.703125 7.734375 -10.679688 7.734375 -10.640625 C 7.734375 -10.628906 7.75 -10.609375 7.78125 -10.578125 L 7.90625 -10.578125 C 7.957031 -10.609375 7.984375 -10.632812 7.984375 -10.65625 C 7.984375 -10.726562 7.945312 -10.765625 7.875 -10.765625 Z M 3.484375 -9.984375 C 3.492188 -10.003906 3.472656 -9.992188 3.421875 -9.953125 C 3.378906 -9.921875 3.359375 -9.894531 3.359375 -9.875 C 3.359375 -9.832031 3.375 -9.785156 3.40625 -9.734375 C 3.4375 -9.679688 3.460938 -9.65625 3.484375 -9.65625 C 3.492188 -9.695312 3.5 -9.75 3.5 -9.8125 C 3.5 -9.894531 3.492188 -9.953125 3.484375 -9.984375 Z M 4.859375 -9.6875 C 4.867188 -9.695312 4.882812 -9.703125 4.90625 -9.703125 C 4.9375 -9.691406 4.960938 -9.695312 4.984375 -9.71875 L 4.875 -9.765625 C 4.863281 -9.765625 4.859375 -9.75 4.859375 -9.71875 Z M 3.453125 -9.15625 L 3.546875 -9.15625 L 3.546875 -9.40625 L 3.453125 -9.375 Z M 5.796875 -9.296875 C 5.691406 -9.296875 5.613281 -9.25 5.5625 -9.15625 C 5.582031 -9.0625 5.613281 -9.007812 5.65625 -9 C 5.695312 -8.988281 5.757812 -9.003906 5.84375 -9.046875 L 5.90625 -9.203125 L 5.875 -9.234375 C 5.875 -9.253906 5.863281 -9.273438 5.84375 -9.296875 Z M 7.953125 -9.234375 L 8.09375 -9.234375 L 8.09375 -9.28125 L 7.953125 -9.28125 Z M 8.1875 -8.921875 C 8.1875 -8.984375 8.144531 -9.015625 8.0625 -9.015625 L 8.046875 -8.953125 L 8.0625 -8.921875 Z M 6.4375 -6.71875 C 6.382812 -7.144531 6.335938 -7.46875 6.296875 -7.6875 C 6.191406 -8.238281 6.109375 -8.65625 6.046875 -8.9375 L 5.0625 -5.71875 L 6.5625 -5.765625 Z M 5.578125 -8.65625 L 5.625 -8.640625 L 5.6875 -8.796875 L 5.640625 -8.8125 Z M 7.515625 -8.65625 L 7.5625 -8.6875 L 7.515625 -8.71875 L 7.453125 -8.703125 Z M 5.015625 -7.5 C 5.054688 -7.53125 5.097656 -7.570312 5.140625 -7.625 C 5.191406 -7.6875 5.222656 -7.738281 5.234375 -7.78125 L 5.28125 -7.9375 L 5.484375 -8.359375 L 5.375 -8.40625 L 5.28125 -8.3125 C 5.226562 -8.257812 5.195312 -8.234375 5.1875 -8.234375 C 5.113281 -7.984375 5.078125 -7.863281 5.078125 -7.875 C 5.035156 -7.78125 5.007812 -7.734375 5 -7.734375 C 5 -7.710938 4.976562 -7.6875 4.9375 -7.65625 C 4.914062 -7.632812 4.894531 -7.585938 4.875 -7.515625 L 4.734375 -7.078125 L 4.65625 -6.796875 C 4.613281 -6.679688 4.554688 -6.578125 4.484375 -6.484375 C 4.398438 -6.390625 4.347656 -6.304688 4.328125 -6.234375 C 4.304688 -6.171875 4.296875 -6.132812 4.296875 -6.125 C 4.273438 -6.070312 4.265625 -6.007812 4.265625 -5.9375 C 4.242188 -5.851562 4.203125 -5.757812 4.140625 -5.65625 C 4.085938 -5.550781 4.054688 -5.472656 4.046875 -5.421875 C 4.046875 -5.328125 4.054688 -5.28125 4.078125 -5.28125 C 4.117188 -5.269531 4.15625 -5.269531 4.1875 -5.28125 C 4.1875 -5.28125 4.203125 -5.300781 4.234375 -5.34375 C 4.285156 -5.457031 4.328125 -5.570312 4.359375 -5.6875 C 4.367188 -5.800781 4.414062 -5.90625 4.5 -6 C 4.5 -6.039062 4.539062 -6.101562 4.625 -6.1875 L 4.703125 -6.40625 C 4.722656 -6.4375 4.757812 -6.539062 4.8125 -6.71875 C 4.875 -6.894531 4.941406 -7.078125 5.015625 -7.265625 Z M 7.78125 -7.953125 C 7.78125 -7.953125 7.78125 -7.957031 7.78125 -7.96875 C 7.789062 -7.976562 7.796875 -7.984375 7.796875 -7.984375 L 7.65625 -8 L 7.65625 -7.921875 L 7.78125 -7.921875 Z M 8.1875 -7.78125 L 8.0625 -7.8125 L 8.0625 -7.78125 L 8.1875 -7.734375 Z M 7.21875 -7.6875 C 7.226562 -7.65625 7.242188 -7.640625 7.265625 -7.640625 C 7.296875 -7.640625 7.3125 -7.65625 7.3125 -7.6875 Z M 8.265625 -6.984375 C 8.328125 -6.984375 8.359375 -7.007812 8.359375 -7.0625 Z M 6.984375 -6.921875 C 6.984375 -6.929688 6.96875 -6.953125 6.9375 -6.984375 L 6.859375 -7 L 6.859375 -6.921875 Z M 7.703125 -6.71875 C 7.691406 -6.820312 7.609375 -6.890625 7.453125 -6.921875 C 7.421875 -6.910156 7.40625 -6.867188 7.40625 -6.796875 L 7.515625 -6.796875 C 7.453125 -6.753906 7.445312 -6.707031 7.5 -6.65625 L 7.6875 -6.65625 L 7.6875 -6.71875 Z M 8.21875 -6.84375 C 8.300781 -6.84375 8.34375 -6.851562 8.34375 -6.875 C 8.320312 -6.875 8.304688 -6.878906 8.296875 -6.890625 C 8.296875 -6.898438 8.296875 -6.910156 8.296875 -6.921875 L 8.265625 -6.921875 C 8.234375 -6.921875 8.21875 -6.90625 8.21875 -6.875 Z M 7.953125 -6.84375 C 7.984375 -6.8125 8.003906 -6.796875 8.015625 -6.796875 L 8.0625 -6.859375 C 8.0625 -6.867188 8.019531 -6.875 7.9375 -6.875 Z M 8.21875 -6.625 C 8.269531 -6.59375 8.3125 -6.578125 8.34375 -6.578125 C 8.40625 -6.578125 8.472656 -6.597656 8.546875 -6.640625 C 8.484375 -6.691406 8.425781 -6.71875 8.375 -6.71875 L 8.21875 -6.71875 Z M 7.6875 -6.375 C 7.738281 -6.375 7.769531 -6.367188 7.78125 -6.359375 L 7.90625 -6.359375 L 7.90625 -6.453125 L 7.84375 -6.484375 C 7.820312 -6.492188 7.800781 -6.5 7.78125 -6.5 C 7.71875 -6.46875 7.6875 -6.425781 7.6875 -6.375 Z M 6.875 -6.4375 L 6.875 -6.40625 L 7.046875 -6.40625 L 7.046875 -6.4375 Z M 8.640625 -6.359375 C 8.628906 -6.410156 8.609375 -6.4375 8.578125 -6.4375 L 8.375 -6.4375 C 8.3125 -6.382812 8.257812 -6.347656 8.21875 -6.328125 C 8.175781 -6.304688 8.15625 -6.289062 8.15625 -6.28125 C 8.15625 -6.226562 8.21875 -6.109375 8.34375 -5.921875 L 8.625 -5.921875 L 8.703125 -5.9375 C 8.660156 -6.007812 8.613281 -6.046875 8.5625 -6.046875 C 8.507812 -6.046875 8.441406 -6.082031 8.359375 -6.15625 C 8.453125 -6.1875 8.503906 -6.210938 8.515625 -6.234375 C 8.535156 -6.273438 8.578125 -6.316406 8.640625 -6.359375 Z M 3.765625 -6.375 L 3.71875 -6.203125 C 3.71875 -6.148438 3.738281 -6.109375 3.78125 -6.078125 C 3.820312 -6.148438 3.84375 -6.203125 3.84375 -6.234375 L 3.84375 -6.375 Z M 7.71875 -6.28125 L 7.703125 -6.3125 L 7.5625 -6.3125 L 7.5625 -6.234375 L 7.65625 -6.15625 L 7.65625 -6.1875 L 7.703125 -6.203125 L 7.734375 -6.203125 Z M 7.953125 -6.1875 C 7.953125 -6.1875 7.945312 -6.1875 7.9375 -6.1875 C 7.9375 -6.195312 7.9375 -6.203125 7.9375 -6.203125 L 7.90625 -6.203125 L 7.9375 -5.953125 C 7.976562 -6.015625 8.003906 -6.082031 8.015625 -6.15625 Z M 7.484375 -6.078125 C 7.453125 -6.085938 7.421875 -6.085938 7.390625 -6.078125 C 7.359375 -6.078125 7.332031 -6.078125 7.3125 -6.078125 L 7.375 -5.984375 C 7.40625 -5.992188 7.445312 -6 7.5 -6 L 7.640625 -5.984375 C 7.671875 -5.984375 7.703125 -5.992188 7.734375 -6.015625 C 7.765625 -6.035156 7.78125 -6.054688 7.78125 -6.078125 Z M 7.28125 -5.859375 L 7.265625 -5.796875 L 7.296875 -5.78125 L 7.3125 -5.859375 Z M 7.5625 -5.578125 C 7.570312 -5.585938 7.578125 -5.609375 7.578125 -5.640625 L 7.453125 -5.65625 L 7.421875 -5.625 L 7.40625 -5.578125 L 7.546875 -5.546875 C 7.546875 -5.566406 7.550781 -5.578125 7.5625 -5.578125 Z M 7.234375 -5.578125 C 7.285156 -5.578125 7.300781 -5.59375 7.28125 -5.625 Z M 8.359375 -5.359375 C 8.359375 -5.367188 8.335938 -5.394531 8.296875 -5.4375 L 8.234375 -5.421875 C 8.222656 -5.421875 8.21875 -5.414062 8.21875 -5.40625 L 8.34375 -5.359375 Z M 8.1875 -5.078125 C 8.15625 -5.109375 8.140625 -5.148438 8.140625 -5.203125 C 8.109375 -5.253906 8.09375 -5.289062 8.09375 -5.3125 C 7.976562 -5.394531 7.875 -5.429688 7.78125 -5.421875 C 7.78125 -5.390625 7.800781 -5.375 7.84375 -5.375 C 7.894531 -5.363281 7.941406 -5.304688 7.984375 -5.203125 L 7.984375 -5.078125 Z M 7.125 -5.28125 L 7.125 -5.203125 L 7.1875 -5.203125 L 7.1875 -5.28125 Z M 9 -5.046875 L 9 -5.0625 L 8.875 -5.078125 L 8.875 -5.046875 Z M 7.5625 -4.9375 L 7.640625 -4.9375 L 7.640625 -5.046875 L 7.5625 -5.046875 Z M 7.125 -4.859375 L 7.125 -4.90625 L 7.0625 -4.90625 L 7.0625 -4.859375 Z M 6.359375 -4.796875 L 6.359375 -4.765625 L 6.453125 -4.765625 L 6.453125 -4.796875 Z M 6.875 -4.484375 C 6.894531 -4.492188 6.90625 -4.523438 6.90625 -4.578125 C 6.875 -4.578125 6.828125 -4.554688 6.765625 -4.515625 L 6.84375 -4.515625 Z M 7.546875 -4.4375 C 7.472656 -4.375 7.4375 -4.34375 7.4375 -4.34375 C 7.519531 -4.300781 7.585938 -4.28125 7.640625 -4.28125 C 7.734375 -4.34375 7.78125 -4.394531 7.78125 -4.4375 C 7.78125 -4.445312 7.757812 -4.472656 7.71875 -4.515625 C 7.675781 -4.515625 7.65625 -4.53125 7.65625 -4.5625 Z M 7.953125 -3.875 L 8.0625 -3.875 L 8.0625 -3.921875 L 7.953125 -3.921875 Z M 7.703125 -3.875 C 7.703125 -3.8125 7.738281 -3.757812 7.8125 -3.71875 L 7.8125 -3.875 Z M 8.484375 -3.734375 C 8.484375 -3.710938 8.5 -3.675781 8.53125 -3.625 C 8.5625 -3.582031 8.601562 -3.5625 8.65625 -3.5625 C 8.726562 -3.5625 8.769531 -3.566406 8.78125 -3.578125 C 8.78125 -3.578125 8.820312 -3.582031 8.90625 -3.59375 C 8.882812 -3.625 8.863281 -3.640625 8.84375 -3.640625 L 8.765625 -3.703125 C 8.742188 -3.710938 8.734375 -3.769531 8.734375 -3.875 C 8.722656 -3.820312 8.691406 -3.796875 8.640625 -3.796875 Z M 4 -3.71875 L 4 -3.625 L 4.21875 -3.625 L 4.21875 -3.71875 Z M 3.734375 -3.34375 C 3.710938 -3.394531 3.703125 -3.429688 3.703125 -3.453125 C 3.566406 -3.523438 3.484375 -3.5625 3.453125 -3.5625 C 3.390625 -3.5625 3.34375 -3.539062 3.3125 -3.5 C 3.28125 -3.457031 3.265625 -3.425781 3.265625 -3.40625 C 3.265625 -3.363281 3.289062 -3.316406 3.34375 -3.265625 C 3.394531 -3.222656 3.453125 -3.203125 3.515625 -3.203125 C 3.546875 -3.203125 3.566406 -3.207031 3.578125 -3.21875 L 3.78125 -3.21875 Z M 7.125 -3.5625 L 7.125 -3.484375 L 7.1875 -3.484375 L 7.1875 -3.5625 Z M 9.375 -3.5 L 9.375 -3.546875 L 9.296875 -3.546875 L 9.296875 -3.5 Z M 7.34375 -3.484375 C 7.394531 -3.460938 7.421875 -3.441406 7.421875 -3.421875 L 7.625 -3.421875 L 7.625 -3.484375 Z M 6.359375 -3.453125 L 6.296875 -3.4375 L 6.3125 -3.40625 L 6.375 -3.421875 Z M 9.703125 -0.71875 C 9.742188 -0.71875 9.773438 -0.734375 9.796875 -0.765625 L 9.71875 -1.234375 L 9.640625 -1.71875 L 9.5625 -1.8125 L 9.515625 -1.921875 C 9.515625 -1.960938 9.550781 -2.007812 9.625 -2.0625 C 9.5 -2.125 9.441406 -2.179688 9.453125 -2.234375 C 9.484375 -2.316406 9.5 -2.375 9.5 -2.40625 C 9.5 -2.476562 9.472656 -2.5625 9.421875 -2.65625 C 9.378906 -2.726562 9.359375 -2.773438 9.359375 -2.796875 C 9.359375 -2.847656 9.378906 -2.875 9.421875 -2.875 C 9.429688 -2.875 9.4375 -2.894531 9.4375 -2.9375 C 9.4375 -2.988281 9.414062 -3.054688 9.375 -3.140625 L 9.234375 -3.015625 L 9.09375 -2.921875 L 9.046875 -2.953125 L 9.046875 -3.15625 C 9.046875 -3.226562 9.101562 -3.265625 9.21875 -3.265625 L 9.296875 -3.203125 L 9.296875 -3.359375 C 9.253906 -3.390625 9.203125 -3.410156 9.140625 -3.421875 C 9.078125 -3.441406 9.03125 -3.453125 9 -3.453125 C 8.9375 -3.453125 8.859375 -3.425781 8.765625 -3.375 C 8.671875 -3.332031 8.625 -3.285156 8.625 -3.234375 C 8.625 -3.222656 8.632812 -3.207031 8.65625 -3.1875 L 8.734375 -3.125 C 8.703125 -3.082031 8.703125 -3.035156 8.734375 -2.984375 L 8.8125 -2.921875 C 8.832031 -2.921875 8.84375 -2.910156 8.84375 -2.890625 C 8.851562 -2.878906 8.859375 -2.875 8.859375 -2.875 C 8.816406 -2.851562 8.769531 -2.84375 8.71875 -2.84375 C 8.601562 -2.84375 8.546875 -2.804688 8.546875 -2.734375 C 8.515625 -2.640625 8.5 -2.59375 8.5 -2.59375 C 8.53125 -2.613281 8.5625 -2.613281 8.59375 -2.59375 C 8.625 -2.582031 8.632812 -2.566406 8.625 -2.546875 C 8.625 -2.515625 8.609375 -2.5 8.578125 -2.5 C 8.566406 -2.5 8.5625 -2.492188 8.5625 -2.484375 C 8.5625 -2.453125 8.554688 -2.429688 8.546875 -2.421875 L 8.5 -2.34375 L 8.5 -2.15625 C 8.507812 -2.144531 8.578125 -2.113281 8.703125 -2.0625 C 8.835938 -2.007812 8.84375 -1.957031 8.71875 -1.90625 C 8.757812 -1.882812 8.835938 -1.875 8.953125 -1.875 C 8.992188 -1.875 9.03125 -1.882812 9.0625 -1.90625 L 9.1875 -1.90625 L 9.1875 -1.625 L 9.15625 -1.625 L 9.15625 -1.59375 L 9.140625 -1.59375 L 9.203125 -1.546875 C 9.242188 -1.503906 9.265625 -1.484375 9.265625 -1.484375 C 9.265625 -1.453125 9.273438 -1.4375 9.296875 -1.4375 C 9.296875 -1.4375 9.316406 -1.414062 9.359375 -1.375 L 9.375 -1.203125 C 9.40625 -1.128906 9.453125 -1.078125 9.515625 -1.046875 C 9.515625 -1.015625 9.507812 -0.992188 9.5 -0.984375 L 9.5 -0.9375 C 9.5 -0.914062 9.523438 -0.875 9.578125 -0.8125 C 9.628906 -0.75 9.671875 -0.71875 9.703125 -0.71875 Z M 2.15625 -3.125 C 2.195312 -3.164062 2.175781 -3.191406 2.09375 -3.203125 L 2.09375 -3.15625 Z M 3.015625 -2.796875 C 3.046875 -2.828125 3.039062 -2.863281 3 -2.90625 C 2.96875 -2.875 2.953125 -2.835938 2.953125 -2.796875 C 2.953125 -2.785156 2.96875 -2.78125 3 -2.78125 C 3.007812 -2.78125 3.015625 -2.785156 3.015625 -2.796875 Z M 8.34375 -2.59375 C 8.351562 -2.59375 8.359375 -2.613281 8.359375 -2.65625 L 8.21875 -2.65625 C 8.21875 -2.613281 8.222656 -2.59375 8.234375 -2.59375 C 8.234375 -2.59375 8.253906 -2.578125 8.296875 -2.546875 C 8.296875 -2.554688 8.296875 -2.5625 8.296875 -2.5625 C 8.304688 -2.570312 8.320312 -2.582031 8.34375 -2.59375 Z M 2.546875 -2.4375 L 2.578125 -2.453125 L 2.578125 -2.5625 C 2.578125 -2.601562 2.535156 -2.625 2.453125 -2.625 L 2.421875 -2.59375 C 2.421875 -2.59375 2.414062 -2.585938 2.40625 -2.578125 L 2.40625 -2.5 Z M 7.40625 -2.59375 L 7.40625 -2.515625 L 7.546875 -2.515625 L 7.546875 -2.59375 Z M 7.90625 -2.359375 C 7.90625 -2.398438 7.882812 -2.421875 7.84375 -2.421875 C 7.8125 -2.429688 7.789062 -2.4375 7.78125 -2.4375 L 7.78125 -2.359375 Z M 2.453125 -2.125 C 2.453125 -2.132812 2.460938 -2.144531 2.484375 -2.15625 C 2.503906 -2.175781 2.523438 -2.191406 2.546875 -2.203125 L 2.6875 -2.234375 L 2.6875 -2.3125 C 2.65625 -2.34375 2.632812 -2.359375 2.625 -2.359375 L 2.546875 -2.421875 C 2.484375 -2.296875 2.375 -2.234375 2.21875 -2.234375 C 2.21875 -2.210938 2.238281 -2.179688 2.28125 -2.140625 C 2.320312 -2.097656 2.363281 -2.078125 2.40625 -2.078125 C 2.414062 -2.078125 2.429688 -2.09375 2.453125 -2.125 Z M 7.65625 -2.21875 C 7.601562 -2.226562 7.570312 -2.242188 7.5625 -2.265625 L 7.578125 -2.125 L 7.78125 -2.15625 Z M 3.265625 -1.71875 C 3.285156 -1.726562 3.296875 -1.753906 3.296875 -1.796875 L 3.265625 -1.84375 C 3.234375 -1.84375 3.21875 -1.832031 3.21875 -1.8125 L 3.1875 -1.8125 L 3.09375 -1.796875 L 3.1875 -1.734375 Z M 2.421875 -1.59375 C 2.410156 -1.59375 2.390625 -1.601562 2.359375 -1.625 C 2.328125 -1.644531 2.300781 -1.664062 2.28125 -1.6875 C 2.21875 -1.6875 2.1875 -1.65625 2.1875 -1.59375 C 2.195312 -1.582031 2.234375 -1.582031 2.296875 -1.59375 Z M 2.65625 -1.515625 C 2.695312 -1.554688 2.722656 -1.578125 2.734375 -1.578125 C 2.734375 -1.628906 2.707031 -1.664062 2.65625 -1.6875 C 2.582031 -1.644531 2.546875 -1.613281 2.546875 -1.59375 Z M 8.015625 -1.515625 C 8.015625 -1.546875 7.988281 -1.585938 7.9375 -1.640625 L 7.84375 -1.578125 L 7.796875 -1.515625 Z M 8.21875 -0.578125 C 8.226562 -0.585938 8.234375 -0.59375 8.234375 -0.59375 C 8.203125 -0.675781 8.1875 -0.742188 8.1875 -0.796875 L 7.984375 -0.796875 C 8.003906 -0.742188 8.035156 -0.691406 8.078125 -0.640625 C 8.117188 -0.597656 8.160156 -0.566406 8.203125 -0.546875 Z M 8.21875 -0.578125 "/></g></g></g><g fill="#191718" fill-opacity="1"><g transform="translate(53.183434, 28.360464)"><g><path d="M 9.28125 -10.796875 C 9.519531 -10.804688 9.644531 -10.941406 9.65625 -11.203125 L 9.71875 -13.453125 C 9.71875 -13.578125 9.675781 -13.675781 9.59375 -13.75 C 9.519531 -13.832031 9.421875 -13.875 9.296875 -13.875 L 0.3125 -13.703125 C 0.0625 -13.691406 -0.0664062 -13.554688 -0.078125 -13.296875 L -0.203125 -10.28125 C -0.203125 -10.144531 -0.15625 -10.035156 -0.0625 -9.953125 C 0.03125 -9.878906 0.144531 -9.851562 0.28125 -9.875 L 3.046875 -10.40625 L 2.921875 -6.125 C 2.960938 -6.144531 3.003906 -6.144531 3.046875 -6.125 L 3.046875 -6.078125 C 3.046875 -6.066406 3.03125 -6.0625 3 -6.0625 L 2.921875 -6.09375 L 2.84375 -3.640625 L 2.859375 -3.640625 C 2.859375 -3.640625 2.851562 -3.632812 2.84375 -3.625 L 2.765625 -0.421875 L 2.765625 -0.359375 C 2.765625 -0.265625 2.800781 -0.179688 2.875 -0.109375 C 2.957031 -0.0351562 3.050781 0 3.15625 0 L 5.875 -0.0625 C 6.132812 -0.0820312 6.265625 -0.210938 6.265625 -0.453125 L 6.28125 -0.59375 L 6.265625 -0.59375 C 6.222656 -0.59375 6.179688 -0.613281 6.140625 -0.65625 C 6.097656 -0.707031 6.078125 -0.75 6.078125 -0.78125 L 6.140625 -0.90625 C 6.179688 -0.9375 6.203125 -0.972656 6.203125 -1.015625 C 6.203125 -1.035156 6.179688 -1.0625 6.140625 -1.09375 C 6.097656 -1.132812 6.078125 -1.171875 6.078125 -1.203125 C 6.078125 -1.222656 6.097656 -1.257812 6.140625 -1.3125 C 6.140625 -1.382812 6.132812 -1.441406 6.125 -1.484375 C 6.101562 -1.503906 6.09375 -1.550781 6.09375 -1.625 C 6.09375 -1.625 6.109375 -1.632812 6.140625 -1.65625 C 6.148438 -1.65625 6.160156 -1.660156 6.171875 -1.671875 C 6.179688 -1.679688 6.191406 -1.691406 6.203125 -1.703125 C 6.148438 -1.722656 6.125 -1.75 6.125 -1.78125 C 6.09375 -1.800781 6.078125 -1.832031 6.078125 -1.875 C 6.160156 -1.90625 6.203125 -1.941406 6.203125 -1.984375 C 6.203125 -2.003906 6.164062 -2.039062 6.09375 -2.09375 C 6.09375 -2.125 6.132812 -2.144531 6.21875 -2.15625 C 6.300781 -2.1875 6.320312 -2.222656 6.28125 -2.265625 L 6.21875 -2.296875 C 6.175781 -2.296875 6.144531 -2.300781 6.125 -2.3125 C 6.125 -2.34375 6.132812 -2.382812 6.15625 -2.4375 L 6.203125 -2.515625 L 6.203125 -2.5625 L 6.140625 -2.578125 C 6.109375 -2.578125 6.085938 -2.570312 6.078125 -2.5625 C 6.066406 -2.5625 6.054688 -2.5625 6.046875 -2.5625 C 6.015625 -2.5625 6 -2.570312 6 -2.59375 L 6 -2.640625 L 6.015625 -2.640625 C 6.015625 -2.640625 6.019531 -2.640625 6.03125 -2.640625 C 6.039062 -2.648438 6.046875 -2.65625 6.046875 -2.65625 C 6.066406 -2.675781 6.101562 -2.6875 6.15625 -2.6875 C 6.207031 -2.6875 6.242188 -2.710938 6.265625 -2.765625 L 6.3125 -2.6875 L 6.34375 -2.796875 L 6.21875 -2.796875 C 6.15625 -2.796875 6.132812 -2.847656 6.15625 -2.953125 C 6.1875 -2.992188 6.1875 -3.035156 6.15625 -3.078125 L 6.125 -3.140625 L 6.09375 -3.21875 C 6.09375 -3.226562 6.113281 -3.253906 6.15625 -3.296875 C 6.195312 -3.335938 6.21875 -3.375 6.21875 -3.40625 L 6.1875 -3.578125 L 6.125 -3.78125 L 6.140625 -3.84375 L 6.15625 -3.84375 L 6.203125 -3.875 L 6.203125 -3.9375 C 6.203125 -3.988281 6.179688 -4.039062 6.140625 -4.09375 L 6.234375 -4.140625 C 6.265625 -4.140625 6.289062 -4.15625 6.3125 -4.1875 L 6.375 -4.1875 L 6.40625 -4.65625 L 6.375 -4.65625 C 6.363281 -4.65625 6.316406 -4.675781 6.234375 -4.71875 C 6.273438 -4.78125 6.332031 -4.8125 6.40625 -4.8125 L 6.5625 -10.703125 Z M 1.4375 -11.515625 L 1.4375 -11.578125 L 1.5625 -11.578125 L 1.5625 -11.515625 Z M 3.203125 -11.4375 L 3.203125 -11.515625 L 3.296875 -11.515625 L 3.296875 -11.4375 Z M 0.953125 -11.234375 C 0.898438 -11.265625 0.835938 -11.28125 0.765625 -11.28125 C 0.722656 -11.332031 0.734375 -11.398438 0.796875 -11.484375 L 0.921875 -11.484375 L 1.046875 -11.40625 L 1.046875 -11.3125 Z M 2.796875 -11.421875 C 2.796875 -11.378906 2.789062 -11.359375 2.78125 -11.359375 L 2.734375 -11.359375 L 2.71875 -11.34375 L 2.640625 -11.359375 L 2.640625 -11.484375 L 2.796875 -11.484375 Z M -0.09375 -11.34375 L -0.09375 -11.40625 L 0.078125 -11.40625 L 0.078125 -11.34375 Z M 1.515625 -11.359375 L 1.4375 -11.34375 C 1.414062 -11.3125 1.40625 -11.296875 1.40625 -11.296875 C 1.332031 -11.273438 1.316406 -11.242188 1.359375 -11.203125 C 1.304688 -11.160156 1.265625 -11.15625 1.234375 -11.1875 C 1.222656 -11.1875 1.203125 -11.191406 1.171875 -11.203125 C 1.148438 -11.210938 1.132812 -11.222656 1.125 -11.234375 C 1.144531 -11.253906 1.179688 -11.289062 1.234375 -11.34375 C 1.273438 -11.382812 1.332031 -11.40625 1.40625 -11.40625 L 1.4375 -11.40625 Z M 0.8125 -11.15625 L 0.8125 -11.234375 L 1.078125 -11.203125 Z M 1.5625 -10.875 C 1.46875 -10.894531 1.414062 -10.921875 1.40625 -10.953125 C 1.40625 -10.984375 1.429688 -11.023438 1.484375 -11.078125 L 1.515625 -11.078125 L 1.5625 -11.0625 L 1.640625 -11.0625 L 1.640625 -10.921875 Z M 3.125 -11.015625 C 3.125 -10.960938 3.101562 -10.914062 3.0625 -10.875 C 3.007812 -10.914062 2.984375 -10.957031 2.984375 -11 L 3.046875 -11 Z M 0.90625 -10.8125 L 0.90625 -10.90625 L 1.015625 -10.90625 L 1.015625 -10.8125 Z M 2.28125 -10.796875 C 2.269531 -10.742188 2.203125 -10.722656 2.078125 -10.734375 C 2.054688 -10.734375 2.035156 -10.742188 2.015625 -10.765625 L 1.953125 -10.765625 C 1.929688 -10.773438 1.894531 -10.78125 1.84375 -10.78125 C 1.882812 -10.863281 1.9375 -10.90625 2 -10.90625 C 2.03125 -10.90625 2.125 -10.890625 2.28125 -10.859375 Z M 3.375 -5.015625 L 3.34375 -5.046875 L 3.40625 -5.078125 L 3.4375 -5.125 L 3.484375 -5.046875 L 3.375 -5 Z M 5.640625 -4.875 C 5.609375 -4.851562 5.585938 -4.84375 5.578125 -4.84375 C 5.578125 -4.84375 5.570312 -4.835938 5.5625 -4.828125 C 5.5625 -4.816406 5.5625 -4.8125 5.5625 -4.8125 L 5.515625 -4.84375 L 5.515625 -4.875 Z M 3.484375 -4.203125 C 3.484375 -4.160156 3.46875 -4.101562 3.4375 -4.03125 C 3.414062 -3.96875 3.390625 -3.929688 3.359375 -3.921875 C 3.390625 -3.890625 3.40625 -3.851562 3.40625 -3.8125 C 3.382812 -3.800781 3.378906 -3.78125 3.390625 -3.75 C 3.398438 -3.71875 3.40625 -3.695312 3.40625 -3.6875 C 3.40625 -3.65625 3.414062 -3.585938 3.4375 -3.484375 L 3.5 -3.359375 C 3.5 -3.304688 3.46875 -3.257812 3.40625 -3.21875 L 3.4375 -3.203125 C 3.4375 -3.148438 3.4375 -3.085938 3.4375 -3.015625 C 3.445312 -2.953125 3.445312 -2.894531 3.4375 -2.84375 C 3.414062 -2.757812 3.4375 -2.707031 3.5 -2.6875 C 3.457031 -2.625 3.414062 -2.59375 3.375 -2.59375 C 3.414062 -2.5625 3.4375 -2.546875 3.4375 -2.546875 C 3.46875 -2.546875 3.484375 -2.53125 3.484375 -2.5 L 3.453125 -2.484375 C 3.441406 -2.460938 3.425781 -2.453125 3.40625 -2.453125 L 3.265625 -2.484375 L 3.1875 -2.515625 C 3.15625 -2.515625 3.132812 -2.523438 3.125 -2.546875 L 3.140625 -2.765625 L 3.1875 -3.203125 C 3.207031 -3.304688 3.207031 -3.363281 3.1875 -3.375 L 3.1875 -3.515625 C 3.238281 -3.585938 3.265625 -3.648438 3.265625 -3.703125 C 3.265625 -3.710938 3.242188 -3.738281 3.203125 -3.78125 C 3.171875 -3.789062 3.148438 -3.8125 3.140625 -3.84375 C 3.140625 -3.851562 3.15625 -3.875 3.1875 -3.90625 L 3.234375 -3.953125 C 3.210938 -3.984375 3.203125 -4.015625 3.203125 -4.046875 C 3.203125 -4.066406 3.207031 -4.078125 3.21875 -4.078125 L 3.234375 -4.140625 C 3.222656 -4.171875 3.21875 -4.210938 3.21875 -4.265625 C 3.21875 -4.359375 3.269531 -4.484375 3.375 -4.640625 C 3.375 -4.554688 3.394531 -4.523438 3.4375 -4.546875 C 3.488281 -4.523438 3.515625 -4.492188 3.515625 -4.453125 L 3.5 -4.375 Z M 6.359375 -3.8125 C 6.359375 -3.800781 6.351562 -3.796875 6.34375 -3.796875 C 6.34375 -3.796875 6.34375 -3.789062 6.34375 -3.78125 C 6.34375 -3.769531 6.34375 -3.765625 6.34375 -3.765625 L 6.359375 -3.765625 Z M 5.953125 -3.046875 C 5.953125 -3.015625 5.941406 -2.992188 5.921875 -2.984375 L 5.84375 -3 L 5.84375 -3.0625 C 5.851562 -3.050781 5.875 -3.046875 5.90625 -3.046875 Z M 3.421875 -1.5625 C 3.347656 -1.53125 3.328125 -1.492188 3.359375 -1.453125 C 3.359375 -1.398438 3.335938 -1.34375 3.296875 -1.28125 L 3.203125 -1.265625 C 3.128906 -1.359375 3.09375 -1.414062 3.09375 -1.4375 C 3.070312 -1.445312 3.0625 -1.488281 3.0625 -1.5625 C 3.0625 -1.570312 3.070312 -1.578125 3.09375 -1.578125 C 3.125 -1.578125 3.117188 -1.613281 3.078125 -1.6875 C 3.085938 -1.695312 3.09375 -1.710938 3.09375 -1.734375 L 3.125 -1.78125 L 3.140625 -2.015625 C 3.140625 -2.054688 3.132812 -2.082031 3.125 -2.09375 C 3.101562 -2.125 3.09375 -2.160156 3.09375 -2.203125 C 3.082031 -2.210938 3.097656 -2.25 3.140625 -2.3125 C 3.179688 -2.375 3.222656 -2.414062 3.265625 -2.4375 C 3.273438 -2.4375 3.28125 -2.429688 3.28125 -2.421875 C 3.289062 -2.421875 3.300781 -2.414062 3.3125 -2.40625 L 3.375 -2.375 Z M 3.421875 -1.5625 "/></g></g></g><g fill="#191718" fill-opacity="1"><g transform="translate(67.866951, 28.360464)"><g><path d="M 3.59375 -14.015625 C 3.71875 -14.015625 3.816406 -13.972656 3.890625 -13.890625 C 3.960938 -13.804688 4 -13.703125 4 -13.578125 C 3.800781 -11.222656 3.65625 -9.03125 3.5625 -7 C 3.53125 -5.988281 3.515625 -5.242188 3.515625 -4.765625 L 3.453125 -4.765625 C 3.390625 -4.765625 3.34375 -4.753906 3.3125 -4.734375 L 3.296875 -4.59375 L 3.34375 -4.59375 C 3.300781 -4.53125 3.226562 -4.476562 3.125 -4.4375 C 3.238281 -4.382812 3.367188 -4.359375 3.515625 -4.359375 L 3.515625 -3.78125 L 3.421875 -3.78125 L 3.34375 -3.734375 L 3.28125 -3.71875 C 3.28125 -3.71875 3.265625 -3.707031 3.234375 -3.6875 L 3.234375 -3.59375 C 3.222656 -3.570312 3.21875 -3.539062 3.21875 -3.5 C 3.21875 -3.414062 3.222656 -3.347656 3.234375 -3.296875 L 3.3125 -3.359375 L 3.359375 -3.375 L 3.453125 -3.4375 C 3.472656 -3.445312 3.484375 -3.484375 3.484375 -3.546875 L 3.5 -3.5625 L 3.515625 -3.5625 C 3.503906 -3.425781 3.5 -3.140625 3.5 -2.703125 C 3.46875 -2.722656 3.4375 -2.722656 3.40625 -2.703125 C 3.40625 -2.648438 3.410156 -2.625 3.421875 -2.625 L 3.4375 -2.59375 L 3.4375 -2.578125 L 3.484375 -2.578125 L 3.484375 -2.59375 L 3.5 -2.59375 L 3.5 -1.859375 C 3.5 -1.910156 3.472656 -1.957031 3.421875 -2 L 3.265625 -2 C 3.265625 -1.957031 3.269531 -1.9375 3.28125 -1.9375 L 3.28125 -1.875 L 3.296875 -1.859375 L 3.296875 -1.84375 C 3.347656 -1.820312 3.414062 -1.828125 3.5 -1.859375 L 3.5 -0.453125 C 3.5 -0.191406 3.363281 -0.0625 3.09375 -0.0625 L 0.21875 0 C 0.101562 0 0.00390625 -0.0351562 -0.078125 -0.109375 C -0.160156 -0.191406 -0.203125 -0.296875 -0.203125 -0.421875 C -0.148438 -3.296875 -0.0820312 -5.457031 0 -6.90625 C 0.0820312 -8.632812 0.15625 -9.921875 0.21875 -10.765625 C 0.226562 -10.742188 0.25 -10.734375 0.28125 -10.734375 L 0.296875 -10.84375 C 0.285156 -10.851562 0.265625 -10.859375 0.234375 -10.859375 L 0.421875 -13.5625 C 0.429688 -13.8125 0.570312 -13.9375 0.84375 -13.9375 Z M 1.5625 -13.421875 C 1.582031 -13.460938 1.613281 -13.484375 1.65625 -13.484375 C 1.757812 -13.484375 1.832031 -13.4375 1.875 -13.34375 C 1.914062 -13.25 1.957031 -13.195312 2 -13.1875 C 2.03125 -13.207031 2.046875 -13.25 2.046875 -13.3125 C 2.015625 -13.351562 2.039062 -13.390625 2.125 -13.421875 L 2.359375 -13.421875 C 2.359375 -13.472656 2.332031 -13.503906 2.28125 -13.515625 C 2.195312 -13.503906 2.148438 -13.503906 2.140625 -13.515625 C 2.128906 -13.535156 2.101562 -13.546875 2.0625 -13.546875 L 1.953125 -13.5 C 1.921875 -13.457031 1.894531 -13.4375 1.875 -13.4375 C 1.832031 -13.4375 1.796875 -13.457031 1.765625 -13.5 L 1.65625 -13.546875 L 1.375 -13.546875 C 1.394531 -13.503906 1.390625 -13.46875 1.359375 -13.4375 L 1.234375 -13.4375 C 1.203125 -13.507812 1.1875 -13.53125 1.1875 -13.5 C 1.1875 -13.507812 1.171875 -13.503906 1.140625 -13.484375 L 1.09375 -13.40625 L 1.015625 -13.40625 C 1.015625 -13.40625 0.992188 -13.421875 0.953125 -13.453125 C 0.941406 -13.472656 0.925781 -13.503906 0.90625 -13.546875 C 0.84375 -13.546875 0.796875 -13.546875 0.765625 -13.546875 C 0.742188 -13.554688 0.726562 -13.5625 0.71875 -13.5625 C 0.71875 -13.550781 0.707031 -13.53125 0.6875 -13.5 C 0.65625 -13.488281 0.640625 -13.46875 0.640625 -13.4375 C 0.640625 -13.351562 0.65625 -13.300781 0.6875 -13.28125 C 0.71875 -13.238281 0.726562 -13.148438 0.71875 -13.015625 L 0.65625 -12.84375 L 0.59375 -12.640625 C 0.59375 -12.609375 0.609375 -12.582031 0.640625 -12.5625 C 0.671875 -12.53125 0.6875 -12.503906 0.6875 -12.484375 C 0.65625 -12.484375 0.640625 -12.472656 0.640625 -12.453125 C 0.597656 -12.421875 0.578125 -12.394531 0.578125 -12.375 C 0.628906 -12.363281 0.644531 -12.316406 0.625 -12.234375 C 0.582031 -12.203125 0.5625 -12.164062 0.5625 -12.125 C 0.5625 -11.988281 0.566406 -11.882812 0.578125 -11.8125 L 0.625 -11.59375 C 0.625 -11.570312 0.601562 -11.546875 0.5625 -11.515625 L 0.59375 -11.515625 L 0.625 -11.5 C 0.695312 -11.539062 0.769531 -11.5625 0.84375 -11.5625 L 0.84375 -11.734375 C 0.800781 -11.753906 0.765625 -11.785156 0.734375 -11.828125 C 0.710938 -11.878906 0.707031 -11.914062 0.71875 -11.9375 L 0.90625 -12 L 1.046875 -12.0625 C 1.003906 -12.082031 0.984375 -12.101562 0.984375 -12.125 C 0.984375 -12.1875 1.035156 -12.21875 1.140625 -12.21875 C 1.109375 -12.25 1.09375 -12.269531 1.09375 -12.28125 L 1.078125 -12.3125 C 1.160156 -12.394531 1.203125 -12.4375 1.203125 -12.4375 C 1.203125 -12.46875 1.1875 -12.492188 1.15625 -12.515625 L 1.125 -12.59375 C 1.175781 -12.65625 1.226562 -12.6875 1.28125 -12.6875 L 1.484375 -12.71875 C 1.347656 -12.71875 1.28125 -12.742188 1.28125 -12.796875 C 1.28125 -12.828125 1.304688 -12.859375 1.359375 -12.890625 C 1.410156 -12.921875 1.472656 -12.9375 1.546875 -12.9375 C 1.484375 -12.976562 1.46875 -13.023438 1.5 -13.078125 C 1.488281 -13.078125 1.46875 -13.085938 1.4375 -13.109375 C 1.414062 -13.128906 1.40625 -13.15625 1.40625 -13.1875 C 1.40625 -13.21875 1.453125 -13.253906 1.546875 -13.296875 C 1.566406 -13.328125 1.566406 -13.347656 1.546875 -13.359375 C 1.546875 -13.390625 1.550781 -13.410156 1.5625 -13.421875 Z M 1.59375 -12.875 C 1.59375 -12.863281 1.609375 -12.859375 1.640625 -12.859375 C 1.742188 -12.859375 1.8125 -12.875 1.84375 -12.90625 L 1.859375 -12.9375 L 1.859375 -13 C 1.859375 -13.039062 1.863281 -13.066406 1.875 -13.078125 C 1.820312 -13.078125 1.796875 -13.066406 1.796875 -13.046875 C 1.773438 -12.984375 1.765625 -12.945312 1.765625 -12.9375 C 1.722656 -12.882812 1.664062 -12.863281 1.59375 -12.875 Z M 0.859375 -10.84375 C 0.804688 -10.90625 0.785156 -10.960938 0.796875 -11.015625 C 0.796875 -11.085938 0.832031 -11.132812 0.90625 -11.15625 C 0.9375 -11.15625 0.984375 -11.179688 1.046875 -11.234375 C 1.023438 -11.316406 0.96875 -11.359375 0.875 -11.359375 C 0.800781 -11.347656 0.722656 -11.347656 0.640625 -11.359375 C 0.640625 -11.316406 0.625 -11.28125 0.59375 -11.25 C 0.570312 -11.21875 0.554688 -11.195312 0.546875 -11.1875 C 0.578125 -11.15625 0.597656 -11.125 0.609375 -11.09375 C 0.628906 -11.070312 0.625 -11.039062 0.59375 -11 L 0.578125 -10.875 L 0.59375 -10.71875 C 0.570312 -10.664062 0.5625 -10.625 0.5625 -10.59375 C 0.519531 -10.5625 0.519531 -10.53125 0.5625 -10.5 C 0.5625 -10.488281 0.5625 -10.476562 0.5625 -10.46875 C 0.570312 -10.457031 0.582031 -10.445312 0.59375 -10.4375 C 0.613281 -10.4375 0.632812 -10.425781 0.65625 -10.40625 L 0.5625 -9.046875 C 0.46875 -8.984375 0.429688 -8.953125 0.453125 -8.953125 C 0.484375 -8.953125 0.519531 -8.9375 0.5625 -8.90625 C 0.550781 -8.863281 0.515625 -8.832031 0.453125 -8.8125 L 0.4375 -8.640625 C 0.519531 -8.597656 0.546875 -8.570312 0.515625 -8.5625 L 0.453125 -8.5 L 0.5625 -8.421875 L 0.5 -7.5625 C 0.445312 -7.519531 0.421875 -7.476562 0.421875 -7.4375 C 0.421875 -7.414062 0.445312 -7.375 0.5 -7.3125 C 0.5 -7.3125 0.5 -7.304688 0.5 -7.296875 C 0.507812 -7.296875 0.515625 -7.296875 0.515625 -7.296875 C 0.515625 -7.273438 0.5 -7.253906 0.46875 -7.234375 C 0.445312 -7.210938 0.425781 -7.195312 0.40625 -7.1875 C 0.414062 -7.144531 0.414062 -7.101562 0.40625 -7.0625 C 0.40625 -7.03125 0.382812 -7.007812 0.34375 -7 C 0.414062 -6.945312 0.453125 -6.894531 0.453125 -6.84375 C 0.453125 -6.800781 0.445312 -6.765625 0.4375 -6.734375 C 0.425781 -6.703125 0.414062 -6.671875 0.40625 -6.640625 C 0.363281 -6.535156 0.320312 -6.484375 0.28125 -6.484375 C 0.375 -6.429688 0.421875 -6.390625 0.421875 -6.359375 C 0.421875 -6.359375 0.414062 -6.351562 0.40625 -6.34375 L 0.40625 -6.359375 C 0.363281 -6.316406 0.328125 -6.269531 0.296875 -6.21875 C 0.273438 -6.175781 0.265625 -6.144531 0.265625 -6.125 C 0.265625 -6.09375 0.269531 -6.070312 0.28125 -6.0625 C 0.300781 -6.050781 0.3125 -6.035156 0.3125 -6.015625 L 0.265625 -5.984375 C 0.296875 -5.960938 0.3125 -5.921875 0.3125 -5.859375 L 0.3125 -5.703125 C 0.3125 -5.703125 0.304688 -5.691406 0.296875 -5.671875 C 0.296875 -5.648438 0.289062 -5.613281 0.28125 -5.5625 C 0.28125 -5.550781 0.273438 -5.535156 0.265625 -5.515625 C 0.265625 -5.503906 0.265625 -5.492188 0.265625 -5.484375 L 0.3125 -5.359375 C 0.34375 -5.328125 0.359375 -5.296875 0.359375 -5.265625 C 0.359375 -5.222656 0.34375 -5.1875 0.3125 -5.15625 C 0.28125 -5.101562 0.265625 -5.066406 0.265625 -5.046875 C 0.265625 -5.015625 0.269531 -5 0.28125 -5 L 0.28125 -4.953125 L 0.40625 -4.953125 C 0.375 -4.953125 0.359375 -4.972656 0.359375 -5.015625 C 0.347656 -5.035156 0.34375 -5.054688 0.34375 -5.078125 C 0.40625 -5.117188 0.457031 -5.140625 0.5 -5.140625 C 0.46875 -5.179688 0.4375 -5.25 0.40625 -5.34375 C 0.382812 -5.445312 0.375 -5.539062 0.375 -5.625 C 0.375 -5.644531 0.390625 -5.671875 0.421875 -5.703125 C 0.441406 -5.722656 0.453125 -5.816406 0.453125 -5.984375 L 0.5 -6.140625 C 0.539062 -6.179688 0.539062 -6.207031 0.5 -6.21875 C 0.488281 -6.226562 0.492188 -6.269531 0.515625 -6.34375 L 0.59375 -6.34375 C 0.5625 -6.507812 0.546875 -6.613281 0.546875 -6.65625 C 0.546875 -6.707031 0.554688 -6.765625 0.578125 -6.828125 C 0.609375 -6.898438 0.632812 -6.957031 0.65625 -7 L 0.5625 -7 L 0.5625 -6.984375 L 0.453125 -6.984375 C 0.453125 -6.992188 0.441406 -7 0.421875 -7 L 0.578125 -7.15625 C 0.628906 -7.207031 0.65625 -7.25 0.65625 -7.28125 L 0.625 -7.453125 C 0.582031 -7.546875 0.582031 -7.632812 0.625 -7.71875 L 0.78125 -7.71875 C 0.675781 -7.71875 0.625 -7.75 0.625 -7.8125 C 0.625 -7.851562 0.648438 -7.929688 0.703125 -8.046875 C 0.753906 -8.140625 0.78125 -8.21875 0.78125 -8.28125 L 0.765625 -8.484375 C 0.742188 -8.492188 0.734375 -8.519531 0.734375 -8.5625 C 0.710938 -8.613281 0.703125 -8.671875 0.703125 -8.734375 L 0.6875 -8.84375 C 0.6875 -8.863281 0.695312 -8.894531 0.71875 -8.9375 C 0.757812 -9.070312 0.773438 -9.132812 0.765625 -9.125 C 0.765625 -9.144531 0.773438 -9.207031 0.796875 -9.3125 L 0.8125 -9.40625 C 0.8125 -9.414062 0.800781 -9.460938 0.78125 -9.546875 C 0.738281 -9.660156 0.738281 -9.734375 0.78125 -9.765625 C 0.789062 -9.785156 0.816406 -9.8125 0.859375 -9.84375 C 0.867188 -9.894531 0.875 -9.988281 0.875 -10.125 C 0.875 -10.25 0.910156 -10.328125 0.984375 -10.359375 C 0.867188 -10.421875 0.851562 -10.484375 0.9375 -10.546875 L 0.875 -10.640625 C 0.90625 -10.679688 0.898438 -10.75 0.859375 -10.84375 Z M 2.8125 -10.734375 C 2.8125 -10.734375 2.796875 -10.71875 2.765625 -10.6875 L 2.875 -10.6875 Z M 3.1875 -10.5625 L 3.3125 -10.640625 L 3.203125 -10.6875 C 3.148438 -10.625 3.125 -10.59375 3.125 -10.59375 Z M 3.4375 -8.796875 C 3.425781 -8.796875 3.421875 -8.800781 3.421875 -8.8125 L 3.375 -8.8125 L 3.34375 -8.796875 C 3.34375 -8.796875 3.335938 -8.789062 3.328125 -8.78125 C 3.316406 -8.78125 3.3125 -8.78125 3.3125 -8.78125 C 3.3125 -8.78125 3.304688 -8.773438 3.296875 -8.765625 C 3.296875 -8.765625 3.289062 -8.765625 3.28125 -8.765625 L 3.359375 -8.734375 C 3.367188 -8.722656 3.382812 -8.71875 3.40625 -8.71875 C 3.425781 -8.726562 3.4375 -8.742188 3.4375 -8.765625 Z M 3.09375 -8.140625 C 3.039062 -8.191406 2.976562 -8.21875 2.90625 -8.21875 C 2.90625 -8.164062 2.921875 -8.117188 2.953125 -8.078125 Z M 2.921875 -7.5625 L 2.921875 -7.625 L 2.84375 -7.625 L 2.84375 -7.5625 Z M 2.34375 -7.4375 L 2.359375 -7.5625 C 2.273438 -7.5625 2.222656 -7.519531 2.203125 -7.4375 Z M 3.015625 -7.296875 L 2.953125 -7.359375 L 2.8125 -7.359375 L 2.796875 -7.28125 C 2.796875 -7.21875 2.84375 -7.1875 2.9375 -7.1875 L 2.953125 -7.203125 C 2.972656 -7.210938 2.984375 -7.21875 2.984375 -7.21875 C 2.992188 -7.226562 3 -7.242188 3 -7.265625 Z M 2.625 -7.125 L 2.6875 -7.15625 C 2.738281 -7.195312 2.765625 -7.234375 2.765625 -7.265625 C 2.773438 -7.296875 2.738281 -7.3125 2.65625 -7.3125 L 2.640625 -7.28125 L 2.640625 -7.21875 Z M 2.4375 -6.796875 L 2.359375 -6.84375 L 2.3125 -6.6875 L 2.421875 -6.59375 L 2.515625 -6.65625 C 2.566406 -6.6875 2.59375 -6.707031 2.59375 -6.71875 C 2.59375 -6.726562 2.582031 -6.738281 2.5625 -6.75 C 2.550781 -6.769531 2.535156 -6.78125 2.515625 -6.78125 Z M 3 -6.4375 L 3 -6.5 L 2.875 -6.5 L 2.875 -6.4375 Z M 2.796875 -6.28125 C 2.785156 -6.28125 2.78125 -6.289062 2.78125 -6.3125 L 2.640625 -6.3125 L 2.640625 -6.21875 L 2.796875 -6.21875 Z M 3.015625 -5.796875 C 2.960938 -5.847656 2.910156 -5.875 2.859375 -5.875 C 2.804688 -5.863281 2.78125 -5.828125 2.78125 -5.765625 L 2.859375 -5.765625 C 2.867188 -5.742188 2.894531 -5.734375 2.9375 -5.734375 Z M 3.40625 -5.578125 C 3.375 -5.660156 3.316406 -5.6875 3.234375 -5.65625 C 3.203125 -5.613281 3.195312 -5.59375 3.21875 -5.59375 L 3.21875 -5.546875 Z M 2.796875 -5.34375 C 2.773438 -5.320312 2.734375 -5.304688 2.671875 -5.296875 C 2.617188 -5.296875 2.5625 -5.285156 2.5 -5.265625 L 2.5 -5.1875 C 2.5 -5.1875 2.5 -5.179688 2.5 -5.171875 C 2.507812 -5.160156 2.515625 -5.15625 2.515625 -5.15625 L 2.5625 -5.15625 L 2.578125 -5.140625 L 2.765625 -5.140625 L 2.765625 -5.234375 C 2.835938 -5.234375 2.890625 -5.242188 2.921875 -5.265625 C 2.921875 -5.285156 2.914062 -5.300781 2.90625 -5.3125 L 2.875 -5.359375 L 2.875 -5.375 L 2.90625 -5.484375 L 2.640625 -5.5 C 2.640625 -5.40625 2.644531 -5.351562 2.65625 -5.34375 Z M 2.5625 -5.09375 C 2.5625 -5.082031 2.535156 -5.078125 2.484375 -5.078125 L 2.5 -5.09375 C 2.46875 -5.125 2.421875 -5.140625 2.359375 -5.140625 L 2.3125 -5.046875 L 2.359375 -5.046875 C 2.359375 -5.046875 2.359375 -5.039062 2.359375 -5.03125 C 2.367188 -5.019531 2.375 -5.015625 2.375 -5.015625 C 2.394531 -5.015625 2.414062 -5.003906 2.4375 -4.984375 L 2.484375 -5.046875 L 2.515625 -5.015625 C 2.515625 -4.992188 2.53125 -4.984375 2.5625 -4.984375 L 2.703125 -5 C 2.703125 -5.0625 2.65625 -5.09375 2.5625 -5.09375 Z M 2.484375 -4.84375 L 2.484375 -4.8125 L 2.5 -4.796875 L 2.65625 -4.796875 C 2.613281 -4.847656 2.539062 -4.875 2.4375 -4.875 C 2.46875 -4.863281 2.472656 -4.851562 2.453125 -4.84375 Z M 0.375 -4.796875 C 0.3125 -4.703125 0.28125 -4.671875 0.28125 -4.703125 C 0.238281 -4.660156 0.21875 -4.625 0.21875 -4.59375 L 0.203125 -3.921875 C 0.203125 -3.929688 0.210938 -3.988281 0.234375 -4.09375 C 0.234375 -4.175781 0.238281 -4.226562 0.25 -4.25 C 0.257812 -4.28125 0.265625 -4.300781 0.265625 -4.3125 C 0.265625 -4.332031 0.273438 -4.378906 0.296875 -4.453125 C 0.335938 -4.492188 0.359375 -4.53125 0.359375 -4.5625 Z M 2.84375 -4.703125 L 2.859375 -4.6875 L 2.875 -4.640625 L 2.921875 -4.625 C 2.921875 -4.601562 2.925781 -4.59375 2.9375 -4.59375 C 2.945312 -4.59375 2.953125 -4.601562 2.953125 -4.625 L 3 -4.65625 C 3 -4.6875 2.992188 -4.707031 2.984375 -4.71875 C 2.984375 -4.71875 2.972656 -4.71875 2.953125 -4.71875 C 2.941406 -4.726562 2.9375 -4.742188 2.9375 -4.765625 L 2.90625 -4.765625 L 2.875 -4.796875 L 2.734375 -4.796875 L 2.65625 -4.734375 L 2.734375 -4.6875 L 2.78125 -4.6875 L 2.796875 -4.703125 Z M 2.4375 -4.65625 L 2.4375 -4.59375 L 2.5625 -4.640625 L 2.546875 -4.71875 Z M 3.515625 -4.59375 L 3.515625 -4.359375 C 3.492188 -4.390625 3.484375 -4.40625 3.484375 -4.40625 L 3.4375 -4.421875 L 3.4375 -4.4375 C 3.46875 -4.4375 3.484375 -4.457031 3.484375 -4.5 L 3.484375 -4.59375 Z M 2.59375 -4.453125 C 2.570312 -4.453125 2.535156 -4.425781 2.484375 -4.375 L 2.546875 -4.3125 C 2.597656 -4.3125 2.644531 -4.332031 2.6875 -4.375 C 2.695312 -4.425781 2.664062 -4.453125 2.59375 -4.453125 Z M 2.140625 -4.140625 C 2.148438 -4.085938 2.179688 -4.0625 2.234375 -4.0625 C 2.265625 -4.0625 2.28125 -4.066406 2.28125 -4.078125 L 2.3125 -4.078125 L 2.359375 -4.09375 L 2.375 -4.21875 L 2.3125 -4.265625 C 2.289062 -4.265625 2.273438 -4.269531 2.265625 -4.28125 C 2.222656 -4.28125 2.203125 -4.300781 2.203125 -4.34375 L 2.078125 -4.34375 L 2.046875 -4.3125 L 2.046875 -4.296875 L 2 -4.28125 L 1.984375 -4.265625 C 2.023438 -4.222656 2.054688 -4.203125 2.078125 -4.203125 Z M 2.84375 -4.21875 L 2.484375 -4.265625 L 2.484375 -4.15625 Z M 1.953125 -3.8125 C 1.992188 -3.78125 2.050781 -3.765625 2.125 -3.765625 L 2.1875 -3.90625 L 2 -3.90625 Z M 2.796875 -3.71875 C 2.847656 -3.757812 2.875 -3.800781 2.875 -3.84375 C 2.851562 -3.863281 2.804688 -3.875 2.734375 -3.875 L 2.71875 -3.875 C 2.65625 -3.832031 2.625 -3.800781 2.625 -3.78125 C 2.625 -3.738281 2.644531 -3.71875 2.6875 -3.71875 Z M 3.21875 -3.78125 C 3.207031 -3.789062 3.164062 -3.796875 3.09375 -3.796875 C 3.03125 -3.734375 3.015625 -3.679688 3.046875 -3.640625 C 3.117188 -3.628906 3.175781 -3.644531 3.21875 -3.6875 Z M 0.140625 -3.5625 C 0.191406 -3.5625 0.21875 -3.570312 0.21875 -3.59375 C 0.21875 -3.675781 0.210938 -3.71875 0.203125 -3.71875 C 0.160156 -3.675781 0.140625 -3.625 0.140625 -3.5625 Z M 2.125 -3.34375 C 2.144531 -3.34375 2.164062 -3.347656 2.1875 -3.359375 L 2.21875 -3.375 L 2.265625 -3.421875 L 2.0625 -3.453125 L 2.078125 -3.40625 C 2.078125 -3.363281 2.09375 -3.34375 2.125 -3.34375 Z M 2 -3.421875 L 1.765625 -3.375 L 2 -3.3125 Z M 2.546875 -3.28125 L 2.640625 -3.28125 L 2.65625 -3.359375 L 2.5625 -3.359375 Z M 2.296875 -3.046875 C 2.296875 -3.046875 2.289062 -3.039062 2.28125 -3.03125 C 2.28125 -3.019531 2.28125 -3.015625 2.28125 -3.015625 C 2.300781 -2.972656 2.367188 -2.953125 2.484375 -2.953125 C 2.503906 -2.953125 2.535156 -2.984375 2.578125 -3.046875 L 2.734375 -3.046875 L 2.765625 -3.0625 L 2.765625 -3.078125 L 2.78125 -3.125 L 2.59375 -3.15625 C 2.582031 -3.144531 2.578125 -3.125 2.578125 -3.09375 L 2.5625 -3.09375 L 2.546875 -3.125 L 2.453125 -3.125 C 2.398438 -3.125 2.367188 -3.109375 2.359375 -3.078125 C 2.347656 -3.078125 2.335938 -3.070312 2.328125 -3.0625 C 2.316406 -3.050781 2.3125 -3.046875 2.3125 -3.046875 Z M 3.21875 -3.015625 L 3.265625 -3 L 3.265625 -2.984375 L 3.296875 -2.984375 L 3.34375 -2.953125 C 3.445312 -2.953125 3.5 -2.992188 3.5 -3.078125 L 3.359375 -3.09375 Z M 1.875 -3.078125 L 1.796875 -3.015625 C 1.835938 -2.972656 1.882812 -2.953125 1.9375 -2.953125 L 1.984375 -2.984375 L 2.015625 -3 L 2.078125 -3.015625 Z M 2.84375 -3.015625 L 2.953125 -3.015625 L 2.953125 -3.078125 L 2.84375 -3.078125 Z M 2.265625 -2.921875 C 2.234375 -2.890625 2.21875 -2.867188 2.21875 -2.859375 L 2.4375 -2.84375 L 2.4375 -2.921875 L 2.28125 -2.953125 C 2.28125 -2.929688 2.273438 -2.921875 2.265625 -2.921875 Z M 3.140625 -2.9375 L 3.140625 -2.953125 L 3 -2.953125 L 3 -2.84375 L 3.15625 -2.859375 L 3.15625 -2.921875 Z M 2.796875 -2.6875 L 2.765625 -2.8125 C 2.648438 -2.78125 2.578125 -2.742188 2.546875 -2.703125 C 2.554688 -2.691406 2.59375 -2.6875 2.65625 -2.6875 Z M 1.765625 -2.6875 L 1.9375 -2.6875 L 1.9375 -2.734375 L 1.765625 -2.734375 Z M 2.6875 -2.5625 L 2.6875 -2.5 L 2.796875 -2.5 L 2.796875 -2.5625 Z M 3.140625 -2.375 C 3.222656 -2.414062 3.222656 -2.457031 3.140625 -2.5 L 3.125 -2.484375 L 3.0625 -2.484375 C 3.0625 -2.441406 3.070312 -2.421875 3.09375 -2.421875 Z M 1.875 -2.3125 C 1.914062 -2.289062 1.929688 -2.273438 1.921875 -2.265625 L 2.046875 -2.265625 C 2.078125 -2.285156 2.09375 -2.300781 2.09375 -2.3125 L 2.125 -2.3125 C 2.125 -2.332031 2.128906 -2.34375 2.140625 -2.34375 C 2.148438 -2.351562 2.15625 -2.359375 2.15625 -2.359375 C 2.132812 -2.359375 2.125 -2.363281 2.125 -2.375 L 2.015625 -2.375 C 1.921875 -2.40625 1.867188 -2.425781 1.859375 -2.4375 C 1.859375 -2.414062 1.851562 -2.394531 1.84375 -2.375 C 1.84375 -2.375 1.84375 -2.367188 1.84375 -2.359375 C 1.84375 -2.347656 1.84375 -2.34375 1.84375 -2.34375 L 1.859375 -2.3125 Z M 2.953125 -2.1875 C 3.015625 -2.15625 3.070312 -2.140625 3.125 -2.140625 C 3.175781 -2.140625 3.207031 -2.144531 3.21875 -2.15625 L 3.234375 -2.15625 L 3.234375 -2.3125 C 3.203125 -2.3125 3.171875 -2.328125 3.140625 -2.359375 C 3.128906 -2.347656 3.113281 -2.34375 3.09375 -2.34375 C 3.070312 -2.34375 3.054688 -2.332031 3.046875 -2.3125 L 3.015625 -2.359375 L 2.953125 -2.34375 C 2.929688 -2.3125 2.929688 -2.257812 2.953125 -2.1875 Z M 0.125 -2.1875 L 0.046875 -2.125 L 0.09375 -2.0625 Z M 2.859375 -2.078125 L 2.921875 -2.046875 L 3 -2.140625 L 2.921875 -2.15625 Z M 2.4375 -1.921875 C 2.507812 -1.921875 2.578125 -1.929688 2.640625 -1.953125 C 2.703125 -1.984375 2.742188 -2.023438 2.765625 -2.078125 L 2.65625 -2.078125 C 2.550781 -2.078125 2.476562 -2.050781 2.4375 -2 Z M 2.578125 -1.90625 C 2.535156 -1.84375 2.535156 -1.800781 2.578125 -1.78125 L 2.5625 -1.71875 L 2.578125 -1.703125 L 2.578125 -1.65625 L 2.6875 -1.640625 L 2.734375 -1.859375 C 2.679688 -1.890625 2.628906 -1.90625 2.578125 -1.90625 Z M 2.875 -1.65625 C 2.894531 -1.644531 2.929688 -1.640625 2.984375 -1.640625 L 3.046875 -1.625 L 3.078125 -1.625 C 3.117188 -1.625 3.148438 -1.628906 3.171875 -1.640625 C 3.191406 -1.648438 3.203125 -1.675781 3.203125 -1.71875 L 3.015625 -1.71875 C 2.972656 -1.71875 2.925781 -1.734375 2.875 -1.765625 L 2.84375 -1.65625 Z M 2.1875 -1.6875 L 2 -1.6875 L 2 -1.59375 L 2.1875 -1.59375 Z M 3.15625 -1.5 C 3.101562 -1.5 3.050781 -1.472656 3 -1.421875 C 2.957031 -1.367188 2.929688 -1.332031 2.921875 -1.3125 L 3.078125 -1.28125 C 3.203125 -1.320312 3.28125 -1.394531 3.3125 -1.5 Z M 2.875 -1.4375 L 2.71875 -1.4375 C 2.71875 -1.425781 2.710938 -1.414062 2.703125 -1.40625 C 2.691406 -1.40625 2.6875 -1.40625 2.6875 -1.40625 L 2.640625 -1.3125 C 2.597656 -1.300781 2.570312 -1.273438 2.5625 -1.234375 L 2.5625 -1.15625 C 2.644531 -1.15625 2.6875 -1.148438 2.6875 -1.140625 L 2.65625 -1.0625 C 2.65625 -1.007812 2.664062 -0.972656 2.6875 -0.953125 L 2.796875 -1 L 2.859375 -1.0625 L 2.875 -1.28125 L 2.78125 -1.296875 C 2.832031 -1.296875 2.863281 -1.300781 2.875 -1.3125 Z M 3.015625 -1.078125 C 3.054688 -1.078125 3.117188 -1.101562 3.203125 -1.15625 C 3.171875 -1.1875 3.097656 -1.203125 2.984375 -1.203125 Z M 3.3125 -1.125 L 3.1875 -1.125 L 3.125 -1 L 3.28125 -1 C 3.300781 -1.03125 3.3125 -1.054688 3.3125 -1.078125 Z M 3.3125 -1.125 "/></g></g></g><path fill="#000000" d="M 6.789062 7.753906 C 6.980469 7.523438 7.285156 7.148438 7.929688 7.027344 C 8.101562 6.996094 8.257812 7.003906 8.4375 7.027344 C 8.914062 7.082031 9.238281 7.257812 9.441406 7.417969 C 10.335938 8.105469 10.101562 8.925781 10.175781 9.664062 C 10.183594 9.753906 10.273438 9.839844 10.292969 9.933594 C 10.308594 10.003906 10.25 10.109375 10.347656 10.167969 C 10.402344 10.148438 10.34375 10.128906 10.417969 10.121094 C 10.414062 10.113281 10.40625 10.109375 10.402344 10.101562 C 10.386719 10.046875 10.640625 9.625 10.683594 9.523438 C 10.921875 8.925781 11.164062 8.335938 11.460938 7.742188 C 11.640625 7.382812 11.808594 7.003906 12.152344 6.660156 C 12.300781 6.507812 12.523438 6.324219 12.875 6.21875 C 13.066406 6.164062 13.269531 6.140625 13.503906 6.117188 C 14.058594 6.183594 14.363281 6.332031 14.617188 6.515625 C 14.949219 6.75 15.109375 7.015625 15.21875 7.277344 C 15.6875 8.375 15.03125 9.445312 14.53125 10.527344 L 13.675781 12.425781 C 13.628906 12.527344 13.335938 13.007812 13.492188 13.066406 C 13.761719 13.085938 14.011719 13.039062 14.296875 13.078125 C 15.003906 13.171875 15.9375 13.660156 16.390625 13.878906 C 16.609375 13.980469 16.847656 14.082031 17.042969 14.1875 C 17.195312 14.273438 17.304688 14.363281 17.390625 14.457031 C 17.683594 14.769531 17.851562 15.105469 18.058594 15.429688 C 18.324219 15.84375 18.625 16.261719 18.820312 16.683594 C 18.910156 16.875 18.871094 17.082031 19.007812 17.265625 C 19.007812 17.269531 19.011719 17.273438 19.011719 17.273438 C 19.890625 17.519531 20.179688 17.949219 20.308594 18.328125 C 20.421875 18.671875 20.421875 19.015625 20.308594 19.359375 C 20.214844 19.632812 20.070312 19.90625 20.007812 20.183594 C 19.9375 20.496094 19.933594 20.808594 19.878906 21.121094 C 19.800781 21.59375 19.625 22.066406 19.363281 22.53125 C 19.085938 22.992188 18.675781 23.453125 18.222656 23.894531 C 18.117188 24 17.980469 24.101562 17.878906 24.207031 C 17.621094 24.460938 17.390625 24.71875 17.144531 24.972656 C 16.859375 25.277344 16.59375 25.585938 16.34375 25.894531 C 16.109375 26.195312 15.894531 26.511719 15.566406 26.800781 C 15.257812 27.078125 14.828125 27.332031 14.402344 27.585938 C 14.421875 27.773438 14.46875 28.425781 14.324219 28.566406 C 14.199219 28.609375 13.882812 28.59375 13.710938 28.59375 C 13.605469 28.59375 13.5 28.585938 13.425781 28.554688 C 13.253906 28.484375 13.273438 28.054688 13.277344 27.953125 C 12.546875 28.066406 11.738281 28.148438 10.953125 28.039062 C 10.496094 27.976562 10.152344 27.847656 9.882812 27.707031 L 9.90625 27.6875 C 9.949219 27.65625 9.984375 27.625 10.074219 27.609375 C 10.335938 27.59375 10.59375 27.632812 10.859375 27.625 C 11.652344 27.605469 12.078125 27.464844 12.667969 27.300781 C 12.808594 27.261719 12.980469 27.234375 13.085938 27.183594 C 14.050781 26.707031 14.757812 26.15625 15.269531 25.597656 C 15.582031 25.257812 15.832031 24.914062 16.148438 24.574219 C 16.292969 24.417969 16.371094 24.242188 16.546875 24.09375 L 16.585938 24.117188 C 16.730469 24.0625 16.972656 23.65625 17.058594 23.558594 C 17.546875 23.015625 18.109375 22.492188 18.488281 21.933594 C 18.597656 21.777344 18.714844 21.613281 18.773438 21.453125 C 18.945312 20.949219 18.847656 20.4375 18.980469 19.929688 C 19.078125 19.550781 19.398438 19.175781 19.378906 18.796875 C 19.367188 18.597656 19.191406 18.417969 18.785156 18.277344 L 18.753906 18.269531 C 18.558594 18.625 18.175781 18.996094 17.296875 19.207031 C 17.257812 19.214844 17.21875 19.222656 17.179688 19.234375 C 16.8125 19.84375 16.804688 20.449219 17.050781 21.0625 C 17.082031 21.140625 17.242188 21.414062 17.183594 21.46875 C 17.175781 21.476562 17.148438 21.484375 17.128906 21.488281 C 17.042969 21.492188 17.007812 21.488281 16.945312 21.46875 C 16.621094 21.363281 16.421875 21.144531 16.304688 21 C 15.980469 21.148438 15.757812 21.320312 15.445312 21.472656 C 15.367188 21.96875 15.40625 22.472656 15.324219 22.972656 C 14.859375 22.554688 14.859375 21.980469 14.851562 21.53125 C 14.445312 21.488281 13.960938 21.460938 13.734375 21.320312 C 13.4375 21.132812 13.242188 20.90625 13.011719 20.707031 C 12.632812 20.382812 12.261719 20.058594 11.90625 19.730469 C 11.679688 19.523438 11.421875 19.320312 11.261719 19.105469 C 11.582031 19.175781 12.148438 19.367188 12.46875 19.398438 C 12.550781 19.300781 12.5 19.164062 12.492188 19.066406 C 12.472656 18.855469 12.484375 18.640625 12.417969 18.433594 C 12.3125 18.109375 12.078125 17.765625 11.925781 17.441406 C 12.101562 17.527344 12.339844 17.683594 12.652344 17.703125 C 12.675781 17.703125 12.695312 17.703125 12.714844 17.707031 L 12.746094 17.675781 L 12.753906 17.6875 C 12.753906 17.683594 12.753906 17.679688 12.757812 17.675781 C 12.777344 17.621094 13.195312 17.203125 13.28125 17.15625 C 13.3125 17.183594 13.304688 17.171875 13.3125 17.1875 C 13.410156 17.125 13.441406 17.03125 13.5 16.960938 C 13.582031 16.867188 13.726562 16.761719 13.773438 16.667969 C 13.839844 16.527344 13.644531 16.214844 13.585938 16.066406 C 13.535156 15.929688 13.5 15.792969 13.476562 15.65625 C 13.992188 15.988281 14.457031 16.339844 15.027344 16.660156 C 15.179688 16.535156 15.335938 16.410156 15.519531 16.289062 C 15.617188 16.753906 15.84375 17.890625 16.863281 18.207031 C 16.949219 18.230469 17.054688 18.253906 17.167969 18.25 C 17.363281 18.242188 17.515625 18.164062 17.605469 18.109375 C 18.398438 17.636719 17.671875 16.742188 17.359375 16.234375 C 17.160156 15.910156 16.972656 15.578125 16.734375 15.257812 C 16.675781 15.179688 16.601562 15.109375 16.488281 15.042969 C 16.15625 14.835938 14.851562 14.246094 14.320312 14.144531 C 14.167969 14.113281 14.015625 14.101562 13.847656 14.121094 C 13.511719 14.160156 13.296875 14.289062 13.152344 14.398438 C 12.929688 14.5625 12.792969 14.753906 12.632812 14.929688 L 11.78125 15.847656 C 11.617188 16.023438 11.46875 16.207031 11.257812 16.375 C 11.195312 16.082031 11.355469 15.769531 11.453125 15.480469 C 11.683594 14.789062 12.023438 14.09375 12.164062 13.398438 C 12.019531 13.320312 11.40625 13.042969 11.429688 12.964844 C 11.4375 12.9375 11.503906 12.917969 11.5625 12.902344 C 11.921875 12.816406 12.210938 12.753906 12.503906 12.636719 C 12.8125 12.054688 13.023438 11.464844 13.144531 10.875 C 13.167969 10.75 12.371094 10.410156 12.617188 10.351562 C 12.898438 10.28125 13.28125 10.273438 13.585938 10.21875 C 13.738281 9.90625 13.863281 9.59375 13.996094 9.28125 C 14.226562 8.742188 14.789062 7.738281 13.878906 7.265625 C 13.792969 7.21875 13.652344 7.15625 13.488281 7.152344 C 13.378906 7.148438 13.289062 7.171875 13.21875 7.199219 C 12.902344 7.320312 12.746094 7.527344 12.644531 7.683594 C 12.441406 7.988281 12.351562 8.308594 12.210938 8.621094 L 11.304688 10.585938 C 10.929688 11.40625 10.523438 12.222656 10.199219 13.046875 C 10.136719 13.203125 10 13.359375 9.960938 13.515625 C 9.902344 13.726562 9.921875 13.945312 9.914062 14.15625 C 9.886719 14.671875 9.890625 15.183594 9.761719 15.699219 C 9.703125 15.9375 9.632812 16.1875 9.414062 16.414062 C 9.332031 15.570312 9.226562 14.726562 9.207031 13.882812 C 9.015625 13.851562 8.414062 13.78125 8.316406 13.722656 C 8.289062 13.703125 8.328125 13.667969 8.347656 13.652344 C 8.53125 13.488281 8.914062 13.339844 9.1875 13.191406 C 9.203125 12.574219 9.195312 11.949219 9.164062 11.328125 C 8.921875 11.265625 8.628906 11.226562 8.355469 11.183594 C 8.597656 11.015625 8.839844 10.847656 9.164062 10.695312 L 9.171875 9.5 C 9.167969 9.1875 9.203125 8.855469 9.066406 8.546875 C 9 8.402344 8.875 8.210938 8.582031 8.101562 C 8.527344 8.082031 8.457031 8.066406 8.386719 8.050781 C 8.382812 8.050781 8.382812 8.050781 8.378906 8.050781 C 8.371094 8.042969 8.363281 8.039062 8.355469 8.035156 C 8.296875 8.011719 8.207031 8.023438 8.128906 8.023438 C 7.980469 7.980469 8.117188 7.84375 8.097656 7.78125 C 8.078125 7.714844 7.972656 7.660156 7.976562 7.589844 C 7.976562 7.550781 8.082031 7.535156 8.0625 7.492188 C 8.007812 7.519531 7.941406 7.542969 7.855469 7.558594 L 7.742188 7.542969 C 7.558594 7.582031 7.648438 7.632812 7.570312 7.6875 C 7.539062 7.710938 7.453125 7.699219 7.398438 7.730469 C 7.390625 7.761719 7.402344 7.773438 7.441406 7.796875 C 7.472656 7.816406 7.492188 7.828125 7.488281 7.851562 C 7.269531 7.84375 7.082031 7.835938 6.878906 7.800781 C 6.808594 7.792969 6.816406 7.78125 6.789062 7.753906 Z M 15.101562 20.550781 C 15.105469 20.546875 15.109375 20.542969 15.113281 20.539062 C 15.289062 20.347656 15.636719 20.175781 15.855469 19.988281 C 16.03125 19.839844 16.203125 19.191406 16.195312 19.015625 C 15.710938 18.761719 15.445312 18.433594 15.234375 18.136719 C 15.039062 17.859375 15.015625 17.6875 14.527344 17.445312 C 14.328125 17.644531 14.160156 17.84375 13.976562 18.042969 C 13.820312 18.207031 13.625 18.371094 13.53125 18.539062 C 13.449219 18.683594 13.488281 19.707031 13.570312 19.839844 C 13.65625 19.980469 13.871094 20.121094 14.039062 20.25 C 14.132812 20.324219 14.230469 20.394531 14.335938 20.460938 C 14.570312 20.511719 14.808594 20.570312 15.097656 20.554688 C 15.097656 20.554688 15.101562 20.554688 15.101562 20.550781 Z M 15.101562 20.550781 " fill-opacity="1" fill-rule="nonzero"/><path fill="#000000" d="M 6.367188 10.066406 C 6.480469 10.039062 6.582031 10.011719 6.71875 10.011719 C 6.804688 10.023438 6.859375 10.035156 6.90625 10.0625 C 7.054688 10.160156 7.105469 10.285156 7.320312 10.367188 L 7.316406 10.398438 C 7.316406 11.046875 7.316406 11.695312 7.285156 12.34375 C 7.277344 12.570312 7.316406 12.808594 7.269531 13.035156 C 7.28125 13.484375 7.28125 13.929688 7.269531 14.378906 C 7.261719 14.597656 7.21875 14.828125 7.253906 15.050781 C 7.28125 15.242188 7.421875 15.445312 7.503906 15.632812 C 7.730469 16.175781 7.929688 16.785156 7.632812 17.328125 C 7.363281 16.851562 7.171875 16.367188 6.996094 15.886719 C 6.757812 15.949219 6.527344 16.015625 6.296875 16.085938 C 6.359375 15.917969 6.4375 15.753906 6.527344 15.589844 C 6.582031 15.488281 6.660156 15.378906 6.679688 15.273438 C 6.714844 15.066406 6.339844 14.425781 6.210938 14.1875 C 5.992188 14.234375 5.78125 14.285156 5.570312 14.339844 C 5.617188 14.074219 5.917969 13.820312 5.949219 13.558594 C 5.96875 13.394531 5.859375 13.214844 5.796875 13.050781 C 5.667969 12.703125 5.558594 12.335938 5.316406 11.992188 C 5.25 11.898438 5.175781 11.785156 4.996094 11.707031 C 4.925781 11.675781 4.832031 11.65625 4.71875 11.648438 C 4.609375 11.644531 4.496094 11.660156 4.417969 11.683594 C 3.976562 11.828125 3.941406 12.207031 3.9375 12.402344 C 3.917969 13.070312 4.265625 13.84375 4.464844 14.519531 C 4.925781 15.972656 5.355469 17.429688 5.753906 18.886719 C 5.878906 19.355469 5.96875 19.824219 6.019531 20.296875 C 6.035156 20.445312 6.082031 20.605469 6.058594 20.753906 C 6.050781 20.8125 6.082031 20.90625 6.019531 20.957031 L 5.949219 20.964844 C 5.867188 20.945312 5.742188 20.910156 5.636719 20.914062 L 5.613281 20.921875 C 5.660156 20.953125 5.742188 20.980469 5.722656 21.011719 L 5.667969 21.011719 C 5.457031 21.023438 5.25 21.042969 5.054688 21.074219 C 5.046875 21.074219 5.035156 21.078125 5.023438 21.078125 C 4.988281 20.648438 5.011719 20.21875 4.9375 19.785156 C 4.828125 19.234375 4.6875 18.679688 4.519531 18.125 L 3.671875 15.304688 L 3.238281 13.84375 C 3.085938 13.34375 2.925781 12.847656 2.9375 12.347656 C 2.949219 11.898438 3.085938 11.398438 3.660156 10.996094 C 3.839844 10.871094 4.117188 10.710938 4.511719 10.671875 C 4.691406 10.652344 4.875 10.664062 5.035156 10.699219 C 5.882812 10.871094 6.136719 11.4375 6.351562 11.753906 C 6.355469 11.597656 6.359375 11.4375 6.355469 11.28125 L 6.363281 11.03125 C 6.347656 10.710938 6.347656 10.386719 6.367188 10.066406 Z M 6.367188 10.066406 " fill-opacity="1" fill-rule="nonzero"/><path fill="#0d0f0b" d="M 6.367188 10.066406 C 6.480469 10.039062 6.582031 10.011719 6.71875 10.011719 C 6.804688 10.023438 6.859375 10.035156 6.90625 10.0625 C 7.054688 10.160156 7.105469 10.285156 7.320312 10.367188 L 7.316406 10.398438 C 7.316406 11.046875 7.316406 11.695312 7.285156 12.34375 C 7.277344 12.570312 7.316406 12.808594 7.269531 13.035156 C 7.210938 12.945312 7.257812 12.804688 7.253906 12.703125 C 7.25 12.457031 7.230469 12.210938 7.226562 11.960938 C 7.226562 11.828125 7.265625 11.683594 7.230469 11.550781 C 7.222656 11.523438 7.195312 11.511719 7.136719 11.492188 L 7.074219 11.5 C 6.972656 11.550781 6.921875 11.617188 6.863281 11.671875 C 6.769531 11.644531 6.683594 11.585938 6.636719 11.546875 C 6.613281 11.527344 6.597656 11.519531 6.625 11.5 C 6.664062 11.511719 6.675781 11.515625 6.726562 11.519531 C 6.753906 11.507812 6.757812 11.503906 6.773438 11.488281 C 6.828125 11.421875 6.742188 11.289062 6.628906 11.230469 L 6.597656 11.238281 L 6.589844 11.273438 L 6.550781 11.273438 C 6.523438 11.261719 6.488281 11.25 6.464844 11.234375 C 6.464844 11.234375 6.464844 11.234375 6.460938 11.230469 C 6.410156 11.246094 6.386719 11.261719 6.355469 11.28125 L 6.363281 11.03125 C 6.347656 10.710938 6.347656 10.386719 6.367188 10.066406 Z M 6.367188 10.066406 " fill-opacity="1" fill-rule="nonzero"/><path fill="#000000" d="M 6.367188 10.066406 C 6.480469 10.039062 6.582031 10.011719 6.71875 10.011719 C 6.804688 10.023438 6.859375 10.035156 6.90625 10.0625 C 7.054688 10.160156 7.105469 10.285156 7.320312 10.367188 L 7.316406 10.398438 C 7.25 10.414062 7.199219 10.421875 7.152344 10.441406 C 6.929688 10.546875 6.648438 11.042969 6.390625 11.089844 L 6.386719 11.074219 C 6.375 11.046875 6.382812 11.058594 6.363281 11.03125 C 6.347656 10.710938 6.347656 10.386719 6.367188 10.066406 Z M 6.367188 10.066406 " fill-opacity="1" fill-rule="nonzero"/><path fill="#000000" d="M 6.089844 23.082031 C 6.089844 23.253906 6.105469 23.425781 6.082031 23.597656 C 6.097656 23.710938 6.09375 23.828125 6.089844 23.941406 L 6.105469 25.097656 L 6.105469 27.386719 L 6.109375 28.128906 C 6.109375 28.25 6.128906 28.375 6.109375 28.496094 C 6.101562 28.519531 6.09375 28.535156 6.058594 28.554688 C 6.027344 28.574219 5.960938 28.585938 5.898438 28.589844 C 5.703125 28.597656 5.265625 28.609375 5.113281 28.5625 C 4.976562 28.390625 5.0625 27.492188 5.0625 27.257812 L 5.054688 24.171875 C 5.03125 23.851562 5.050781 23.527344 5.042969 23.207031 L 5.152344 23.234375 C 5.3125 23.238281 5.472656 23.238281 5.605469 23.203125 C 5.667969 23.1875 5.648438 23.191406 5.714844 23.183594 C 5.773438 23.179688 5.769531 23.175781 5.8125 23.160156 C 5.894531 23.09375 5.996094 23.125 6.089844 23.082031 Z M 6.089844 23.082031 " fill-opacity="1" fill-rule="nonzero"/><path fill="#7a7c78" d="M 6.089844 23.082031 C 6.089844 23.253906 6.105469 23.425781 6.082031 23.597656 C 6.097656 23.710938 6.09375 23.828125 6.089844 23.941406 L 6.105469 25.097656 C 6.082031 25.09375 6.050781 25.085938 6.035156 25.078125 C 5.960938 25.039062 5.957031 24.929688 5.980469 24.882812 C 5.847656 24.644531 5.777344 24.398438 5.652344 24.15625 L 5.257812 24.15625 C 5.28125 24.210938 5.316406 24.265625 5.296875 24.320312 C 5.210938 24.3125 5.207031 24.316406 5.15625 24.292969 C 5.152344 24.265625 5.15625 24.253906 5.179688 24.226562 C 5.1875 24.222656 5.199219 24.214844 5.203125 24.207031 C 5.222656 24.179688 5.195312 24.175781 5.152344 24.15625 L 5.054688 24.171875 C 5.03125 23.851562 5.050781 23.527344 5.042969 23.207031 L 5.152344 23.234375 C 5.3125 23.238281 5.472656 23.238281 5.605469 23.203125 C 5.667969 23.1875 5.648438 23.191406 5.714844 23.183594 C 5.773438 23.179688 5.769531 23.175781 5.8125 23.160156 C 5.894531 23.09375 5.996094 23.125 6.089844 23.082031 Z M 6.089844 23.082031 " fill-opacity="1" fill-rule="nonzero"/><path fill="#0d0f0b" d="M 6.089844 23.082031 C 6.089844 23.253906 6.105469 23.425781 6.082031 23.597656 C 6.007812 23.550781 6.011719 23.476562 5.890625 23.445312 L 5.75 23.464844 C 5.738281 23.421875 5.746094 23.40625 5.667969 23.375 L 5.605469 23.371094 C 5.511719 23.394531 5.488281 23.4375 5.472656 23.476562 C 5.445312 23.53125 5.457031 23.578125 5.5 23.632812 C 5.535156 23.679688 5.515625 23.730469 5.511719 23.773438 C 5.621094 23.839844 5.609375 23.988281 5.628906 24.066406 C 5.460938 24.066406 5.285156 24.070312 5.117188 24.066406 C 5.078125 24.085938 5.066406 24.09375 5.085938 24.121094 C 5.097656 24.132812 5.125 24.144531 5.152344 24.15625 L 5.054688 24.171875 C 5.03125 23.851562 5.050781 23.527344 5.042969 23.207031 L 5.152344 23.234375 C 5.3125 23.238281 5.472656 23.238281 5.605469 23.203125 C 5.667969 23.1875 5.648438 23.191406 5.714844 23.183594 C 5.773438 23.179688 5.769531 23.175781 5.8125 23.160156 C 5.894531 23.09375 5.996094 23.125 6.089844 23.082031 Z M 6.089844 23.082031 " fill-opacity="1" fill-rule="nonzero"/><path fill="#000000" d="M 5.089844 23.753906 C 5.089844 23.71875 5.078125 23.664062 5.132812 23.632812 C 5.179688 23.605469 5.210938 23.601562 5.289062 23.59375 C 5.363281 23.605469 5.417969 23.613281 5.453125 23.640625 C 5.492188 23.675781 5.464844 23.695312 5.433594 23.722656 L 5.445312 23.757812 L 5.511719 23.773438 C 5.621094 23.839844 5.609375 23.988281 5.628906 24.066406 C 5.460938 24.066406 5.285156 24.070312 5.117188 24.066406 C 5.019531 23.992188 5.082031 23.832031 5.089844 23.753906 Z M 5.089844 23.753906 " fill-opacity="1" fill-rule="nonzero"/><path fill="#000000" d="M 5.75 23.464844 L 5.890625 23.445312 C 6.011719 23.476562 6.007812 23.550781 6.082031 23.597656 C 6.097656 23.710938 6.09375 23.828125 6.089844 23.941406 L 5.996094 23.933594 C 5.988281 23.953125 5.980469 23.972656 5.972656 23.992188 C 5.898438 24.007812 5.839844 23.996094 5.757812 23.988281 C 5.742188 23.984375 5.722656 23.984375 5.707031 23.980469 C 5.644531 23.835938 5.574219 23.675781 5.558594 23.53125 C 5.601562 23.5 5.640625 23.5 5.726562 23.484375 Z M 5.75 23.464844 " fill-opacity="1" fill-rule="nonzero"/><path fill="#0d0f0b" d="M 5.707031 23.980469 C 5.722656 23.984375 5.742188 23.984375 5.757812 23.988281 C 5.839844 23.996094 5.898438 24.007812 5.972656 23.992188 C 5.980469 23.972656 5.988281 23.953125 5.996094 23.933594 L 6.089844 23.941406 L 6.105469 25.097656 C 6.082031 25.09375 6.050781 25.085938 6.035156 25.078125 C 5.960938 25.039062 5.957031 24.929688 5.980469 24.882812 C 6.132812 24.722656 5.691406 24.203125 5.789062 24.148438 C 5.863281 24.152344 5.929688 24.152344 6.003906 24.148438 L 6.042969 24.125 C 6.039062 24.097656 6.054688 24.089844 5.996094 24.070312 C 5.902344 24.070312 5.832031 24.070312 5.742188 24.058594 C 5.691406 24.027344 5.699219 24.015625 5.707031 23.980469 Z M 5.707031 23.980469 " fill-opacity="1" fill-rule="nonzero"/><path fill="#000000" d="M 8.046875 19.597656 C 8.066406 19.597656 8.082031 19.597656 8.097656 19.601562 C 8.546875 19.632812 9.042969 19.886719 9.261719 20.015625 C 10.574219 20.804688 11.246094 22.441406 11.328125 23.363281 C 11.347656 23.578125 11.316406 23.796875 11.300781 24.011719 C 11.253906 24.597656 11.15625 25.179688 10.757812 25.75 L 10.59375 25.953125 C 10.578125 25.574219 10.695312 25.1875 10.703125 24.804688 C 10.730469 23.546875 10.457031 22.269531 9.511719 21.050781 C 9.320312 20.804688 9.101562 20.554688 8.839844 20.316406 C 8.582031 20.082031 8.273438 19.847656 8.058594 19.609375 Z M 8.046875 19.597656 " fill-opacity="1" fill-rule="nonzero"/><path fill="#1d201c" d="M 6.789062 7.753906 C 6.816406 7.78125 6.808594 7.792969 6.878906 7.800781 C 7.082031 7.835938 7.269531 7.84375 7.488281 7.851562 C 7.492188 7.828125 7.472656 7.816406 7.441406 7.796875 C 7.402344 7.773438 7.390625 7.761719 7.398438 7.730469 C 7.453125 7.699219 7.539062 7.710938 7.570312 7.6875 C 7.648438 7.632812 7.558594 7.582031 7.742188 7.542969 L 7.855469 7.558594 C 7.941406 7.542969 8.007812 7.519531 8.0625 7.492188 C 8.082031 7.535156 7.976562 7.550781 7.976562 7.589844 C 7.972656 7.660156 8.078125 7.714844 8.097656 7.78125 C 8.117188 7.84375 7.980469 7.980469 8.128906 8.023438 C 8.207031 8.023438 8.296875 8.011719 8.355469 8.035156 C 8.363281 8.039062 8.371094 8.042969 8.378906 8.050781 C 8.167969 8.046875 8.039062 8.058594 7.886719 8.113281 C 7.644531 8.199219 7.558594 8.351562 7.472656 8.46875 C 7.300781 8.960938 7.328125 9.460938 7.328125 9.957031 L 7.320312 10.367188 C 7.105469 10.285156 7.054688 10.160156 6.90625 10.0625 C 6.859375 10.035156 6.804688 10.023438 6.71875 10.011719 C 6.582031 10.011719 6.480469 10.039062 6.367188 10.066406 C 6.367188 9.742188 6.371094 9.417969 6.382812 9.097656 C 6.40625 8.699219 6.476562 8.3125 6.6875 7.917969 Z M 6.789062 7.753906 " fill-opacity="1" fill-rule="nonzero"/><path fill="#0d0f0b" d="M 6.789062 7.753906 C 6.816406 7.78125 6.808594 7.792969 6.878906 7.800781 C 7.082031 7.835938 7.269531 7.84375 7.488281 7.851562 C 7.492188 7.828125 7.472656 7.816406 7.441406 7.796875 C 7.402344 7.773438 7.390625 7.761719 7.398438 7.730469 C 7.453125 7.699219 7.539062 7.710938 7.570312 7.6875 C 7.648438 7.632812 7.558594 7.582031 7.742188 7.542969 L 7.855469 7.558594 C 7.941406 7.542969 8.007812 7.519531 8.0625 7.492188 C 8.082031 7.535156 7.976562 7.550781 7.976562 7.589844 C 7.972656 7.660156 8.078125 7.714844 8.097656 7.78125 C 8.117188 7.84375 7.980469 7.980469 8.128906 8.023438 C 8.207031 8.023438 8.296875 8.011719 8.355469 8.035156 C 8.363281 8.039062 8.371094 8.042969 8.378906 8.050781 C 8.167969 8.046875 8.039062 8.058594 7.886719 8.113281 C 7.644531 8.199219 7.558594 8.351562 7.472656 8.46875 C 7.476562 8.4375 7.496094 8.402344 7.484375 8.375 C 7.484375 8.375 7.46875 8.339844 7.453125 8.335938 C 7.359375 8.316406 6.871094 8.351562 6.625 8.292969 L 6.617188 8.269531 C 6.695312 8.238281 6.714844 8.234375 6.820312 8.21875 L 6.660156 8.207031 L 6.609375 8.164062 C 6.625 8.132812 6.636719 8.125 6.699219 8.097656 C 6.886719 8.089844 7.144531 8.132812 7.328125 8.152344 C 7.335938 8.144531 7.351562 8.132812 7.363281 8.128906 C 7.433594 8.101562 7.585938 8.117188 7.683594 8.109375 C 7.75 8.105469 7.726562 8.113281 7.761719 8.09375 C 7.75 8.082031 7.746094 8.078125 7.722656 8.070312 C 7.558594 8.011719 7.007812 7.945312 6.777344 7.945312 C 6.761719 7.945312 6.75 7.945312 6.734375 7.941406 L 6.6875 7.917969 Z M 6.789062 7.753906 " fill-opacity="1" fill-rule="nonzero"/><path fill="#555753" d="M 6.820312 8.21875 L 6.660156 8.207031 L 6.609375 8.164062 C 6.625 8.132812 6.636719 8.125 6.699219 8.097656 C 6.886719 8.089844 7.144531 8.132812 7.328125 8.152344 C 7.449219 8.15625 7.511719 8.15625 7.609375 8.183594 L 7.628906 8.207031 C 7.59375 8.234375 7.5625 8.242188 7.484375 8.253906 C 7.3125 8.273438 7.007812 8.257812 6.851562 8.226562 C 6.839844 8.222656 6.832031 8.222656 6.820312 8.21875 Z M 6.820312 8.21875 " fill-opacity="1" fill-rule="nonzero"/><path fill="#0d0f0b" d="M 6.382812 9.097656 C 6.394531 9.132812 6.394531 9.167969 6.457031 9.195312 C 6.515625 9.207031 6.542969 9.203125 6.601562 9.203125 C 6.703125 9.199219 6.75 9.203125 6.832031 9.226562 C 6.882812 9.242188 6.96875 9.261719 6.960938 9.285156 C 6.960938 9.292969 6.9375 9.3125 6.929688 9.316406 L 6.96875 9.328125 C 7.015625 9.320312 7.019531 9.320312 7.070312 9.324219 C 7.074219 9.324219 7.082031 9.324219 7.085938 9.320312 C 7.085938 9.324219 7.085938 9.328125 7.089844 9.332031 C 7.101562 9.386719 7.21875 9.496094 7.179688 9.542969 C 7.152344 9.574219 7.066406 9.613281 7.027344 9.648438 C 6.957031 9.644531 6.917969 9.636719 6.859375 9.628906 L 6.832031 9.632812 C 6.828125 9.660156 6.816406 9.6875 6.867188 9.710938 C 6.988281 9.765625 7.210938 9.785156 7.3125 9.839844 L 7.304688 9.867188 C 6.996094 9.863281 6.742188 9.71875 6.46875 9.707031 L 6.4375 9.722656 C 6.445312 9.757812 6.484375 9.773438 6.5625 9.792969 C 6.757812 9.851562 7.082031 9.929688 7.324219 9.953125 C 7.328125 9.953125 7.328125 9.957031 7.328125 9.957031 L 7.320312 10.367188 C 7.105469 10.285156 7.054688 10.160156 6.90625 10.0625 C 6.859375 10.035156 6.804688 10.023438 6.71875 10.011719 C 6.582031 10.011719 6.480469 10.039062 6.367188 10.066406 C 6.367188 9.742188 6.371094 9.417969 6.382812 9.097656 Z M 6.382812 9.097656 " fill-opacity="1" fill-rule="nonzero"/><path fill="#1d201c" d="M 6.058594 20.753906 C 6.148438 21.527344 6.09375 22.308594 6.089844 23.082031 C 5.996094 23.125 5.894531 23.09375 5.8125 23.160156 C 5.769531 23.175781 5.773438 23.179688 5.714844 23.183594 C 5.648438 23.191406 5.667969 23.1875 5.605469 23.203125 C 5.472656 23.238281 5.3125 23.238281 5.152344 23.234375 L 5.042969 23.207031 L 5.023438 21.078125 C 5.035156 21.078125 5.046875 21.074219 5.054688 21.074219 C 5.25 21.042969 5.457031 21.023438 5.667969 21.011719 L 5.722656 21.011719 C 5.742188 20.980469 5.660156 20.953125 5.613281 20.921875 L 5.636719 20.914062 C 5.742188 20.910156 5.867188 20.945312 5.949219 20.964844 L 6.019531 20.957031 C 6.082031 20.90625 6.050781 20.8125 6.058594 20.753906 Z M 6.058594 20.753906 " fill-opacity="1" fill-rule="nonzero"/><path fill="#0d0f0b" d="M 5.523438 21.378906 L 5.265625 21.351562 C 5.210938 21.332031 5.183594 21.324219 5.1875 21.292969 C 5.191406 21.261719 5.214844 21.25 5.269531 21.226562 C 5.355469 21.214844 5.40625 21.214844 5.496094 21.21875 C 5.644531 21.226562 5.792969 21.234375 5.941406 21.242188 C 5.945312 21.246094 5.949219 21.253906 5.957031 21.257812 C 5.980469 21.277344 6.007812 21.289062 6.046875 21.308594 L 6.035156 21.351562 C 6.027344 21.390625 6.046875 21.425781 5.957031 21.453125 C 5.910156 21.46875 5.839844 21.472656 5.78125 21.464844 C 5.753906 21.460938 5.710938 21.449219 5.6875 21.441406 C 5.742188 21.429688 5.773438 21.425781 5.835938 21.421875 L 5.867188 21.402344 L 5.847656 21.386719 C 5.726562 21.371094 5.644531 21.382812 5.523438 21.378906 Z M 5.523438 21.378906 " fill-opacity="1" fill-rule="nonzero"/><path fill="#0d0f0b" d="M 5.28125 21.511719 C 5.402344 21.539062 5.414062 21.550781 5.558594 21.546875 C 5.578125 21.5625 5.601562 21.578125 5.585938 21.597656 C 5.554688 21.632812 5.605469 21.667969 5.574219 21.707031 L 5.550781 21.710938 C 5.457031 21.6875 5.527344 21.671875 5.398438 21.675781 C 5.378906 21.667969 5.359375 21.664062 5.335938 21.65625 C 5.257812 21.632812 5.214844 21.617188 5.167969 21.585938 C 5.222656 21.582031 5.28125 21.582031 5.335938 21.582031 C 5.355469 21.550781 5.316406 21.539062 5.28125 21.511719 Z M 5.28125 21.511719 " fill-opacity="1" fill-rule="nonzero"/></svg>