<svg width="58" height="80" viewBox="0 0 58 80" fill="none" xmlns="http://www.w3.org/2000/svg">
<path d="M17.5979 7.1838C17.2038 5.73862 17.4007 4.19879 18.1463 2.8951C18.892 1.59141 20.1268 0.627885 21.5856 0.211507C24.7068 -0.667174 27.9839 1.28307 28.8358 4.37274L34.636 25.7254C34.6895 25.9176 34.7016 26.1188 34.6715 26.3159C34.6414 26.513 34.5697 26.7018 34.4612 26.87C34.3526 27.0382 34.2095 27.1821 34.0411 27.2926C33.8727 27.4031 33.6826 27.4776 33.4832 27.5113C31.8785 27.782 30.3502 28.3846 28.999 29.2794C28.7959 29.4116 28.6002 29.5509 28.4044 29.6973C28.2848 29.4901 28.1616 29.283 28.0419 29.083C26.8028 27.2279 25.0381 25.7722 22.9667 24.8967C22.7676 24.812 22.5906 24.6837 22.4493 24.5215C22.308 24.3594 22.206 24.1677 22.1511 23.9609L17.5979 7.1838ZM11.7433 57.3722C12.1286 57.4501 12.5209 57.4896 12.9143 57.4901C14.3517 57.4888 15.7375 56.9617 16.8029 56.0109C17.8683 55.0601 18.5375 53.7534 18.6806 52.3441C18.8237 50.9348 18.4306 49.5233 17.5775 48.3834C16.7244 47.2434 15.4721 46.4562 14.0634 46.1744L6.96179 44.7456C5.46106 44.4576 3.90563 44.7652 2.63381 45.6013C1.36199 46.4374 0.476665 47.7345 0.170389 49.2104C-0.135887 50.6863 0.161665 52.2217 0.998324 53.4826C1.83498 54.7435 3.14307 55.6279 4.63808 55.9434L11.7433 57.3722ZM4.63808 38.4413L17.1955 40.9666C17.9465 41.1289 18.7227 41.1425 19.479 41.0066C20.2354 40.8707 20.9567 40.588 21.6012 40.1749C22.2456 39.7619 22.8003 39.2267 23.233 38.6005C23.6656 37.9743 23.9676 37.2696 24.1214 36.5274C24.2752 35.7852 24.2777 35.0203 24.1287 34.2772C23.9798 33.534 23.6824 32.8274 23.2538 32.1985C22.8252 31.5696 22.2741 31.031 21.6323 30.6138C20.9906 30.1967 20.271 29.9094 19.5156 29.7688L6.96179 27.2542C5.45473 26.9506 3.88702 27.2493 2.60349 28.0846C1.31996 28.9199 0.425746 30.2234 0.117541 31.7083C-0.190532 33.1932 0.112652 34.7379 0.960406 36.0026C1.80816 37.2672 3.13105 38.1483 4.63808 38.452V38.4413ZM41.6144 28.3829L50.1516 30.1009C50.5116 30.1727 50.8859 30.1072 51.1988 29.9175C51.5117 29.7279 51.7399 29.4284 51.8373 29.0794L57.7897 7.1838C58.1815 5.72177 57.9691 4.16637 57.1993 2.85827C56.4295 1.55016 55.1649 0.595988 53.6825 0.204726C52.2001 -0.186537 50.6207 0.0170071 49.2903 0.770778C47.9599 1.52455 46.9869 2.7671 46.5845 4.22629L40.4942 26.6219C40.4429 26.8112 40.4315 27.0089 40.461 27.2027C40.4904 27.3965 40.56 27.5822 40.6654 27.7484C40.7708 27.9145 40.9098 28.0576 41.0736 28.1686C41.2375 28.2796 41.4228 28.3561 41.618 28.3936L41.6144 28.3829ZM55.1506 39.72C54.5299 38.7145 53.7049 37.8464 52.7273 37.1702C51.7497 36.4941 50.6407 36.0245 49.4701 35.7909L36.5646 33.2085C35.5723 33.0087 34.5441 33.0685 33.5825 33.3818C32.6208 33.6951 31.7592 34.2511 31.0834 34.9944C30.7246 35.372 30.4274 35.8022 30.2025 36.2696C29.7134 37.2363 29.5124 38.3198 29.6227 39.3945C29.7331 40.4692 30.1503 41.4911 30.826 42.3417C31.7155 43.4431 32.9757 44.1945 34.3787 44.4599L39.9034 45.5707C40.6537 45.7211 41.3141 46.1556 41.7426 46.7809C42.171 47.4061 42.3333 48.1721 42.1944 48.914C41.7069 51.2221 42.0625 53.6257 43.1986 55.7006C43.5475 56.3017 43.6686 57.0052 43.5405 57.6861C43.4124 58.3669 43.0433 58.9809 42.4989 59.4189C42.1684 59.6743 41.7854 59.8558 41.3766 59.951C40.9678 60.0462 40.5429 60.0528 40.1312 59.9702C39.7196 59.8877 39.3311 59.718 38.9925 59.4729C38.654 59.2279 38.3735 58.9133 38.1705 58.5509C36.8175 56.138 36.1324 53.4169 36.184 50.6606L33.0845 49.9963C31.5929 49.7003 30.1755 49.1161 28.9143 48.2774C27.6531 47.4387 26.573 46.3622 25.7363 45.11C25.5986 44.9064 25.4717 44.6992 25.3521 44.4884C24.5852 45.0645 23.7486 45.5444 22.8616 45.9172C23.9138 47.6513 24.4806 49.6292 24.5044 51.6494C24.5283 53.6696 24.0082 55.6599 22.9973 57.4177C21.9863 59.1754 20.5205 60.6376 18.7493 61.6555C16.9781 62.6734 14.9647 63.2106 12.9143 63.2122C12.1313 63.2117 11.3505 63.134 10.5833 62.98L3.48166 61.5513H3.45991C3.28932 61.5114 3.11085 61.5191 2.94441 61.5733C2.77797 61.6276 2.63011 61.7264 2.51732 61.8586C2.40453 61.9909 2.33125 62.1514 2.30566 62.3223C2.28006 62.4932 2.30316 62.6677 2.37237 62.8264C4.63564 67.9296 8.35969 72.272 13.0888 75.3221C17.8178 78.3723 23.3468 79.9979 28.999 80H29.2201C45.0873 79.8821 58 66.9198 58 51.1036V49.9105C57.9989 46.3267 57.0158 42.8096 55.1543 39.7307L55.1506 39.72Z" fill="#9DF856"/>
</svg>
