<svg width="60" height="60" viewBox="0 0 60 60" fill="none" xmlns="http://www.w3.org/2000/svg">
<path d="M1.32927 28.2083C1.67907 28.4714 2.07733 28.6631 2.50127 28.7724C2.92522 28.8816 3.36654 28.9062 3.80002 28.8449C4.2335 28.7835 4.65063 28.6374 5.02758 28.4148C5.40453 28.1922 5.7339 27.8976 5.99687 27.5477C7.23829 25.8925 8.84825 24.549 10.6992 23.6237C12.5501 22.6984 14.5912 22.2166 16.6607 22.2166C18.7302 22.2166 20.7713 22.6984 22.6223 23.6237C24.4732 24.549 26.0832 25.8925 27.3246 27.5477C27.8552 28.2539 28.6448 28.7206 29.5196 28.845C30.3944 28.9694 31.2828 28.7414 31.9894 28.2111C32.2393 28.0215 32.4616 27.7982 32.6502 27.5477C33.8917 25.8925 35.5016 24.549 37.3526 23.6237C39.2035 22.6984 41.2446 22.2166 43.3141 22.2166C45.3836 22.2166 47.4247 22.6984 49.2756 23.6237C51.1266 24.549 52.7365 25.8925 53.9779 27.5477C54.2383 27.9037 54.5668 28.2045 54.9443 28.4327C55.3219 28.6608 55.741 28.8117 56.1774 28.8766C56.6138 28.9416 57.0587 28.9192 57.4864 28.8109C57.9141 28.7026 58.316 28.5104 58.6687 28.2456C59.0215 27.9808 59.3182 27.6486 59.5415 27.2683C59.7649 26.8879 59.9104 26.467 59.9697 26.03C60.0291 25.593 60.001 25.1486 59.8871 24.7225C59.7732 24.2964 59.5758 23.8972 59.3064 23.548C57.4528 21.0672 55.0479 19.0509 52.2814 17.6581C53.492 16.0029 54.2205 14.045 54.386 12.0013C54.5515 9.9576 54.1477 7.908 53.2192 6.0797C52.2907 4.2514 50.8739 2.71583 49.1258 1.64319C47.3777 0.570562 45.3666 0.00277516 43.3155 0.00277516C41.2643 0.00277516 39.2532 0.570562 37.5051 1.64319C35.757 2.71583 34.3402 4.2514 33.4118 6.0797C32.4833 7.908 32.0795 9.9576 32.245 12.0013C32.4105 14.045 33.139 16.0029 34.3496 17.6581C32.7685 18.4507 31.3012 19.4525 29.9874 20.6364C28.6738 19.4515 27.2065 18.4488 25.6252 17.6553C26.8359 16.0002 27.5643 14.0422 27.7298 11.9985C27.8954 9.95482 27.4915 7.90522 26.5631 6.07693C25.6346 4.24863 24.2178 2.71305 22.4697 1.64042C20.7216 0.567787 18.7105 0 16.6593 0C14.6082 0 12.5971 0.567787 10.849 1.64042C9.10089 2.71305 7.68408 4.24863 6.75561 6.07693C5.82715 7.90522 5.4233 9.95482 5.58883 11.9985C5.75436 14.0422 6.48281 16.0002 7.69343 17.6553C4.92692 19.0481 2.52201 21.0644 0.66842 23.5452C0.137604 24.2512 -0.0909728 25.1391 0.0329544 26.0135C0.156882 26.888 0.623166 27.6774 1.32927 28.2083ZM43.3155 6.67217C44.1942 6.67217 45.0531 6.93263 45.7837 7.42061C46.5143 7.9086 47.0837 8.60219 47.42 9.41367C47.7563 10.2252 47.8442 11.1181 47.6728 11.9796C47.5014 12.841 47.0783 13.6324 46.4569 14.2534C45.8356 14.8745 45.044 15.2975 44.1822 15.4689C43.3204 15.6402 42.4271 15.5523 41.6153 15.2161C40.8035 14.88 40.1097 14.3108 39.6215 13.5805C39.1334 12.8501 38.8728 11.9915 38.8728 11.1132C38.8728 9.93535 39.3409 8.80576 40.174 7.97291C41.0072 7.14006 42.1372 6.67217 43.3155 6.67217ZM16.6593 6.67217C17.538 6.67217 18.397 6.93263 19.1276 7.42061C19.8582 7.9086 20.4276 8.60219 20.7638 9.41367C21.1001 10.2252 21.1881 11.1181 21.0167 11.9796C20.8452 12.841 20.4221 13.6324 19.8008 14.2534C19.1795 14.8745 18.3879 15.2975 17.5261 15.4689C16.6643 15.6402 15.771 15.5523 14.9592 15.2161C14.1474 14.88 13.4535 14.3108 12.9654 13.5805C12.4772 12.8501 12.2166 11.9915 12.2166 11.1132C12.2166 9.93535 12.6847 8.80576 13.5179 7.97291C14.351 7.14006 15.4811 6.67217 16.6593 6.67217ZM52.2814 48.7424C53.492 47.0872 54.2205 45.1293 54.386 43.0856C54.5515 41.0419 54.1477 38.9923 53.2192 37.164C52.2907 35.3357 50.8739 33.8001 49.1258 32.7275C47.3777 31.6548 45.3666 31.0871 43.3155 31.0871C41.2643 31.0871 39.2532 31.6548 37.5051 32.7275C35.757 33.8001 34.3402 35.3357 33.4118 37.164C32.4833 38.9923 32.0795 41.0419 32.245 43.0856C32.4105 45.1293 33.139 47.0872 34.3496 48.7424C32.769 49.5359 31.3019 50.5376 29.9874 51.7206C28.673 50.5376 27.2058 49.5359 25.6252 48.7424C26.8359 47.0872 27.5643 45.1293 27.7298 43.0856C27.8954 41.0419 27.4915 38.9923 26.5631 37.164C25.6346 35.3357 24.2178 33.8001 22.4697 32.7275C20.7216 31.6548 18.7105 31.0871 16.6593 31.0871C14.6082 31.0871 12.5971 31.6548 10.849 32.7275C9.10089 33.8001 7.68408 35.3357 6.75561 37.164C5.82715 38.9923 5.4233 41.0419 5.58883 43.0856C5.75436 45.1293 6.48281 47.0872 7.69343 48.7424C4.92692 50.1352 2.52201 52.1515 0.66842 54.6323C0.13746 55.3386 -0.0910594 56.2269 0.0331345 57.1016C0.157328 57.9764 0.624062 58.766 1.33066 59.2967C2.03726 59.8275 2.92584 60.0559 3.80092 59.9318C4.67601 59.8076 5.46591 59.3411 5.99687 58.6347C7.23829 56.9795 8.84825 55.6361 10.6992 54.7107C12.5501 53.7854 14.5912 53.3037 16.6607 53.3037C18.7302 53.3037 20.7713 53.7854 22.6223 54.7107C24.4732 55.6361 26.0832 56.9795 27.3246 58.6347C27.8552 59.341 28.6448 59.8077 29.5196 59.9321C30.3944 60.0565 31.2828 59.8284 31.9894 59.2981C32.2393 59.1085 32.4616 58.8853 32.6502 58.6347C33.8917 56.9795 35.5016 55.6361 37.3526 54.7107C39.2035 53.7854 41.2446 53.3037 43.3141 53.3037C45.3836 53.3037 47.4247 53.7854 49.2756 54.7107C51.1266 55.6361 52.7365 56.9795 53.9779 58.6347C54.2383 58.9908 54.5668 59.2916 54.9443 59.5197C55.3219 59.7479 55.741 59.8988 56.1774 59.9637C56.6138 60.0286 57.0587 60.0063 57.4864 59.898C57.9141 59.7896 58.316 59.5975 58.6687 59.3327C59.0215 59.0679 59.3182 58.7357 59.5415 58.3553C59.7649 57.975 59.9104 57.5541 59.9697 57.1171C60.0291 56.6801 60.001 56.2356 59.8871 55.8096C59.7732 55.3835 59.5758 54.9843 59.3064 54.6351C57.4538 52.1526 55.0487 50.1352 52.2814 48.7424ZM16.6593 37.7592C17.538 37.7592 18.397 38.0197 19.1276 38.5077C19.8582 38.9957 20.4276 39.6892 20.7638 40.5007C21.1001 41.3122 21.1881 42.2052 21.0167 43.0666C20.8452 43.9281 20.4221 44.7194 19.8008 45.3405C19.1795 45.9616 18.3879 46.3846 17.5261 46.5559C16.6643 46.7273 15.771 46.6393 14.9592 46.3032C14.1474 45.9671 13.4535 45.3978 12.9654 44.6675C12.4772 43.9372 12.2166 43.0786 12.2166 42.2002C12.2166 41.0224 12.6847 39.8928 13.5179 39.06C14.351 38.2271 15.4811 37.7592 16.6593 37.7592ZM43.3155 37.7592C44.1942 37.7592 45.0531 38.0197 45.7837 38.5077C46.5143 38.9957 47.0837 39.6892 47.42 40.5007C47.7563 41.3122 47.8442 42.2052 47.6728 43.0666C47.5014 43.9281 47.0783 44.7194 46.4569 45.3405C45.8356 45.9616 45.044 46.3846 44.1822 46.5559C43.3204 46.7273 42.4271 46.6393 41.6153 46.3032C40.8035 45.9671 40.1097 45.3978 39.6215 44.6675C39.1334 43.9372 38.8728 43.0786 38.8728 42.2002C38.8728 41.0224 39.3409 39.8928 40.174 39.06C41.0072 38.2271 42.1372 37.7592 43.3155 37.7592Z" fill="#1D1D1B"/>
</svg>
