<svg width="48" height="60" viewBox="0 0 48 60" fill="none" xmlns="http://www.w3.org/2000/svg">
<path d="M42.7826 53.7931H32.5383C33.8896 52.5 35.3426 51.0233 36.7983 49.3629C44.1261 41.0095 48 32.1647 48 23.7931C48 17.4828 45.4714 11.4309 40.9706 6.96884C36.4697 2.50677 30.3652 0 24 0C17.6348 0 11.5303 2.50677 7.02944 6.96884C2.52856 11.4309 0 17.4828 0 23.7931C0 36.7241 8.90087 47.5707 15.4383 53.7931H5.21739C4.38715 53.7931 3.59091 54.1201 3.00384 54.7021C2.41677 55.2841 2.08696 56.0735 2.08696 56.8965C2.08696 57.7196 2.41677 58.509 3.00384 59.091C3.59091 59.673 4.38715 60 5.21739 60H42.7826C43.6129 60 44.4091 59.673 44.9962 59.091C45.5832 58.509 45.913 57.7196 45.913 56.8965C45.913 56.0735 45.5832 55.2841 44.9962 54.7021C44.4091 54.1201 43.6129 53.7931 42.7826 53.7931ZM6.26087 23.7931C6.26087 19.129 8.12981 14.6558 11.4565 11.3578C14.7833 8.05972 19.2953 6.2069 24 6.2069C28.7047 6.2069 33.2167 8.05972 36.5435 11.3578C39.8702 14.6558 41.7391 19.129 41.7391 23.7931C41.7391 32.4078 36.5217 40.1819 32.1652 45.1836C29.6779 48.0161 26.9458 50.6277 24 52.9888C21.0542 50.6277 18.3221 48.0161 15.8348 45.1836C11.4783 40.1819 6.26087 32.4078 6.26087 23.7931ZM24 35.1724C26.2702 35.1724 28.4894 34.505 30.377 33.2547C32.2646 32.0043 33.7358 30.2271 34.6045 28.1478C35.4733 26.0685 35.7006 23.7805 35.2577 21.5731C34.8148 19.3657 33.7216 17.3381 32.1164 15.7467C30.5111 14.1553 28.4659 13.0715 26.2393 12.6324C24.0127 12.1934 21.7048 12.4187 19.6075 13.28C17.5101 14.1413 15.7174 15.5998 14.4562 17.4711C13.1949 19.3424 12.5217 21.5425 12.5217 23.7931C12.5252 26.81 13.7356 29.7024 15.8875 31.8357C18.0393 33.969 20.9568 35.169 24 35.1724ZM24 18.6207C25.0319 18.6207 26.0406 18.924 26.8986 19.4924C27.7566 20.0607 28.4253 20.8686 28.8202 21.8137C29.2151 22.7588 29.3185 23.7988 29.1171 24.8022C28.9158 25.8055 28.4189 26.7272 27.6893 27.4506C26.9596 28.1739 26.0299 28.6666 25.0179 28.8661C24.0058 29.0657 22.9567 28.9633 22.0034 28.5718C21.05 28.1803 20.2352 27.5173 19.6619 26.6667C19.0886 25.8161 18.7826 24.8161 18.7826 23.7931C18.7826 22.4213 19.3323 21.1057 20.3107 20.1357C21.2892 19.1656 22.6163 18.6207 24 18.6207Z" fill="#1D1D1B"/>
</svg>
