<svg width="143" height="24" viewBox="0 0 143 24" fill="none" xmlns="http://www.w3.org/2000/svg">
<path d="M15.615 17.2743V24H22.246L40 6.37168V0H33.0125L15.615 17.2743Z" fill="#1D1D1B"/>
<path d="M0.0713013 17.2743V24H6.70232L24.4563 6.37168V0H17.4688L0.0713013 17.2743Z" fill="#1D1D1B"/>
<path d="M1.30556e-05 4.24779L0 15.5044L11.1943 4.44389V0H4.27809L1.30556e-05 4.24779Z" fill="#1D1D1B"/>
<path d="M51.9736 23.5927L45 0.407311H50.3088L53.3558 10.4648C53.7642 11.8433 54.1411 13.2219 54.5181 15.5091C54.895 13.2219 55.272 11.906 55.6803 10.4648L58.5389 0.407311H64.2246L66.9575 10.4648C67.3345 11.8747 67.7114 13.2846 68.1198 15.5091C68.591 13.1593 68.9365 11.8747 69.3449 10.5274L72.4548 0.407311H77.6379L70.5386 23.5927H65.5754L61.3346 8.36553L56.9683 23.5927H51.9736Z" fill="#1D1D1B"/>
<path d="M84.999 0.407311V23.5927H79.9101V0.407311H84.999Z" fill="#1D1D1B"/>
<path d="M110.707 11.9687C110.707 19.0496 106.027 23.9687 99.2732 23.9687C92.5508 23.9687 87.9332 19.0809 87.9332 12C87.9332 4.91906 92.5823 0 99.3046 0C106.058 0 110.707 4.88773 110.707 11.9687ZM105.336 11.9687C105.336 7.55091 103.074 4.88773 99.336 4.88773C95.5665 4.88773 93.3047 7.55091 93.3047 11.9687C93.3047 16.4178 95.5665 19.0809 99.336 19.0809C103.074 19.0809 105.336 16.3551 105.336 11.9687Z" fill="#1D1D1B"/>
<path d="M118.651 23.5927H113.625V0.407311H118.651L128.452 15.1645V0.407311H133.478V23.5927H128.452L118.651 8.86684V23.5927Z" fill="#1D1D1B"/>
<path d="M140.11 24C138.508 24 137.22 22.7154 137.22 21.1802C137.22 19.6136 138.508 18.329 140.11 18.329C141.649 18.329 143 19.6136 143 21.1802C143 22.7154 141.649 24 140.11 24Z" fill="#1D1D1B"/>
</svg>
