<svg width="16" height="14" viewBox="0 0 16 14" fill="none" xmlns="http://www.w3.org/2000/svg">
<path d="M13.9325 2.06626C13.2536 1.38908 12.3342 1.00827 11.3753 1.0071C10.4164 1.00593 9.4961 1.38449 8.81558 2.06001L7.99857 2.81892L7.18095 2.05751C6.50059 1.37905 5.57857 0.998656 4.61774 1C3.65691 1.00135 2.73597 1.38433 2.05751 2.06469C1.37905 2.74506 0.998656 3.66707 1 4.6279C1.00135 5.58873 1.38433 6.50967 2.06469 7.18813L7.64566 12.8509C7.69216 12.8981 7.74758 12.9356 7.80871 12.9612C7.86983 12.9868 7.93543 13 8.0017 13C8.06796 13 8.13357 12.9868 8.19469 12.9612C8.25581 12.9356 8.31123 12.8981 8.35773 12.8509L13.9325 7.18813C14.6114 6.50879 14.9928 5.58764 14.9928 4.62719C14.9928 3.66674 14.6114 2.7456 13.9325 2.06626ZM13.2235 6.48606L7.99857 11.7853L2.77051 6.48106C2.27851 5.98905 2.0021 5.32175 2.0021 4.62594C2.0021 3.93014 2.27851 3.26283 2.77051 2.77083C3.26252 2.27882 3.92983 2.00241 4.62563 2.00241C5.32144 2.00241 5.98874 2.27882 6.48075 2.77083L6.49324 2.78332L7.65816 3.86703C7.75063 3.95309 7.87226 4.00093 7.99857 4.00093C8.12489 4.00093 8.24652 3.95309 8.33899 3.86703L9.50391 2.78332L9.5164 2.77083C10.0087 2.27915 10.6762 2.00319 11.372 2.00366C12.0678 2.00413 12.735 2.28098 13.2266 2.77332C13.7183 3.26566 13.9943 3.93316 13.9938 4.62896C13.9933 5.32476 13.7165 5.99188 13.2241 6.48356L13.2235 6.48606Z" fill="#1D1D1B" stroke="#1D1D1B"/>
</svg>
