<svg width="60" height="60" viewBox="0 0 60 60" fill="none" xmlns="http://www.w3.org/2000/svg">
<path d="M34.7344 4.87405C34.9717 3.98746 35.5515 3.23141 36.3461 2.77215C37.1408 2.31289 38.0853 2.18801 38.972 2.42497C43.4473 3.59084 47.5305 5.92943 50.8007 9.19954C54.0708 12.4697 56.4094 16.5529 57.5753 21.0282C57.7035 21.4706 57.7421 21.9341 57.6889 22.3917C57.6357 22.8492 57.4917 23.2915 57.2653 23.6927C57.039 24.0939 56.7348 24.4459 56.3707 24.728C56.0066 25.0101 55.5899 25.2168 55.1449 25.3358C54.6999 25.4548 54.2357 25.4838 53.7793 25.4211C53.323 25.3584 52.8837 25.2053 52.4873 24.9707C52.0909 24.7361 51.7454 24.4247 51.4708 24.0548C51.1963 23.685 50.9983 23.264 50.8886 22.8167C50.0289 19.5201 48.3058 16.5124 45.8968 14.1034C43.4878 11.6944 40.4801 9.9713 37.1835 9.11162C36.2969 8.87428 35.5408 8.29455 35.0816 7.49991C34.6223 6.70526 34.4974 5.76075 34.7344 4.87405ZM59.958 44.8786C59.4079 49.066 57.3523 52.9101 54.1752 55.6928C50.9981 58.4755 46.9167 60.0065 42.6932 60C19.1514 60 2.08968e-05 40.8487 2.08968e-05 17.307C-0.00652399 13.0835 1.52453 9.00211 4.30724 5.825C7.08994 2.64788 10.934 0.592327 15.1215 0.0422404C16.3553 -0.107686 17.6046 0.143832 18.6843 0.759529C19.764 1.37523 20.6166 2.32235 21.1158 3.46057L27.2054 17.056C27.2119 17.0738 27.2196 17.0912 27.2285 17.1079C27.6027 17.9826 27.7548 18.9363 27.6713 19.884C27.5877 20.8317 27.2711 21.744 26.7496 22.5397C26.6754 22.6557 26.5935 22.7665 26.5044 22.8715L21.0062 29.4225C23.0428 33.1264 26.9198 36.9688 30.667 39.0025L37.1027 33.5217C37.206 33.4352 37.3139 33.3543 37.4258 33.2793C38.2243 32.7435 39.1446 32.4168 40.1022 32.3291C41.0598 32.2414 42.0241 32.3955 42.9067 32.7774L42.9586 32.8005L56.5397 38.8842C57.6776 39.3839 58.6244 40.2365 59.2401 41.3161C59.8557 42.3957 60.1075 43.6448 59.958 44.8786ZM52.9454 44.8613L40.8297 39.4352L34.3594 44.9363C34.2577 45.0243 34.1507 45.1062 34.0392 45.1815C33.2075 45.7329 32.2469 46.0593 31.2514 46.1285C30.2558 46.1978 29.2593 46.0077 28.3593 45.5767C22.7399 42.8651 17.1408 37.3034 14.4234 31.7303C13.9913 30.8342 13.7982 29.8417 13.8629 28.849C13.9276 27.8563 14.2479 26.8972 14.7926 26.0648C14.8678 25.9488 14.9507 25.838 15.0407 25.7331L20.5678 19.1791L15.1388 7.06351C12.8063 7.57754 10.7197 8.87374 9.22528 10.737C7.7309 12.6002 6.91861 14.9185 6.92324 17.307C6.93469 26.7902 10.707 35.8817 17.4127 42.5874C24.1184 49.2931 33.2099 53.0653 42.6932 53.0768C45.0832 53.0834 47.4035 52.272 49.2685 50.7775C51.1335 49.2829 52.431 47.1952 52.9454 44.8613ZM33.9325 20.0387C35.3481 20.4849 36.6352 21.2659 37.6847 22.3154C38.7343 23.3649 39.5152 24.6521 39.9614 26.0677C40.1823 26.77 40.6214 27.3836 41.2148 27.8194C41.8083 28.2552 42.5252 28.4903 43.2615 28.4908C43.6146 28.4904 43.9656 28.4369 44.3029 28.3321C45.1751 28.0561 45.9027 27.4461 46.3264 26.6353C46.7502 25.8245 46.8358 24.8789 46.5644 24.0051C45.7838 21.5266 44.4167 19.2729 42.5792 17.4354C40.7417 15.5979 38.488 14.2308 36.0094 13.4502C35.5732 13.3038 35.1122 13.2458 34.6533 13.2797C34.1944 13.3136 33.7469 13.4386 33.3369 13.6475C32.927 13.8563 32.5627 14.1448 32.2655 14.4961C31.9683 14.8474 31.7442 15.2543 31.6061 15.6933C31.468 16.1322 31.4189 16.5942 31.4615 17.0524C31.504 17.5105 31.6375 17.9555 31.8542 18.3615C32.0708 18.7674 32.3661 19.1261 32.723 19.4166C33.0798 19.7071 33.491 19.9235 33.9325 20.0532V20.0387Z" fill="#1D1D1B"/>
</svg>
