<svg width="30" height="30" viewBox="0 0 30 30" fill="none" xmlns="http://www.w3.org/2000/svg">
<path d="M30 2.36825V22.8931C30 23.5212 29.7505 24.1236 29.3064 24.5677C28.8624 25.0118 28.2601 25.2614 27.6321 25.2614C27.004 25.2614 26.4017 25.0118 25.9577 24.5677C25.5136 24.1236 25.2641 23.5212 25.2641 22.8931V8.09153L4.04934 29.3052C3.60449 29.7501 3.00115 30 2.37205 30C1.74294 30 1.1396 29.7501 0.694757 29.3052C0.249912 28.8602 0 28.2568 0 27.6276C0 26.9985 0.249912 26.395 0.694757 25.9501L21.9095 4.73651H7.1099C6.48189 4.73651 5.87959 4.48699 5.43552 4.04286C4.99144 3.59873 4.74196 2.99635 4.74196 2.36825C4.74196 1.74015 4.99144 1.13778 5.43552 0.693645C5.87959 0.249511 6.48189 0 7.1099 0H27.6321C28.2601 0 28.8624 0.249511 29.3064 0.693645C29.7505 1.13778 30 1.74015 30 2.36825Z" fill="white"/>
</svg>
