<svg width="76" height="70" viewBox="0 0 76 70" fill="none" xmlns="http://www.w3.org/2000/svg">
<path d="M75.6922 20.8628C75.542 19.6388 74.4241 18.7694 73.1992 18.9262C70.3402 19.2938 68.1235 20.7107 66.7051 21.9158C66.6143 21.1868 66.496 20.4612 66.351 19.741C68.4847 18.6805 70.1279 16.9641 70.9928 14.828C72.2284 11.8509 71.8358 8.17819 69.9675 5.24045C68.9271 3.60226 67.8067 2.09466 66.6374 0.759481C65.8278 -0.164816 64.4227 -0.25815 63.498 0.550257C61.4854 2.30982 60.1305 4.86073 59.5797 7.92683C59.5782 7.93484 59.5767 7.943 59.5756 7.95116C59.1449 10.5104 59.3172 13.2071 60.3908 15.5815C65.2337 26.2697 61.574 39.5286 51.1345 46.1336C50.49 46.5412 49.9781 47.097 49.631 47.7421H40.2126V38.6487L48.0467 42.7162C49.672 43.5601 51.5682 42.1824 51.268 40.3759L49.4099 29.1956L57.4835 21.2424C58.787 19.9584 58.065 17.7288 56.253 17.4557L45.0999 15.7756L40.0148 4.53472C39.2278 2.79475 36.7472 2.79237 35.959 4.53472L30.874 15.7756L19.7208 17.4557C17.9116 17.7283 17.1851 19.9565 18.4904 21.2424L26.5639 29.1956L24.7059 40.3759C24.4058 42.1813 26.3009 43.5603 27.9272 42.7162L35.7611 38.6485V47.7419H26.2961C25.7343 46.7716 24.8455 46.1584 24.074 45.6259C14.9683 39.3454 10.6834 26.844 15.6341 15.5564C16.6847 13.1588 16.8777 10.5623 16.4382 7.95101C16.4369 7.943 16.4354 7.93499 16.4341 7.92683C15.8834 4.86058 14.5285 2.30982 12.5159 0.550109C11.5912 -0.258447 10.1861 -0.164816 9.37653 0.759333C8.2068 2.09481 7.08634 3.60241 6.04704 5.23911C4.17797 8.17805 3.78519 11.8507 5.02095 14.8278C5.88589 16.964 7.52912 18.6804 9.66277 19.7409C9.51735 20.4628 9.39879 21.1902 9.30798 21.921C7.38281 20.2944 5.06413 19.2205 2.77468 18.9262C1.55154 18.7688 0.431814 19.6379 0.281648 20.8631C0.0329526 22.8928 -0.0498469 24.7169 0.028501 26.4389C0.125842 29.863 1.913 33.118 4.69895 34.946C6.23787 36.0015 8.05693 36.541 9.95746 36.541C10.3916 36.541 10.83 36.5124 11.2702 36.4558C11.547 37.1289 11.8488 37.7915 12.1745 38.4424C10.1843 38.194 7.67647 38.2844 5.24546 39.4871C4.70801 39.753 4.30069 40.2244 4.1155 40.7948C3.93031 41.365 3.98314 41.986 4.26196 42.5168C5.03356 43.9861 5.95252 45.6834 7.10355 47.2491C8.98375 49.9702 12.0921 51.8607 15.7312 51.8607C17.9451 51.8607 20.0814 51.0198 21.8407 49.4948C22.0766 49.6604 22.3017 49.825 22.4057 49.9287C22.4062 49.9398 22.4065 49.9529 22.4065 49.9679V65.5484H20.1807C18.9514 65.5484 17.9549 66.545 17.9549 67.7742C17.9549 69.0034 18.9514 70 20.1807 70H55.7933C57.0226 70 58.0191 69.0034 58.0191 67.7742C58.0191 66.545 57.0226 65.5484 55.7933 65.5484H53.5675V49.8618C53.7685 49.734 53.9655 49.6023 54.1626 49.4702C55.9398 51.0282 58.1098 51.8712 60.4383 51.8745C60.4622 51.8746 60.486 51.8748 60.5101 51.8748C63.717 51.8748 67.0403 50.1934 69.3183 46.7237C70.2019 45.3777 71.1157 43.986 71.8368 42.4198C72.3403 41.326 71.8827 40.03 70.8039 39.4951C68.7734 38.4881 66.4961 38.1507 63.878 38.4688C64.207 37.8119 64.5098 37.1418 64.7879 36.4601C65.2074 36.5125 65.625 36.5388 66.039 36.5388C67.9344 36.5388 69.7565 35.9908 71.3622 34.9117C74.1077 33.0562 75.8617 29.8064 75.9449 26.4252C76.0245 24.7173 75.9418 22.8975 75.6922 20.8628ZM30.511 26.8351L24.7851 21.1946L32.7344 19.997C33.481 19.8845 34.1196 19.4014 34.4308 18.7135L37.9869 10.8523L41.5429 18.7133C41.8542 19.4012 42.4928 19.8844 43.2394 19.9969L51.1886 21.1945L45.4628 26.8349C44.9468 27.3433 44.7104 28.071 44.8291 28.7855L46.1468 36.7137C46.1468 36.7137 39.0457 33.0268 39.0438 33.0257C38.3618 32.6948 37.6558 32.6487 36.9612 33.0094C33.88 34.6093 35.0588 33.9972 29.827 36.7136L31.1446 28.7853C31.2633 28.071 31.027 27.3433 30.511 26.8351ZM63.9632 8.7017C64.1184 7.84269 64.4091 6.7844 64.9529 5.77924C65.3829 6.36907 65.803 6.98636 66.2105 7.62798C67.3137 9.36261 67.5697 11.4698 66.8788 13.1273C66.8757 13.1352 66.8723 13.1432 66.8692 13.1512C66.5126 14.0353 65.9059 14.7771 65.0989 15.3347C64.453 13.595 63.3941 12.1054 63.9632 8.7017ZM10.915 15.3347C10.1082 14.7769 9.50147 14.0353 9.14475 13.1512C9.14163 13.1432 9.13837 13.1353 9.13496 13.1273C8.44407 11.4698 8.70019 9.36261 9.80418 7.62679C10.2112 6.98576 10.6308 6.36892 11.0609 5.77924C11.6045 6.7844 11.8952 7.84269 12.0503 8.70155C12.5964 11.9653 11.6685 13.3046 10.915 15.3347ZM7.20445 31.2666C7.18798 31.2552 7.17136 31.2441 7.1546 31.2331C5.58022 30.207 4.5295 28.2704 4.47786 26.2991C4.47756 26.2841 4.47697 26.2693 4.47623 26.2543C4.44343 25.5457 4.44328 24.8118 4.47623 24.0424C5.43376 24.5054 6.35183 25.1637 7.12314 25.9596C8.33352 27.217 9.11552 28.5868 9.45384 30.0344C9.56587 30.7261 9.70135 31.4132 9.86294 32.0934C8.88582 32.0784 7.97799 31.801 7.20445 31.2666ZM10.7077 44.6362C10.2854 44.064 9.89084 43.4522 9.5221 42.8342C10.4857 42.7315 11.5296 42.7941 12.5998 43.0264C14.3749 43.4438 15.7907 44.1666 16.8147 45.176C17.2763 45.6779 17.7549 46.165 18.2525 46.6344C16.2109 47.9383 13.0322 47.7924 10.7077 44.6362ZM26.8579 65.5484V52.1937H49.1158V65.5484H26.8579ZM66.5252 42.8453C66.1289 43.4778 65.7006 44.1201 65.2933 44.7436C63.4754 47.2112 60.3341 48.285 57.7589 46.6253C58.2784 46.1429 58.7789 45.6436 59.2584 45.1275C61.2226 43.3637 64.0417 42.6033 66.5252 42.8453ZM71.4969 26.2406C71.4958 26.2601 71.4951 26.2794 71.4948 26.2988C71.4528 28.2409 70.4221 30.1739 68.8742 31.2202C68.0431 31.7786 67.1406 32.0695 66.1752 32.0922C66.6269 30.1436 66.561 28.3422 68.885 25.9651C69.6664 25.1591 70.5637 24.5054 71.4982 24.0466C71.531 24.8123 71.5303 25.5403 71.4969 26.2406Z" fill="#9DF856"/>
<path d="M42.4386 56.646H33.5354C32.3061 56.646 31.3096 57.6426 31.3096 58.8718C31.3096 60.101 32.3061 61.0976 33.5354 61.0976H42.4386C43.6678 61.0976 44.6644 60.101 44.6644 58.8718C44.6644 57.6426 43.6678 56.646 42.4386 56.646Z" fill="#9DF856"/>
</svg>
