<svg width="89" height="70" viewBox="0 0 89 70" fill="none" xmlns="http://www.w3.org/2000/svg">
<path d="M84.9002 40.0605C83.6133 39.0751 82.1148 38.4024 80.5231 38.0954C86.1513 31.697 89 25.2913 89 18.9585C89 8.50592 80.5778 0.000217318 70.2298 0.000217318C65.2464 -0.0236692 60.4556 1.92241 56.9016 5.41426C53.3477 1.92241 48.5569 -0.0236692 43.5735 0.000217318C33.2255 0.000217318 24.8033 8.50592 24.8033 18.9585C24.8033 22.659 25.7954 26.3595 27.8016 30.1512C26.2003 30.8117 24.746 31.7832 23.523 33.0095L15.6844 40.8334H7.29508C5.36031 40.8334 3.50477 41.6016 2.13668 42.9691C0.768587 44.3365 0 46.1912 0 48.1251L0 62.7084C0 64.6422 0.768587 66.4969 2.13668 67.8643C3.50477 69.2318 5.36031 70 7.29508 70H43.7705C44.1284 70.0002 44.4849 69.9561 44.8319 69.8688L68.1762 64.0354C68.3995 63.9807 68.6179 63.9075 68.8291 63.8167L82.9889 57.7865C83.0728 57.7537 83.153 57.7172 83.2332 57.6771C84.8168 56.8853 86.1728 55.7037 87.1735 54.2435C88.1742 52.7834 88.7868 51.0928 88.9535 49.3308C89.1202 47.5688 88.8356 45.7933 88.1265 44.1716C87.4174 42.5498 86.3072 41.1351 84.9002 40.0605ZM43.5735 8.75019C45.5456 8.71978 47.482 9.27802 49.135 10.3535C50.788 11.429 52.0825 12.9729 52.8529 14.7877C53.1826 15.5901 53.7436 16.2764 54.4645 16.7594C55.1855 17.2424 56.0338 17.5003 56.9016 17.5003C57.7695 17.5003 58.6178 17.2424 59.3387 16.7594C60.0597 16.2764 60.6206 15.5901 60.9504 14.7877C61.7208 12.9729 63.0153 11.429 64.6683 10.3535C66.3213 9.27802 68.2576 8.71978 70.2298 8.75019C75.6573 8.75019 80.2459 13.4241 80.2459 18.9585C80.2459 25.5428 74.7746 33.1189 64.4229 40.9027L62.7377 41.2928C62.7377 41.1397 62.7377 40.9865 62.7377 40.8334C62.7377 37.7392 61.508 34.7718 59.319 32.5839C57.1301 30.396 54.1612 29.1668 51.0656 29.1668H37.4639C34.8048 25.4335 33.5574 22.1559 33.5574 18.9585C33.5574 13.4241 38.146 8.75019 43.5735 8.75019ZM8.7541 49.5834H13.1311V61.25H8.7541V49.5834ZM79.3997 49.8058L65.7177 55.6391L43.2307 61.25H21.8852V47.0313L29.7129 39.2074C30.1175 38.7986 30.5992 38.474 31.1301 38.2525C31.661 38.0309 32.2307 37.9168 32.806 37.9168H51.0656C51.8395 37.9168 52.5817 38.2241 53.1289 38.771C53.6762 39.318 53.9836 40.0599 53.9836 40.8334C53.9836 41.607 53.6762 42.3488 53.1289 42.8958C52.5817 43.4428 51.8395 43.7501 51.0656 43.7501H40.8525C39.6916 43.7501 38.5783 44.211 37.7574 45.0315C36.9366 45.852 36.4754 46.9648 36.4754 48.1251C36.4754 49.2854 36.9366 50.3982 37.7574 51.2186C38.5783 52.0391 39.6916 52.5001 40.8525 52.5001H52.5246C52.8547 52.5001 53.1838 52.4634 53.5058 52.3907L77.9443 46.7725L78.1157 46.7287C78.3649 46.661 78.6263 46.6515 78.8797 46.701C79.1331 46.7505 79.3717 46.8577 79.577 47.0142C79.7823 47.1708 79.9487 47.3725 80.0635 47.6037C80.1782 47.8349 80.2381 48.0894 80.2386 48.3475C80.2404 48.643 80.1637 48.9337 80.0163 49.1899C79.8689 49.4461 79.6561 49.6587 79.3997 49.8058Z" fill="#9DF856"/>
</svg>
