<svg width="51" height="69" viewBox="0 0 51 69" fill="none" xmlns="http://www.w3.org/2000/svg">
<path d="M50.9183 31.4359C50.8003 30.9087 50.5557 30.4182 50.2055 30.0067C49.8554 29.5953 49.4103 29.2753 48.9088 29.0745L34.7234 23.4009L37.6586 3.83006C37.7663 3.12729 37.646 2.40848 37.3153 1.77908C36.9847 1.14968 36.461 0.642808 35.8212 0.332809C35.1813 0.0228093 34.459 -0.0739998 33.7601 0.0565815C33.0612 0.187163 32.4226 0.538262 31.9378 1.05838L0.89505 34.3185C0.526052 34.7137 0.258952 35.1928 0.116881 35.7145C-0.025189 36.2362 -0.0379453 36.7846 0.0797168 37.3123C0.197379 37.84 0.441912 38.3311 0.792138 38.743C1.14236 39.1549 1.58772 39.4752 2.08964 39.6761L16.2751 45.3498L13.3399 64.9289C13.2321 65.6317 13.3524 66.3505 13.6831 66.9799C14.0138 67.6093 14.5374 68.1161 15.1773 68.4261C15.8171 68.7361 16.5395 68.8329 17.2383 68.7024C17.9372 68.5718 18.5759 68.2207 19.0606 67.7006L50.1034 34.4404C50.474 34.0441 50.742 33.5631 50.884 33.0394C51.0261 32.5157 51.0378 31.9652 50.9183 31.4359ZM21.508 55.3195L23.2458 43.7422C23.3569 43.0012 23.2145 42.2444 22.8417 41.5945C22.469 40.9445 21.8877 40.4395 21.192 40.1612L9.07427 35.3135L29.4904 13.4395L27.7526 25.0167C27.6415 25.7577 27.7839 26.5145 28.1567 27.1644C28.5295 27.8144 29.1108 28.3194 29.8064 28.5978L41.9242 33.4454L21.508 55.3195Z" fill="#1D1D1B"/>
</svg>
