<svg width="70" height="70" viewBox="0 0 70 70" fill="none" xmlns="http://www.w3.org/2000/svg">
<path d="M68.775 23.6355L46.375 1.2355C45.9848 0.843914 45.5212 0.533205 45.0107 0.32119C44.5001 0.109174 43.9528 2.46586e-05 43.4 0H4.2C3.08609 0 2.01781 0.442499 1.23015 1.23015C0.442502 2.0178 3.50005e-06 3.08609 3.50005e-06 4.2V43.4C-0.00131912 44.4225 0.372252 45.4099 1.05 46.1755C1.1025 46.2385 1.1585 46.3015 1.225 46.3715L23.625 68.7715C24.0158 69.1618 24.4797 69.4712 24.9901 69.682C25.5006 69.8928 26.0477 70.0009 26.6 70H65.8C66.9139 70 67.9822 69.5575 68.7698 68.7698C69.5575 67.9822 70 66.9139 70 65.8V26.6C69.9999 25.4887 69.5595 24.4227 68.775 23.6355ZM47.6 14.35L55.65 22.4H47.6V14.35ZM22.4 55.65L14.35 47.6H22.4V55.65ZM22.4 39.2H8.4V14.35L22.4 28.35V39.2ZM14.35 8.4H39.2V22.4H28.35L14.35 8.4ZM39.2 30.8V39.2H30.8V30.8H39.2ZM30.8 61.6V47.6H41.65L55.65 61.6H30.8ZM61.6 55.65L47.6 41.65V30.8H61.6V55.65Z" fill="#1D1D1B"/>
</svg>
