<svg width="67" height="70" viewBox="0 0 67 70" fill="none" xmlns="http://www.w3.org/2000/svg">
<path d="M60.3 2.69861H44.22C42.4431 2.69861 40.7389 3.40767 39.4824 4.66982C38.2259 5.93196 37.52 7.6438 37.52 9.42874V63.2699C37.52 65.0548 38.2259 66.7666 39.4824 68.0288C40.7389 69.2909 42.4431 70 44.22 70H60.3C62.077 70 63.7811 69.2909 65.0376 68.0288C66.2941 66.7666 67 65.0548 67 63.2699V9.42874C67 7.6438 66.2941 5.93196 65.0376 4.66982C63.7811 3.40767 62.077 2.69861 60.3 2.69861ZM58.96 61.9238H45.56V53.8477H50.92C51.9862 53.8477 53.0087 53.4222 53.7626 52.6649C54.5165 51.9076 54.94 50.8806 54.94 49.8096C54.94 48.7386 54.5165 47.7115 53.7626 46.9542C53.0087 46.1969 51.9862 45.7715 50.92 45.7715H45.56V40.3874H50.92C51.9862 40.3874 53.0087 39.9619 53.7626 39.2047C54.5165 38.4474 54.94 37.4203 54.94 36.3493C54.94 35.2783 54.5165 34.2512 53.7626 33.4939C53.0087 32.7367 51.9862 32.3112 50.92 32.3112H45.56V26.9271H50.92C51.9862 26.9271 53.0087 26.5017 53.7626 25.7444C54.5165 24.9871 54.94 23.96 54.94 22.889C54.94 21.8181 54.5165 20.791 53.7626 20.0337C53.0087 19.2764 51.9862 18.8509 50.92 18.8509H45.56V10.7748H58.96V61.9238ZM17.5842 1.18769C17.2107 0.811232 16.7669 0.512534 16.2783 0.308724C15.7896 0.104913 15.2657 0 14.7367 0C14.2076 0 13.6837 0.104913 13.195 0.308724C12.7064 0.512534 12.2626 0.811232 11.8892 1.18769L1.16916 11.9559C0.417914 12.7149 -0.0026049 13.7425 1.21423e-05 14.8129V63.2699C1.21423e-05 65.0548 0.705903 66.7666 1.9624 68.0288C3.21889 69.2909 4.92306 70 6.70001 70H22.78C24.557 70 26.2611 69.2909 27.5176 68.0288C28.7741 66.7666 29.48 65.0548 29.48 63.2699V14.8129C29.4804 14.2824 29.3768 13.7571 29.175 13.2669C28.9733 12.7767 28.6774 12.3312 28.3042 11.9559L17.5842 1.18769ZM8.04001 24.2351H21.44V48.4636H8.04001V24.2351ZM14.74 9.76525L21.105 16.1589H8.37501L14.74 9.76525ZM8.04001 61.9238V56.5397H21.44V61.9238H8.04001Z" fill="#1D1D1B"/>
</svg>
