<svg width="73" height="70" viewBox="0 0 73 70" fill="none" xmlns="http://www.w3.org/2000/svg">
<path d="M60.8338 44.4215C58.8981 44.4203 56.9903 44.8819 55.2711 45.7677L48.0423 40.1679C48.4353 39.0055 48.6462 37.7899 48.6675 36.5636L52.1653 35.406C54.1437 37.4064 56.7583 38.6605 59.5623 38.9539C62.3663 39.2473 65.1856 38.5618 67.5383 37.0146C69.891 35.4674 71.631 33.1546 72.461 30.4714C73.2909 27.7882 73.1592 24.9013 72.0884 22.3041C71.0176 19.7069 69.0742 17.5607 66.5903 16.2322C64.1064 14.9038 61.2363 14.4757 58.4706 15.021C55.7048 15.5664 53.2151 17.0513 51.4271 19.2221C49.639 21.3928 48.6636 24.1146 48.6675 26.9222C48.6675 27.2957 48.6878 27.6659 48.7216 28.0327L46.0923 28.9043C44.9559 27.4502 43.5013 26.2733 41.8393 25.4633C40.1773 24.6533 38.3517 24.2315 36.5013 24.2299C36.1633 24.2299 35.8659 24.2299 35.5516 24.2703L34.0478 20.905C36.1004 18.9664 37.4104 16.3761 37.7524 13.5796C38.0944 10.7832 37.4471 7.95549 35.9217 5.58293C34.3964 3.21038 32.0885 1.44131 29.3949 0.58006C26.7013 -0.281193 23.7905 -0.180791 21.1633 0.863997C18.536 1.90878 16.3565 3.83264 14.9997 6.30461C13.6429 8.77658 13.1936 11.6421 13.7291 14.4083C14.2646 17.1745 15.7515 19.6683 17.9339 21.4609C20.1163 23.2534 22.8578 24.2326 25.6868 24.2299C26.0248 24.2299 26.3222 24.2299 26.6365 24.1896L28.1404 27.5548C26.3587 29.2296 25.1278 31.4022 24.6096 33.7869C24.0915 36.1715 24.3103 38.6565 25.2374 40.9149L18.0458 47.2787C15.5331 45.8975 12.6109 45.4454 9.79581 46.0022C6.98071 46.5591 4.45394 48.089 2.66214 50.3217C0.870344 52.5543 -0.0711103 55.3458 0.00419114 58.2029C0.0794926 61.0599 1.1667 63.7984 3.07364 65.9344C4.98058 68.0703 7.58446 69.4662 10.425 69.8753C13.2656 70.2843 16.1599 69.6802 18.5964 68.1696C21.0329 66.6591 22.8546 64.3395 23.7396 61.6207C24.6247 58.902 24.5159 55.9592 23.4327 53.3126L30.6243 46.9489C32.5412 48.0051 34.7094 48.525 36.899 48.4533C39.0886 48.3816 41.2179 47.721 43.0609 46.5417L49.6814 51.6771C48.6304 54.0671 48.3824 56.7312 48.9742 59.2729C49.566 61.8146 50.966 64.0981 52.9659 65.7838C54.9659 67.4694 57.4589 68.4671 60.0741 68.6283C62.6892 68.7896 65.2868 68.1058 67.4803 66.6788C69.6738 65.2517 71.3461 63.1576 72.2483 60.708C73.1505 58.2584 73.2344 55.5843 72.4876 53.0834C71.7407 50.5825 70.2031 48.3885 68.1033 46.8278C66.0036 45.2672 63.4539 44.4232 60.8338 44.4215ZM60.8338 22.8838C61.6359 22.8838 62.4199 23.1207 63.0868 23.5644C63.7537 24.0081 64.2735 24.6388 64.5805 25.3768C64.8874 26.1147 64.9677 26.9266 64.8113 27.71C64.6548 28.4933 64.2685 29.2129 63.7014 29.7777C63.1342 30.3424 62.4116 30.7271 61.6249 30.8829C60.8383 31.0387 60.0229 30.9587 59.2818 30.6531C58.5408 30.3474 57.9074 29.8298 57.4618 29.1657C57.0162 28.5016 56.7784 27.7209 56.7784 26.9222C56.7784 25.8511 57.2056 24.824 57.9662 24.0666C58.7267 23.3093 59.7582 22.8838 60.8338 22.8838ZM21.6314 12.115C21.6314 11.3163 21.8693 10.5355 22.3149 9.87139C22.7605 9.20729 23.3939 8.68969 24.1349 8.38404C24.8759 8.07839 25.6913 7.99842 26.478 8.15424C27.2647 8.31006 27.9873 8.69467 28.5545 9.25944C29.1216 9.82421 29.5079 10.5438 29.6643 11.3271C29.8208 12.1105 29.7405 12.9225 29.4336 13.6604C29.1266 14.3983 28.6068 15.029 27.9399 15.4727C27.273 15.9164 26.4889 16.1533 25.6868 16.1533C24.6113 16.1533 23.5798 15.7278 22.8192 14.9705C22.0587 14.2132 21.6314 13.186 21.6314 12.115ZM12.1688 61.921C11.3667 61.921 10.5826 61.6841 9.91573 61.2404C9.24882 60.7966 8.72902 60.1659 8.42208 59.428C8.11513 58.6901 8.03482 57.8781 8.1913 57.0948C8.34778 56.3114 8.73402 55.5919 9.30118 55.0271C9.86834 54.4623 10.5909 54.0777 11.3776 53.9219C12.1643 53.7661 12.9797 53.8461 13.7207 54.1517C14.4618 54.4574 15.0951 54.975 15.5407 55.6391C15.9864 56.3032 16.2242 57.0839 16.2242 57.8826C16.2242 58.9537 15.7969 59.9808 15.0364 60.7382C14.2759 61.4955 13.2444 61.921 12.1688 61.921ZM32.4459 36.3449C32.4459 35.5462 32.6837 34.7654 33.1293 34.1013C33.5749 33.4372 34.2083 32.9196 34.9493 32.614C35.6904 32.3083 36.5058 32.2284 37.2925 32.3842C38.0791 32.54 38.8017 32.9246 39.3689 33.4894C39.936 34.0541 40.3223 34.7737 40.4788 35.5571C40.6353 36.3404 40.5549 37.1524 40.248 37.8903C39.941 38.6282 39.4213 39.2589 38.7543 39.7026C38.0874 40.1464 37.3034 40.3832 36.5013 40.3832C35.4257 40.3832 34.3942 39.9578 33.6337 39.2004C32.8731 38.4431 32.4459 37.4159 32.4459 36.3449ZM60.8338 60.5748C60.0317 60.5748 59.2476 60.338 58.5807 59.8943C57.9138 59.4505 57.394 58.8198 57.0871 58.0819C56.7801 57.344 56.6998 56.532 56.8563 55.7487C57.0128 54.9653 57.399 54.2458 57.9662 53.681C58.5333 53.1162 59.2559 52.7316 60.0426 52.5758C60.8293 52.42 61.6447 52.4999 62.3857 52.8056C63.1267 53.1112 63.7601 53.6288 64.2057 54.2929C64.6513 54.957 64.8892 55.7378 64.8892 56.5365C64.8892 57.6075 64.4619 58.6347 63.7014 59.392C62.9408 60.1494 61.9093 60.5748 60.8338 60.5748Z" fill="#9DF856"/>
</svg>
