<svg width="48" height="70" viewBox="0 0 48 70" fill="none" xmlns="http://www.w3.org/2000/svg">
<path d="M28.3008 57.0117H19.5508C18.4182 57.0117 17.5 57.9299 17.5 59.0625C17.5 60.1951 18.4182 61.1133 19.5508 61.1133H28.3008C29.4333 61.1133 30.3516 60.1951 30.3516 59.0625C30.3516 57.9299 29.4333 57.0117 28.3008 57.0117Z" fill="#9DF856"/>
<path d="M47.8515 19.4801V10.9376C47.8515 9.80498 46.9333 8.88678 45.8007 8.88678C38.551 8.88678 31.5947 6.21133 26.2132 1.35304L25.2998 0.528486C24.5193 -0.176162 23.332 -0.176162 22.5515 0.528486L21.6379 1.35304C16.2568 6.21133 9.30056 8.88678 2.05078 8.88678C0.918202 8.88678 0 9.80498 0 10.9376V19.4801C0 31.1901 5.90283 41.9112 15.3072 48.2617H7.51952C6.38695 48.2617 5.46874 49.1799 5.46874 50.3125C5.46874 51.4004 6.31654 52.288 7.38704 52.3566L5.70746 65.8984H3.14453C2.01195 65.8984 1.09375 66.8166 1.09375 67.9492C1.09375 69.0818 2.01195 70 3.14453 70H44.707C45.8396 70 46.7578 69.0818 46.7578 67.9492C46.7578 66.8166 45.8396 65.8984 44.707 65.8984H42.1441L40.4645 52.3566C41.535 52.288 42.3828 51.4004 42.3828 50.3125C42.3828 49.1799 41.4646 48.2617 40.332 48.2617H32.5444C41.9487 41.9113 47.8515 31.1901 47.8515 19.4801ZM9.84032 65.8984L11.5191 52.3633H36.3323L38.0111 65.8984H9.84032ZM23.9258 48.1308C12.0386 43.6539 4.10156 32.2312 4.10156 19.4801V12.9256C11.4186 12.4771 18.3724 9.63777 23.9258 4.806C29.4791 9.63777 36.4329 12.4771 43.75 12.9256V19.4801C43.75 32.2312 35.8129 43.6539 23.9258 48.1308Z" fill="#9DF856"/>
<path d="M34.8633 19.8242H28.0604L25.8614 13.5413C25.5735 12.7187 24.7972 12.168 23.9258 12.168C23.0543 12.168 22.278 12.7187 21.9901 13.5413L19.7911 19.8242H12.9883C12.1174 19.8242 11.3414 20.3742 11.0532 21.1962C10.765 22.0181 11.0272 22.9324 11.7072 23.4764L17.0242 27.73L14.3339 35.4163C14.0387 36.26 14.3239 37.1979 15.0389 37.7342C15.7538 38.2707 16.734 38.2819 17.4616 37.7625L23.9258 33.1453L30.39 37.7625C31.1109 38.2774 32.091 38.2755 32.8126 37.7342C33.5277 37.1979 33.8129 36.26 33.5177 35.4163L30.8273 27.73L36.1443 23.4764C36.8245 22.9324 37.0867 22.018 36.7984 21.1962C36.51 20.3744 35.7342 19.8242 34.8633 19.8242ZM26.4761 27.7136L27.5089 30.6642L25.1178 28.9562C24.4047 28.4469 23.447 28.4468 22.7337 28.9562L20.3427 30.6642L21.3754 27.7136C21.663 26.892 21.4006 25.9785 20.7208 25.4347L18.8347 23.9258H21.2461C22.1175 23.9258 22.8938 23.3751 23.1818 22.5524L23.9258 20.4267L24.6697 22.5524C24.9577 23.3751 25.734 23.9258 26.6055 23.9258H29.017L27.1309 25.4347C26.4511 25.9785 26.1887 26.892 26.4761 27.7136Z" fill="#9DF856"/>
</svg>
