<svg width="97" height="70" viewBox="0 0 97 70" fill="none" xmlns="http://www.w3.org/2000/svg">
<path d="M96.2007 24.3889L86.526 4.98661C86.0828 4.09121 85.4681 3.2923 84.7171 2.63555C83.9661 1.97879 83.0935 1.47708 82.1493 1.15909C81.205 0.841101 80.2076 0.713072 79.214 0.782322C78.2204 0.851572 77.2502 1.11674 76.3587 1.56268L67.5746 5.97194L49.9002 0.219732C48.9883 -0.0732441 48.008 -0.0732441 47.096 0.219732L29.4216 5.97194L20.6375 1.56268C19.7461 1.11674 18.7758 0.851572 17.7822 0.782322C16.7886 0.713072 15.7912 0.841101 14.8469 1.15909C13.9027 1.47708 13.0301 1.97879 12.2791 2.63555C11.5281 3.2923 10.9134 4.09121 10.4702 4.98661L0.795509 24.3889C0.351316 25.2838 0.0871796 26.2579 0.0181998 27.2554C-0.05078 28.2528 0.07675 29.2542 0.393499 30.2021C0.710247 31.1501 1.21 32.0261 1.86419 32.78C2.51838 33.534 3.31418 34.1511 4.20609 34.596L14.3128 39.6711L33.7076 53.9032C34.167 54.2407 34.6849 54.4896 35.2348 54.6375L58.7298 60.7245C59.1014 60.8195 59.4833 60.8681 59.8667 60.869C61.0723 60.868 62.2282 60.3863 63.0802 59.5299L83.0207 39.5113L92.8091 34.596C94.6071 33.694 95.9745 32.1118 96.6105 30.1976C97.2466 28.2834 97.0992 26.194 96.2007 24.3889ZM74.176 35.4787L63.7472 25.5873C62.885 24.7685 61.7382 24.3205 60.5515 24.339C59.3648 24.3574 58.2324 24.8409 57.3959 25.6862C53.7352 29.3917 47.8994 32.0814 41.9309 29.3194L56.4031 15.2432H65.0129L74.7937 34.8852L74.176 35.4787ZM17.9242 10.4116L22.9529 12.9339L14.6159 29.6351L9.58722 27.1128L17.9242 10.4116ZM58.4722 51.2326L38.3535 46.032L22.4375 34.3678L32.2676 14.6459L48.4981 9.36164L49.1385 9.57088L34.0979 24.2253L34.0486 24.271C33.2471 25.0765 32.6359 26.0523 32.26 27.1266C31.8841 28.2008 31.7532 29.346 31.8768 30.4778C32.0005 31.6096 32.3756 32.6991 32.9744 33.666C33.5733 34.6329 34.3807 35.4526 35.3371 36.0645C43.2761 41.1586 52.7689 40.6564 60.473 35.0259L67.7489 41.9309L58.4722 51.2326ZM82.3462 29.6351L74.0092 12.9339L79.0379 10.4116L87.3559 27.1128L82.3462 29.6351ZM44.917 66.5756C44.7678 67.1562 44.5061 67.7015 44.1468 68.1805C43.7876 68.6595 43.3379 69.0628 42.8235 69.3673C42.309 69.6719 41.7398 69.8717 41.1484 69.9553C40.557 70.039 39.955 70.0049 39.3767 69.855L29.2966 67.2414C28.7396 67.097 28.2149 66.8478 27.7504 66.5071L18.5305 59.7277C17.5875 59.0021 16.9648 57.9347 16.7958 56.7541C16.6267 55.5734 16.9246 54.3732 17.6258 53.4102C18.327 52.4473 19.3758 51.7981 20.5477 51.6016C21.7196 51.405 22.9216 51.6768 23.8965 52.3587L32.4116 58.6054L41.6504 60.9984C42.2304 61.1481 42.7751 61.4114 43.2534 61.773C43.7318 62.1347 44.1342 62.5876 44.4377 63.1058C44.7412 63.624 44.9398 64.1973 45.0221 64.7927C45.1043 65.3882 45.0686 65.994 44.917 66.5756Z" fill="#1D1D1B"/>
</svg>
