<svg width="115" height="26" viewBox="0 0 115 26" fill="none" xmlns="http://www.w3.org/2000/svg">
<path fill-rule="evenodd" clip-rule="evenodd" d="M10.1028 18.1926C9.24209 18.1926 8.41666 17.8507 7.80807 17.2421C7.19948 16.6335 6.85757 15.8081 6.85757 14.9474V0.0195312H0.367188V14.9474C0.367188 20.324 4.72613 24.683 10.1028 24.683H17.2422V18.1926H10.1028ZM29.5739 6.50992C28.8068 6.50992 28.0472 6.66101 27.3385 6.95456C26.6298 7.24812 25.9859 7.67839 25.4435 8.22081C24.901 8.76323 24.4708 9.40717 24.1772 10.1159C23.8837 10.8246 23.7326 11.5842 23.7326 12.3513C23.7326 13.1184 23.8837 13.8779 24.1772 14.5866C24.4708 15.2954 24.901 15.9393 25.4435 16.4817C25.9859 17.0241 26.6298 17.4544 27.3385 17.748C28.0472 18.0415 28.8068 18.1926 29.5739 18.1926C31.1231 18.1926 32.6089 17.5772 33.7044 16.4817C34.7998 15.3863 35.4153 13.9005 35.4153 12.3513C35.4153 10.802 34.7998 9.31627 33.7044 8.22081C32.6089 7.12534 31.1231 6.50992 29.5739 6.50992ZM17.2422 12.3513C17.2422 5.5409 22.7636 0.0195312 29.5739 0.0195312C36.3843 0.0195312 41.9057 5.5409 41.9057 12.3513C41.9057 19.1616 36.3843 24.683 29.5739 24.683C22.7636 24.683 17.2422 19.1616 17.2422 12.3513ZM99.6701 6.50992C98.1209 6.50992 96.6351 7.12534 95.5396 8.22081C94.4442 9.31627 93.8287 10.802 93.8287 12.3513C93.8287 13.9005 94.4442 15.3863 95.5396 16.4817C96.6351 17.5772 98.1209 18.1926 99.6701 18.1926C101.219 18.1926 102.705 17.5772 103.801 16.4817C104.896 15.3863 105.511 13.9005 105.511 12.3513C105.511 10.802 104.896 9.31627 103.801 8.22081C102.705 7.12534 101.219 6.50992 99.6701 6.50992ZM87.3383 12.3513C87.3383 5.5409 92.8597 0.0195312 99.6701 0.0195312C106.48 0.0195312 112.002 5.5409 112.002 12.3513C112.002 19.1616 106.48 24.683 99.6701 24.683C92.8597 24.683 87.3383 19.1616 87.3383 12.3513ZM55.5355 0.0195312C48.7251 0.0195312 43.2037 5.5409 43.2037 12.3513C43.2037 19.1616 48.7251 24.683 55.5355 24.683H73.7085C74.9865 24.683 76.219 24.4883 77.3782 24.1274L80.848 25.9811L84.5916 18.9689C85.5426 17.1838 86.0401 15.1923 86.0403 13.1697V12.3513C86.0403 5.5409 80.5189 0.0195312 73.7085 0.0195312H55.5355ZM79.5499 12.3513C79.5499 10.802 78.9345 9.31627 77.839 8.22081C76.7435 7.12534 75.2578 6.50992 73.7085 6.50992H55.5355C54.7684 6.50992 54.0088 6.66101 53.3001 6.95456C52.5914 7.24812 51.9474 7.67839 51.405 8.22081C50.8626 8.76323 50.4323 9.40717 50.1388 10.1159C49.8452 10.8246 49.6941 11.5842 49.6941 12.3513C49.6941 13.1184 49.8452 13.8779 50.1388 14.5866C50.4323 15.2954 50.8626 15.9393 51.405 16.4817C51.9474 17.0241 52.5914 17.4544 53.3001 17.748C54.0088 18.0415 54.7684 18.1926 55.5355 18.1926H73.7085C75.2499 18.1927 76.7288 17.5835 77.823 16.4978C78.9172 15.4122 79.5379 13.938 79.5499 12.3967V12.3513Z" fill="#1D1D1B"/>
<path d="M114.598 1.64213C114.598 2.07247 114.427 2.48518 114.122 2.78948C113.818 3.09377 113.405 3.26472 112.975 3.26472C112.545 3.26472 112.132 3.09377 111.828 2.78948C111.523 2.48518 111.353 2.07247 111.353 1.64213C111.353 1.21179 111.523 0.799074 111.828 0.494779C112.132 0.190483 112.545 0.0195313 112.975 0.0195312C113.405 0.0195313 113.818 0.190483 114.122 0.494779C114.427 0.799074 114.598 1.21179 114.598 1.64213Z" fill="#1D1D1B"/>
</svg>
