<svg width="119" height="22" viewBox="0 0 119 22" fill="none" xmlns="http://www.w3.org/2000/svg">
<path d="M2.98358 12.6933L2.95712 9.79651H7.07076C8.12012 9.79651 8.89611 9.60252 9.39874 9.21452C9.90137 8.81771 10.1527 8.24894 10.1527 7.50822C10.1527 6.66168 9.90578 6.05324 9.41197 5.68288C8.91815 5.31252 8.13775 5.12734 7.07076 5.12734H4.42534V21.0264H0.258789V1.76764H7.07076C9.33701 1.76764 11.1094 2.19973 12.3881 3.0639C13.6667 3.92808 14.306 5.25961 14.306 7.0585C14.306 7.84331 14.1252 8.57962 13.7637 9.26743C13.411 9.94642 12.8466 10.4976 12.0706 10.9208C11.2946 11.3441 10.285 11.569 9.04161 11.5954L7.87762 12.6933H2.98358ZM1.84605 21.0264L3.45976 17.6799H7.70567C8.70211 17.6799 9.4296 17.455 9.88814 17.0053C10.3467 16.5468 10.576 15.978 10.576 15.299C10.576 14.7611 10.4834 14.2981 10.2982 13.9102C10.113 13.5222 9.82201 13.2223 9.42519 13.0107C9.0372 12.7991 8.52134 12.6933 7.87762 12.6933H4.0153L4.04175 9.79651H8.81675L9.78233 10.9473C10.9728 10.9208 11.9295 11.1192 12.6526 11.5425C13.3757 11.9569 13.9004 12.5037 14.2266 13.1827C14.5529 13.8617 14.716 14.5803 14.716 15.3387C14.716 17.2169 14.112 18.6367 12.9039 19.5978C11.6959 20.5502 9.9631 21.0264 7.70567 21.0264H1.84605Z" fill="#1D1D1B"/>
<path d="M21.5942 21.0264H17.5863V0.709473H21.5942V21.0264Z" fill="#1D1D1B"/>
<path d="M33.0621 6.71459H37.0567V21.0264H33.3134L33.0621 17.5741V6.71459ZM34.6626 14.5847C34.6626 15.8722 34.4642 17.0229 34.0673 18.037C33.6794 19.0423 33.0885 19.8359 32.2949 20.4179C31.5101 20.9999 30.5181 21.2909 29.3188 21.2909C27.9079 21.2909 26.7616 20.8809 25.8797 20.0608C25.0068 19.2319 24.5703 17.8695 24.5703 15.9736V6.71459H28.5649V16C28.5649 16.485 28.6442 16.8818 28.8029 17.1905C28.9705 17.4903 29.1998 17.7108 29.4908 17.8518C29.7906 17.9841 30.1301 18.0502 30.5092 18.0502C31.2764 18.0502 31.8761 17.9003 32.3081 17.6005C32.749 17.3007 33.0577 16.8907 33.234 16.3704C33.4192 15.8501 33.5118 15.2637 33.5118 14.6112L34.6626 14.5847Z" fill="#1D1D1B"/>
<path d="M46.5538 21.2909C45.0459 21.2909 43.754 20.9779 42.6782 20.3518C41.6112 19.7257 40.7911 18.888 40.218 17.8386C39.6536 16.7893 39.3714 15.6297 39.3714 14.3599V13.844C39.3714 12.4155 39.6404 11.1457 40.1783 10.0346C40.725 8.91471 41.501 8.03731 42.5063 7.4024C43.5115 6.7675 44.7108 6.45005 46.104 6.45005C47.4885 6.45005 48.6525 6.74105 49.596 7.32304C50.5395 7.90503 51.2538 8.72512 51.7388 9.78329C52.2238 10.8326 52.4663 12.0672 52.4663 13.4869V15.18H41.0513V12.4949H48.5378V12.1774C48.5378 11.6836 48.4496 11.2471 48.2733 10.8679C48.0969 10.4887 47.828 10.1933 47.4664 9.98169C47.1137 9.77006 46.6508 9.66424 46.0776 9.66424C45.425 9.66424 44.9004 9.84942 44.5036 10.2198C44.1067 10.5901 43.8157 11.0884 43.6306 11.7144C43.4542 12.3405 43.366 13.0504 43.366 13.844V14.3599C43.366 15.0918 43.5027 15.7355 43.7761 16.291C44.0494 16.8466 44.4418 17.2831 44.9533 17.6005C45.4647 17.9092 46.082 18.0635 46.8051 18.0635C47.4841 18.0635 48.119 17.94 48.7098 17.6931C49.3006 17.4374 49.8032 17.0406 50.2177 16.5027L52.1488 18.7116C51.6991 19.3553 51.0025 19.9461 50.059 20.484C49.1242 21.0219 47.9558 21.2909 46.5538 21.2909Z" fill="#1D1D1B"/>
<path d="M63.22 1.76764H65.4421L66.0373 4.02948L61.9898 21.0264H59.5825L59.4238 18.4735L63.22 1.76764ZM60.8258 18.5132L60.4423 21.0264H57.7836L53.5509 1.76764H57.691L60.8258 18.5132ZM72.2541 1.76764H76.381L72.1615 21.0264H69.4896L69.1589 18.4471L72.2541 1.76764ZM70.561 18.5529L70.3626 21.0264H67.9553L63.8813 4.01626L64.5294 1.76764H66.7251L70.561 18.5529Z" fill="#1D1D1B"/>
<path d="M85.3357 11.4896C85.3357 10.8459 85.177 10.3344 84.8595 9.95524C84.5421 9.57606 84.035 9.38647 83.3384 9.38647C82.9416 9.38647 82.5977 9.45261 82.3067 9.58488C82.0157 9.71715 81.7953 9.90674 81.6453 10.1536C81.4954 10.3917 81.4205 10.6871 81.4205 11.0399H77.4259C77.4259 10.1933 77.6772 9.42615 78.1798 8.73834C78.6825 8.04171 79.3923 7.48617 80.3094 7.07172C81.2265 6.65727 82.3067 6.45005 83.5501 6.45005C84.6611 6.45005 85.6532 6.63964 86.5262 7.01882C87.3992 7.38918 88.087 7.94912 88.5896 8.69866C89.0922 9.4482 89.3435 10.3873 89.3435 11.516V17.4947C89.3435 18.3412 89.392 19.0114 89.489 19.5052C89.5949 19.999 89.7404 20.4311 89.9255 20.8015V21.0264H85.9045C85.7105 20.6207 85.565 20.1137 85.468 19.5052C85.3798 18.8968 85.3357 18.2795 85.3357 17.6534V11.4896ZM85.878 14.5715H83.8411C82.8711 14.5715 82.17 14.7831 81.7379 15.2064C81.3059 15.6209 81.0898 16.1235 81.0898 16.7143C81.0898 17.164 81.2485 17.5344 81.566 17.8254C81.8834 18.1164 82.3111 18.2619 82.849 18.2619C83.4046 18.2619 83.8807 18.1561 84.2775 17.9444C84.6832 17.724 84.9918 17.4638 85.2035 17.164C85.4239 16.8554 85.5297 16.5732 85.5209 16.3175L86.5526 18.037C86.4115 18.3897 86.2219 18.7557 85.9838 19.1349C85.7546 19.514 85.4592 19.8668 85.0976 20.193C84.7361 20.5193 84.2952 20.7839 83.7749 20.9867C83.2635 21.1895 82.6594 21.2909 81.9628 21.2909C81.0634 21.2909 80.2433 21.1101 79.5026 20.7486C78.7618 20.3782 78.1754 19.8712 77.7433 19.2275C77.3113 18.5749 77.0952 17.8298 77.0952 16.9921C77.0952 15.493 77.6508 14.3334 78.7618 13.5133C79.8729 12.6844 81.5263 12.27 83.722 12.27H85.8516L85.878 14.5715Z" fill="#1D1D1B"/>
<path d="M99.9385 6.71459H104.118L99.33 21.0264H96.8036L96.883 18.0767L99.9385 6.71459ZM97.928 18.0899L97.9941 21.0264H95.4677L90.6663 6.71459H94.8725L97.928 18.0899Z" fill="#1D1D1B"/>
<path d="M112.425 21.2909C110.917 21.2909 109.625 20.9779 108.549 20.3518C107.482 19.7257 106.662 18.888 106.089 17.8386C105.525 16.7893 105.243 15.6297 105.243 14.3599V13.844C105.243 12.4155 105.512 11.1457 106.049 10.0346C106.596 8.91471 107.372 8.03731 108.377 7.4024C109.383 6.7675 110.582 6.45005 111.975 6.45005C113.36 6.45005 114.524 6.74105 115.467 7.32304C116.411 7.90503 117.125 8.72512 117.61 9.78329C118.095 10.8326 118.337 12.0672 118.337 13.4869V15.18H106.922V12.4949H114.409V12.1774C114.409 11.6836 114.321 11.2471 114.144 10.8679C113.968 10.4887 113.699 10.1933 113.338 9.98169C112.985 9.77006 112.522 9.66424 111.949 9.66424C111.296 9.66424 110.771 9.84942 110.375 10.2198C109.978 10.5901 109.687 11.0884 109.502 11.7144C109.325 12.3405 109.237 13.0504 109.237 13.844V14.3599C109.237 15.0918 109.374 15.7355 109.647 16.291C109.921 16.8466 110.313 17.2831 110.824 17.6005C111.336 17.9092 111.953 18.0635 112.676 18.0635C113.355 18.0635 113.99 17.94 114.581 17.6931C115.172 17.4374 115.674 17.0406 116.089 16.5027L118.02 18.7116C117.57 19.3553 116.874 19.9461 115.93 20.484C114.995 21.0219 113.827 21.2909 112.425 21.2909Z" fill="#1D1D1B"/>
</svg>
