<svg width="69" height="26" viewBox="0 0 69 26" fill="none" xmlns="http://www.w3.org/2000/svg">
<path d="M16.9022 0.019043C14.2662 0.019043 11.7381 1.0662 9.87417 2.93016L3.791 9.01333C1.92704 10.8773 0.879883 13.4053 0.879883 16.0414C0.879883 21.5307 5.32981 25.9806 10.8191 25.9806C13.4551 25.9806 15.9832 24.9334 17.8471 23.0694L22.0549 18.8617C22.0549 18.8616 22.055 18.8618 22.0549 18.8617L34.3149 6.60168C35.2051 5.71146 36.4125 5.21135 37.6714 5.21135C39.7792 5.21135 41.5661 6.58507 42.1856 8.48603L46.0549 4.6168C44.2897 1.85222 41.1947 0.019043 37.6714 0.019043C35.0354 0.019043 32.5073 1.0662 30.6434 2.93016L14.1757 19.3979C13.2854 20.2882 12.078 20.7883 10.8191 20.7883C8.19744 20.7883 6.07219 18.6631 6.07219 16.0414C6.07219 14.7824 6.5723 13.575 7.46252 12.6848L13.5457 6.60168C14.4359 5.71146 15.6433 5.21135 16.9022 5.21135C19.01 5.21135 20.7969 6.58513 21.4164 8.48615L25.2857 4.61689C23.5206 1.85227 20.4255 0.019043 16.9022 0.019043Z" fill="#1D1D1B"/>
<path d="M34.9447 19.3979C34.0545 20.2882 32.8471 20.7883 31.5881 20.7883C29.4807 20.7883 27.6939 19.4149 27.0742 17.5143L23.2051 21.3834C24.9703 24.1476 28.0652 25.9806 31.5881 25.9806C34.2242 25.9806 36.7522 24.9334 38.6162 23.0694L55.0839 6.60168C55.9742 5.71146 57.1815 5.21135 58.4405 5.21135C61.0622 5.21135 63.1874 7.3366 63.1874 9.95825C63.1874 11.2172 62.6873 12.4246 61.7971 13.3148L55.7139 19.3979C54.8237 20.2882 53.6163 20.7883 52.3574 20.7883C50.2497 20.7883 48.4629 19.4146 47.8433 17.5138L43.9741 21.3831C45.7393 24.1475 48.8342 25.9806 52.3574 25.9806C54.9934 25.9806 57.5215 24.9334 59.3854 23.0694L65.4686 16.9863C67.3325 15.1223 68.3797 12.5943 68.3797 9.95825C68.3797 4.46897 63.9298 0.019043 58.4405 0.019043C55.8045 0.019043 53.2764 1.0662 51.4125 2.93016L34.9447 19.3979Z" fill="#1D1D1B"/>
</svg>
