<svg width="120" height="21" viewBox="0 0 120 21" fill="none" xmlns="http://www.w3.org/2000/svg">
<path d="M3.67254 12.3466L3.64609 9.44983H7.75973C8.80908 9.44983 9.58507 9.25584 10.0877 8.86784C10.5903 8.47103 10.8417 7.90226 10.8417 7.16154C10.8417 6.315 10.5947 5.70656 10.1009 5.3362C9.60712 4.96584 8.82672 4.78066 7.75973 4.78066H5.1143V20.6797H0.947754V1.42096H7.75973C10.026 1.42096 11.7984 1.85305 13.077 2.71722C14.3557 3.5814 14.995 4.91293 14.995 6.71182C14.995 7.49663 14.8142 8.23294 14.4527 8.92075C14.0999 9.59974 13.5356 10.1509 12.7596 10.5741C11.9836 10.9974 10.9739 11.2223 9.73057 11.2487L8.56658 12.3466H3.67254ZM2.53501 20.6797L4.14872 17.3332H8.39463C9.39108 17.3332 10.1186 17.1083 10.5771 16.6586C11.0356 16.2001 11.2649 15.6313 11.2649 14.9523C11.2649 14.4144 11.1723 13.9515 10.9871 13.5635C10.802 13.1755 10.511 12.8757 10.1142 12.664C9.72616 12.4524 9.2103 12.3466 8.56658 12.3466H4.70426L4.73071 9.44983H9.50571L10.4713 10.6006C11.6617 10.5741 12.6185 10.7725 13.3416 11.1958C14.0647 11.6103 14.5893 12.157 14.9156 12.836C15.2419 13.515 15.405 14.2336 15.405 14.992C15.405 16.8703 14.801 18.29 13.5929 19.2511C12.3848 20.2035 10.6521 20.6797 8.39463 20.6797H2.53501Z" fill="white"/>
<path d="M22.2831 20.6797H18.2753V0.362793H22.2831V20.6797Z" fill="white"/>
<path d="M33.751 6.36791H37.7456V20.6797H34.0024L33.751 17.2274V6.36791ZM35.3515 14.2381C35.3515 15.5255 35.1531 16.6763 34.7563 17.6903C34.3683 18.6956 33.7775 19.4892 32.9839 20.0712C32.1991 20.6532 31.207 20.9442 30.0078 20.9442C28.5969 20.9442 27.4505 20.5342 26.5687 19.7141C25.6957 18.8852 25.2592 17.5228 25.2592 15.6269V6.36791H29.2538V15.6534C29.2538 16.1384 29.3332 16.5352 29.4919 16.8438C29.6595 17.1436 29.8887 17.3641 30.1797 17.5052C30.4795 17.6374 30.819 17.7036 31.1982 17.7036C31.9654 17.7036 32.565 17.5537 32.9971 17.2538C33.438 16.954 33.7466 16.544 33.923 16.0237C34.1082 15.5035 34.2008 14.9171 34.2008 14.2645L35.3515 14.2381Z" fill="white"/>
<path d="M47.2427 20.9442C45.7348 20.9442 44.443 20.6312 43.3672 20.0051C42.3002 19.379 41.4801 18.5413 40.9069 17.4919C40.3426 16.4426 40.0604 15.283 40.0604 14.0132V13.4973C40.0604 12.0688 40.3293 10.799 40.8672 9.68792C41.414 8.56803 42.19 7.69063 43.1952 7.05572C44.2005 6.42082 45.3997 6.10337 46.793 6.10337C48.1774 6.10337 49.3414 6.39437 50.285 6.97636C51.2285 7.55835 51.9428 8.37844 52.4278 9.43661C52.9128 10.486 53.1553 11.7205 53.1553 13.1402V14.8333H41.7402V12.1482H49.2268V11.8307C49.2268 11.3369 49.1386 10.9004 48.9623 10.5212C48.7859 10.1421 48.5169 9.84665 48.1554 9.63501C47.8027 9.42338 47.3397 9.31756 46.7665 9.31756C46.114 9.31756 45.5893 9.50274 45.1925 9.8731C44.7957 10.2435 44.5047 10.7417 44.3195 11.3678C44.1432 11.9939 44.055 12.7037 44.055 13.4973V14.0132C44.055 14.7451 44.1917 15.3888 44.465 15.9444C44.7384 16.4999 45.1308 16.9364 45.6422 17.2538C46.1537 17.5625 46.771 17.7168 47.494 17.7168C48.173 17.7168 48.8079 17.5933 49.3988 17.3464C49.9896 17.0907 50.4922 16.6939 50.9066 16.156L52.8378 18.3649C52.3881 19.0086 51.6915 19.5995 50.7479 20.1374C49.8132 20.6753 48.6448 20.9442 47.2427 20.9442Z" fill="white"/>
<path d="M63.9089 1.42096H66.1311L66.7263 3.6828L62.6788 20.6797H60.2715L60.1127 18.1268L63.9089 1.42096ZM61.5148 18.1665L61.1312 20.6797H58.4726L54.2399 1.42096H58.38L61.5148 18.1665ZM72.943 1.42096H77.0699L72.8505 20.6797H70.1786L69.8479 18.1004L72.943 1.42096ZM71.25 18.2062L71.0516 20.6797H68.6442L64.5703 3.66958L65.2184 1.42096H67.4141L71.25 18.2062Z" fill="white"/>
<path d="M86.0247 11.1429C86.0247 10.4992 85.866 9.98774 85.5485 9.60856C85.2311 9.22938 84.724 9.03979 84.0274 9.03979C83.6306 9.03979 83.2867 9.10593 82.9957 9.2382C82.7047 9.37047 82.4842 9.56006 82.3343 9.80697C82.1844 10.0451 82.1095 10.3405 82.1095 10.6932H78.1149C78.1149 9.84665 78.3662 9.07947 78.8688 8.39166C79.3714 7.69503 80.0813 7.13949 80.9984 6.72504C81.9155 6.31059 82.9957 6.10337 84.239 6.10337C85.3501 6.10337 86.3421 6.29296 87.2151 6.67214C88.0881 7.0425 88.7759 7.60244 89.2786 8.35198C89.7812 9.10152 90.0325 10.0406 90.0325 11.1694V17.148C90.0325 17.9946 90.081 18.6647 90.178 19.1586C90.2838 19.6524 90.4293 20.0845 90.6145 20.4548V20.6797H86.5935C86.3995 20.274 86.254 19.767 86.157 19.1586C86.0688 18.5501 86.0247 17.9328 86.0247 17.3068V11.1429ZM86.567 14.2248H84.53C83.56 14.2248 82.859 14.4365 82.4269 14.8597C81.9948 15.2742 81.7788 15.7768 81.7788 16.3676C81.7788 16.8173 81.9375 17.1877 82.255 17.4787C82.5724 17.7697 83.0001 17.9152 83.538 17.9152C84.0935 17.9152 84.5697 17.8094 84.9665 17.5977C85.3721 17.3773 85.6808 17.1172 85.8924 16.8173C86.1129 16.5087 86.2187 16.2265 86.2099 15.9708L87.2416 17.6903C87.1005 18.0431 86.9109 18.409 86.6728 18.7882C86.4435 19.1674 86.1481 19.5201 85.7866 19.8464C85.4251 20.1726 84.9842 20.4372 84.4639 20.64C83.9524 20.8428 83.3484 20.9442 82.6518 20.9442C81.7523 20.9442 80.9322 20.7634 80.1915 20.4019C79.4508 20.0315 78.8644 19.5245 78.4323 18.8808C78.0002 18.2282 77.7842 17.4831 77.7842 16.6454C77.7842 15.1463 78.3397 13.9867 79.4508 13.1667C80.5619 12.3378 82.2153 11.9233 84.411 11.9233H86.5405L86.567 14.2248Z" fill="white"/>
<path d="M100.627 6.36791H104.807L100.019 20.6797H97.4926L97.572 17.73L100.627 6.36791ZM98.6169 17.7432L98.6831 20.6797H96.1567L91.3552 6.36791H95.5614L98.6169 17.7432Z" fill="white"/>
<path d="M113.114 20.9442C111.606 20.9442 110.314 20.6312 109.238 20.0051C108.171 19.379 107.351 18.5413 106.778 17.4919C106.214 16.4426 105.932 15.283 105.932 14.0132V13.4973C105.932 12.0688 106.2 10.799 106.738 9.68792C107.285 8.56803 108.061 7.69063 109.066 7.05572C110.072 6.42082 111.271 6.10337 112.664 6.10337C114.049 6.10337 115.213 6.39437 116.156 6.97636C117.1 7.55835 117.814 8.37844 118.299 9.43661C118.784 10.486 119.026 11.7205 119.026 13.1402V14.8333H107.611V12.1482H115.098V11.8307C115.098 11.3369 115.01 10.9004 114.833 10.5212C114.657 10.1421 114.388 9.84665 114.027 9.63501C113.674 9.42338 113.211 9.31756 112.638 9.31756C111.985 9.31756 111.46 9.50274 111.064 9.8731C110.667 10.2435 110.376 10.7417 110.191 11.3678C110.014 11.9939 109.926 12.7037 109.926 13.4973V14.0132C109.926 14.7451 110.063 15.3888 110.336 15.9444C110.61 16.4999 111.002 16.9364 111.513 17.2538C112.025 17.5625 112.642 17.7168 113.365 17.7168C114.044 17.7168 114.679 17.5933 115.27 17.3464C115.861 17.0907 116.363 16.6939 116.778 16.156L118.709 18.3649C118.259 19.0086 117.563 19.5995 116.619 20.1374C115.684 20.6753 114.516 20.9442 113.114 20.9442Z" fill="white"/>
</svg>
