<svg width="67" height="25" viewBox="0 0 67 25" fill="none" xmlns="http://www.w3.org/2000/svg">
<path d="M1.19847 24.0518C1.05389 23.3297 0.909305 22.4055 0.764722 21.2792C0.620139 20.1528 0.504472 18.9687 0.417722 17.7268C0.330973 16.485 0.287598 15.3731 0.287598 14.3911C0.287598 11.7629 0.576764 9.19255 1.1551 6.67992C1.73343 4.16728 2.54309 1.95789 3.58409 0.0517578H17.4641C18.5051 1.95789 19.3147 4.16728 19.8931 6.67992C20.4714 9.19255 20.7606 11.7629 20.7606 14.3911C20.7606 15.3731 20.7172 16.485 20.6304 17.7268C20.5437 18.9687 20.428 20.1528 20.2834 21.2792C20.1678 22.4055 20.0232 23.3297 19.8497 24.0518H12.3892C12.6494 22.9254 12.8519 21.929 12.9964 21.0626C13.141 20.1962 13.2567 19.3153 13.3434 18.42C13.4302 17.5247 13.5025 16.4994 13.5603 15.3442H7.48783C7.54567 16.4994 7.61796 17.5247 7.70471 18.42C7.79146 19.3153 7.90712 20.1962 8.05171 21.0626C8.22521 21.929 8.42762 22.9254 8.65895 24.0518H1.19847ZM7.70471 10.4055H13.3434C13.141 8.93262 12.794 7.41638 12.3024 5.85681C11.8109 4.29724 11.2181 2.9254 10.5241 1.74129C9.83008 2.9254 9.23729 4.29724 8.7457 5.85681C8.25412 7.3875 7.90712 8.90374 7.70471 10.4055Z" fill="white"/>
<path d="M21.8226 24.0518L29.5867 5.25031H21.8659L23.2973 0.0517578H39.7798L32.0157 18.8532H39.6496L38.2183 24.0518H21.8226Z" fill="white"/>
<path d="M45.6411 24.0518L47.6364 12.7882H51.8438V12.6149C50.3979 11.4886 49.2413 10.3333 48.3738 9.14923C47.5063 7.96511 46.8846 6.63659 46.5086 5.16367C46.1327 3.69075 45.9448 1.98678 45.9448 0.0517578H53.6221C53.6221 1.32252 53.6944 2.39111 53.839 3.25753C54.0125 4.12396 54.3017 4.90374 54.7065 5.59688C55.1113 6.29002 55.7041 7.01205 56.4849 7.76295L58.0464 0.0517578H65.3767L63.2514 10.4055H59.9982V10.5355C61.5019 11.6041 62.7019 12.7593 63.5984 14.0012C64.4948 15.2431 65.1599 16.6727 65.5936 18.29C66.0274 19.9074 66.2587 21.8279 66.2876 24.0518H58.5235C58.5235 21.7991 58.2343 19.9796 57.656 18.5933C57.0777 17.1781 56.1234 15.9362 54.7933 14.8676L53.145 24.0518H45.6411Z" fill="white"/>
</svg>
