<svg width="85" height="28" viewBox="0 0 85 28" fill="none" xmlns="http://www.w3.org/2000/svg">
<path d="M0.463603 0.94808H6.39428V21.3496H0.463603V0.94808ZM11.9098 13.4915H7.63972V8.74692H11.9098V0.94808H17.8405V21.3496H11.9098V13.4915ZM29.1924 11.9791C29.1924 11.4651 29.1726 11.0994 29.1331 10.882C29.0936 10.6645 28.9749 10.5064 28.7773 10.4075C28.5993 10.3087 28.2633 10.2395 27.769 10.1999C27.4725 10.1802 26.83 10.1703 25.8416 10.1703C24.8927 10.1703 24.0129 10.2098 23.2024 10.2889L21.6308 10.3779V6.52292C23.4891 6.16708 25.4956 5.98916 27.6504 5.98916C29.311 5.98916 30.6059 6.10777 31.535 6.345C32.4839 6.58222 33.1956 6.95783 33.6701 7.47182C34.0852 7.94628 34.3521 8.54923 34.4707 9.28068C34.6091 10.0121 34.6783 11.0302 34.6783 12.335V21.3496H29.1924V11.9791ZM24.8037 21.5572C23.4396 21.5572 22.4314 21.1816 21.7791 20.4304C21.1267 19.6594 20.8005 18.5029 20.8005 16.9609C20.8005 16.012 20.8697 15.2509 21.0081 14.6776C21.1465 14.0845 21.3837 13.62 21.7198 13.2839C22.0558 12.928 22.5204 12.6809 23.1135 12.5426C23.7065 12.3844 24.4874 12.3053 25.4561 12.3053L27.947 12.3646V15.0038H27.6504C27.1957 15.0038 26.8992 15.0137 26.7608 15.0334C26.3654 15.0532 26.1579 15.241 26.1381 15.5969C26.1183 15.7155 26.1085 15.9626 26.1085 16.3382C26.1085 16.6347 26.1183 16.8621 26.1381 17.0202C26.1776 17.1784 26.237 17.3069 26.316 17.4057C26.4149 17.5441 26.5631 17.6232 26.7608 17.6429C27.0376 17.6825 27.3341 17.7022 27.6504 17.7022H27.947V20.7269C27.512 21.063 27.0475 21.2804 26.5533 21.3793C26.0788 21.4979 25.4956 21.5572 24.8037 21.5572ZM42.2285 21.5572C40.4493 21.5572 39.2533 21.0135 38.6405 19.9262C38.3637 19.4518 38.1759 18.8785 38.0771 18.2064C37.9782 17.5144 37.9288 16.6743 37.9288 15.6858V6.22638H43.4147V13.3728C43.4147 14.4206 43.4246 15.1125 43.4443 15.4486C43.4839 15.9428 43.5432 16.2986 43.6223 16.5161C43.7013 16.7336 43.8298 16.8719 44.0077 16.9313C44.1857 16.9708 44.502 16.9906 44.9567 16.9906H45.2532V20.6972C44.4822 21.2705 43.474 21.5572 42.2285 21.5572ZM46.4986 6.22638H51.9845V21.3496H46.4986V6.22638ZM66.5721 10.3482C66.1965 10.3284 65.6825 10.279 65.0301 10.1999C63.8045 10.0813 62.816 10.022 62.0648 10.022H61.0862V5.98916C62.4898 5.98916 63.8242 6.088 65.0895 6.28569L66.5721 6.55257V10.3482ZM62.2724 16.7533C62.2724 16.4568 62.223 16.269 62.1241 16.1899C62.0253 16.1108 61.8177 16.0515 61.5014 16.012L58.2988 15.5672C57.5081 15.4486 56.8656 15.2608 56.3714 15.0038C55.8969 14.7468 55.5411 14.4008 55.3038 13.9659C55.0666 13.5903 54.9085 13.1356 54.8294 12.6019C54.7503 12.0681 54.7108 11.4058 54.7108 10.6151C54.7108 8.99403 55.1951 7.8079 56.1638 7.05668C56.9743 6.46361 58.2 6.11765 59.8408 6.01881V10.6744C59.8408 10.9709 59.8803 11.1686 59.9594 11.2675C60.0385 11.3465 60.2856 11.4157 60.7008 11.475L64.2592 11.9495C64.7731 12.0088 65.2179 12.1175 65.5936 12.2757C65.9692 12.4141 66.2855 12.6315 66.5425 12.928C67.1158 13.5607 67.4024 14.7764 67.4024 16.5754C67.4024 18.4732 66.9181 19.7977 65.9494 20.549C65.0993 21.1816 63.8737 21.5176 62.2724 21.5572V16.7533ZM61.0269 21.5868C59.4454 21.5671 58.0616 21.4682 56.8755 21.2903L55.1852 21.0234V17.2278C55.976 17.3069 57.0435 17.3859 58.3878 17.465C59.139 17.5046 59.6728 17.5243 59.9891 17.5243H61.0269V21.5868ZM74.4317 21.2606C72.6525 21.2606 71.4564 20.717 70.8436 19.6297C70.5668 19.1553 70.379 18.582 70.2802 17.9098C70.1813 17.2179 70.1319 16.3777 70.1319 15.3893V6.22638H75.6178V13.0763C75.6178 14.1241 75.6277 14.816 75.6474 15.1521C75.687 15.666 75.7463 16.0219 75.8254 16.2196C75.9044 16.437 76.0329 16.5754 76.2109 16.6347C76.3888 16.6743 76.7051 16.694 77.1598 16.694H77.4563V20.371C76.6655 20.9641 75.6573 21.2606 74.4317 21.2606ZM76.4777 27.4582C75.4498 27.4582 74.2439 27.3989 72.86 27.2803L71.1401 27.1024V23.2771H75.1137C75.8254 23.2771 76.5173 23.2573 77.1894 23.2178C77.6639 23.1782 78.0098 23.0794 78.2273 22.9212C78.4645 22.7829 78.6029 22.5357 78.6424 22.1799C78.682 21.7055 78.7017 21.2013 78.7017 20.6676V6.22638H84.1876V19.689C84.1876 21.2705 84.1184 22.4962 83.98 23.366C83.8614 24.2359 83.5748 24.9574 83.1201 25.5307C82.6061 26.1831 81.8252 26.6675 80.7775 26.9838C79.7297 27.3001 78.2965 27.4582 76.4777 27.4582Z" fill="white"/>
</svg>
