<svg width="130" height="21" viewBox="0 0 130 21" fill="none" xmlns="http://www.w3.org/2000/svg">
<path d="M16.5513 3.47552H11.7771L8.2484 20.0518H1.84326L5.37202 3.47552H0.657129L1.19089 1.22186H17.0555L16.5513 3.47552ZM19.4071 14.0914C19.328 14.5263 19.2687 14.9415 19.2292 15.3369C19.2094 15.7322 19.1995 16.0881 19.1995 16.4044C19.1995 16.5823 19.2094 16.78 19.2292 16.9975C19.249 17.2149 19.2885 17.4225 19.3478 17.6202C19.4269 17.7981 19.5257 17.9563 19.6443 18.0946C19.7827 18.2132 19.9705 18.2726 20.2077 18.2726C20.3857 18.2726 20.5834 18.2132 20.8008 18.0946C21.038 17.976 21.2654 17.808 21.4828 17.5905C21.7201 17.3731 21.9375 17.1062 22.1352 16.7899C22.3527 16.4736 22.5207 16.1177 22.6393 15.7224H27.5025L26.7315 18.8953C26.3361 19.1523 25.8814 19.3697 25.3674 19.5477C24.8534 19.7256 24.3098 19.8738 23.7365 19.9925C23.1632 20.0913 22.58 20.1605 21.9869 20.2C21.3939 20.2593 20.8305 20.289 20.2967 20.289C19.3083 20.289 18.389 20.2 17.5389 20.0221C16.6889 19.8442 15.9475 19.5378 15.3149 19.1028C14.6823 18.6679 14.1782 18.0946 13.8026 17.383C13.4468 16.6515 13.2689 15.752 13.2689 14.6845C13.2689 13.7158 13.4171 12.7669 13.7137 11.8378C14.03 10.9086 14.5439 10.0882 15.2556 9.37654C15.9871 8.64509 16.9558 8.06191 18.1617 7.62699C19.3873 7.19207 20.9095 6.97461 22.7283 6.97461C24.7052 6.97461 26.1878 7.28103 27.1763 7.89387C28.1845 8.50671 28.6886 9.4655 28.6886 10.7702C28.6886 11.304 28.6095 11.8872 28.4514 12.5198C28.2932 13.1326 28.056 13.6565 27.7397 14.0914H19.4071ZM23.351 10.5627C23.351 9.94984 23.2522 9.53469 23.0545 9.31723C22.8568 9.09977 22.6196 8.99104 22.3428 8.99104C22.0265 8.99104 21.73 9.09977 21.4532 9.31723C21.1962 9.51492 20.959 9.79169 20.7415 10.1475C20.524 10.4836 20.3264 10.879 20.1484 11.3337C19.9705 11.7686 19.8223 12.2331 19.7036 12.7274H23.0841C23.1237 12.4901 23.1632 12.243 23.2027 11.986C23.2423 11.7686 23.2719 11.5314 23.2917 11.2744C23.3312 11.0174 23.351 10.7801 23.351 10.5627ZM42.3255 19.3401C41.4952 19.6761 40.6155 19.9134 39.6863 20.0518C38.7769 20.2099 37.7391 20.289 36.5727 20.289C35.5447 20.289 34.5958 20.1901 33.726 19.9925C32.8759 19.775 32.1346 19.4389 31.502 18.9842C30.8694 18.5296 30.3751 17.9464 30.0193 17.2347C29.6635 16.5032 29.4855 15.6235 29.4855 14.5955C29.4855 13.528 29.6635 12.5396 30.0193 11.6302C30.3949 10.7011 30.9484 9.89053 31.6799 9.19862C32.4311 8.50671 33.38 7.96306 34.5266 7.56768C35.6732 7.1723 37.0373 6.97461 38.6188 6.97461C39.9038 6.97461 41.0207 7.08334 41.9696 7.3008C42.9185 7.49849 43.6994 7.96306 44.3122 8.69451L43.4819 12.4901H39.4491C39.4689 12.1541 39.4886 11.8575 39.5084 11.6005C39.5282 11.3435 39.538 11.0569 39.538 10.7406C39.538 10.108 39.4689 9.66319 39.3305 9.40619C39.1921 9.12943 38.9647 8.99104 38.6484 8.99104C38.0949 8.99104 37.6106 9.26781 37.1954 9.82134C36.7803 10.3551 36.4343 11.0075 36.1576 11.7785C35.9006 12.5297 35.7029 13.3303 35.5645 14.1804C35.4459 15.0107 35.3866 15.7224 35.3866 16.3154C35.3866 16.5329 35.3965 16.7602 35.4162 16.9975C35.436 17.2149 35.4755 17.4225 35.5348 17.6202C35.6139 17.8179 35.7128 17.976 35.8314 18.0946C35.95 18.2132 36.118 18.2726 36.3355 18.2726C36.5332 18.2726 36.7605 18.2132 37.0175 18.0946C37.2745 17.976 37.5216 17.7981 37.7588 17.5609C37.9961 17.3039 38.2234 16.9777 38.4409 16.5823C38.6583 16.1869 38.8264 15.7125 38.945 15.1589H43.1854L42.3255 19.3401ZM52.6889 9.19862H52.8964C53.272 8.82301 53.707 8.47705 54.2012 8.16075C54.6163 7.88398 55.1106 7.63687 55.6839 7.41941C56.2572 7.20196 56.8996 7.09323 57.6113 7.09323C58.6393 7.09323 59.4894 7.36011 60.1615 7.89387C60.8337 8.40786 61.1697 9.11954 61.1697 10.0289C61.1697 10.3057 61.1401 10.622 61.0808 10.9778C61.0215 11.3139 60.9523 11.6796 60.8732 12.075C60.7941 12.4506 60.7052 12.8361 60.6063 13.2315C60.5272 13.6071 60.458 13.953 60.3987 14.2693L59.1533 20.0518H53.1337L54.7646 12.3122C54.8041 12.0552 54.8536 11.7982 54.9129 11.5412C54.9722 11.2645 55.0018 11.0174 55.0018 10.7999C55.0018 10.5034 54.9227 10.2661 54.7646 10.0882C54.6262 9.89053 54.4088 9.79169 54.1122 9.79169C53.7564 9.79169 53.4104 9.92018 53.0744 10.1772C52.7581 10.4342 52.5109 10.6615 52.333 10.8592L50.3759 20.0518H44.3266L48.5374 0.124681H54.6163L52.6889 9.19862ZM80.8401 19.3401C80.0098 19.6761 79.1301 19.9134 78.201 20.0518C77.2916 20.2099 76.2537 20.289 75.0874 20.289C74.0594 20.289 73.1105 20.1901 72.2406 19.9925C71.3906 19.775 70.6492 19.4389 70.0166 18.9842C69.384 18.5296 68.8898 17.9464 68.534 17.2347C68.1781 16.5032 68.0002 15.6235 68.0002 14.5955C68.0002 13.528 68.1781 12.5396 68.534 11.6302C68.9096 10.7011 69.4631 9.89053 70.1945 9.19862C70.9458 8.50671 71.8947 7.96306 73.0413 7.56768C74.1879 7.1723 75.5519 6.97461 77.1334 6.97461C78.4184 6.97461 79.5354 7.08334 80.4843 7.3008C81.4332 7.49849 82.2141 7.96306 82.8269 8.69451L81.9966 12.4901H77.9637C77.9835 12.1541 78.0033 11.8575 78.023 11.6005C78.0428 11.3435 78.0527 11.0569 78.0527 10.7406C78.0527 10.108 77.9835 9.66319 77.8451 9.40619C77.7067 9.12943 77.4794 8.99104 77.1631 8.99104C76.6096 8.99104 76.1252 9.26781 75.7101 9.82134C75.2949 10.3551 74.949 11.0075 74.6722 11.7785C74.4152 12.5297 74.2175 13.3303 74.0791 14.1804C73.9605 15.0107 73.9012 15.7224 73.9012 16.3154C73.9012 16.5329 73.9111 16.7602 73.9309 16.9975C73.9506 17.2149 73.9902 17.4225 74.0495 17.6202C74.1286 17.8179 74.2274 17.976 74.346 18.0946C74.4646 18.2132 74.6327 18.2726 74.8501 18.2726C75.0478 18.2726 75.2752 18.2132 75.5322 18.0946C75.7892 17.976 76.0363 17.7981 76.2735 17.5609C76.5107 17.3039 76.7381 16.9777 76.9555 16.5823C77.173 16.1869 77.341 15.7125 77.4596 15.1589H81.7001L80.8401 19.3401ZM85.2728 8.39798C86.281 7.90375 87.309 7.54791 88.3568 7.33045C89.4243 7.09323 90.6104 6.97461 91.9152 6.97461C93.1804 6.97461 94.2282 7.07346 95.0584 7.27115C95.8887 7.46884 96.551 7.75549 97.0452 8.1311C97.5394 8.50671 97.8854 8.95151 98.0831 9.4655C98.2808 9.97949 98.3796 10.5627 98.3796 11.215C98.3796 11.5907 98.35 11.9959 98.2907 12.4308C98.2511 12.8658 98.2017 13.2315 98.1424 13.528L96.7487 20.0518H91.9745L91.4407 18.1539H91.2628C90.6302 18.8459 89.8889 19.3796 89.0388 19.7552C88.2085 20.1111 87.3782 20.289 86.5479 20.289C86.0735 20.289 85.6089 20.2198 85.1542 20.0814C84.6995 19.943 84.2943 19.7355 83.9384 19.4587C83.5826 19.1622 83.2959 18.7964 83.0785 18.3615C82.861 17.9068 82.7523 17.3632 82.7523 16.7306C82.7523 15.7026 83.0291 14.8921 83.5826 14.299C84.1559 13.6862 84.8972 13.2315 85.8066 12.9349C86.7357 12.6186 87.7736 12.421 88.9202 12.3419C90.0866 12.2628 91.2529 12.2233 92.4193 12.2233C92.4588 12.0256 92.5083 11.7488 92.5676 11.393C92.6269 11.0174 92.6565 10.6912 92.6565 10.4144C92.6565 10.0586 92.5577 9.73238 92.36 9.43585C92.1821 9.11954 91.7966 8.96139 91.2035 8.96139C90.5116 8.96139 89.9976 9.16897 89.6615 9.58411C89.3452 9.97949 89.1377 10.4638 89.0388 11.0371H84.7094L85.2728 8.39798ZM92.0931 13.617H91.5593C90.9861 13.617 90.4918 13.696 90.0767 13.8542C89.6813 13.9926 89.3551 14.1804 89.0981 14.4176C88.8609 14.6548 88.683 14.9217 88.5644 15.2183C88.4457 15.5148 88.3864 15.8113 88.3864 16.1079C88.3864 16.5823 88.505 16.9382 88.7423 17.1754C88.9993 17.4126 89.2958 17.5312 89.6319 17.5312C90.047 17.5312 90.4523 17.383 90.8477 17.0864C91.2628 16.7899 91.5198 16.3945 91.6187 15.9003L92.0931 13.617ZM101.901 7.3008H106.735L107.18 9.52481H107.387C107.842 8.81312 108.425 8.21017 109.137 7.71595C109.848 7.22173 110.787 6.97461 111.954 6.97461C112.033 6.97461 112.151 6.9845 112.31 7.00427C112.487 7.00427 112.675 7.03392 112.873 7.09323C113.09 7.13277 113.308 7.20196 113.525 7.3008C113.763 7.37988 113.99 7.49849 114.207 7.65664L112.903 13.7652H109.67C109.631 12.5396 109.522 11.6895 109.344 11.215C109.166 10.7208 108.88 10.4737 108.484 10.4737C108.287 10.4737 108.069 10.5231 107.832 10.622C107.614 10.7011 107.387 10.8889 107.15 11.1854L105.252 20.0518H99.2027L101.901 7.3008ZM120.298 14.0914C120.219 14.5263 120.16 14.9415 120.12 15.3369C120.1 15.7322 120.091 16.0881 120.091 16.4044C120.091 16.5823 120.1 16.78 120.12 16.9975C120.14 17.2149 120.179 17.4225 120.239 17.6202C120.318 17.7981 120.417 17.9563 120.535 18.0946C120.674 18.2132 120.862 18.2726 121.099 18.2726C121.277 18.2726 121.474 18.2132 121.692 18.0946C121.929 17.976 122.156 17.808 122.374 17.5905C122.611 17.3731 122.829 17.1062 123.026 16.7899C123.244 16.4736 123.412 16.1177 123.53 15.7224H128.393L127.622 18.8953C127.227 19.1523 126.772 19.3697 126.258 19.5477C125.744 19.7256 125.201 19.8738 124.628 19.9925C124.054 20.0913 123.471 20.1605 122.878 20.2C122.285 20.2593 121.721 20.289 121.188 20.289C120.199 20.289 119.28 20.2 118.43 20.0221C117.58 19.8442 116.839 19.5378 116.206 19.1028C115.573 18.6679 115.069 18.0946 114.694 17.383C114.338 16.6515 114.16 15.752 114.16 14.6845C114.16 13.7158 114.308 12.7669 114.605 11.8378C114.921 10.9086 115.435 10.0882 116.147 9.37654C116.878 8.64509 117.847 8.06191 119.053 7.62699C120.278 7.19207 121.801 6.97461 123.619 6.97461C125.596 6.97461 127.079 7.28103 128.067 7.89387C129.076 8.50671 129.58 9.4655 129.58 10.7702C129.58 11.304 129.501 11.8872 129.342 12.5198C129.184 13.1326 128.947 13.6565 128.631 14.0914H120.298ZM124.242 10.5627C124.242 9.94984 124.143 9.53469 123.945 9.31723C123.748 9.09977 123.511 8.99104 123.234 8.99104C122.917 8.99104 122.621 9.09977 122.344 9.31723C122.087 9.51492 121.85 9.79169 121.633 10.1475C121.415 10.4836 121.217 10.879 121.039 11.3337C120.862 11.7686 120.713 12.2331 120.595 12.7274H123.975C124.015 12.4901 124.054 12.243 124.094 11.986C124.133 11.7686 124.163 11.5314 124.183 11.2744C124.222 11.0174 124.242 10.7801 124.242 10.5627Z" fill="white"/>
</svg>
