<svg width="69" height="27" viewBox="0 0 69 27" fill="none" xmlns="http://www.w3.org/2000/svg">
<path d="M16.8143 0.672852C14.1783 0.672852 11.6502 1.72001 9.78628 3.58397L3.70311 9.66714C1.83915 11.5311 0.791992 14.0591 0.791992 16.6952C0.791992 22.1845 5.24192 26.6344 10.7312 26.6344C13.3672 26.6344 15.8953 25.5872 17.7592 23.7232L21.967 19.5155C21.967 19.5154 21.9671 19.5156 21.967 19.5155L34.227 7.25549C35.1172 6.36527 36.3246 5.86516 37.5836 5.86516C39.6913 5.86516 41.4782 7.23888 42.0977 9.13984L45.967 5.27061C44.2018 2.50603 41.1068 0.672852 37.5836 0.672852C34.9475 0.672852 32.4195 1.72001 30.5555 3.58397L14.0878 20.0518C13.1975 20.942 11.9902 21.4421 10.7312 21.4421C8.10955 21.4421 5.9843 19.3169 5.9843 16.6952C5.9843 15.4362 6.48441 14.2288 7.37463 13.3386L13.4578 7.25549C14.348 6.36527 15.5554 5.86516 16.8143 5.86516C18.9221 5.86516 20.709 7.23894 21.3285 9.13996L25.1978 5.2707C23.4327 2.50608 20.3377 0.672852 16.8143 0.672852Z" fill="white"/>
<path d="M34.8571 20.0518C33.9668 20.942 32.7595 21.4421 31.5005 21.4421C29.393 21.4421 27.6063 20.0687 26.9866 18.1681L23.1174 22.0372C24.8826 24.8014 27.9775 26.6344 31.5005 26.6344C34.1365 26.6344 36.6646 25.5872 38.5285 23.7232L54.9963 7.25549C55.8865 6.36527 57.0939 5.86516 58.3529 5.86516C60.9745 5.86516 63.0998 7.99041 63.0998 10.6121C63.0998 11.871 62.5997 13.0784 61.7094 13.9686L55.6263 20.0518C54.7361 20.942 53.5287 21.4421 52.2697 21.4421C50.1621 21.4421 48.3752 20.0685 47.7556 18.1676L43.8865 22.0369C45.6516 24.8013 48.7466 26.6344 52.2697 26.6344C54.9058 26.6344 57.4338 25.5872 59.2978 23.7232L65.3809 17.6401C67.2449 15.7761 68.2921 13.2481 68.2921 10.6121C68.2921 5.12278 63.8422 0.672852 58.3529 0.672852C55.7168 0.672852 53.1888 1.72001 51.3248 3.58397L34.8571 20.0518Z" fill="white"/>
</svg>
