<svg width="116" height="27" viewBox="0 0 116 27" fill="none" xmlns="http://www.w3.org/2000/svg">
<path fill-rule="evenodd" clip-rule="evenodd" d="M10.5278 18.3342C9.66714 18.3342 8.84171 17.9923 8.23312 17.3837C7.62452 16.7751 7.28262 15.9497 7.28262 15.089V0.161133H0.792236V15.089C0.792236 20.4657 5.15118 24.8246 10.5278 24.8246H17.6672V18.3342H10.5278ZM29.999 6.65152C29.2319 6.65152 28.4723 6.80261 27.7636 7.09616C27.0549 7.38972 26.4109 7.81999 25.8685 8.36241C25.3261 8.90483 24.8958 9.54877 24.6023 10.2575C24.3087 10.9662 24.1576 11.7258 24.1576 12.4929C24.1576 13.26 24.3087 14.0195 24.6023 14.7282C24.8958 15.437 25.3261 16.0809 25.8685 16.6233C26.4109 17.1657 27.0549 17.596 27.7636 17.8896C28.4723 18.1831 29.2319 18.3342 29.999 18.3342C31.5482 18.3342 33.034 17.7188 34.1294 16.6233C35.2249 15.5279 35.8403 14.0421 35.8403 12.4929C35.8403 10.9436 35.2249 9.45787 34.1294 8.36241C33.034 7.26694 31.5482 6.65152 29.999 6.65152ZM17.6672 12.4929C17.6672 5.6825 23.1886 0.161133 29.999 0.161133C36.8093 0.161133 42.3307 5.6825 42.3307 12.4929C42.3307 19.3032 36.8093 24.8246 29.999 24.8246C23.1886 24.8246 17.6672 19.3032 17.6672 12.4929ZM100.095 6.65152C98.5459 6.65152 97.0601 7.26694 95.9647 8.36241C94.8692 9.45787 94.2538 10.9436 94.2538 12.4929C94.2538 14.0421 94.8692 15.5279 95.9647 16.6233C97.0601 17.7188 98.5459 18.3342 100.095 18.3342C101.644 18.3342 103.13 17.7188 104.226 16.6233C105.321 15.5279 105.936 14.0421 105.936 12.4929C105.936 10.9436 105.321 9.45787 104.226 8.36241C103.13 7.26694 101.644 6.65152 100.095 6.65152ZM87.7634 12.4929C87.7634 5.6825 93.2848 0.161133 100.095 0.161133C106.905 0.161133 112.427 5.6825 112.427 12.4929C112.427 19.3032 106.905 24.8246 100.095 24.8246C93.2848 24.8246 87.7634 19.3032 87.7634 12.4929ZM55.9605 0.161133C49.1501 0.161133 43.6288 5.6825 43.6288 12.4929C43.6288 19.3032 49.1501 24.8246 55.9605 24.8246H74.1336C75.4115 24.8246 76.6441 24.6299 77.8032 24.269L81.273 26.1227L85.0167 19.1105C85.9677 17.3254 86.4651 15.3339 86.4653 13.3113V12.4929C86.4653 5.6825 80.9439 0.161133 74.1336 0.161133H55.9605ZM79.9749 12.4929C79.9749 10.9436 79.3595 9.45787 78.264 8.36241C77.1686 7.26694 75.6828 6.65152 74.1336 6.65152H55.9605C55.1934 6.65152 54.4338 6.80261 53.7251 7.09616C53.0164 7.38972 52.3725 7.81999 51.8301 8.36241C51.2876 8.90483 50.8574 9.54877 50.5638 10.2575C50.2703 10.9662 50.1192 11.7258 50.1192 12.4929C50.1192 13.26 50.2703 14.0195 50.5638 14.7282C50.8574 15.437 51.2876 16.0809 51.8301 16.6233C52.3725 17.1657 53.0164 17.596 53.7251 17.8896C54.4338 18.1831 55.1934 18.3342 55.9605 18.3342H74.1336C75.675 18.3343 77.1539 17.7251 78.2481 16.6394C79.3422 15.5538 79.9629 14.0796 79.9749 12.5383V12.4929Z" fill="white"/>
<path d="M115.023 1.78373C115.023 2.21407 114.852 2.62678 114.548 2.93108C114.243 3.23537 113.831 3.40632 113.4 3.40632C112.97 3.40632 112.557 3.23537 112.253 2.93108C111.949 2.62678 111.778 2.21407 111.778 1.78373C111.778 1.35339 111.949 0.940676 112.253 0.63638C112.557 0.332084 112.97 0.161133 113.4 0.161133C113.831 0.161133 114.243 0.332084 114.548 0.63638C114.852 0.940676 115.023 1.35339 115.023 1.78373Z" fill="white"/>
</svg>
