<svg width="152" height="21" viewBox="0 0 152 21" fill="none" xmlns="http://www.w3.org/2000/svg">
<path d="M6.6281 6.49971L9.10248 12.5803C9.21394 12.8471 9.31425 12.9842 9.40342 12.9916C9.48516 12.999 9.57432 12.8953 9.67092 12.6804L12.1787 7.12222C13.0035 5.29915 13.4159 3.98372 13.4159 3.17594C13.4159 2.71646 13.2525 2.34222 12.9255 2.05319C12.606 1.75676 12.1453 1.56408 11.5434 1.47515C11.2834 1.4455 11.1533 1.34546 11.1533 1.17501C11.1533 1.00456 11.2462 0.919333 11.432 0.919333C11.5286 0.919333 11.7366 0.926744 12.0561 0.941566L13.2265 1.00826C13.754 1.03791 14.1293 1.05273 14.3522 1.05273C15.0284 1.05273 15.6154 1.00826 16.1132 0.919333C16.3064 0.88969 16.4551 0.874868 16.5591 0.874868C16.6928 0.874868 16.7597 0.967503 16.7597 1.15277C16.7597 1.32322 16.6482 1.43068 16.4253 1.47515C15.9944 1.55667 15.6414 1.77899 15.3665 2.14212C15.099 2.49784 14.7126 3.24264 14.2073 4.3765L12.5466 8.21161L10.6406 12.4025C10.0239 13.7735 9.6895 14.5071 9.63748 14.6035C9.23623 15.4261 9.0096 15.9004 8.95759 16.0264C8.8164 16.3598 8.64179 16.5266 8.43373 16.5266C8.29255 16.5266 8.18109 16.4377 8.09935 16.2598L7.843 15.6929L7.56435 15.0148L4.92277 9.03422C4.27631 7.56687 3.7376 6.25144 3.30662 5.08794C2.79391 3.72434 2.38523 2.82392 2.08057 2.38668C1.78335 1.94944 1.37467 1.67524 0.854527 1.56408C0.557303 1.50479 0.408691 1.38251 0.408691 1.19724C0.408691 0.997147 0.51272 0.8971 0.720776 0.8971C0.780221 0.8971 0.89168 0.904511 1.05515 0.919333C1.43411 0.963798 1.87623 0.986031 2.38151 0.986031L4.25402 1.04161L5.42434 0.986031C5.92219 0.956387 6.24542 0.941566 6.39403 0.941566C6.60209 0.941566 6.70612 1.04161 6.70612 1.2417C6.70612 1.41215 6.55007 1.52702 6.23799 1.58631C5.68813 1.68265 5.41319 2.00132 5.41319 2.54231C5.41319 3.20929 5.81816 4.52842 6.6281 6.49971Z" fill="white"/>
<path d="M19.19 6.81096C20.3417 6.81096 21.3337 7.26302 22.1659 8.16715C22.8644 8.93047 23.2136 9.69378 23.2136 10.4571C23.2136 10.7461 23.013 10.8906 22.6117 10.8906L22.099 10.8684H21.8427L19.0562 10.9129L17.9528 10.924L17.5738 10.9129C17.3583 10.9129 17.2208 10.9388 17.1614 10.9907C17.0797 11.0648 17.0388 11.2019 17.0388 11.402C17.0388 12.3802 17.3583 13.2473 17.9973 14.0032C18.6438 14.7517 19.3869 15.1259 20.2265 15.1259C21.1702 15.1259 21.9244 14.8554 22.4891 14.3145L22.8458 13.9698C22.9052 13.9106 22.9684 13.8809 23.0353 13.8809C23.1988 13.8809 23.2805 13.9587 23.2805 14.1144C23.2805 14.3293 22.9944 14.6887 22.4223 15.1926C21.4117 16.0819 20.3268 16.5266 19.1677 16.5266C17.8822 16.5266 16.8345 16.0856 16.0245 15.2038C15.2146 14.3219 14.8096 13.1843 14.8096 11.7911C14.8096 10.4423 15.2406 9.27507 16.1025 8.28943C16.9719 7.30378 18.0011 6.81096 19.19 6.81096ZM18.8779 7.36678C18.3726 7.36678 17.9305 7.61504 17.5515 8.11157C17.1725 8.60809 16.9831 9.19355 16.9831 9.86794C16.9831 10.0829 17.0351 10.2125 17.1391 10.257C17.2506 10.3015 17.5441 10.3237 18.0196 10.3237C18.2648 10.3237 18.5249 10.3163 18.7998 10.3015C19.4686 10.2718 19.855 10.257 19.959 10.257C20.6129 10.257 20.9399 10.0569 20.9399 9.65673C20.9399 9.05645 20.7281 8.52657 20.3045 8.0671C19.8884 7.60022 19.4129 7.36678 18.8779 7.36678Z" fill="white"/>
<path d="M34.36 11.5354V13.792C34.36 14.2737 34.386 14.6035 34.438 14.7813C34.49 14.9518 34.6089 15.1148 34.7946 15.2704C35.0621 15.4854 35.4039 15.6151 35.8201 15.6595C36.0504 15.6892 36.1656 15.7781 36.1656 15.9263C36.1656 16.1486 35.9018 16.2598 35.3742 16.2598C35.2628 16.2598 35.103 16.245 34.895 16.2153L34.1705 16.1264C33.8435 16.0893 33.5872 16.0708 33.4014 16.0708C32.6955 16.0708 32.1308 16.1116 31.7072 16.1931C31.5363 16.2227 31.3877 16.2376 31.2614 16.2376C31.0979 16.2376 31.0162 16.156 31.0162 15.993C31.0162 15.8744 31.1016 15.7818 31.2725 15.7151C31.5995 15.6039 31.8187 15.4298 31.9301 15.1926C32.0416 14.9555 32.0973 14.5553 32.0973 13.9921V11.3686C32.0973 10.3608 31.893 9.56409 31.4843 8.97864C31.0831 8.38577 30.5332 8.08933 29.8347 8.08933C29.2106 8.08933 28.7053 8.25978 28.3189 8.60068C27.9399 8.94158 27.7504 9.38623 27.7504 9.93464V13.6475C27.7504 14.3293 27.8768 14.8295 28.1294 15.1482C28.3895 15.4594 28.8242 15.641 29.4335 15.6929C29.6415 15.7151 29.7456 15.8003 29.7456 15.9485C29.7456 16.156 29.6155 16.2598 29.3554 16.2598C29.1102 16.2598 28.8167 16.2413 28.4749 16.2042C27.6353 16.1005 27.0557 16.0486 26.7362 16.0486C26.3052 16.0486 25.8073 16.0856 25.2426 16.1598C24.9751 16.1968 24.7931 16.2153 24.6965 16.2153C24.5107 16.2153 24.4178 16.1375 24.4178 15.9819C24.4178 15.8781 24.481 15.8003 24.6073 15.7484C24.9863 15.6076 25.2278 15.4557 25.3318 15.2927C25.4358 15.1222 25.4878 14.8147 25.4878 14.37L25.499 14.0032V10.0903L25.4878 9.65673C25.4878 9.12315 25.4321 8.75631 25.3206 8.55622C25.2166 8.34871 25.0197 8.24496 24.7299 8.24496H24.2172C24.1429 8.24496 24.0872 8.22273 24.05 8.17826C24.0129 8.14121 23.9943 8.08563 23.9943 8.01152C23.9943 7.87071 24.05 7.77437 24.1615 7.7225C24.2729 7.66321 24.5999 7.56687 25.1423 7.43347C26.0711 7.21856 26.8476 6.89619 27.4718 6.46636C27.5238 6.42189 27.5721 6.39966 27.6167 6.39966C27.7059 6.39225 27.7504 6.46265 27.7504 6.61087L27.717 7.16668L27.7059 7.80031L27.7727 8.22273C27.8025 8.31166 27.8508 8.35983 27.9176 8.36724C27.9771 8.37465 28.096 8.2746 28.2743 8.0671C28.9579 7.23709 29.8607 6.82208 30.9827 6.82208C32.1939 6.82208 33.0596 7.18892 33.5797 7.92259C34.0999 8.64885 34.36 9.85312 34.36 11.5354Z" fill="white"/>
<path d="M40.0337 8.21161V13.6364C40.0337 14.2959 40.1302 14.7554 40.3234 15.0148C40.5241 15.2742 40.8733 15.4038 41.3712 15.4038C41.5644 15.4038 41.8207 15.3557 42.1402 15.2593C42.4672 15.163 42.6938 15.0667 42.8201 14.9703C42.9019 14.911 42.9613 14.8814 42.9985 14.8814C43.0876 14.8814 43.1434 14.9555 43.1656 15.1037L43.1879 15.2149L43.0542 15.4038C42.2368 16.1523 41.2894 16.5266 40.212 16.5266C39.3798 16.5266 38.7667 16.3376 38.3729 15.9597C37.9865 15.5817 37.7933 14.9962 37.7933 14.2033V8.21161H37.1134C36.7568 8.21161 36.5784 8.11527 36.5784 7.92259C36.5784 7.80402 36.6713 7.68174 36.8571 7.55575C37.1766 7.34084 37.6336 6.92953 38.228 6.32185C38.8225 5.71415 39.22 5.25098 39.4206 4.93231C39.651 4.56918 39.8219 4.39132 39.9333 4.39873C39.9928 4.40614 40.0262 4.46172 40.0337 4.56547V7.14445H41.6498C41.9396 7.14445 42.1514 7.09628 42.2851 6.99994L42.5749 6.81096C42.6344 6.7665 42.7012 6.74056 42.7755 6.73315C42.9019 6.72574 42.9613 6.78502 42.9539 6.91101C42.9464 6.97771 42.9204 7.05922 42.8759 7.15557C42.8313 7.2445 42.7867 7.40754 42.7421 7.64468C42.6604 8.02264 42.456 8.21161 42.1291 8.21161H40.0337Z" fill="white"/>
<path d="M53.3534 6.95547V13.8476C53.3534 14.559 53.4129 15 53.5318 15.1704C53.6507 15.3334 53.9702 15.415 54.4903 15.415L54.7467 15.4038C54.8358 15.4038 54.9027 15.4113 54.9473 15.4261C55.0736 15.4705 55.1368 15.5521 55.1368 15.6706C55.1368 15.93 54.8841 16.0597 54.3789 16.0597H53.8438C53.5392 16.0597 53.3014 16.0671 53.1305 16.0819C52.6772 16.1116 52.1497 16.2005 51.5478 16.3487C51.4735 16.371 51.4066 16.3821 51.3472 16.3821C51.1837 16.3821 51.102 16.245 51.102 15.9708C51.102 15.8226 51.1094 15.6966 51.1243 15.5928C51.1391 15.4446 51.1465 15.3334 51.1465 15.2593C51.1465 15.037 51.0982 14.9221 51.0017 14.9147C50.9645 14.9147 50.9051 14.9592 50.8233 15.0481L50.4221 15.4594C49.7384 16.1709 48.9174 16.5266 47.9588 16.5266C46.8591 16.5266 46.0306 16.2227 45.4733 15.6151C44.916 15.0074 44.6373 14.1069 44.6373 12.9138C44.6373 11.3353 44.6671 9.96799 44.7265 8.81189C44.7339 8.60439 44.7377 8.42653 44.7377 8.27831C44.7377 7.77437 44.5185 7.50388 44.0801 7.46682L43.6342 7.43347C43.4262 7.41865 43.3296 7.3186 43.3444 7.13333C43.3519 6.99253 43.4633 6.89989 43.6788 6.85543C43.9017 6.80355 44.3253 6.77761 44.9494 6.77761C45.529 6.77761 46.0454 6.7035 46.4987 6.55529C46.6993 6.496 46.8554 6.46636 46.9668 6.46636C47.0932 6.46636 47.1563 6.55158 47.1563 6.72203C47.1563 6.92212 47.1489 7.12592 47.134 7.33343C47.0672 8.11898 47.0337 9.49369 47.0337 11.4576C47.0337 12.9694 47.1712 13.981 47.4461 14.4923C47.721 14.9962 48.2709 15.2482 49.0957 15.2482C49.7422 15.2482 50.24 15.0555 50.5893 14.6702C50.9385 14.2848 51.1131 13.7327 51.1131 13.0138V8.86747C51.1131 8.23755 51.0537 7.85219 50.9348 7.71138C50.8233 7.56316 50.5001 7.45571 49.9651 7.38901C49.7347 7.36678 49.6196 7.27784 49.6196 7.12222C49.6196 6.89248 49.8425 6.77761 50.2883 6.77761C51.5812 6.77761 52.4766 6.68868 52.9745 6.51082C53.0711 6.47377 53.1491 6.45524 53.2085 6.45524C53.3126 6.44783 53.3646 6.52194 53.3646 6.67757L53.3534 6.95547Z" fill="white"/>
<path d="M59.2278 10.635V13.7586C59.2278 14.9296 59.7776 15.5891 60.8773 15.7373C61.1077 15.767 61.2229 15.8559 61.2229 16.0041C61.2229 16.1894 61.1374 16.282 60.9665 16.282C60.8848 16.282 60.7808 16.2709 60.6544 16.2487C59.9114 16.1375 59.146 16.0819 58.3584 16.0819C57.9423 16.0819 57.567 16.0968 57.2326 16.1264L56.5416 16.1931C56.4153 16.2079 56.2852 16.2153 56.1515 16.2153C55.9434 16.2153 55.8394 16.119 55.8394 15.9263C55.8394 15.7929 55.9323 15.704 56.1181 15.6595C56.7051 15.5187 56.9986 14.9666 56.9986 14.0032L56.9874 13.5363V9.55668C56.9874 9.0231 56.9168 8.67109 56.7757 8.50064C56.6419 8.32278 56.3484 8.21532 55.8951 8.17826C55.7242 8.16344 55.6388 8.08563 55.6388 7.94482C55.6388 7.78178 55.7391 7.68544 55.9397 7.6558C56.9577 7.50017 57.8271 7.21485 58.5479 6.79984L58.9825 6.54417C59.042 6.50712 59.0977 6.48859 59.1497 6.48859C59.2612 6.48859 59.3169 6.57011 59.3169 6.73315C59.3169 6.78502 59.3132 6.89248 59.3058 7.05552L59.2723 7.67803L59.2278 8.36724L59.2389 8.48952C59.2686 8.59327 59.3244 8.64885 59.4061 8.65626C59.4804 8.66368 59.6439 8.48581 59.8965 8.12268C60.0971 7.84107 60.4055 7.54093 60.8216 7.22226C61.2452 6.89619 61.535 6.73315 61.691 6.73315C61.9436 6.73315 62.3189 6.92583 62.8167 7.31119C63.322 7.69656 63.5784 7.98558 63.5858 8.17826C63.5858 8.24496 63.4669 8.50434 63.2291 8.9564C62.9245 9.52704 62.657 9.81236 62.4266 9.81236C62.33 9.81236 62.2409 9.7753 62.1591 9.70119L61.847 9.42329C61.4681 9.07498 61.0334 8.90082 60.543 8.90082C59.6662 8.90082 59.2278 9.47887 59.2278 10.635Z" fill="white"/>
<path d="M68.0892 6.81096C69.2409 6.81096 70.2329 7.26302 71.0651 8.16715C71.7636 8.93047 72.1128 9.69378 72.1128 10.4571C72.1128 10.7461 71.9122 10.8906 71.511 10.8906L70.9983 10.8684H70.7419L67.9554 10.9129L66.852 10.924L66.473 10.9129C66.2575 10.9129 66.1201 10.9388 66.0606 10.9907C65.9789 11.0648 65.938 11.2019 65.938 11.402C65.938 12.3802 66.2575 13.2473 66.8966 14.0032C67.543 14.7517 68.2861 15.1259 69.1258 15.1259C70.0694 15.1259 70.8236 14.8554 71.3884 14.3145L71.745 13.9698C71.8045 13.9106 71.8676 13.8809 71.9345 13.8809C72.098 13.8809 72.1797 13.9587 72.1797 14.1144C72.1797 14.3293 71.8936 14.6887 71.3215 15.1926C70.3109 16.0819 69.2261 16.5266 68.0669 16.5266C66.7814 16.5266 65.7337 16.0856 64.9238 15.2038C64.1138 14.3219 63.7089 13.1843 63.7089 11.7911C63.7089 10.4423 64.1398 9.27507 65.0018 8.28943C65.8712 7.30378 66.9003 6.81096 68.0892 6.81096ZM67.7771 7.36678C67.2718 7.36678 66.8297 7.61504 66.4507 8.11157C66.0718 8.60809 65.8823 9.19355 65.8823 9.86794C65.8823 10.0829 65.9343 10.2125 66.0383 10.257C66.1498 10.3015 66.4433 10.3237 66.9189 10.3237C67.1641 10.3237 67.4241 10.3163 67.6991 10.3015C68.3678 10.2718 68.7542 10.257 68.8583 10.257C69.5121 10.257 69.8391 10.0569 69.8391 9.65673C69.8391 9.05645 69.6273 8.52657 69.2038 8.0671C68.7877 7.60022 68.3121 7.36678 67.7771 7.36678Z" fill="white"/>
<path d="M82.5909 0.752589C83.2894 0.752589 83.973 0.885984 84.6417 1.15277L85.3885 1.46403C85.7229 1.59743 85.9606 1.66412 86.1018 1.66412C86.2059 1.66412 86.3136 1.63819 86.4251 1.58631L86.8486 1.3751C86.9081 1.34546 86.9675 1.33064 87.0269 1.33064C87.183 1.33064 87.261 1.45291 87.261 1.69747L87.2387 2.59789C87.2387 2.7387 87.2461 2.87209 87.261 2.99808L87.4059 4.08747L87.5174 5.09905C87.5322 5.18798 87.5396 5.26209 87.5396 5.32138C87.5396 5.64005 87.4468 5.79938 87.261 5.79938C87.1273 5.79938 87.0307 5.65857 86.9712 5.37696C86.7557 4.33944 86.2133 3.44273 85.3439 2.68682C84.4745 1.93091 83.5531 1.55296 82.5797 1.55296C81.911 1.55296 81.3277 1.77899 80.8298 2.23105C80.332 2.68312 80.0831 3.2167 80.0831 3.8318C80.0831 4.40243 80.3023 4.89526 80.7407 5.31026C81.023 5.57705 81.9035 6.01059 83.3822 6.61087C85.1433 7.32972 86.3099 8.03375 86.882 8.72296C87.5582 9.55298 87.8963 10.5534 87.8963 11.7244C87.8963 13.0138 87.4282 14.1366 86.4919 15.0926C85.5557 16.0486 84.4597 16.5266 83.2039 16.5266C82.6912 16.5266 81.8775 16.3524 80.7629 16.0041C80.2428 15.8337 79.8601 15.7225 79.6149 15.6706C79.2731 15.6039 79.0725 15.5409 79.013 15.4817C78.961 15.415 78.9165 15.2223 78.8793 14.9036C78.8421 14.5553 78.7307 14.0514 78.5449 13.3918C78.2626 12.3839 78.1214 11.7392 78.1214 11.4576C78.1214 11.1018 78.2365 10.924 78.4669 10.924C78.5709 10.924 78.6452 11.0129 78.6898 11.1908C79.0539 12.4654 79.6855 13.5363 80.5846 14.4034C81.4837 15.2705 82.4163 15.704 83.3822 15.704C84.1327 15.704 84.8015 15.4187 85.3885 14.848C85.9829 14.27 86.2802 13.6104 86.2802 12.8693C86.2802 12.2839 86.1241 11.8022 85.812 11.4242C85.5074 11.0463 84.9761 10.6905 84.2182 10.3571L82.524 9.60115C80.9264 8.88971 79.8416 8.21902 79.2694 7.5891C78.6972 6.95177 78.4112 6.10693 78.4112 5.05459C78.4112 3.8318 78.8087 2.8091 79.6038 1.9865C80.4063 1.16389 81.402 0.752589 82.5909 0.752589Z" fill="white"/>
<path d="M98.9089 6.95547V13.8476C98.9089 14.559 98.9683 15 99.0872 15.1704C99.2061 15.3334 99.5256 15.415 100.046 15.415L100.302 15.4038C100.391 15.4038 100.458 15.4113 100.503 15.4261C100.629 15.4705 100.692 15.5521 100.692 15.6706C100.692 15.93 100.44 16.0597 99.9343 16.0597H99.3993C99.0947 16.0597 98.8569 16.0671 98.686 16.0819C98.2327 16.1116 97.7051 16.2005 97.1033 16.3487C97.029 16.371 96.9621 16.3821 96.9026 16.3821C96.7392 16.3821 96.6574 16.245 96.6574 15.9708C96.6574 15.8226 96.6649 15.6966 96.6797 15.5928C96.6946 15.4446 96.702 15.3334 96.702 15.2593C96.702 15.037 96.6537 14.9221 96.5571 14.9147C96.52 14.9147 96.4605 14.9592 96.3788 15.0481L95.9775 15.4594C95.2939 16.1709 94.4728 16.5266 93.5143 16.5266C92.4146 16.5266 91.586 16.2227 91.0288 15.6151C90.4715 15.0074 90.1928 14.1069 90.1928 12.9138C90.1928 11.3353 90.2225 9.96799 90.282 8.81189C90.2894 8.60439 90.2931 8.42653 90.2931 8.27831C90.2931 7.77437 90.0739 7.50388 89.6355 7.46682L89.1897 7.43347C88.9816 7.41865 88.885 7.3186 88.8999 7.13333C88.9073 6.99253 89.0188 6.89989 89.2343 6.85543C89.4572 6.80355 89.8807 6.77761 90.5049 6.77761C91.0845 6.77761 91.6009 6.7035 92.0542 6.55529C92.2548 6.496 92.4108 6.46636 92.5223 6.46636C92.6486 6.46636 92.7118 6.55158 92.7118 6.72203C92.7118 6.92212 92.7044 7.12592 92.6895 7.33343C92.6226 8.11898 92.5892 9.49369 92.5892 11.4576C92.5892 12.9694 92.7266 13.981 93.0016 14.4923C93.2765 14.9962 93.8264 15.2482 94.6512 15.2482C95.2976 15.2482 95.7955 15.0555 96.1447 14.6702C96.4939 14.2848 96.6686 13.7327 96.6686 13.0138V8.86747C96.6686 8.23755 96.6091 7.85219 96.4902 7.71138C96.3788 7.56316 96.0555 7.45571 95.5205 7.38901C95.2902 7.36678 95.175 7.27784 95.175 7.12222C95.175 6.89248 95.3979 6.77761 95.8438 6.77761C97.1367 6.77761 98.0321 6.68868 98.5299 6.51082C98.6265 6.47377 98.7046 6.45524 98.764 6.45524C98.868 6.44783 98.92 6.52194 98.92 6.67757L98.9089 6.95547Z" fill="white"/>
<path d="M102.387 17.5159V9.9124L102.409 9.44552L102.353 8.9564C102.242 8.53399 101.945 8.31166 101.462 8.28943C101.38 8.28943 101.302 8.29313 101.228 8.30054L101.127 8.31166C100.979 8.30425 100.904 8.21902 100.904 8.05598C100.904 7.90036 100.979 7.80772 101.127 7.77808L101.651 7.70026C102.602 7.54464 103.319 7.29267 103.802 6.94436C104.166 6.68498 104.382 6.55529 104.449 6.55529C104.553 6.55529 104.612 6.63681 104.627 6.79984L104.638 7.12222V8.01152C104.683 8.16715 104.757 8.24867 104.861 8.25608C104.898 8.25608 104.962 8.22273 105.051 8.15603C105.779 7.59281 106.318 7.22967 106.667 7.06664C107.024 6.9036 107.458 6.82208 107.971 6.82208C109.093 6.82208 110.007 7.21115 110.713 7.98929C111.426 8.76002 111.783 9.75678 111.783 10.9796C111.783 12.7508 111.226 14.1736 110.111 15.2482C109.219 16.1079 108.25 16.5377 107.202 16.5377C106.228 16.5377 105.493 16.4191 104.995 16.182C104.913 16.1449 104.846 16.1264 104.794 16.1264C104.683 16.1264 104.627 16.2635 104.627 16.5377V17.5159C104.627 18.1755 104.742 18.6387 104.973 18.9055C105.21 19.1723 105.649 19.3427 106.288 19.4168C106.57 19.4465 106.711 19.5465 106.711 19.717C106.711 19.9541 106.593 20.0653 106.355 20.0504C106.236 20.043 106.102 20.0208 105.954 19.9838C105.367 19.8429 104.865 19.7725 104.449 19.7725C104.181 19.7725 103.78 19.7911 103.245 19.8281L102.287 19.9059C102.056 19.9208 101.9 19.9282 101.818 19.9282C101.536 19.9282 101.395 19.8244 101.395 19.6169C101.395 19.4835 101.491 19.3835 101.685 19.3168C101.989 19.2056 102.183 19.0463 102.264 18.8388C102.346 18.6313 102.387 18.1903 102.387 17.5159ZM104.627 9.46775V13.792C104.627 14.2737 104.928 14.7258 105.53 15.1482C106.139 15.5706 106.793 15.7818 107.492 15.7818C108.227 15.7818 108.814 15.4891 109.253 14.9036C109.691 14.3182 109.91 13.5363 109.91 12.5581C109.91 11.3649 109.58 10.3571 108.918 9.53445C108.257 8.70443 107.447 8.28943 106.489 8.28943C105.976 8.28943 105.537 8.40429 105.173 8.63403C104.809 8.86377 104.627 9.14167 104.627 9.46775Z" fill="white"/>
<path d="M114.035 17.5159V9.9124L114.057 9.44552L114.001 8.9564C113.89 8.53399 113.593 8.31166 113.11 8.28943C113.028 8.28943 112.95 8.29313 112.876 8.30054L112.775 8.31166C112.627 8.30425 112.552 8.21902 112.552 8.05598C112.552 7.90036 112.627 7.80772 112.775 7.77808L113.299 7.70026C114.25 7.54464 114.967 7.29267 115.45 6.94436C115.814 6.68498 116.03 6.55529 116.097 6.55529C116.201 6.55529 116.26 6.63681 116.275 6.79984L116.286 7.12222V8.01152C116.331 8.16715 116.405 8.24867 116.509 8.25608C116.546 8.25608 116.609 8.22273 116.699 8.15603C117.427 7.59281 117.966 7.22967 118.315 7.06664C118.671 6.9036 119.106 6.82208 119.619 6.82208C120.741 6.82208 121.655 7.21115 122.361 7.98929C123.074 8.76002 123.431 9.75678 123.431 10.9796C123.431 12.7508 122.873 14.1736 121.759 15.2482C120.867 16.1079 119.897 16.5377 118.85 16.5377C117.876 16.5377 117.141 16.4191 116.643 16.182C116.561 16.1449 116.494 16.1264 116.442 16.1264C116.331 16.1264 116.275 16.2635 116.275 16.5377V17.5159C116.275 18.1755 116.39 18.6387 116.621 18.9055C116.858 19.1723 117.297 19.3427 117.936 19.4168C118.218 19.4465 118.359 19.5465 118.359 19.717C118.359 19.9541 118.24 20.0653 118.003 20.0504C117.884 20.043 117.75 20.0208 117.601 19.9838C117.014 19.8429 116.513 19.7725 116.097 19.7725C115.829 19.7725 115.428 19.7911 114.893 19.8281L113.934 19.9059C113.704 19.9208 113.548 19.9282 113.466 19.9282C113.184 19.9282 113.043 19.8244 113.043 19.6169C113.043 19.4835 113.139 19.3835 113.333 19.3168C113.637 19.2056 113.83 19.0463 113.912 18.8388C113.994 18.6313 114.035 18.1903 114.035 17.5159ZM116.275 9.46775V13.792C116.275 14.2737 116.576 14.7258 117.178 15.1482C117.787 15.5706 118.441 15.7818 119.14 15.7818C119.875 15.7818 120.462 15.4891 120.901 14.9036C121.339 14.3182 121.558 13.5363 121.558 12.5581C121.558 11.3649 121.228 10.3571 120.566 9.53445C119.905 8.70443 119.095 8.28943 118.136 8.28943C117.624 8.28943 117.185 8.40429 116.821 8.63403C116.457 8.86377 116.275 9.14167 116.275 9.46775Z" fill="white"/>
<path d="M127.89 3.36491V13.1917L127.901 13.5585C127.901 14.2922 128.005 14.8036 128.213 15.0926C128.421 15.3742 128.83 15.5669 129.439 15.6706C129.632 15.7003 129.743 15.7299 129.773 15.7596C129.81 15.7892 129.829 15.8596 129.829 15.9708C129.829 16.1486 129.755 16.2376 129.606 16.2376C129.524 16.2376 129.394 16.2264 129.216 16.2042C128.621 16.1227 127.89 16.0819 127.02 16.0819C126.054 16.0819 125.374 16.119 124.98 16.1931C124.862 16.2153 124.776 16.2264 124.724 16.2264C124.568 16.2264 124.49 16.1338 124.49 15.9485C124.49 15.8522 124.583 15.767 124.769 15.6929C125.333 15.4631 125.616 14.9777 125.616 14.2366L125.638 13.5919L125.649 13.2918V4.32091C125.649 3.36491 125.567 2.71276 125.404 2.36445C125.248 2.01614 124.954 1.84198 124.523 1.84198C124.308 1.84198 124.2 1.74564 124.2 1.55296C124.2 1.4418 124.241 1.36769 124.323 1.33064C124.405 1.28617 124.628 1.22688 124.992 1.15277C125.935 0.952682 126.693 0.682186 127.265 0.341286L127.644 0.118961C127.711 0.0819065 127.778 0.059674 127.845 0.0522631C127.956 0.0448522 128.012 0.118961 128.012 0.274589C128.012 0.356108 128.005 0.541379 127.99 0.830403C127.923 1.83087 127.89 2.67571 127.89 3.36491Z" fill="white"/>
<path d="M132.549 1.2417C132.705 1.2417 132.984 1.49367 133.385 1.99761L133.853 2.59789C133.964 2.7387 134.024 2.86839 134.031 2.98696C134.039 3.16482 133.834 3.50202 133.418 3.99854C133.002 4.49507 132.716 4.74333 132.56 4.74333C132.456 4.74333 132.356 4.69887 132.259 4.60994L131.735 3.97631L131.245 3.4205C131.119 3.26487 131.055 3.13888 131.055 3.04254C131.055 2.89433 131.275 2.55713 131.713 2.03096C132.151 1.50479 132.43 1.2417 132.549 1.2417ZM133.753 7.31119V13.6141C133.753 14.37 133.864 14.8962 134.087 15.1926C134.317 15.4891 134.741 15.6558 135.358 15.6929C135.603 15.7077 135.726 15.7929 135.726 15.9485C135.726 16.1412 135.432 16.2376 134.845 16.2376C134.771 16.2376 134.611 16.2264 134.366 16.2042L133.53 16.1153C133.069 16.0708 132.764 16.0486 132.616 16.0486C132.222 16.0486 131.691 16.1005 131.022 16.2042C130.858 16.2339 130.732 16.2487 130.643 16.2487C130.487 16.2487 130.409 16.1783 130.409 16.0375C130.409 15.9411 130.457 15.867 130.554 15.8151L130.933 15.6262C131.096 15.5447 131.234 15.352 131.345 15.0481C131.464 14.7443 131.524 14.4256 131.524 14.0921L131.512 13.6252V9.85682C131.512 9.27878 131.449 8.87859 131.323 8.65626C131.204 8.43394 130.985 8.32278 130.665 8.32278H130.409C130.268 8.32278 130.171 8.29313 130.119 8.23385C130.097 8.2042 130.086 8.15233 130.086 8.07822C130.086 7.89295 130.312 7.75214 130.766 7.6558C131.895 7.41865 132.783 7.05922 133.429 6.57752C133.511 6.52564 133.574 6.49971 133.619 6.49971C133.723 6.50712 133.775 6.57752 133.775 6.71091L133.764 6.81096C133.756 6.87766 133.753 7.0444 133.753 7.31119Z" fill="white"/>
<path d="M140.34 6.81096C141.492 6.81096 142.484 7.26302 143.316 8.16715C144.015 8.93047 144.364 9.69378 144.364 10.4571C144.364 10.7461 144.163 10.8906 143.762 10.8906L143.249 10.8684H142.993L140.207 10.9129L139.103 10.924L138.724 10.9129C138.509 10.9129 138.371 10.9388 138.312 10.9907C138.23 11.0648 138.189 11.2019 138.189 11.402C138.189 12.3802 138.509 13.2473 139.148 14.0032C139.794 14.7517 140.537 15.1259 141.377 15.1259C142.321 15.1259 143.075 14.8554 143.64 14.3145L143.996 13.9698C144.056 13.9106 144.119 13.8809 144.186 13.8809C144.349 13.8809 144.431 13.9587 144.431 14.1144C144.431 14.3293 144.145 14.6887 143.573 15.1926C142.562 16.0819 141.477 16.5266 140.318 16.5266C139.033 16.5266 137.985 16.0856 137.175 15.2038C136.365 14.3219 135.96 13.1843 135.96 11.7911C135.96 10.4423 136.391 9.27507 137.253 8.28943C138.122 7.30378 139.151 6.81096 140.34 6.81096ZM140.028 7.36678C139.523 7.36678 139.081 7.61504 138.702 8.11157C138.323 8.60809 138.133 9.19355 138.133 9.86794C138.133 10.0829 138.186 10.2125 138.29 10.257C138.401 10.3015 138.695 10.3237 139.17 10.3237C139.415 10.3237 139.675 10.3163 139.95 10.3015C140.619 10.2718 141.005 10.257 141.109 10.257C141.763 10.257 142.09 10.0569 142.09 9.65673C142.09 9.05645 141.879 8.52657 141.455 8.0671C141.039 7.60022 140.563 7.36678 140.028 7.36678Z" fill="white"/>
<path d="M148.778 6.82208C149.284 6.82208 149.837 6.9073 150.439 7.07775C150.744 7.16668 150.907 7.31119 150.929 7.51129L150.952 8.0004L151.007 8.70073L151.03 9.07868C151.045 9.13056 151.052 9.17502 151.052 9.21208C151.052 9.35288 150.974 9.42329 150.818 9.42329C150.699 9.42329 150.506 9.17873 150.238 8.68961C149.711 7.74102 149.046 7.26673 148.243 7.26673C147.842 7.26673 147.496 7.39271 147.207 7.64468C146.917 7.89665 146.772 8.19309 146.772 8.53399C146.772 9.1565 147.207 9.64932 148.076 10.0125L148.845 10.3237C149.499 10.5979 149.945 10.8128 150.183 10.9685C150.42 11.1167 150.647 11.3316 150.863 11.6132C151.227 12.0949 151.409 12.6878 151.409 13.3918C151.409 14.2663 151.115 15.0074 150.528 15.6151C149.941 16.2227 149.224 16.5266 148.377 16.5266C147.916 16.5266 147.355 16.4488 146.694 16.2931L145.925 16.1042L145.423 16.0264C145.26 15.9967 145.178 15.893 145.178 15.7151C145.178 15.6558 145.182 15.5632 145.189 15.4372C145.204 15.3112 145.212 15.1667 145.212 15.0037L145.178 13.792L145.167 13.2473C145.167 13.0768 145.182 12.9731 145.212 12.936C145.249 12.8916 145.338 12.8693 145.479 12.8693C145.598 12.8693 145.68 12.9694 145.724 13.1695C145.813 13.6364 146.059 14.1959 146.46 14.848C146.943 15.6188 147.578 16.0041 148.366 16.0041C148.812 16.0041 149.183 15.867 149.48 15.5928C149.778 15.3112 149.926 14.9592 149.926 14.5368C149.926 14.0699 149.781 13.6993 149.492 13.4251C149.209 13.1509 148.667 12.8545 147.864 12.5358C146.906 12.1653 146.241 11.7725 145.869 11.3575C145.498 10.9351 145.312 10.3682 145.312 9.65673C145.312 8.78966 145.624 8.10045 146.248 7.5891C146.872 7.07775 147.716 6.82208 148.778 6.82208Z" fill="white"/>
</svg>
