<svg width="36" height="36" viewBox="0 0 36 36" fill="none" xmlns="http://www.w3.org/2000/svg">
<path fill-rule="evenodd" clip-rule="evenodd" d="M8.02111 28.2097C9.38612 32.4738 13.3823 35.561 18.0996 35.561C22.8275 35.561 26.8311 32.46 28.1873 28.1809C32.4663 26.8247 35.5674 22.8211 35.5674 18.0932C35.5674 13.376 32.4802 9.37975 28.216 8.01474C26.8884 3.68813 22.8613 0.54248 18.0996 0.54248C13.3485 0.54248 9.32884 3.67409 7.99215 7.98577C3.68046 9.32245 0.548828 13.3421 0.548828 18.0932C0.548828 22.855 3.69449 26.882 8.02111 28.2097ZM19.186 19.1797C18.8307 19.2272 18.468 19.2517 18.0996 19.2517C17.702 19.2517 17.311 19.2231 16.9286 19.168C16.8821 18.8163 16.8582 18.4576 16.8582 18.0932C16.8582 17.6996 16.8862 17.3125 16.9402 16.9339C17.3189 16.8798 17.706 16.8518 18.0996 16.8518C18.4639 16.8518 18.8227 16.8758 19.1743 16.9222C19.2295 17.3046 19.258 17.6956 19.258 18.0932C19.258 18.4616 19.2335 18.8243 19.186 19.1797ZM18.4169 21.6983C18.3115 21.7014 18.2058 21.703 18.0996 21.703C17.9651 21.703 17.8312 21.7005 17.6979 21.6955C17.8082 21.9183 17.9285 22.1354 18.0581 22.3461C18.1872 22.1363 18.307 21.9202 18.4169 21.6983ZM19.7133 24.2794C20.3753 23.3624 20.894 22.335 21.2365 21.2302C22.3414 20.8877 23.3688 20.369 24.2858 19.707C25.4972 21.1266 26.2286 22.9683 26.2286 24.9808C26.2286 25.3744 26.2006 25.7615 26.1465 26.1401C25.7678 26.1942 25.3808 26.2222 24.9871 26.2222C22.9746 26.2222 21.1329 25.4909 19.7133 24.2794ZM16.4029 24.2794C15.7351 23.3544 15.2131 22.3171 14.8707 21.2012C13.8008 20.8587 12.805 20.3506 11.9134 19.707C10.702 21.1266 9.97066 22.9683 9.97066 24.9808C9.97066 25.3784 9.99921 25.7694 10.0544 26.1518C10.406 26.1982 10.7647 26.2222 11.1291 26.2222C13.1416 26.2222 14.9833 25.4909 16.4029 24.2794ZM10.8541 28.67C10.9455 28.6723 11.0371 28.6735 11.1291 28.6735C13.7792 28.6735 16.2018 27.6991 18.0581 26.0891C19.9144 27.6991 22.337 28.6735 24.9871 28.6735C25.1074 28.6735 25.2271 28.6715 25.3464 28.6675C24.0024 31.3041 21.2619 33.1097 18.0996 33.1097C14.9383 33.1097 12.1985 31.3052 10.8541 28.67ZM7.52685 25.3825C7.52187 25.2492 7.51936 25.1153 7.51936 24.9808C7.51936 22.3306 8.49372 19.9081 10.1038 18.0518C8.49372 16.1954 7.51936 13.7729 7.51936 11.1227C7.51936 11.0166 7.52093 10.9108 7.52403 10.8054C4.84317 12.1341 3.00013 14.8984 3.00013 18.0932C3.00013 21.2892 4.84446 24.0544 7.52685 25.3825ZM10.0426 10.0363C9.99517 10.3917 9.97066 10.7543 9.97066 11.1227C9.97066 13.1352 10.702 14.9769 11.9134 16.3966C12.8129 15.7472 13.8186 15.2357 14.8995 14.8931C15.242 13.8123 15.7535 12.8066 16.4029 11.907C14.9833 10.6956 13.1416 9.9643 11.1291 9.9643C10.7607 9.9643 10.398 9.9888 10.0426 10.0363ZM18.0581 13.8404C17.9449 14.0244 17.8389 14.2132 17.7403 14.4065C17.8596 14.4025 17.9794 14.4005 18.0996 14.4005C18.1916 14.4005 18.2832 14.4017 18.3746 14.404C18.2764 14.2116 18.1708 14.0236 18.0581 13.8404ZM19.7133 11.907C20.3569 12.7986 20.8651 13.7944 21.2076 14.8644C22.3234 15.2068 23.3608 15.7287 24.2858 16.3966C25.4972 14.9769 26.2286 13.1352 26.2286 11.1227C26.2286 10.7584 26.2046 10.3997 26.1581 10.048C25.7758 9.99285 25.3848 9.9643 24.9871 9.9643C22.9746 9.9643 21.1329 10.6956 19.7133 11.907ZM21.7018 17.6915C21.9247 17.8019 22.1418 17.9221 22.3525 18.0518C22.1427 18.1808 21.9265 18.3006 21.7046 18.4106C21.7078 18.3052 21.7093 18.1994 21.7093 18.0932C21.7093 17.9587 21.7068 17.8248 21.7018 17.6915ZM18.0581 10.0974C19.9144 8.48736 22.337 7.513 24.9871 7.513C25.1216 7.513 25.2556 7.51551 25.3888 7.52048C24.0607 4.8381 21.2955 2.99378 18.0996 2.99378C14.9048 2.99378 12.1404 4.83681 10.8118 7.51766C10.9172 7.51456 11.0229 7.513 11.1291 7.513C13.7792 7.513 16.2018 8.48736 18.0581 10.0974ZM14.4069 18.0932C14.4069 18.1852 14.4081 18.2769 14.4104 18.3683C14.2179 18.2701 14.0299 18.1644 13.8467 18.0518C14.0307 17.9386 14.2196 17.8325 14.4129 17.734C14.4089 17.8533 14.4069 17.973 14.4069 18.0932ZM28.6799 11.1227C28.6799 11.0308 28.6787 10.9391 28.6763 10.8477C31.3115 12.1922 33.1161 14.932 33.1161 18.0932C33.1161 21.2555 31.3104 23.996 28.6739 25.34C28.6778 25.2208 28.6799 25.101 28.6799 24.9808C28.6799 22.3306 27.7055 19.9081 26.0955 18.0518C27.7055 16.1954 28.6799 13.7729 28.6799 11.1227Z" fill="white"/>
</svg>
