<svg width="125" height="27" viewBox="0 0 125 27" fill="none" xmlns="http://www.w3.org/2000/svg">
<path fill-rule="evenodd" clip-rule="evenodd" d="M22.5279 13.6536L13.4214 22.9624L4.31494 13.6536L13.4214 4.3447L22.5279 13.6536ZM13.4214 0.67334L26.1195 13.6536L13.4214 26.6338L0.723389 13.6536L13.4214 0.67334Z" fill="white"/>
<path fill-rule="evenodd" clip-rule="evenodd" d="M16.1789 13.6536L13.4214 10.8348L10.664 13.6536L13.4214 16.4723L16.1789 13.6536ZM13.4214 7.16345L7.07241 13.6536L13.4214 20.1437L19.7705 13.6536L13.4214 7.16345Z" fill="white"/>
<path d="M6.64893 13.6552L13.4212 20.1453L20.1935 13.6552L13.4212 7.16504L6.64893 13.6552Z" fill="white"/>
<path d="M18.2693 13.9365L13.4216 18.7842L8.57397 13.9365L13.4216 9.08887L18.2693 13.9365Z" stroke="#1D1D1B" stroke-opacity="0.2" stroke-width="2.32206"/>
<path d="M39.8852 5.96121C38.2418 5.32913 36.6887 5.01309 35.2259 5.01309C33.7811 5.01309 32.6524 5.3201 31.8397 5.93412C31.027 6.54814 30.6207 7.39693 30.6207 8.4805C30.6207 9.79884 31.307 10.8192 32.6795 11.5416C33.2935 11.8486 33.9617 12.1375 34.6841 12.4084C35.4245 12.6613 36.1649 12.9502 36.9054 13.2753C37.6458 13.6004 38.323 13.9706 38.9371 14.3859C39.5511 14.8013 40.0477 15.3792 40.427 16.1196C40.8062 16.842 40.9958 17.7721 40.9958 18.9098C40.9958 20.0295 40.6798 20.9867 40.0477 21.7813C39.4156 22.5759 38.6481 23.1177 37.7451 23.4066C36.8602 23.6775 35.8218 23.813 34.6299 23.813C32.4086 23.813 30.5123 23.2622 28.9412 22.1605L29.0766 21.9438C29.6726 22.4134 30.4401 22.8016 31.3792 23.1087C32.3363 23.3976 33.3115 23.5421 34.3048 23.5421C35.7676 23.5421 37.0137 23.208 38.0431 22.5398C39.0906 21.8535 39.6143 20.8512 39.6143 19.5329C39.6143 18.0881 38.928 16.9594 37.5555 16.1467C36.9415 15.7855 36.2643 15.4514 35.5238 15.1444C34.8015 14.8374 34.07 14.5214 33.3296 14.1963C32.5892 13.8532 31.9119 13.4739 31.2979 13.0586C29.9254 12.1556 29.2391 10.8734 29.2391 9.21191C29.2391 7.89357 29.6816 6.82806 30.5665 6.01539C31.4514 5.18465 32.7788 4.76928 34.5486 4.76928C36.3365 4.76928 38.1515 5.0763 39.9935 5.69032L39.8852 5.96121Z" fill="white"/>
<path d="M41.5281 10.458V10.2413H42.097V7.53238H43.9932V10.2413H48.1379V10.458H43.9932V20.3185C43.9932 21.4923 44.1196 22.3411 44.3725 22.8649C44.6434 23.3886 45.1942 23.6504 46.0249 23.6504C46.8737 23.6504 47.7315 23.4789 48.5984 23.1357L48.6796 23.3525C47.7767 23.6956 46.7383 23.8672 45.5644 23.8672C44.4086 23.8672 43.5417 23.6324 42.9638 23.1628C42.3859 22.6752 42.097 21.7181 42.097 20.2914V10.458H41.5281Z" fill="white"/>
<path d="M50.3784 17.1761C50.3784 19.4155 50.7667 21.0589 51.5433 22.1064C52.3379 23.1538 53.3763 23.6775 54.6585 23.6775C56.4645 23.6775 58.0718 23.4066 59.4804 22.8649L59.5617 23.0545C58.1169 23.6143 56.4825 23.8942 54.6585 23.8942C52.8526 23.8942 51.3807 23.3525 50.243 22.2689C49.1052 21.1853 48.5364 19.5148 48.5364 17.2574C48.5364 15 49.1323 13.2482 50.3243 12.0021C51.5162 10.756 53.0332 10.1329 54.8752 10.1329C56.3561 10.1329 57.6022 10.5754 58.6135 11.4603C59.6249 12.3452 60.1305 13.6545 60.1305 15.3882C60.1305 15.4785 60.1305 15.5688 60.1305 15.6591H50.4597C50.4055 16.1467 50.3784 16.6524 50.3784 17.1761ZM58.2885 15.4424C58.2704 13.7087 57.9363 12.4265 57.2862 11.5958C56.636 10.765 55.7963 10.3497 54.7669 10.3497C53.7375 10.3497 52.8165 10.8011 52.0038 11.7041C51.2092 12.6071 50.7035 13.8532 50.4868 15.4424H58.2885Z" fill="white"/>
<path d="M64.1404 23.7859C62.5511 23.7859 61.5488 23.3705 61.1335 22.5398C61.0432 22.3592 60.998 22.1967 60.998 22.0522V3.49609H62.8943V21.8626C62.8943 22.3863 62.9936 22.7926 63.1922 23.0816C63.409 23.3525 63.6257 23.4969 63.8424 23.515L64.1404 23.5692H64.9801V23.7859H64.1404Z" fill="white"/>
<path d="M69.1085 23.7859C67.5193 23.7859 66.517 23.3705 66.1016 22.5398C66.0113 22.3592 65.9661 22.1967 65.9661 22.0522V3.49609H67.8624V21.8626C67.8624 22.3863 67.9617 22.7926 68.1604 23.0816C68.3771 23.3525 68.5938 23.4969 68.8105 23.515L69.1085 23.5692H69.9482V23.7859H69.1085Z" fill="white"/>
<path d="M81.295 23.7859C80.067 23.7859 79.2272 23.5511 78.7757 23.0816C78.3604 22.6843 78.1527 22.3411 78.1527 22.0522V21.4833C77.2678 23.0906 75.8501 23.8942 73.8997 23.8942C71.6242 23.8942 70.3329 22.8649 70.0259 20.8061C69.9898 20.5894 69.9717 20.3726 69.9717 20.1559C69.9717 19.9212 70.0079 19.6683 70.0801 19.3974C70.1523 19.1265 70.36 18.8286 70.7031 18.5035C71.3894 17.8534 72.8974 17.456 75.227 17.3116C75.8049 17.2574 76.3377 17.2303 76.8253 17.2303C77.3129 17.2303 77.7554 17.2484 78.1527 17.2845V12.7877C78.1166 12.7696 78.1166 12.6884 78.1527 12.5439C78.1888 12.3813 78.1527 12.1827 78.0443 11.9479C77.954 11.6951 77.8276 11.4513 77.6651 11.2165C77.5025 10.9817 77.2136 10.7831 76.7982 10.6205C76.3828 10.44 75.8411 10.3497 75.1729 10.3497C74.5047 10.3497 73.7191 10.4761 72.8161 10.7289C71.9312 10.9637 71.281 11.1984 70.8657 11.4332L70.7573 11.2436C72.3646 10.5032 73.999 10.1329 75.6605 10.1329C77.5206 10.1329 78.7486 10.467 79.3446 11.1352C79.8141 11.659 80.0489 12.2098 80.0489 12.7877V21.8626C80.0489 22.3863 80.1482 22.7926 80.3469 23.0816C80.5636 23.3525 80.7803 23.4969 80.997 23.515L81.295 23.5692H82.1348V23.7859H81.295ZM74.3331 23.6775C75.2902 23.6775 76.1481 23.3525 76.9066 22.7023C77.6831 22.0341 78.0985 21.393 78.1527 20.779V17.5012C77.6651 17.4651 77.1684 17.447 76.6628 17.447C76.1752 17.447 75.6876 17.4741 75.2 17.5283C73.8274 17.6908 72.9335 17.9978 72.5181 18.4493C72.1028 18.9008 71.8951 19.5239 71.8951 20.3185C71.8951 20.4629 71.9041 20.6255 71.9222 20.8061C72.0847 22.7204 72.8883 23.6775 74.3331 23.6775Z" fill="white"/>
<path d="M87.4449 11.4061V10.8373C86.6322 11.1623 85.8918 11.8215 85.2236 12.8148C84.5554 13.79 84.2032 14.711 84.1671 15.5779V23.7859H82.2709V10.2413H84.1671V14.5485C84.4561 13.501 85.0069 12.5168 85.8195 11.5958C86.6322 10.6567 87.5532 10.1691 88.5826 10.1329H88.691C89.0522 10.1329 89.3502 10.2594 89.5849 10.5122C89.8378 10.747 89.9642 11.0449 89.9642 11.4061C89.9642 11.7673 89.8378 12.0653 89.5849 12.3001C89.3502 12.5348 89.0522 12.6522 88.691 12.6522C88.3298 12.6522 88.0318 12.5348 87.7971 12.3001C87.5623 12.0653 87.4449 11.7673 87.4449 11.4061Z" fill="white"/>
<path d="M91.4642 5.04018C93.5591 4.8957 95.4012 4.82346 96.9904 4.82346C101.469 4.82346 103.709 6.40366 103.709 9.56407C103.709 11.0269 103.329 12.3091 102.571 13.4107C102.174 14.0067 101.559 14.4853 100.729 14.8465C99.898 15.1896 98.8957 15.3612 97.7218 15.3612H93.7126V23.7859H91.4642V5.04018ZM97.0175 5.09435C95.9701 5.09435 94.8685 5.15756 93.7126 5.28398V15.0903H97.7218C100.268 14.9819 101.541 13.1579 101.541 9.61825C101.541 8.17349 101.162 7.06283 100.404 6.28628C99.6452 5.49166 98.5165 5.09435 97.0175 5.09435Z" fill="white"/>
<path d="M109.709 11.4061V10.8373C108.896 11.1623 108.156 11.8215 107.487 12.8148C106.819 13.79 106.467 14.711 106.431 15.5779V23.7859H104.535V10.2413H106.431V14.5485C106.72 13.501 107.271 12.5168 108.083 11.5958C108.896 10.6567 109.817 10.1691 110.847 10.1329H110.955C111.316 10.1329 111.614 10.2594 111.849 10.5122C112.102 10.747 112.228 11.0449 112.228 11.4061C112.228 11.7673 112.102 12.0653 111.849 12.3001C111.614 12.5348 111.316 12.6522 110.955 12.6522C110.594 12.6522 110.296 12.5348 110.061 12.3001C109.826 12.0653 109.709 11.7673 109.709 11.4061Z" fill="white"/>
<path d="M118.251 23.8942C116.355 23.8942 114.811 23.3525 113.619 22.2689C112.427 21.1853 111.831 19.5148 111.831 17.2574C111.831 15 112.445 13.2482 113.673 12.0021C114.919 10.756 116.49 10.1329 118.386 10.1329C120.301 10.1329 121.854 10.6747 123.046 11.7583C124.238 12.8419 124.834 14.5124 124.834 16.7698C124.834 19.0272 124.211 20.779 122.965 22.0251C121.736 23.2712 120.165 23.8942 118.251 23.8942ZM118.441 10.3497C117.068 10.3497 115.93 10.9637 115.027 12.1917C114.124 13.4017 113.673 15.0993 113.673 17.2845C113.673 19.4516 114.088 21.0589 114.919 22.1064C115.75 23.1538 116.851 23.6775 118.224 23.6775C119.596 23.6775 120.734 23.0725 121.637 21.8626C122.54 20.6345 122.992 18.9369 122.992 16.7698C122.992 14.5846 122.576 12.9683 121.745 11.9208C120.915 10.8734 119.813 10.3497 118.441 10.3497Z" fill="white"/>
</svg>
