<svg width="70" height="70" viewBox="0 0 70 70" fill="none" xmlns="http://www.w3.org/2000/svg">
<path d="M70 46.2V23.8C70 22.6861 69.5575 21.6178 68.7698 20.8302C67.9822 20.0425 66.9139 19.6 65.8 19.6H50.4V4.2C50.4 3.08609 49.9575 2.0178 49.1698 1.23015C48.3822 0.442499 47.3139 0 46.2 0L4.2 0C3.08609 0 2.0178 0.442499 1.23015 1.23015C0.442499 2.0178 0 3.08609 0 4.2L0 46.2C0 47.3139 0.442499 48.3822 1.23015 49.1698C2.0178 49.9575 3.08609 50.4 4.2 50.4H19.6V65.8C19.6 66.9139 20.0425 67.9822 20.8302 68.7698C21.6178 69.5575 22.6861 70 23.8 70H65.8C66.9139 70 67.9822 69.5575 68.7698 68.7698C69.5575 67.9822 70 66.9139 70 65.8V46.2ZM47.95 61.6L36.75 50.4H44.45L55.65 61.6H47.95ZM50.4 44.45V36.75L61.6 47.95V55.65L50.4 44.45ZM61.6 36.05L53.55 28H61.6V36.05ZM8.4 8.4H42V26.6V42H8.4V8.4ZM28 53.55L36.05 61.6H28V53.55Z" fill="white"/>
</svg>
