<?xml version="1.0" standalone="no"?>
<!DOCTYPE svg PUBLIC "-//W3C//DTD SVG 1.1//EN" "http://www.w3.org/Graphics/SVG/1.1/DTD/svg11.dtd" >
<svg xmlns="http://www.w3.org/2000/svg" xmlns:xlink="http://www.w3.org/1999/xlink" version="1.1">
<metadata>
Created by FontForge 20190801 at Sat Jul 17 08:37:58 2021
 By www-data
Copyright 2017-2021 Indian Type Foundry. All rights reserved.
</metadata>
<defs>
<font id="SatoshiMedium" horiz-adv-x="660" >
  <font-face 
    font-family="SatoshiMedium"
    font-weight="500"
    font-stretch="normal"
    units-per-em="1000"
    panose-1="0 0 0 0 0 0 0 0 0 0"
    ascent="800"
    descent="-200"
    x-height="489"
    cap-height="723"
    bbox="-204 -233 1607 1056"
    underline-thickness="80"
    underline-position="-235"
    unicode-range="U+0020-FB04"
  />
<missing-glyph horiz-adv-x="500" 
d="M50 -219v1083h400v-1083h-400zM100 -169h300v983h-300v-983z" />
    <glyph glyph-name="f_f" unicode="ff" horiz-adv-x="627" 
d="M16 489h72v78q0 86 42 127.5t113 41.5q33 0 57 -4v-81h-42q-43 0 -59.5 -20.5t-16.5 -63.5v-78h217v78q0 86 41.5 127.5t112.5 41.5q34 0 58 -4v-81h-42q-43 0 -60 -20.5t-17 -63.5v-78h116v-79h-116v-410h-93v410h-217v-410h-94v410h-72v79z" />
    <glyph glyph-name="fi" unicode="fi" horiz-adv-x="559" 
d="M399 0v410h-217v-410h-94v410h-72v79h72v78q0 86 41 127.5t109 41.5q34 0 58 -4v-81h-42q-41 0 -56.5 -20.5t-15.5 -63.5v-78h311v-489h-94zM446 609q-26 0 -43 17.5t-17 42.5t17 42.5t43 17.5q25 0 42 -17.5t17 -42.5t-17 -42.5t-42 -17.5z" />
    <glyph glyph-name="fl" unicode="fl" horiz-adv-x="554" 
d="M484 0h-93v410h-209v-410h-94v410h-72v79h72v78q0 86 40.5 127.5t108.5 41.5q33 0 58 -4v-81h-42q-41 0 -56 -20.5t-15 -63.5v-78h209v247h93v-736z" />
    <glyph glyph-name="f_f_i" unicode="ffi" horiz-adv-x="869" 
d="M16 489h72v78q0 86 42 127.5t113 41.5q33 0 57 -4v-81h-42q-43 0 -59.5 -20.5t-16.5 -63.5v-78h217v78q0 86 41 127.5t109 41.5q33 0 58 -4v-81h-42q-41 0 -57 -21t-16 -63v-78h311v-489h-93v410h-218v-410h-93v410h-217v-410h-94v410h-72v79zM756 616q-25 0 -42 17
t-17 43q0 25 17 42.5t42 17.5t42.5 -17.5t17.5 -42.5q0 -26 -17 -43t-43 -17z" />
    <glyph glyph-name="f_f_l" unicode="ffl" horiz-adv-x="865" 
d="M16 489h72v78q0 86 42 127.5t113 41.5q33 0 57 -4v-81h-42q-43 0 -59.5 -20.5t-16.5 -63.5v-78h217v78q0 86 41.5 127.5t112.5 41.5q34 0 58 -4v-81h-42q-43 0 -60 -20.5t-17 -63.5v-78h209v247h94v-736h-94v410h-209v-410h-93v410h-217v-410h-94v410h-72v79z" />
    <glyph glyph-name="f_t" unicode="ft" horiz-adv-x="617" 
d="M16 489h72v78q0 86 41 127.5t109 41.5q34 0 58 -4v-81h-42q-41 0 -56.5 -20.5t-15.5 -63.5v-78h229v153h94v-153h96v-79h-96v-410h-94v410h-229v-410h-94v410h-72v79z" />
    <glyph glyph-name=".notdef" horiz-adv-x="500" 
d="M50 -219v1083h400v-1083h-400zM100 -169h300v983h-300v-983z" />
    <glyph glyph-name=".null" horiz-adv-x="0" 
 />
    <glyph glyph-name="nonmarkingreturn" horiz-adv-x="333" 
 />
    <glyph glyph-name="space" unicode=" " horiz-adv-x="273" 
 />
    <glyph glyph-name="exclam" unicode="!" horiz-adv-x="294" 
d="M183 217h-73q-17 128 -17 338v168h108v-168q0 -205 -18 -338zM147 -14q-30 0 -51 21t-21 50t21 50t51 21q29 0 50 -21t21 -50t-21 -50t-50 -21z" />
    <glyph glyph-name="quotedbl" unicode="&#x22;" horiz-adv-x="372" 
d="M156 662l-24 -207h-54l-26 207q-4 31 12.5 47.5t41.5 16.5q22 0 38 -16.5t12 -47.5zM320 662l-24 -207h-54l-26 207q-4 31 12.5 47.5t41.5 16.5q22 0 38 -16.5t12 -47.5z" />
    <glyph glyph-name="numbersign" unicode="#" horiz-adv-x="696" 
d="M62 289h100l28 145h-116l18 88h116l39 201h93l-39 -201h153l39 201h94l-39 -201h103l-17 -88h-104l-28 -145h112l-17 -88h-113l-39 -201h-93l39 201h-154l-39 -201h-93l39 201h-100zM255 289h153l29 145h-154z" />
    <glyph glyph-name="dollar" unicode="$" horiz-adv-x="577" 
d="M257 -97v86q-100 6 -160.5 59.5t-64.5 140.5h100q1 -48 34.5 -78t90.5 -36v249l-36 8q-179 41 -179 196q0 85 58.5 141.5t156.5 64.5v87h64v-86q91 -8 145.5 -61t59.5 -140h-97q-3 48 -31 77.5t-77 36.5v-248l39 -9q178 -40 178 -190q0 -89 -58.5 -145.5t-158.5 -65.5
v-87h-64zM241 419l16 -4v233q-56 -8 -87.5 -38.5t-31.5 -78.5q0 -87 103 -112zM340 304l-19 4v-231q56 8 88.5 38.5t32.5 77.5q0 87 -102 111z" />
    <glyph glyph-name="percent" unicode="%" horiz-adv-x="932" 
d="M407 552q0 -80 -51.5 -132t-131.5 -52q-79 0 -130.5 52t-51.5 132q0 81 51 133t131 52t131.5 -52t51.5 -133zM788 722l-549 -722h-96l549 722h96zM330 552q0 49 -29.5 79.5t-76.5 30.5t-76 -30.5t-29 -79.5q0 -48 29.5 -78.5t75.5 -30.5q47 0 76.5 30.5t29.5 78.5z
M891 171q0 -80 -51.5 -132t-131.5 -52t-131.5 52t-51.5 132q0 81 51.5 132.5t131.5 51.5t131.5 -51.5t51.5 -132.5zM813 171q0 49 -29 79.5t-76 30.5t-76 -30.5t-29 -79.5q0 -48 29.5 -78.5t75.5 -30.5t75.5 30.5t29.5 78.5z" />
    <glyph glyph-name="ampersand" unicode="&#x26;" horiz-adv-x="707" 
d="M584 0l-57 65q-87 -78 -224 -78q-116 0 -186.5 55t-70.5 146q0 131 177 222q-47 54 -66 91.5t-19 77.5q0 68 48.5 112t124.5 44q74 0 120.5 -41.5t46.5 -108.5q0 -54 -30.5 -99t-99.5 -92l173 -197q25 61 25 141h91q0 -122 -55 -210l112 -128h-110zM227 580
q0 -28 15.5 -56t57.5 -76q90 55 90 135q0 35 -21.5 55.5t-58.5 20.5q-38 0 -60.5 -21.5t-22.5 -57.5zM144 195q0 -59 44.5 -93t123.5 -34q100 0 161 59l-203 230q-67 -37 -96.5 -75t-29.5 -87z" />
    <glyph glyph-name="quotesingle" unicode="'" horiz-adv-x="208" 
d="M156 662l-24 -207h-54l-26 207q-4 31 12.5 47.5t41.5 16.5q22 0 38 -16.5t12 -47.5z" />
    <glyph glyph-name="parenleft" unicode="(" horiz-adv-x="279" 
d="M279 -173h-78q-70 88 -111.5 212.5t-41.5 257.5q0 129 40 254t113 215h78q-61 -85 -98 -209t-37 -260q0 -133 35.5 -257.5t99.5 -212.5z" />
    <glyph glyph-name="parenright" unicode=")" horiz-adv-x="279" 
d="M79 -173h-79q64 88 99.5 212.5t35.5 257.5q0 137 -36.5 260.5t-98.5 208.5h79q72 -90 112 -215t40 -254q0 -133 -41 -257.5t-111 -212.5z" />
    <glyph glyph-name="asterisk" unicode="*" horiz-adv-x="411" 
d="M92 567l-65 23l20 52l62 -21q43 -14 77 -37q-9 37 -9 84v69h56v-69q0 -43 -9 -84q40 25 76 37l63 22l21 -53l-66 -23q-36 -13 -82 -19q32 -27 55 -64l39 -56l-46 -32l-39 55q-24 34 -41 74q-13 -39 -39 -74l-40 -55l-47 32l39 56q24 35 57 64q-49 7 -82 19z" />
    <glyph glyph-name="plus" unicode="+" 
d="M80 377h210v210h80v-210h210v-80h-210v-211h-80v211h-210v80z" />
    <glyph glyph-name="comma" unicode="," horiz-adv-x="276" 
d="M209 39q0 -54 -36 -94t-89 -47v42q31 5 50.5 23.5t19.5 41.5q-10 -6 -27 -6q-25 0 -43 17t-18 44q0 30 18.5 49.5t48.5 19.5q32 0 54 -25t22 -65z" />
    <glyph glyph-name="hyphen" unicode="-" horiz-adv-x="431" 
d="M63 223v84h305v-84h-305z" />
    <glyph glyph-name="period" unicode="." horiz-adv-x="276" 
d="M138 -12q-29 0 -50.5 21t-21.5 49q0 29 21.5 50t50.5 21t50 -21t21 -50q0 -28 -21 -49t-50 -21z" />
    <glyph glyph-name="slash" unicode="/" horiz-adv-x="376" 
d="M93 0h-93l282 722h94z" />
    <glyph glyph-name="zero" unicode="0" horiz-adv-x="693" 
d="M49 361q0 169 81 272.5t217 103.5q135 0 216 -103.5t81 -272.5q0 -170 -79.5 -272t-217.5 -102q-139 0 -218.5 101.5t-79.5 272.5zM146 361q0 -134 53 -210t148 -76t147.5 76t52.5 210q0 136 -52.5 212t-147.5 76t-148 -76.5t-53 -211.5z" />
    <glyph glyph-name="one" unicode="1" horiz-adv-x="364" 
d="M187 635h-152v88h246v-723h-94v635z" />
    <glyph glyph-name="two" unicode="2" horiz-adv-x="575" 
d="M534 1l-488 -1v75l233 201q88 76 119 122.5t31 104.5q0 68 -37 106.5t-102 38.5q-67 0 -107.5 -45.5t-41.5 -122.5h-98q2 116 70 186t178 70q109 0 173.5 -61.5t64.5 -165.5q0 -76 -40.5 -139t-138.5 -148l-150 -130h334v-91z" />
    <glyph glyph-name="three" unicode="3" horiz-adv-x="568" 
d="M256 374h-72v65l205 197h-325v87h449v-79l-198 -189q95 -12 155.5 -72.5t60.5 -155.5q0 -108 -72.5 -173.5t-184.5 -65.5q-109 0 -176.5 63.5t-67.5 173.5h97q0 -70 40 -109.5t109 -39.5q71 0 113 41.5t42 111.5q0 67 -45.5 106t-129.5 39z" />
    <glyph glyph-name="four" unicode="4" horiz-adv-x="636" 
d="M588 146h-86v-146h-94v146h-374v87l341 490h127v-490h86v-87zM140 233h268v386z" />
    <glyph glyph-name="five" unicode="5" horiz-adv-x="591" 
d="M292 -12q-111 0 -177.5 65t-66.5 173h97q0 -70 40 -110t109 -40q73 0 117 44.5t44 118.5q0 71 -43 116.5t-117 45.5q-45 0 -85 -19t-65 -51l-83 21l88 371h362v-90h-291l-48 -192q58 44 140 44q109 0 175.5 -68t66.5 -174q0 -113 -73 -184t-190 -71z" />
    <glyph glyph-name="six" unicode="6" horiz-adv-x="611" 
d="M141 494l169 229h114l-181 -240q37 15 76 15q111 0 181 -71.5t70 -179.5q0 -113 -75 -186t-188 -73q-112 0 -189 74.5t-77 184.5q0 64 22 117t78 130zM141 246q0 -74 46.5 -122t119.5 -48q72 0 118 48t46 122t-46 121.5t-118 47.5q-73 0 -119.5 -47.5t-46.5 -121.5z" />
    <glyph glyph-name="seven" unicode="7" horiz-adv-x="520" 
d="M8 723h505v-90l-274 -633h-102l277 633h-406v90z" />
    <glyph glyph-name="eight" unicode="8" horiz-adv-x="625" 
d="M47 201q0 65 35.5 114.5t95.5 71.5q-105 45 -105 159q0 85 66.5 137.5t174.5 52.5q107 0 172.5 -53t65.5 -138q0 -56 -27.5 -97t-78.5 -61q61 -20 97 -70t36 -117q0 -95 -73 -153.5t-193 -58.5q-121 0 -193.5 58.5t-72.5 154.5zM163 540q0 -53 40.5 -85t108.5 -32t108 31
t40 84q0 52 -40 82.5t-108 30.5q-67 0 -108 -30.5t-41 -80.5zM143 208q0 -61 46.5 -97t123.5 -36t123 36t46 97q0 60 -46 95.5t-124 35.5q-77 0 -123 -35.5t-46 -95.5z" />
    <glyph glyph-name="nine" unicode="9" horiz-adv-x="611" 
d="M470 229l-169 -229h-114l181 240q-38 -15 -76 -15q-111 0 -181 71.5t-70 180.5q0 112 75.5 185.5t187.5 73.5q113 0 189.5 -75t76.5 -185q0 -63 -22 -116.5t-78 -130.5zM470 477q0 75 -46.5 123t-119.5 48q-72 0 -118 -48.5t-46 -122.5t46 -121.5t118 -47.5
q73 0 119.5 47.5t46.5 121.5z" />
    <glyph glyph-name="colon" unicode=":" horiz-adv-x="296" 
d="M148 363q-29 0 -50.5 20.5t-21.5 48.5q0 29 21.5 50t50.5 21t50 -21t21 -50q0 -28 -21 -48.5t-50 -20.5zM148 -12q-29 0 -50.5 21t-21.5 49q0 29 21.5 50t50.5 21t50 -21t21 -50q0 -28 -21 -49t-50 -21z" />
    <glyph glyph-name="semicolon" unicode=";" horiz-adv-x="296" 
d="M148 363q-29 0 -50.5 20.5t-21.5 48.5q0 29 21.5 50t50.5 21t50 -21t21 -50q0 -28 -21 -48.5t-50 -20.5zM219 39q0 -54 -36 -94t-89 -47v42q31 5 50.5 23.5t19.5 41.5q-10 -6 -27 -6q-25 0 -43 17t-18 44q0 30 18.5 49.5t48.5 19.5q32 0 54 -25t22 -65z" />
    <glyph glyph-name="less" unicode="&#x3c;" 
d="M580 113v-92l-500 177v98l500 177v-92l-403 -134z" />
    <glyph glyph-name="equal" unicode="=" 
d="M80 444h500v-81h-500v81zM80 234h500v-81h-500v81z" />
    <glyph glyph-name="greater" unicode="&#x3e;" 
d="M580 198l-500 -177v92l403 134l-403 134v92l500 -177v-98z" />
    <glyph glyph-name="question" unicode="?" horiz-adv-x="533" 
d="M285 175h-87v25q0 40 18 74.5t37 53t54 45.5q31 24 47.5 39.5t31.5 43t15 58.5q0 59 -36 96.5t-97 37.5q-59 0 -98.5 -41t-39.5 -103h-97q0 100 68 166t169 66q105 0 167.5 -60t62.5 -157q0 -37 -10.5 -68t-32 -56t-38 -39t-45.5 -35q-46 -33 -67.5 -59.5t-21.5 -61.5
v-25zM246 -14q-30 0 -51 21t-21 50t21 50t51 21q28 0 49.5 -21t21.5 -50t-21.5 -50t-49.5 -21z" />
    <glyph glyph-name="at" unicode="@" horiz-adv-x="924" 
d="M259 222q0 61 44 98.5t124 43.5l141 11v13q0 101 -106 101q-54 0 -83.5 -22t-29.5 -63h-76q0 70 52.5 112t139.5 42q89 0 138.5 -47t49.5 -132v-174q0 -58 57 -58q46 0 74.5 52t28.5 136q0 149 -98 244t-251 95q-150 0 -251.5 -102.5t-101.5 -254.5q0 -154 101 -257
t252 -103q121 0 218 74l32 -54q-108 -82 -250 -82q-179 0 -299.5 120.5t-120.5 301.5q0 178 120.5 298.5t299.5 120.5q181 0 298.5 -113t117.5 -288q0 -110 -50 -179t-130 -69q-107 0 -122 88q-18 -40 -62 -64t-100 -24q-73 0 -115 36.5t-42 98.5zM346 225q0 -70 91 -70
q62 0 97 36t35 100v23l-115 -10q-108 -9 -108 -79z" />
    <glyph glyph-name="A" unicode="A" horiz-adv-x="662" 
d="M114 0h-102l264 723h109l265 -723h-103l-65 180h-304zM318 567l-110 -302h245l-111 302q-9 25 -12 42q-3 -15 -12 -42z" />
    <glyph glyph-name="B" unicode="B" horiz-adv-x="639" 
d="M84 0v723h276q106 0 166.5 -51t60.5 -140q0 -124 -108 -169q121 -39 121 -170q0 -90 -61.5 -141.5t-168.5 -51.5h-286zM354 636h-172v-232h178q61 0 94 31.5t33 87.5q0 54 -34.5 83.5t-98.5 29.5zM368 319h-186v-232h186q63 0 97 31t34 87q0 54 -34.5 84t-96.5 30z" />
    <glyph glyph-name="C" unicode="C" horiz-adv-x="743" 
d="M384 -11q-155 0 -249 102t-94 270q0 167 96.5 270.5t251.5 103.5q122 0 208.5 -67t106.5 -178h-105q-20 70 -77 110.5t-136 40.5q-110 0 -176 -76t-66 -203t66 -203t176 -76q79 0 138 39.5t79 106.5h104q-23 -108 -112 -174t-211 -66z" />
    <glyph glyph-name="D" unicode="D" horiz-adv-x="722" 
d="M323 0h-239v723h235q162 0 262 -100t100 -262q0 -161 -99 -261t-259 -100zM312 633h-130v-542h134q121 0 192 73t71 197q0 126 -71.5 199t-195.5 73z" />
    <glyph glyph-name="E" unicode="E" horiz-adv-x="583" 
d="M525 0h-441v723h441v-90h-343v-226h309v-87h-309v-229h343v-91z" />
    <glyph glyph-name="F" unicode="F" horiz-adv-x="555" 
d="M466 307h-284v-307h-98v723h436v-90h-338v-237h284v-89z" />
    <glyph glyph-name="G" unicode="G" horiz-adv-x="765" 
d="M394 643q-116 0 -183 -78t-67 -208q0 -129 68.5 -202.5t182.5 -73.5q98 0 160 52.5t62 156.5v21h-242v87h334v-399h-82l-7 98q-30 -49 -92.5 -79t-140.5 -30q-154 0 -250 102t-96 269q0 166 98 271t257 105q119 0 203 -63t102 -167h-104q-20 67 -74.5 102.5t-128.5 35.5z
" />
    <glyph glyph-name="H" unicode="H" horiz-adv-x="722" 
d="M182 0h-98v723h98v-311h358v311h98v-723h-98v321h-358v-321z" />
    <glyph glyph-name="I" unicode="I" horiz-adv-x="267" 
d="M182 723v-723h-98v723h98z" />
    <glyph glyph-name="J" unicode="J" horiz-adv-x="529" 
d="M20 201v36h95v-36q0 -55 30.5 -88.5t88.5 -33.5q60 0 89 33t29 92v519h98v-523q0 -97 -59.5 -154.5t-156.5 -57.5q-101 0 -157.5 58.5t-56.5 154.5z" />
    <glyph glyph-name="K" unicode="K" horiz-adv-x="643" 
d="M182 723v-410l322 410h117l-242 -307l246 -416h-114l-197 333l-132 -167v-166h-98v723h98z" />
    <glyph glyph-name="L" unicode="L" horiz-adv-x="522" 
d="M182 723v-632h318v-91h-416v723h98z" />
    <glyph glyph-name="M" unicode="M" horiz-adv-x="860" 
d="M180 0h-96v723h96l249 -608l249 608h98v-723h-96v286q0 174 6 235l-211 -521h-92l-210 519q7 -49 7 -210v-309z" />
    <glyph glyph-name="N" unicode="N" horiz-adv-x="734" 
d="M182 0h-98v723h98l370 -559v559h98v-723h-98l-370 559v-559z" />
    <glyph glyph-name="O" unicode="O" horiz-adv-x="777" 
d="M736 362q0 -165 -97.5 -269.5t-251.5 -104.5q-153 0 -249.5 104.5t-96.5 269.5q0 164 97 269t250 105q154 0 251 -104.5t97 -269.5zM633 362q0 126 -67.5 202.5t-177.5 76.5t-177 -76.5t-67 -202.5t67 -203t177 -77t177.5 77.5t67.5 202.5z" />
    <glyph glyph-name="P" unicode="P" horiz-adv-x="625" 
d="M365 258h-183v-258h-98v723h281q106 0 169.5 -63.5t63.5 -168.5q0 -102 -64 -167.5t-169 -65.5zM348 635h-166v-289h162q72 0 111.5 39t39.5 107t-39 105.5t-108 37.5z" />
    <glyph glyph-name="Q" unicode="Q" horiz-adv-x="777" 
d="M654 -48l-78 88q-85 -52 -189 -52q-153 0 -249.5 104.5t-96.5 269.5q0 164 97 269t250 105q154 0 251 -104.5t97 -269.5q0 -161 -94 -266l76 -86zM633 362q0 126 -67.5 202.5t-177.5 76.5t-177 -76.5t-67 -202.5t67 -203t177 -77q69 0 122 32l-95 107l64 58l96 -108
q58 75 58 191z" />
    <glyph glyph-name="R" unicode="R" horiz-adv-x="654" 
d="M182 0h-98v723h273q116 0 181.5 -58t65.5 -159q0 -75 -36.5 -127t-103.5 -74l147 -305h-109l-135 286h-185v-286zM182 635v-262h176q68 0 105.5 35t37.5 97q0 63 -38 96.5t-106 33.5h-175z" />
    <glyph glyph-name="S" unicode="S" horiz-adv-x="577" 
d="M42 528q0 93 68.5 150.5t180.5 57.5q103 0 166 -54t69 -148h-99q-4 54 -40 84t-97 30q-68 0 -109 -32t-41 -85q0 -85 101 -109l119 -28q178 -41 178 -193q0 -97 -69.5 -155t-185.5 -58q-111 0 -179 54t-72 147h100q2 -52 42.5 -82.5t108.5 -30.5q72 0 114.5 31.5
t42.5 85.5q0 86 -100 109l-119 27q-179 41 -179 199z" />
    <glyph glyph-name="T" unicode="T" horiz-adv-x="562" 
d="M14 633v90h533v-90h-217v-633h-98v633h-218z" />
    <glyph glyph-name="U" unicode="U" horiz-adv-x="711" 
d="M79 257v466h98v-460q0 -87 46.5 -133.5t132.5 -46.5q85 0 131 47t46 133v460h99v-466q0 -124 -74 -196.5t-202 -72.5t-202.5 72t-74.5 197z" />
    <glyph glyph-name="V" unicode="V" horiz-adv-x="669" 
d="M285 0l-275 723h105l176 -462q25 -64 45 -136q21 70 46 137l175 461h102l-272 -723h-102z" />
    <glyph glyph-name="W" unicode="W" horiz-adv-x="1005" 
d="M230 0l-215 723h102l132 -442q20 -76 30 -131q10 47 34 131l137 442h106l136 -442q19 -61 33 -131q15 74 32 130l133 443h100l-218 -723h-94l-175 572l-177 -572h-96z" />
    <glyph glyph-name="X" unicode="X" horiz-adv-x="645" 
d="M264 361l-247 362h117l113 -161q45 -66 77 -127l191 288h113l-242 -361l245 -362h-116l-111 159q-39 58 -79 127l-194 -286h-115z" />
    <glyph glyph-name="Y" unicode="Y" horiz-adv-x="606" 
d="M255 294l-245 429h110l161 -289q7 -12 24 -48l24 48l160 289h107l-243 -429v-294h-98v294z" />
    <glyph glyph-name="Z" unicode="Z" horiz-adv-x="583" 
d="M547 0h-511v91l388 542h-382v90h504v-88l-391 -544h392v-91z" />
    <glyph glyph-name="bracketleft" unicode="[" horiz-adv-x="279" 
d="M145 -1h129v-74h-215v881h215v-75h-129v-732z" />
    <glyph glyph-name="backslash" unicode="\" horiz-adv-x="376" 
d="M94 722l282 -722h-93l-283 722h94z" />
    <glyph glyph-name="bracketright" unicode="]" horiz-adv-x="279" 
d="M5 -75v74h129v732h-129v75h215v-881h-215z" />
    <glyph glyph-name="asciicircum" unicode="^" horiz-adv-x="500" 
d="M154 400h-83l133 323h92l133 -323h-83l-96 240z" />
    <glyph glyph-name="underscore" unicode="_" horiz-adv-x="530" 
d="M60 -92v74h410v-74h-410z" />
    <glyph glyph-name="grave" unicode="`" horiz-adv-x="245" 
d="M202 768h-72l-86 133h92z" />
    <glyph glyph-name="a" unicode="a" horiz-adv-x="534" 
d="M211 -12q-78 0 -122.5 40.5t-44.5 107.5t47.5 107.5t134.5 47.5l154 12v14q0 111 -115 111q-59 0 -91.5 -25t-32.5 -69h-82q0 76 57.5 122.5t152.5 46.5q94 0 148.5 -50t54.5 -146v-307h-80l-10 79q-19 -42 -65.5 -66.5t-105.5 -24.5zM238 61q67 0 105 40.5t38 109.5v26
l-125 -10q-117 -11 -117 -88q0 -38 26 -58t73 -20z" />
    <glyph glyph-name="b" unicode="b" horiz-adv-x="600" 
d="M153 0h-85v736h94v-331q24 47 70.5 72.5t107.5 25.5q103 0 163.5 -73t60.5 -188q0 -113 -62.5 -183.5t-167.5 -70.5q-59 0 -104.5 26t-69.5 75zM163 246q0 -78 41.5 -125.5t112.5 -47.5t112 48t41 125q0 76 -41 124t-112 48t-112.5 -48t-41.5 -124z" />
    <glyph glyph-name="c" unicode="c" horiz-adv-x="534" 
d="M36 244q0 115 66.5 187t173.5 72q92 0 152.5 -48.5t73.5 -130.5h-94q-12 46 -46.5 70.5t-82.5 24.5q-67 0 -108.5 -47.5t-41.5 -126.5t39.5 -126t106.5 -47q50 0 85.5 24.5t48.5 68.5h94q-14 -80 -77 -128.5t-151 -48.5q-108 0 -173.5 70t-65.5 186z" />
    <glyph glyph-name="d" unicode="d" horiz-adv-x="600" 
d="M264 -12q-105 0 -166.5 70.5t-61.5 184.5q0 115 62.5 187.5t169.5 72.5q57 0 101.5 -24t69.5 -69v326h93v-736h-84l-8 89q-24 -49 -70 -75t-106 -26zM283 73q71 0 113 48t42 125q0 76 -42 124t-113 48t-111.5 -47.5t-40.5 -124.5t40.5 -125t111.5 -48z" />
    <glyph glyph-name="e" unicode="e" horiz-adv-x="542" 
d="M279 -12q-108 0 -175.5 71t-67.5 185q0 115 66.5 187t172.5 72q104 0 167 -66t63 -175v-35l-378 -1q5 -77 44.5 -118.5t109.5 -41.5q112 0 137 86h88q-18 -79 -77 -121.5t-150 -42.5zM275 424q-61 0 -99 -35t-47 -100h282q0 61 -37 98t-99 37z" />
    <glyph glyph-name="f" unicode="f" horiz-adv-x="317" 
d="M16 489h72v78q0 86 42 127.5t113 41.5q33 0 58 -4v-81h-42q-43 0 -60 -20.5t-17 -63.5v-78h116v-79h-116v-410h-94v410h-72v79z" />
    <glyph glyph-name="g" unicode="g" horiz-adv-x="598" 
d="M37 257q0 106 63.5 176t167.5 70q59 0 103.5 -25.5t67.5 -71.5l7 83h84v-469q0 -116 -66.5 -184t-178.5 -68q-100 0 -164 53t-78 146h94q9 -54 48 -84t100 -30q69 0 110.5 41.5t41.5 111.5v98q-24 -43 -69.5 -67t-103.5 -24q-102 0 -164.5 69.5t-62.5 174.5zM131 259
q0 -71 40.5 -117.5t108.5 -46.5q70 0 111.5 45.5t41.5 118.5q0 72 -40.5 117t-111.5 45q-69 0 -109.5 -46t-40.5 -116z" />
    <glyph glyph-name="h" unicode="h" horiz-adv-x="575" 
d="M162 1h-94v735h94v-322q24 41 67 65t99 24q92 0 138.5 -54t46.5 -150v-299h-94v278q0 139 -117 139q-66 0 -103 -42.5t-37 -107.5v-266z" />
    <glyph glyph-name="i" unicode="i" horiz-adv-x="230" 
d="M114 605q-26 0 -44 18.5t-18 43.5q0 26 18 44t44 18t44 -18t18 -44q0 -25 -18 -43.5t-44 -18.5zM68 0v489h94v-489h-94z" />
    <glyph glyph-name="j" unicode="j" horiz-adv-x="230" 
d="M115 605q-26 0 -44 18t-18 44t18 44t44 18q25 0 43.5 -18t18.5 -44q0 -25 -18.5 -43.5t-43.5 -18.5zM-56 -222l16 85q27 -7 45 -7q33 0 48 19.5t15 61.5v552h94v-561q0 -74 -39 -116.5t-110 -42.5q-37 0 -69 9z" />
    <glyph glyph-name="k" unicode="k" horiz-adv-x="508" 
d="M164 0h-94v736h94v-477l217 230h118l-187 -195l186 -294h-108l-143 226l-83 -87v-139z" />
    <glyph glyph-name="l" unicode="l" horiz-adv-x="234" 
d="M164 0h-94v736h94v-736z" />
    <glyph glyph-name="m" unicode="m" horiz-adv-x="862" 
d="M162 0h-94v489h84l9 -64q19 36 57.5 57t88.5 21q114 0 155 -99q17 46 59 72.5t99 26.5q84 0 132 -49t48 -134v-320h-92v297q0 57 -29.5 89t-79.5 32q-53 0 -85.5 -35t-32.5 -93v-290h-93v298q0 57 -29 88t-79 31q-54 0 -86 -34.5t-32 -92.5v-290z" />
    <glyph glyph-name="n" unicode="n" horiz-adv-x="575" 
d="M162 0h-94v489h85l10 -75q23 42 66.5 65.5t95.5 23.5q94 0 141 -53.5t47 -150.5v-299h-94v278q0 139 -118 139q-65 0 -102 -43t-37 -115v-259z" />
    <glyph glyph-name="o" unicode="o" horiz-adv-x="581" 
d="M36 245q0 113 72 185t183 72q110 0 182 -72t72 -185t-72 -185t-182 -72q-111 0 -183 72t-72 185zM131 245q0 -77 44.5 -125t115.5 -48t115.5 48.5t44.5 124.5t-44.5 124.5t-115.5 48.5t-115.5 -48t-44.5 -125z" />
    <glyph glyph-name="p" unicode="p" horiz-adv-x="600" 
d="M68 -219v708h85l7 -88q24 49 71 75.5t106 26.5q104 0 165.5 -70.5t61.5 -184.5q0 -115 -60.5 -188t-166.5 -73q-59 0 -105 24t-70 69v-299h-94zM163 244q0 -76 41.5 -124t112.5 -48t112 48t41 124q0 77 -41 125t-112 48t-112.5 -47.5t-41.5 -125.5z" />
    <glyph glyph-name="q" unicode="q" horiz-adv-x="600" 
d="M36 248q0 114 62 184.5t166 70.5q59 0 105.5 -26.5t70.5 -75.5l8 88h84v-708h-93v299q-25 -45 -71 -69t-105 -24q-105 0 -166 73t-61 188zM131 244q0 -77 40.5 -124.5t111.5 -47.5t113 48t42 124q0 77 -42 125t-113 48t-111.5 -48t-40.5 -125z" />
    <glyph glyph-name="r" unicode="r" horiz-adv-x="368" 
d="M348 493v-86h-42q-67 0 -105.5 -39t-38.5 -109v-259h-94v488h88l6 -74q15 39 51 62t85 23q22 0 50 -6z" />
    <glyph glyph-name="s" unicode="s" horiz-adv-x="448" 
d="M28 142h90q0 -37 26.5 -58.5t73.5 -21.5q49 0 76.5 19t27.5 53q0 26 -15 41.5t-52 24.5l-86 20q-128 31 -128 136q0 67 51 107t133 40q80 0 128.5 -41.5t50.5 -111.5h-90q-2 37 -26 58.5t-66 21.5q-44 0 -68 -18.5t-24 -52.5q0 -49 72 -67l86 -21q64 -15 94 -46t30 -85
q0 -69 -54 -110.5t-142 -41.5q-86 0 -137 42t-51 112z" />
    <glyph glyph-name="t" unicode="t" horiz-adv-x="318" 
d="M206 0h-94v410h-96v79h96v153h94v-153h96v-79h-96v-410z" />
    <glyph glyph-name="u" unicode="u" horiz-adv-x="567" 
d="M406 489h93v-489h-84l-10 74q-21 -39 -66 -62.5t-99 -23.5q-84 0 -131 53t-47 144v304h94v-273q0 -145 117 -145q65 0 99 41t34 119v258z" />
    <glyph glyph-name="v" unicode="v" horiz-adv-x="509" 
d="M205 0l-197 489h100l107 -273q28 -76 39 -117q9 36 41 117l109 273h98l-204 -489h-93z" />
    <glyph glyph-name="w" unicode="w" horiz-adv-x="768" 
d="M173 0l-160 489h97l81 -254q18 -59 30 -116q9 50 32 116l82 254h96l81 -254q17 -52 32 -116q12 56 31 116l82 254h98l-167 -489h-89l-85 262q-23 70 -31 114q-7 -32 -32 -115l-85 -261h-93z" />
    <glyph glyph-name="x" unicode="x" horiz-adv-x="482" 
d="M118 0h-108l171 242l-170 247h109l124 -182l121 182h107l-170 -247l167 -242h-109l-122 179z" />
    <glyph glyph-name="y" unicode="y" horiz-adv-x="498" 
d="M21 -219v77h63q40 0 64 13t40 56l17 47l-197 515h99l142 -394l145 394h97l-231 -599q-25 -62 -62.5 -90.5t-94.5 -28.5q-40 0 -82 10z" />
    <glyph glyph-name="z" unicode="z" horiz-adv-x="457" 
d="M419 0h-381v76l264 334h-264v79h381v-77l-266 -333h266v-79z" />
    <glyph glyph-name="braceleft" unicode="{" horiz-adv-x="318" 
d="M45 327v77q94 0 94 79v216q0 48 31 77.5t82 29.5h61v-75h-47q-20 0 -31 -12t-11 -33v-212q0 -85 -74 -108q74 -24 74 -109v-212q0 -22 11 -34t31 -12h47v-74h-61q-52 0 -82.5 29t-30.5 77v217q0 79 -94 79z" />
    <glyph glyph-name="bar" unicode="|" horiz-adv-x="323" 
d="M124 -87v878h75v-878h-75z" />
    <glyph glyph-name="braceright" unicode="}" horiz-adv-x="318" 
d="M67 -75h-62v74h47q20 0 31 12t11 34v212q0 84 75 109q-75 23 -75 108v212q0 21 -11 33t-31 12h-47v75h62q51 0 82 -29.5t31 -77.5v-216q0 -79 93 -79v-77q-93 0 -93 -79v-217q0 -48 -30.5 -77t-82.5 -29z" />
    <glyph glyph-name="asciitilde" unicode="~" 
d="M505 379h75q0 -71 -36 -116t-95 -45q-41 0 -85 22t-82.5 44t-65.5 22q-31 0 -45 -19.5t-16 -59.5h-75q0 70 36 114t95 44q38 0 81 -22.5t82.5 -44.5t69.5 -22q58 0 61 83z" />
    <glyph glyph-name="exclamdown" unicode="&#xa1;" horiz-adv-x="294" 
d="M147 737q29 0 50 -21t21 -50q0 -28 -21 -49t-50 -21q-30 0 -51 20.5t-21 49.5t21 50t51 21zM110 507h73q18 -133 18 -338v-169h-108v169q0 209 17 338z" />
    <glyph glyph-name="cent" unicode="&#xa2;" horiz-adv-x="561" 
d="M247 -1v109q-90 14 -145.5 82t-55.5 170t55 171t146 83v109h82v-109q79 -10 129 -56.5t61 -119.5h-95q-24 94 -134 94q-67 0 -108 -47t-41 -125q0 -76 42 -123t108 -47q107 0 134 93h95q-13 -73 -63.5 -119.5t-127.5 -56.5v-108h-82z" />
    <glyph glyph-name="sterling" unicode="&#xa3;" horiz-adv-x="628" 
d="M372 0h-342v91q53 7 86 48.5t33 97.5q0 37 -16 89h-98v77h71q-23 64 -23 113q0 97 65.5 158.5t171.5 61.5q102 0 166 -55.5t70 -152.5h-99q-4 59 -41 89.5t-99 30.5q-64 0 -101.5 -35t-37.5 -96q0 -41 25 -114h239v-77h-212q13 -44 13 -86q0 -50 -22.5 -90.5t-63.5 -58.5
h203q72 0 102 34t31 107h94q0 -113 -55 -172.5t-160 -59.5z" />
    <glyph glyph-name="currency" unicode="&#xa4;" horiz-adv-x="668" 
d="M551 82l-78 77q-64 -43 -139 -43q-77 0 -139 43l-79 -77l-62 63l79 77q-42 63 -42 136q0 75 42 138l-79 77l62 63l79 -77q61 44 139 44t139 -44l78 77l62 -63l-78 -76q43 -64 43 -139t-43 -137l78 -76zM491 358q0 65 -46 111t-111 46t-110.5 -46t-45.5 -111
q0 -64 46 -109.5t110 -45.5t110.5 45.5t46.5 109.5z" />
    <glyph glyph-name="yen" unicode="&#xa5;" horiz-adv-x="623" 
d="M236 358l-216 365h111l181 -327l181 327h110l-214 -365h143v-73h-173v-66h173v-73h-173v-146h-93v146h-174v73h174v66h-174v73h144z" />
    <glyph glyph-name="brokenbar" unicode="&#xa6;" horiz-adv-x="323" 
d="M199 791v-355h-75v355h75zM124 -87v356h75v-356h-75z" />
    <glyph glyph-name="section" unicode="&#xa7;" horiz-adv-x="474" 
d="M438 369q0 -41 -26 -75.5t-70 -50.5q76 -34 76 -113q0 -63 -51.5 -102.5t-132.5 -39.5q-80 0 -128.5 41.5t-50.5 111.5h89q2 -38 26 -59t67 -21q44 0 68 18.5t24 52.5q0 53 -73 68l-97 21q-123 28 -123 135q0 41 25.5 75t69.5 51q-75 35 -75 112q0 63 51.5 103t132.5 40
q80 0 128.5 -41.5t50.5 -111.5h-90q-1 38 -25 59t-67 21q-44 0 -68 -18.5t-24 -52.5q0 -53 72 -68l97 -22q124 -29 124 -134zM349 362q0 39 -29 61.5t-83 22.5t-83 -22.5t-29 -61.5q0 -38 29 -60.5t83 -22.5t83 22.5t29 60.5z" />
    <glyph glyph-name="dieresis" unicode="&#xa8;" horiz-adv-x="393" 
d="M116 784q-24 0 -40.5 16.5t-16.5 40.5q0 23 17 40.5t40 17.5t40.5 -17.5t17.5 -40.5t-17.5 -40t-40.5 -17zM277 784q-24 0 -40.5 16.5t-16.5 40.5q0 23 17 40.5t40 17.5t40.5 -17.5t17.5 -40.5t-17.5 -40t-40.5 -17z" />
    <glyph glyph-name="copyright" unicode="&#xa9;" horiz-adv-x="819" 
d="M409 -14q-156 0 -262.5 109t-106.5 267q0 157 107 265.5t262 108.5q156 0 263 -108t107 -266t-107 -267t-263 -109zM409 47q130 0 217.5 90.5t87.5 224.5q0 133 -87.5 223t-217.5 90q-129 0 -216.5 -90t-87.5 -223q0 -134 87 -224.5t217 -90.5zM224 360q0 88 53.5 144.5
t136.5 56.5q70 0 117 -37t58 -101h-77q-18 70 -96 70q-52 0 -84.5 -37t-32.5 -95q0 -59 31.5 -95.5t82.5 -36.5q80 0 100 70h76q-10 -61 -59 -99t-117 -38q-85 0 -137 54.5t-52 143.5z" />
    <glyph glyph-name="guillemotleft" unicode="&#xab;" horiz-adv-x="654" 
d="M254 0l-214 244l214 245h116l-214 -245l214 -244h-116zM498 0l-214 244l214 245h116l-214 -245l214 -244h-116z" />
    <glyph glyph-name="logicalnot" unicode="&#xac;" 
d="M556 356v-272h-90v190h-397v82h487z" />
    <glyph glyph-name="registered" unicode="&#xae;" horiz-adv-x="492" 
d="M247 326q-88 0 -147.5 59t-59.5 146t59.5 146t147.5 59t146.5 -58.5t58.5 -146.5t-58.5 -146.5t-146.5 -58.5zM247 360q73 0 121 48.5t48 122.5t-48 122.5t-121 48.5t-121.5 -48.5t-48.5 -122.5t48.5 -122.5t121.5 -48.5zM203 419h-37v230h90q38 0 61 -18.5t23 -51.5
q0 -49 -48 -66l51 -94h-41l-44 84h-55v-84zM300 577q0 37 -45 37h-52v-76h52q45 0 45 39z" />
    <glyph glyph-name="macron" unicode="&#xaf;" horiz-adv-x="369" 
d="M60 814v69h249v-69h-249z" />
    <glyph glyph-name="degree" unicode="&#xb0;" horiz-adv-x="286" 
d="M267 612q0 -54 -35.5 -89t-88.5 -35t-88.5 35t-35.5 89q0 53 35.5 88.5t88.5 35.5t88.5 -35.5t35.5 -88.5zM209 612q0 30 -18.5 49t-47.5 19t-47.5 -19t-18.5 -49t18.5 -49t47.5 -19t47.5 19t18.5 49z" />
    <glyph glyph-name="plusminus" unicode="&#xb1;" 
d="M80 425h210v175h80v-175h210v-81h-210v-175h-80v175h-210v81zM80 0v81h500v-81h-500z" />
    <glyph glyph-name="twosuperior" unicode="&#xb2;" horiz-adv-x="351" 
d="M326 330h-298v53l158 130q67 55 67 115q0 84 -78 84q-39 0 -60.5 -24.5t-21.5 -69.5h-67q2 72 42 114t107 42q68 0 107 -38t39 -105q0 -85 -90 -159l-97 -79h192v-63z" />
    <glyph glyph-name="threesuperior" unicode="&#xb3;" horiz-adv-x="351" 
d="M142 549h-30v46l122 109h-193v63h275v-61l-116 -103q55 -7 90.5 -43t35.5 -94q0 -65 -44.5 -104t-110.5 -39t-108 39.5t-42 105.5h67q0 -39 22.5 -61t61.5 -22q38 0 62 22t24 60q0 34 -20.5 55.5t-60.5 25.5q-11 1 -35 1z" />
    <glyph glyph-name="acute" unicode="&#xb4;" horiz-adv-x="246" 
d="M202 900l-86 -132h-73l68 132h91z" />
    <glyph glyph-name="micro" unicode="&#xb5;" horiz-adv-x="567" 
d="M156 -219h-94v708h94v-273q0 -145 117 -145q65 0 99 41t34 119v258h93v-489h-84l-10 74q-47 -86 -149 -86q-70 0 -109 51z" />
    <glyph glyph-name="paragraph" unicode="&#xb6;" horiz-adv-x="587" 
d="M28 522q0 93 53 147t137 54h131v-799h-83v395h-48q-84 0 -137 54.5t-53 148.5zM482 -78h-46v800h46v-800z" />
    <glyph glyph-name="periodcentered" unicode="&#xb7;" horiz-adv-x="302" 
d="M151 171q-39 0 -68 28.5t-29 66.5q0 40 28.5 68.5t68.5 28.5t68 -28.5t28 -68.5q0 -38 -28.5 -66.5t-67.5 -28.5z" />
    <glyph glyph-name="cedilla" unicode="&#xb8;" horiz-adv-x="243" 
d="M36 -181v48q34 -17 61 -17q22 0 35.5 9.5t13.5 26.5q0 34 -41 34q-24 0 -49 -11l-11 29l45 95h32v-29l-24 -49q17 5 31 5q31 0 52.5 -19t21.5 -53q0 -41 -28.5 -63t-71.5 -22q-41 0 -67 16z" />
    <glyph glyph-name="onesuperior" unicode="&#xb9;" horiz-adv-x="235" 
d="M121 704h-100v63h168v-437h-68v374z" />
    <glyph glyph-name="guillemotright" unicode="&#xbb;" horiz-adv-x="654" 
d="M156 0h-116l214 244l-214 245h116l214 -245zM400 0h-116l214 244l-214 245h116l214 -245z" />
    <glyph glyph-name="onequarter" unicode="&#xbc;" horiz-adv-x="652" 
d="M102 668h-84v55h144v-345h-60v290zM592 710l-467 -710h-79l465 710h81zM526 67h-174v51l159 228h73v-224h43v-55h-43v-67h-58v67zM418 122h108v154z" />
    <glyph glyph-name="onehalf" unicode="&#xbd;" horiz-adv-x="685" 
d="M102 668h-84v55h144v-345h-60v290zM592 710l-467 -710h-79l465 710h81zM663 0h-245v43l113 91q61 50 61 99q0 30 -15.5 47t-43.5 17q-29 0 -45.5 -17t-16.5 -46h-61q0 52 34.5 85t89.5 33t87.5 -31.5t32.5 -84.5q0 -73 -84 -140l-51 -41h144v-55z" />
    <glyph glyph-name="threequarters" unicode="&#xbe;" horiz-adv-x="689" 
d="M20 488h61q0 -29 16.5 -45.5t45.5 -16.5q28 0 44.5 15.5t16.5 42.5q0 30 -20 47t-58 17h-35v40l88 80h-142v55h219v-52l-86 -79q42 -7 68 -34.5t26 -71.5q0 -53 -34 -84t-88 -31q-53 0 -87.5 31.5t-34.5 85.5zM629 710l-467 -710h-80l466 710h81zM563 67h-174v51l159 228
h72v-224h44v-55h-44v-67h-57v67zM455 122h108v154z" />
    <glyph glyph-name="questiondown" unicode="&#xbf;" horiz-adv-x="533" 
d="M287 737q30 0 51 -21t21 -50t-21 -50t-51 -21q-29 0 -50 21.5t-21 49.5t21 49.5t50 21.5zM248 548h87v-25q0 -57 -28 -95t-81 -78q-31 -25 -47 -40t-31.5 -42.5t-15.5 -58.5q0 -59 36 -96t97 -37q59 0 98.5 41t39.5 102h97q0 -100 -67.5 -166t-168.5 -66
q-106 0 -168.5 60t-62.5 157q0 37 10.5 68t32 55.5t38.5 39t46 35.5q45 33 66.5 59.5t21.5 61.5v25z" />
    <glyph glyph-name="Agrave" unicode="&#xc0;" horiz-adv-x="662" 
d="M365 776h-72l-85 133h91zM114 0h-102l264 723h109l265 -723h-103l-65 180h-304zM318 567l-110 -302h245l-111 302q-9 25 -12 42q-3 -15 -12 -42z" />
    <glyph glyph-name="Aacute" unicode="&#xc1;" horiz-adv-x="662" 
d="M455 909l-86 -133h-73l68 133h91zM114 0h-102l264 723h109l265 -723h-103l-65 180h-304zM318 567l-110 -302h245l-111 302q-9 25 -12 42q-3 -15 -12 -42z" />
    <glyph glyph-name="Acircumflex" unicode="&#xc2;" horiz-adv-x="662" 
d="M273 776h-77l82 138h105l83 -138h-78l-57 94zM114 0h-102l264 723h109l265 -723h-103l-65 180h-304zM318 567l-110 -302h245l-111 302q-9 25 -12 42q-3 -15 -12 -42z" />
    <glyph glyph-name="Atilde" unicode="&#xc3;" horiz-adv-x="662" 
d="M237 789h-60q-5 56 17.5 89t64.5 33q32 0 72.5 -28t58.5 -28q34 0 34 56h61q3 -60 -20 -91t-67 -31q-35 0 -74.5 28t-53.5 28q-33 0 -33 -56zM114 0h-102l264 723h109l265 -723h-103l-65 180h-304zM318 567l-110 -302h245l-111 302q-9 25 -12 42q-3 -15 -12 -42z" />
    <glyph glyph-name="Adieresis" unicode="&#xc4;" horiz-adv-x="662" 
d="M251 792q-24 0 -41 17t-17 41q0 23 17 40.5t41 17.5q23 0 40 -17.5t17 -40.5q0 -24 -17 -41t-40 -17zM412 792q-24 0 -41 17t-17 41q0 23 17 40.5t41 17.5q23 0 40 -17.5t17 -40.5q0 -24 -17 -41t-40 -17zM114 0h-102l264 723h109l265 -723h-103l-65 180h-304zM318 567
l-110 -302h245l-111 302q-9 25 -12 42q-3 -15 -12 -42z" />
    <glyph glyph-name="Aring" unicode="&#xc5;" horiz-adv-x="662" 
d="M331 769q-52 0 -84.5 33t-32.5 84q0 50 33.5 83.5t83.5 33.5t84 -33.5t34 -83.5t-34 -83.5t-84 -33.5zM331 825q26 0 42 17t16 45q0 26 -16.5 43.5t-41.5 17.5q-26 0 -42 -17t-16 -44q0 -28 16 -45t42 -17zM114 0h-102l264 723h109l265 -723h-103l-65 180h-304zM318 567
l-110 -302h245l-111 302q-9 25 -12 42q-3 -15 -12 -42z" />
    <glyph glyph-name="AE" unicode="&#xc6;" horiz-adv-x="917" 
d="M7 0l290 723h562v-90h-341v-226h307v-87h-307v-229h341v-91h-439v195h-228l-76 -195h-109zM225 279h195v354h-57z" />
    <glyph glyph-name="Ccedilla" unicode="&#xc7;" horiz-adv-x="743" 
d="M319 -181v48q36 -17 62 -17q22 0 35.5 9.5t13.5 26.5q0 34 -41 34q-24 0 -49 -11l-11 29l25 52q-142 11 -227.5 111.5t-85.5 259.5q0 167 96.5 270.5t251.5 103.5q122 0 208.5 -67t106.5 -178h-105q-20 70 -77 110.5t-136 40.5q-110 0 -176 -76t-66 -203t66 -203t176 -76
q79 0 138 39.5t79 106.5h104q-22 -105 -106.5 -170t-201.5 -70l-17 -34q17 5 31 5q31 0 52.5 -19t21.5 -53q0 -41 -28.5 -63t-71.5 -22q-40 0 -68 16z" />
    <glyph glyph-name="Egrave" unicode="&#xc8;" horiz-adv-x="583" 
d="M335 776h-72l-86 133h92zM525 0h-441v723h441v-90h-343v-226h309v-87h-309v-229h343v-91z" />
    <glyph glyph-name="Eacute" unicode="&#xc9;" horiz-adv-x="583" 
d="M425 909l-87 -133h-72l67 133h92zM525 0h-441v723h441v-90h-343v-226h309v-87h-309v-229h343v-91z" />
    <glyph glyph-name="Ecircumflex" unicode="&#xca;" horiz-adv-x="583" 
d="M243 776h-78l83 138h105l83 -138h-78l-57 94zM525 0h-441v723h441v-90h-343v-226h309v-87h-309v-229h343v-91z" />
    <glyph glyph-name="Edieresis" unicode="&#xcb;" horiz-adv-x="583" 
d="M220 792q-24 0 -40.5 17t-16.5 41q0 23 17 40.5t40 17.5t40.5 -17.5t17.5 -40.5q0 -24 -17.5 -41t-40.5 -17zM381 792q-23 0 -40 17t-17 41q0 23 17 40.5t40 17.5t40.5 -17.5t17.5 -40.5q0 -24 -17.5 -41t-40.5 -17zM525 0h-441v723h441v-90h-343v-226h309v-87h-309v-229
h343v-91z" />
    <glyph glyph-name="Igrave" unicode="&#xcc;" horiz-adv-x="267" 
d="M168 776h-73l-85 133h92zM182 723v-723h-98v723h98z" />
    <glyph glyph-name="Iacute" unicode="&#xcd;" horiz-adv-x="267" 
d="M257 909l-86 -133h-72l67 133h91zM182 723v-723h-98v723h98z" />
    <glyph glyph-name="Icircumflex" unicode="&#xce;" horiz-adv-x="267" 
d="M76 776h-78l83 138h105l82 -138h-78l-57 94zM182 723v-723h-98v723h98z" />
    <glyph glyph-name="Idieresis" unicode="&#xcf;" horiz-adv-x="267" 
d="M53 792q-24 0 -41 17t-17 41q0 23 17 40.5t41 17.5q23 0 40 -17.5t17 -40.5q0 -24 -17 -41t-40 -17zM214 792q-24 0 -41 17t-17 41q0 23 17.5 40.5t40.5 17.5t40 -17.5t17 -40.5q0 -24 -17 -41t-40 -17zM182 723v-723h-98v723h98z" />
    <glyph glyph-name="Eth" unicode="&#xd0;" horiz-adv-x="722" 
d="M16 321v82h68v320h235q162 0 262 -100t100 -262q0 -161 -99 -261t-259 -100h-239v321h-68zM334 321h-152v-230h134q121 0 192 73t71 197q0 126 -71.5 199t-195.5 73h-130v-230h152v-82z" />
    <glyph glyph-name="Ntilde" unicode="&#xd1;" horiz-adv-x="734" 
d="M276 789h-61q-4 56 18 89t64 33q33 0 73 -28t58 -28q35 0 35 56h60q4 -60 -19 -91t-67 -31q-36 0 -75.5 28t-53.5 28q-32 0 -32 -56zM182 0h-98v723h98l370 -559v559h98v-723h-98l-370 559v-559z" />
    <glyph glyph-name="Ograve" unicode="&#xd2;" horiz-adv-x="777" 
d="M423 776h-73l-85 133h92zM736 362q0 -165 -97.5 -269.5t-251.5 -104.5q-153 0 -249.5 104.5t-96.5 269.5q0 164 97 269t250 105q154 0 251 -104.5t97 -269.5zM633 362q0 126 -67.5 202.5t-177.5 76.5t-177 -76.5t-67 -202.5t67 -203t177 -77t177.5 77.5t67.5 202.5z" />
    <glyph glyph-name="Oacute" unicode="&#xd3;" horiz-adv-x="777" 
d="M512 909l-86 -133h-72l67 133h91zM736 362q0 -165 -97.5 -269.5t-251.5 -104.5q-153 0 -249.5 104.5t-96.5 269.5q0 164 97 269t250 105q154 0 251 -104.5t97 -269.5zM633 362q0 126 -67.5 202.5t-177.5 76.5t-177 -76.5t-67 -202.5t67 -203t177 -77t177.5 77.5
t67.5 202.5z" />
    <glyph glyph-name="Ocircumflex" unicode="&#xd4;" horiz-adv-x="777" 
d="M331 776h-78l83 138h105l82 -138h-78l-57 94zM736 362q0 -165 -97.5 -269.5t-251.5 -104.5q-153 0 -249.5 104.5t-96.5 269.5q0 164 97 269t250 105q154 0 251 -104.5t97 -269.5zM633 362q0 126 -67.5 202.5t-177.5 76.5t-177 -76.5t-67 -202.5t67 -203t177 -77
t177.5 77.5t67.5 202.5z" />
    <glyph glyph-name="Otilde" unicode="&#xd5;" horiz-adv-x="777" 
d="M294 789h-60q-4 56 18 89t64 33q32 0 72.5 -28t58.5 -28q35 0 35 56h60q4 -60 -19 -91t-68 -31q-35 0 -74.5 28t-53.5 28q-33 0 -33 -56zM736 362q0 -165 -97.5 -269.5t-251.5 -104.5q-153 0 -249.5 104.5t-96.5 269.5q0 164 97 269t250 105q154 0 251 -104.5t97 -269.5z
M633 362q0 126 -67.5 202.5t-177.5 76.5t-177 -76.5t-67 -202.5t67 -203t177 -77t177.5 77.5t67.5 202.5z" />
    <glyph glyph-name="Odieresis" unicode="&#xd6;" horiz-adv-x="777" 
d="M308 792q-24 0 -41 17t-17 41q0 23 17 40.5t41 17.5q23 0 40 -17.5t17 -40.5q0 -24 -17 -41t-40 -17zM469 792q-24 0 -41 17t-17 41q0 23 17.5 40.5t40.5 17.5t40 -17.5t17 -40.5q0 -24 -17 -41t-40 -17zM736 362q0 -165 -97.5 -269.5t-251.5 -104.5q-153 0 -249.5 104.5
t-96.5 269.5q0 164 97 269t250 105q154 0 251 -104.5t97 -269.5zM633 362q0 126 -67.5 202.5t-177.5 76.5t-177 -76.5t-67 -202.5t67 -203t177 -77t177.5 77.5t67.5 202.5z" />
    <glyph glyph-name="multiply" unicode="&#xd7;" 
d="M157 567l173 -173l174 173l57 -57l-174 -173l174 -174l-57 -57l-174 174l-174 -174l-57 57l174 174l-173 173z" />
    <glyph glyph-name="Oslash" unicode="&#xd8;" horiz-adv-x="777" 
d="M736 362q0 -165 -97.5 -269.5t-251.5 -104.5q-107 0 -192 55l-33 -43h-95l70 93q-96 104 -96 269q0 164 97 269t250 105q111 0 196 -57l34 45h93l-71 -94q96 -104 96 -268zM144 362q0 -113 55 -188l325 427q-57 40 -136 40q-110 0 -177 -76.5t-67 -202.5zM633 362
q0 112 -55 187l-324 -428q58 -39 134 -39q110 0 177.5 77.5t67.5 202.5z" />
    <glyph glyph-name="Ugrave" unicode="&#xd9;" horiz-adv-x="711" 
d="M390 776h-72l-86 133h92zM79 257v466h98v-460q0 -87 46.5 -133.5t132.5 -46.5q85 0 131 47t46 133v460h99v-466q0 -124 -74 -196.5t-202 -72.5t-202.5 72t-74.5 197z" />
    <glyph glyph-name="Uacute" unicode="&#xda;" horiz-adv-x="711" 
d="M480 909l-87 -133h-72l67 133h92zM79 257v466h98v-460q0 -87 46.5 -133.5t132.5 -46.5q85 0 131 47t46 133v460h99v-466q0 -124 -74 -196.5t-202 -72.5t-202.5 72t-74.5 197z" />
    <glyph glyph-name="Ucircumflex" unicode="&#xdb;" horiz-adv-x="711" 
d="M298 776h-78l83 138h105l83 -138h-78l-57 94zM79 257v466h98v-460q0 -87 46.5 -133.5t132.5 -46.5q85 0 131 47t46 133v460h99v-466q0 -124 -74 -196.5t-202 -72.5t-202.5 72t-74.5 197z" />
    <glyph glyph-name="Udieresis" unicode="&#xdc;" horiz-adv-x="711" 
d="M275 792q-24 0 -40.5 17t-16.5 41q0 23 17 40.5t40 17.5t40.5 -17.5t17.5 -40.5q0 -24 -17.5 -41t-40.5 -17zM436 792q-24 0 -40.5 17t-16.5 41q0 23 17 40.5t40 17.5t40.5 -17.5t17.5 -40.5q0 -24 -17.5 -41t-40.5 -17zM79 257v466h98v-460q0 -87 46.5 -133.5
t132.5 -46.5q85 0 131 47t46 133v460h99v-466q0 -124 -74 -196.5t-202 -72.5t-202.5 72t-74.5 197z" />
    <glyph glyph-name="Yacute" unicode="&#xdd;" horiz-adv-x="606" 
d="M428 909l-86 -133h-72l67 133h91zM255 294l-245 429h110l161 -289q7 -12 24 -48l24 48l160 289h107l-243 -429v-294h-98v294z" />
    <glyph glyph-name="Thorn" unicode="&#xde;" horiz-adv-x="625" 
d="M365 141h-183v-141h-98v723h98v-136h183q105 0 169 -62t64 -160q0 -96 -64.5 -160t-168.5 -64zM348 499h-166v-270h162q71 0 111 38t40 99t-39.5 97t-107.5 36z" />
    <glyph glyph-name="germandbls" unicode="&#xdf;" horiz-adv-x="578" 
d="M162 0h-94v516q0 102 60.5 161t161.5 59q94 0 149.5 -49.5t55.5 -132.5q0 -48 -23.5 -86t-64.5 -56q67 -22 104 -71.5t37 -117.5q0 -99 -66.5 -161t-181.5 -62q-56 0 -84 6v80h84q73 0 113.5 39t40.5 101q0 66 -43 102t-123 36h-49v78h49q53 0 83.5 29.5t30.5 79.5
q0 47 -29.5 76.5t-81.5 29.5q-58 0 -93.5 -36t-35.5 -98v-523z" />
    <glyph glyph-name="agrave" unicode="&#xe0;" horiz-adv-x="534" 
d="M307 546h-72l-85 133h91zM211 -12q-78 0 -122.5 40.5t-44.5 107.5t47.5 107.5t134.5 47.5l154 12v14q0 111 -115 111q-59 0 -91.5 -25t-32.5 -69h-82q0 76 57.5 122.5t152.5 46.5q94 0 148.5 -50t54.5 -146v-307h-80l-10 79q-19 -42 -65.5 -66.5t-105.5 -24.5zM238 61
q67 0 105 40.5t38 109.5v26l-125 -10q-117 -11 -117 -88q0 -38 26 -58t73 -20z" />
    <glyph glyph-name="aacute" unicode="&#xe1;" horiz-adv-x="534" 
d="M397 679l-86 -133h-73l68 133h91zM211 -12q-78 0 -122.5 40.5t-44.5 107.5t47.5 107.5t134.5 47.5l154 12v14q0 111 -115 111q-59 0 -91.5 -25t-32.5 -69h-82q0 76 57.5 122.5t152.5 46.5q94 0 148.5 -50t54.5 -146v-307h-80l-10 79q-19 -42 -65.5 -66.5t-105.5 -24.5z
M238 61q67 0 105 40.5t38 109.5v26l-125 -10q-117 -11 -117 -88q0 -38 26 -58t73 -20z" />
    <glyph glyph-name="acircumflex" unicode="&#xe2;" horiz-adv-x="534" 
d="M216 546h-78l82 138h105l83 -138h-78l-57 94zM211 -12q-78 0 -122.5 40.5t-44.5 107.5t47.5 107.5t134.5 47.5l154 12v14q0 111 -115 111q-59 0 -91.5 -25t-32.5 -69h-82q0 76 57.5 122.5t152.5 46.5q94 0 148.5 -50t54.5 -146v-307h-80l-10 79q-19 -42 -65.5 -66.5
t-105.5 -24.5zM238 61q67 0 105 40.5t38 109.5v26l-125 -10q-117 -11 -117 -88q0 -38 26 -58t73 -20z" />
    <glyph glyph-name="atilde" unicode="&#xe3;" horiz-adv-x="534" 
d="M179 559h-60q-4 56 18 89t64 33q32 0 72.5 -28t58.5 -28q34 0 34 56h61q4 -60 -19.5 -91t-67.5 -31q-35 0 -74.5 28t-53.5 28q-33 0 -33 -56zM211 -12q-78 0 -122.5 40.5t-44.5 107.5t47.5 107.5t134.5 47.5l154 12v14q0 111 -115 111q-59 0 -91.5 -25t-32.5 -69h-82
q0 76 57.5 122.5t152.5 46.5q94 0 148.5 -50t54.5 -146v-307h-80l-10 79q-19 -42 -65.5 -66.5t-105.5 -24.5zM238 61q67 0 105 40.5t38 109.5v26l-125 -10q-117 -11 -117 -88q0 -38 26 -58t73 -20z" />
    <glyph glyph-name="adieresis" unicode="&#xe4;" horiz-adv-x="534" 
d="M193 562q-24 0 -41 17t-17 41q0 23 17 40.5t41 17.5q23 0 40 -17.5t17 -40.5q0 -24 -17 -41t-40 -17zM354 562q-24 0 -41 17t-17 41q0 23 17 40.5t41 17.5q23 0 40 -17.5t17 -40.5q0 -24 -17 -41t-40 -17zM211 -12q-78 0 -122.5 40.5t-44.5 107.5t47.5 107.5t134.5 47.5
l154 12v14q0 111 -115 111q-59 0 -91.5 -25t-32.5 -69h-82q0 76 57.5 122.5t152.5 46.5q94 0 148.5 -50t54.5 -146v-307h-80l-10 79q-19 -42 -65.5 -66.5t-105.5 -24.5zM238 61q67 0 105 40.5t38 109.5v26l-125 -10q-117 -11 -117 -88q0 -38 26 -58t73 -20z" />
    <glyph glyph-name="aring" unicode="&#xe5;" horiz-adv-x="534" 
d="M273 539q-51 0 -84 33t-33 84q0 50 33.5 83.5t83.5 33.5t84 -33.5t34 -83.5t-34 -83.5t-84 -33.5zM273 595q26 0 42 17t16 45q0 26 -16.5 43.5t-41.5 17.5q-26 0 -42 -17t-16 -44q0 -28 16 -45t42 -17zM211 -12q-78 0 -122.5 40.5t-44.5 107.5t47.5 107.5t134.5 47.5
l154 12v14q0 111 -115 111q-59 0 -91.5 -25t-32.5 -69h-82q0 76 57.5 122.5t152.5 46.5q94 0 148.5 -50t54.5 -146v-307h-80l-10 79q-19 -42 -65.5 -66.5t-105.5 -24.5zM238 61q67 0 105 40.5t38 109.5v26l-125 -10q-117 -11 -117 -88q0 -38 26 -58t73 -20z" />
    <glyph glyph-name="ae" unicode="&#xe6;" horiz-adv-x="882" 
d="M44 137q0 70 48 107.5t131 39.5l157 4v29q0 53 -31.5 82t-86.5 29q-57 0 -89 -25t-32 -69h-82q0 76 56.5 122.5t148.5 46.5q60 0 104 -23t65 -63q65 86 182 86q105 0 167.5 -66.5t62.5 -174.5v-35l-380 -1q6 -75 46 -117.5t110 -42.5q113 0 136 86h89q-18 -78 -77 -121
t-150 -43q-68 0 -121 30t-83 84q-24 -53 -76.5 -83.5t-121.5 -30.5q-82 0 -127.5 40t-45.5 109zM615 424q-62 0 -101 -37t-48 -99h285q0 61 -36.5 98.5t-99.5 37.5zM139 142q0 -40 27 -60.5t75 -20.5q64 0 102 36.5t38 97.5v30l-135 -4q-55 -2 -81 -20.5t-26 -58.5z" />
    <glyph glyph-name="ccedilla" unicode="&#xe7;" horiz-adv-x="534" 
d="M36 244q0 115 66.5 187t173.5 72q92 0 152.5 -48.5t73.5 -130.5h-94q-12 46 -46.5 70.5t-82.5 24.5q-67 0 -108.5 -47.5t-41.5 -126.5t39.5 -126t106.5 -47q50 0 85.5 24.5t48.5 68.5h94q-13 -75 -70 -123t-139 -53l-16 -34q17 5 31 5q31 0 52.5 -19t21.5 -53
q0 -41 -29 -63t-71 -22q-40 0 -68 16v48q36 -17 61 -17q23 0 36.5 10t13.5 26q0 34 -42 34q-23 0 -49 -11l-10 29l24 51q-97 9 -155 78t-58 177z" />
    <glyph glyph-name="egrave" unicode="&#xe8;" horiz-adv-x="542" 
d="M310 546h-72l-85 133h91zM279 -12q-108 0 -175.5 71t-67.5 185q0 115 66.5 187t172.5 72q104 0 167 -66t63 -175v-35l-378 -1q5 -77 44.5 -118.5t109.5 -41.5q112 0 137 86h88q-18 -79 -77 -121.5t-150 -42.5zM275 424q-61 0 -99 -35t-47 -100h282q0 61 -37 98t-99 37z
" />
    <glyph glyph-name="eacute" unicode="&#xe9;" horiz-adv-x="542" 
d="M400 679l-86 -133h-73l67 133h92zM279 -12q-108 0 -175.5 71t-67.5 185q0 115 66.5 187t172.5 72q104 0 167 -66t63 -175v-35l-378 -1q5 -77 44.5 -118.5t109.5 -41.5q112 0 137 86h88q-18 -79 -77 -121.5t-150 -42.5zM275 424q-61 0 -99 -35t-47 -100h282q0 61 -37 98
t-99 37z" />
    <glyph glyph-name="ecircumflex" unicode="&#xea;" horiz-adv-x="542" 
d="M218 546h-77l82 138h105l83 -138h-78l-57 94zM279 -12q-108 0 -175.5 71t-67.5 185q0 115 66.5 187t172.5 72q104 0 167 -66t63 -175v-35l-378 -1q5 -77 44.5 -118.5t109.5 -41.5q112 0 137 86h88q-18 -79 -77 -121.5t-150 -42.5zM275 424q-61 0 -99 -35t-47 -100h282
q0 61 -37 98t-99 37z" />
    <glyph glyph-name="edieresis" unicode="&#xeb;" horiz-adv-x="542" 
d="M195 562q-23 0 -40 17t-17 41q0 23 17 40.5t40 17.5t40.5 -17.5t17.5 -40.5q0 -24 -17.5 -41t-40.5 -17zM357 562q-24 0 -41 17t-17 41q0 23 17 40.5t41 17.5q23 0 40 -17.5t17 -40.5q0 -24 -17 -41t-40 -17zM279 -12q-108 0 -175.5 71t-67.5 185q0 115 66.5 187
t172.5 72q104 0 167 -66t63 -175v-35l-378 -1q5 -77 44.5 -118.5t109.5 -41.5q112 0 137 86h88q-18 -79 -77 -121.5t-150 -42.5zM275 424q-61 0 -99 -35t-47 -100h282q0 61 -37 98t-99 37z" />
    <glyph glyph-name="igrave" unicode="&#xec;" horiz-adv-x="230" 
d="M150 546h-73l-85 133h91zM68 0v489h94v-489h-94z" />
    <glyph glyph-name="iacute" unicode="&#xed;" horiz-adv-x="230" 
d="M239 679l-86 -133h-72l67 133h91zM68 0v489h94v-489h-94z" />
    <glyph glyph-name="icircumflex" unicode="&#xee;" horiz-adv-x="230" 
d="M58 546h-78l83 138h104l83 -138h-78l-57 94zM68 0v489h94v-489h-94z" />
    <glyph glyph-name="idieresis" unicode="&#xef;" horiz-adv-x="230" 
d="M35 562q-24 0 -41 17t-17 41q0 23 17 40.5t41 17.5q23 0 40 -17.5t17 -40.5q0 -24 -17 -41t-40 -17zM196 562q-24 0 -41 17t-17 41q0 23 17 40.5t41 17.5q23 0 40 -17.5t17 -40.5q0 -24 -17 -41t-40 -17zM68 0v489h94v-489h-94z" />
    <glyph glyph-name="eth" unicode="&#xf0;" horiz-adv-x="587" 
d="M36 242q0 107 73 178t176 71q95 0 153 -64q-33 90 -111 181l-112 -53l-24 55l94 45q-38 43 -79 81h110q8 -7 46 -45l81 38l24 -56l-62 -29q146 -174 146 -373q0 -131 -72.5 -207t-186.5 -76q-113 0 -184.5 71.5t-71.5 182.5zM131 239q0 -73 44 -120t117 -47t118 47.5
t45 121.5q0 72 -44 118.5t-116 46.5q-74 0 -119 -47.5t-45 -119.5z" />
    <glyph glyph-name="ntilde" unicode="&#xf1;" horiz-adv-x="575" 
d="M199 559h-61q-4 56 18 89t64 33q33 0 73 -28t59 -28q34 0 34 56h60q4 -60 -19 -91t-67 -31q-36 0 -75 28t-54 28q-32 0 -32 -56zM162 0h-94v489h85l10 -75q23 42 66.5 65.5t95.5 23.5q94 0 141 -53.5t47 -150.5v-299h-94v278q0 139 -118 139q-65 0 -102 -43t-37 -115
v-259z" />
    <glyph glyph-name="ograve" unicode="&#xf2;" horiz-adv-x="581" 
d="M325 546h-72l-86 133h92zM36 245q0 113 72 185t183 72q110 0 182 -72t72 -185t-72 -185t-182 -72q-111 0 -183 72t-72 185zM131 245q0 -77 44.5 -125t115.5 -48t115.5 48.5t44.5 124.5t-44.5 124.5t-115.5 48.5t-115.5 -48t-44.5 -125z" />
    <glyph glyph-name="oacute" unicode="&#xf3;" horiz-adv-x="581" 
d="M415 679l-87 -133h-72l67 133h92zM36 245q0 113 72 185t183 72q110 0 182 -72t72 -185t-72 -185t-182 -72q-111 0 -183 72t-72 185zM131 245q0 -77 44.5 -125t115.5 -48t115.5 48.5t44.5 124.5t-44.5 124.5t-115.5 48.5t-115.5 -48t-44.5 -125z" />
    <glyph glyph-name="ocircumflex" unicode="&#xf4;" horiz-adv-x="581" 
d="M233 546h-78l83 138h105l83 -138h-78l-57 94zM36 245q0 113 72 185t183 72q110 0 182 -72t72 -185t-72 -185t-182 -72q-111 0 -183 72t-72 185zM131 245q0 -77 44.5 -125t115.5 -48t115.5 48.5t44.5 124.5t-44.5 124.5t-115.5 48.5t-115.5 -48t-44.5 -125z" />
    <glyph glyph-name="otilde" unicode="&#xf5;" horiz-adv-x="581" 
d="M197 559h-60q-5 56 17.5 89t64.5 33q32 0 72 -28t59 -28q34 0 34 56h60q4 -60 -19 -91t-67 -31q-35 0 -74.5 28t-53.5 28q-33 0 -33 -56zM36 245q0 113 72 185t183 72q110 0 182 -72t72 -185t-72 -185t-182 -72q-111 0 -183 72t-72 185zM131 245q0 -77 44.5 -125
t115.5 -48t115.5 48.5t44.5 124.5t-44.5 124.5t-115.5 48.5t-115.5 -48t-44.5 -125z" />
    <glyph glyph-name="odieresis" unicode="&#xf6;" horiz-adv-x="581" 
d="M210 562q-24 0 -40.5 17t-16.5 41q0 23 17 40.5t40 17.5t40.5 -17.5t17.5 -40.5q0 -24 -17.5 -41t-40.5 -17zM371 562q-24 0 -40.5 17t-16.5 41q0 23 17 40.5t40 17.5t40.5 -17.5t17.5 -40.5q0 -24 -17.5 -41t-40.5 -17zM36 245q0 113 72 185t183 72q110 0 182 -72
t72 -185t-72 -185t-182 -72q-111 0 -183 72t-72 185zM131 245q0 -77 44.5 -125t115.5 -48t115.5 48.5t44.5 124.5t-44.5 124.5t-115.5 48.5t-115.5 -48t-44.5 -125z" />
    <glyph glyph-name="divide" unicode="&#xf7;" 
d="M330 429q-28 0 -47.5 19.5t-19.5 46.5q0 28 19.5 47.5t47.5 19.5q27 0 47 -19.5t20 -47.5q0 -26 -20 -46t-47 -20zM80 344h500v-81h-500v81zM330 43q-28 0 -47.5 20t-19.5 47t19.5 46.5t47.5 19.5q27 0 47 -19.5t20 -46.5t-20 -47t-47 -20z" />
    <glyph glyph-name="oslash" unicode="&#xf8;" horiz-adv-x="581" 
d="M36 245q0 113 72 185t183 72q59 0 107 -21l31 50h82l-54 -87q88 -74 88 -199q0 -113 -72 -185t-182 -72q-54 0 -103 19l-35 -57h-85l58 94q-90 72 -90 201zM131 245q0 -75 43 -124l178 286q-30 11 -61 11q-71 0 -115.5 -48t-44.5 -125zM451 245q0 74 -42 121l-175 -284
q24 -10 57 -10q71 0 115.5 48.5t44.5 124.5z" />
    <glyph glyph-name="ugrave" unicode="&#xf9;" horiz-adv-x="567" 
d="M313 546h-72l-85 133h91zM406 489h93v-489h-84l-10 74q-21 -39 -66 -62.5t-99 -23.5q-84 0 -131 53t-47 144v304h94v-273q0 -145 117 -145q65 0 99 41t34 119v258z" />
    <glyph glyph-name="uacute" unicode="&#xfa;" horiz-adv-x="567" 
d="M403 679l-86 -133h-73l67 133h92zM406 489h93v-489h-84l-10 74q-21 -39 -66 -62.5t-99 -23.5q-84 0 -131 53t-47 144v304h94v-273q0 -145 117 -145q65 0 99 41t34 119v258z" />
    <glyph glyph-name="ucircumflex" unicode="&#xfb;" horiz-adv-x="567" 
d="M221 546h-78l83 138h105l83 -138h-78l-57 94zM406 489h93v-489h-84l-10 74q-21 -39 -66 -62.5t-99 -23.5q-84 0 -131 53t-47 144v304h94v-273q0 -145 117 -145q65 0 99 41t34 119v258z" />
    <glyph glyph-name="udieresis" unicode="&#xfc;" horiz-adv-x="567" 
d="M198 562q-23 0 -40 17t-17 41q0 23 17 40.5t40 17.5t40.5 -17.5t17.5 -40.5q0 -24 -17.5 -41t-40.5 -17zM359 562q-23 0 -40 17t-17 41q0 23 17 40.5t40 17.5t40.5 -17.5t17.5 -40.5q0 -24 -17.5 -41t-40.5 -17zM406 489h93v-489h-84l-10 74q-21 -39 -66 -62.5t-99 -23.5
q-84 0 -131 53t-47 144v304h94v-273q0 -145 117 -145q65 0 99 41t34 119v258z" />
    <glyph glyph-name="yacute" unicode="&#xfd;" horiz-adv-x="498" 
d="M375 679l-86 -133h-72l67 133h91zM21 -219v77h63q40 0 64 13t40 56l17 47l-197 515h99l142 -394l145 394h97l-231 -599q-25 -62 -62.5 -90.5t-94.5 -28.5q-40 0 -82 10z" />
    <glyph glyph-name="thorn" unicode="&#xfe;" horiz-adv-x="600" 
d="M564 247q0 -115 -60.5 -187.5t-166.5 -72.5q-59 0 -105 24t-70 69v-299h-94v955h94v-331q24 47 70.5 72.5t107.5 25.5q103 0 163.5 -71t60.5 -185zM470 246q0 76 -41 124t-112 48t-112.5 -48t-41.5 -124q0 -77 41.5 -125.5t112.5 -48.5t112 48.5t41 125.5z" />
    <glyph glyph-name="ydieresis" unicode="&#xff;" horiz-adv-x="498" 
d="M171 562q-24 0 -41 17t-17 41q0 23 17 40.5t41 17.5q23 0 40 -17.5t17 -40.5q0 -24 -17 -41t-40 -17zM332 562q-24 0 -41 17t-17 41q0 23 17 40.5t41 17.5q23 0 40 -17.5t17 -40.5q0 -24 -17 -41t-40 -17zM21 -219v77h63q40 0 64 13t40 56l17 47l-197 515h99l142 -394
l145 394h97l-231 -599q-25 -62 -62.5 -90.5t-94.5 -28.5q-40 0 -82 10z" />
    <glyph glyph-name="Amacron" unicode="&#x100;" horiz-adv-x="662" 
d="M207 823v69h248v-69h-248zM114 0h-102l264 723h109l265 -723h-103l-65 180h-304zM318 567l-110 -302h245l-111 302q-9 25 -12 42q-3 -15 -12 -42z" />
    <glyph glyph-name="amacron" unicode="&#x101;" horiz-adv-x="534" 
d="M149 593v69h248v-69h-248zM211 -12q-78 0 -122.5 40.5t-44.5 107.5t47.5 107.5t134.5 47.5l154 12v14q0 111 -115 111q-59 0 -91.5 -25t-32.5 -69h-82q0 76 57.5 122.5t152.5 46.5q94 0 148.5 -50t54.5 -146v-307h-80l-10 79q-19 -42 -65.5 -66.5t-105.5 -24.5zM238 61
q67 0 105 40.5t38 109.5v26l-125 -10q-117 -11 -117 -88q0 -38 26 -58t73 -20z" />
    <glyph glyph-name="Abreve" unicode="&#x102;" horiz-adv-x="662" 
d="M398 910h71q0 -65 -37 -102.5t-101 -37.5t-101 37.5t-37 102.5h71q0 -72 67 -72t67 72zM114 0h-102l264 723h109l265 -723h-103l-65 180h-304zM318 567l-110 -302h245l-111 302q-9 25 -12 42q-3 -15 -12 -42z" />
    <glyph glyph-name="abreve" unicode="&#x103;" horiz-adv-x="534" 
d="M340 680h71q0 -64 -37 -102t-100 -38q-64 0 -101.5 37.5t-37.5 102.5h71q0 -72 68 -72q32 0 49 19t17 53zM211 -12q-78 0 -122.5 40.5t-44.5 107.5t47.5 107.5t134.5 47.5l154 12v14q0 111 -115 111q-59 0 -91.5 -25t-32.5 -69h-82q0 76 57.5 122.5t152.5 46.5
q94 0 148.5 -50t54.5 -146v-307h-80l-10 79q-19 -42 -65.5 -66.5t-105.5 -24.5zM238 61q67 0 105 40.5t38 109.5v26l-125 -10q-117 -11 -117 -88q0 -38 26 -58t73 -20z" />
    <glyph glyph-name="Aogonek" unicode="&#x104;" horiz-adv-x="662" 
d="M114 0h-102l264 723h109l265 -723h-1q-31 -12 -47 -31t-16 -39q0 -34 37 -34q12 0 23 5v-67q-18 -7 -43 -7q-38 0 -61.5 23t-23.5 58q0 28 18.5 52.5t52.5 39.5h-42l-65 180h-304zM318 567l-110 -302h245l-111 302q-9 25 -12 42q-3 -15 -12 -42z" />
    <glyph glyph-name="aogonek" unicode="&#x105;" horiz-adv-x="534" 
d="M211 -12q-78 0 -122.5 40.5t-44.5 107.5t47.5 107.5t134.5 47.5l154 12v14q0 111 -115 111q-59 0 -91.5 -25t-32.5 -69h-82q0 76 57.5 122.5t152.5 46.5q94 0 148.5 -50t54.5 -146v-307q-31 -12 -47.5 -31.5t-16.5 -38.5q0 -34 37 -34q13 0 24 5v-67q-18 -7 -43 -7
q-38 0 -61.5 23t-23.5 58q0 62 70 92h-19l-10 79q-19 -42 -65.5 -66.5t-105.5 -24.5zM238 61q67 0 105 40.5t38 109.5v26l-125 -10q-117 -11 -117 -88q0 -38 26 -58t73 -20z" />
    <glyph glyph-name="Cacute" unicode="&#x106;" horiz-adv-x="743" 
d="M512 909l-86 -133h-73l67 133h92zM384 -11q-155 0 -249 102t-94 270q0 167 96.5 270.5t251.5 103.5q122 0 208.5 -67t106.5 -178h-105q-20 70 -77 110.5t-136 40.5q-110 0 -176 -76t-66 -203t66 -203t176 -76q79 0 138 39.5t79 106.5h104q-23 -108 -112 -174t-211 -66z
" />
    <glyph glyph-name="cacute" unicode="&#x107;" horiz-adv-x="534" 
d="M395 679l-87 -133h-72l67 133h92zM36 244q0 115 66.5 187t173.5 72q92 0 152.5 -48.5t73.5 -130.5h-94q-12 46 -46.5 70.5t-82.5 24.5q-67 0 -108.5 -47.5t-41.5 -126.5t39.5 -126t106.5 -47q50 0 85.5 24.5t48.5 68.5h94q-14 -80 -77 -128.5t-151 -48.5
q-108 0 -173.5 70t-65.5 186z" />
    <glyph glyph-name="Ccircumflex" unicode="&#x108;" horiz-adv-x="743" 
d="M331 777h-78l83 137h105l82 -137h-78l-57 93zM384 -11q-155 0 -249 102t-94 270q0 167 96.5 270.5t251.5 103.5q122 0 208.5 -67t106.5 -178h-105q-20 70 -77 110.5t-136 40.5q-110 0 -176 -76t-66 -203t66 -203t176 -76q79 0 138 39.5t79 106.5h104q-23 -108 -112 -174
t-211 -66z" />
    <glyph glyph-name="ccircumflex" unicode="&#x109;" horiz-adv-x="534" 
d="M213 546h-78l83 138h105l83 -138h-78l-57 94zM36 244q0 115 66.5 187t173.5 72q92 0 152.5 -48.5t73.5 -130.5h-94q-12 46 -46.5 70.5t-82.5 24.5q-67 0 -108.5 -47.5t-41.5 -126.5t39.5 -126t106.5 -47q50 0 85.5 24.5t48.5 68.5h94q-14 -80 -77 -128.5t-151 -48.5
q-108 0 -173.5 70t-65.5 186z" />
    <glyph glyph-name="Cdotaccent" unicode="&#x10a;" horiz-adv-x="743" 
d="M388 792q-25 0 -42.5 17.5t-17.5 41.5q0 25 17.5 43t42.5 18q24 0 41.5 -18t17.5 -43q0 -24 -17.5 -41.5t-41.5 -17.5zM384 -11q-155 0 -249 102t-94 270q0 167 96.5 270.5t251.5 103.5q122 0 208.5 -67t106.5 -178h-105q-20 70 -77 110.5t-136 40.5q-110 0 -176 -76
t-66 -203t66 -203t176 -76q79 0 138 39.5t79 106.5h104q-23 -108 -112 -174t-211 -66z" />
    <glyph glyph-name="cdotaccent" unicode="&#x10b;" horiz-adv-x="534" 
d="M270 562q-24 0 -41.5 17.5t-17.5 41.5q0 25 17.5 43t41.5 18t42 -18t18 -43q0 -24 -18 -41.5t-42 -17.5zM36 244q0 115 66.5 187t173.5 72q92 0 152.5 -48.5t73.5 -130.5h-94q-12 46 -46.5 70.5t-82.5 24.5q-67 0 -108.5 -47.5t-41.5 -126.5t39.5 -126t106.5 -47
q50 0 85.5 24.5t48.5 68.5h94q-14 -80 -77 -128.5t-151 -48.5q-108 0 -173.5 70t-65.5 186z" />
    <glyph glyph-name="Ccaron" unicode="&#x10c;" horiz-adv-x="743" 
d="M335 776l-82 138h77l58 -93l57 93h78l-83 -138h-105zM384 -11q-155 0 -249 102t-94 270q0 167 96.5 270.5t251.5 103.5q122 0 208.5 -67t106.5 -178h-105q-20 70 -77 110.5t-136 40.5q-110 0 -176 -76t-66 -203t66 -203t176 -76q79 0 138 39.5t79 106.5h104
q-23 -108 -112 -174t-211 -66z" />
    <glyph glyph-name="ccaron" unicode="&#x10d;" horiz-adv-x="534" 
d="M218 546l-83 138h78l58 -93l57 93h78l-83 -138h-105zM36 244q0 115 66.5 187t173.5 72q92 0 152.5 -48.5t73.5 -130.5h-94q-12 46 -46.5 70.5t-82.5 24.5q-67 0 -108.5 -47.5t-41.5 -126.5t39.5 -126t106.5 -47q50 0 85.5 24.5t48.5 68.5h94q-14 -80 -77 -128.5
t-151 -48.5q-108 0 -173.5 70t-65.5 186z" />
    <glyph glyph-name="Dcaron" unicode="&#x10e;" horiz-adv-x="722" 
d="M257 776l-83 137h78l58 -93l57 93h78l-83 -137h-105zM323 0h-239v723h235q162 0 262 -100t100 -262q0 -161 -99 -261t-259 -100zM312 633h-130v-542h134q121 0 192 73t71 197q0 126 -71.5 199t-195.5 73z" />
    <glyph glyph-name="dcaron" unicode="&#x10f;" horiz-adv-x="600" 
d="M264 -12q-105 0 -166.5 70.5t-61.5 184.5q0 115 62.5 187.5t169.5 72.5q57 0 101.5 -24t69.5 -69v326h93v-736h-84l-8 89q-24 -49 -70 -75t-106 -26zM585 569v167h81l-21 -167h-60zM283 73q71 0 113 48t42 125q0 76 -42 124t-113 48t-111.5 -47.5t-40.5 -124.5t40.5 -125
t111.5 -48z" />
    <glyph glyph-name="Dcroat" unicode="&#x110;" horiz-adv-x="722" 
d="M16 321v82h68v320h235q162 0 262 -100t100 -262q0 -161 -99 -261t-259 -100h-239v321h-68zM334 321h-152v-230h134q121 0 192 73t71 197q0 126 -71.5 199t-195.5 73h-130v-230h152v-82z" />
    <glyph glyph-name="dcroat" unicode="&#x111;" horiz-adv-x="600" 
d="M264 -12q-105 0 -166.5 70.5t-61.5 184.5q0 115 62.5 187.5t169.5 72.5q57 0 101.5 -24t69.5 -69v167h-159v60h159v99h93v-99h62v-60h-62v-577h-84l-8 89q-24 -49 -70 -75t-106 -26zM283 73q71 0 113 48t42 125q0 76 -42 124t-113 48t-111.5 -47.5t-40.5 -124.5
t40.5 -125t111.5 -48z" />
    <glyph glyph-name="Emacron" unicode="&#x112;" horiz-adv-x="583" 
d="M177 823v69h248v-69h-248zM525 0h-441v723h441v-90h-343v-226h309v-87h-309v-229h343v-91z" />
    <glyph glyph-name="emacron" unicode="&#x113;" horiz-adv-x="542" 
d="M152 593v69h248v-69h-248zM279 -12q-108 0 -175.5 71t-67.5 185q0 115 66.5 187t172.5 72q104 0 167 -66t63 -175v-35l-378 -1q5 -77 44.5 -118.5t109.5 -41.5q112 0 137 86h88q-18 -79 -77 -121.5t-150 -42.5zM275 424q-61 0 -99 -35t-47 -100h282q0 61 -37 98t-99 37z
" />
    <glyph glyph-name="Ebreve" unicode="&#x114;" horiz-adv-x="583" 
d="M368 910h71q0 -64 -37.5 -102t-100.5 -38q-64 0 -101.5 38t-37.5 102h72q0 -72 67 -72t67 72zM525 0h-441v723h441v-90h-343v-226h309v-87h-309v-229h343v-91z" />
    <glyph glyph-name="ebreve" unicode="&#x115;" horiz-adv-x="542" 
d="M343 680h71q0 -64 -37.5 -102t-100.5 -38q-64 0 -101 37.5t-37 102.5h71q0 -72 67 -72t67 72zM279 -12q-108 0 -175.5 71t-67.5 185q0 115 66.5 187t172.5 72q104 0 167 -66t63 -175v-35l-378 -1q5 -77 44.5 -118.5t109.5 -41.5q112 0 137 86h88q-18 -79 -77 -121.5
t-150 -42.5zM275 424q-61 0 -99 -35t-47 -100h282q0 61 -37 98t-99 37z" />
    <glyph glyph-name="Edotaccent" unicode="&#x116;" horiz-adv-x="583" 
d="M300 792q-24 0 -41.5 17.5t-17.5 41.5q0 25 17.5 43t41.5 18t42 -18t18 -43q0 -24 -18 -41.5t-42 -17.5zM525 0h-441v723h441v-90h-343v-226h309v-87h-309v-229h343v-91z" />
    <glyph glyph-name="edotaccent" unicode="&#x117;" horiz-adv-x="542" 
d="M276 562q-25 0 -42.5 17.5t-17.5 41.5q0 25 17.5 43t42.5 18q24 0 41.5 -18t17.5 -43q0 -24 -17.5 -41.5t-41.5 -17.5zM279 -12q-108 0 -175.5 71t-67.5 185q0 115 66.5 187t172.5 72q104 0 167 -66t63 -175v-35l-378 -1q5 -77 44.5 -118.5t109.5 -41.5q112 0 137 86h88
q-18 -79 -77 -121.5t-150 -42.5zM275 424q-61 0 -99 -35t-47 -100h282q0 61 -37 98t-99 37z" />
    <glyph glyph-name="Eogonek" unicode="&#x118;" horiz-adv-x="583" 
d="M464 0h-380v723h441v-90h-343v-226h309v-87h-309v-229h343v-91q-32 -12 -48 -31t-16 -39q0 -34 37 -34q13 0 24 5v-67q-18 -7 -43 -7q-38 0 -61.5 23t-23.5 58q0 62 70 92z" />
    <glyph glyph-name="eogonek" unicode="&#x119;" horiz-adv-x="542" 
d="M279 -12q-108 0 -175.5 71t-67.5 185q0 115 66.5 187t172.5 72q104 0 167 -66t63 -175v-35l-378 -1q5 -77 44.5 -118.5t109.5 -41.5q112 0 137 86h88q-28 -118 -140 -152h1q-32 -12 -48 -31t-16 -39q0 -34 37 -34q13 0 23 5v-67q-18 -7 -42 -7q-38 0 -62 23t-24 58
q0 48 48 80h-4zM275 424q-61 0 -99 -35t-47 -100h282q0 61 -37 98t-99 37z" />
    <glyph glyph-name="Ecaron" unicode="&#x11a;" horiz-adv-x="583" 
d="M248 776l-83 138h78l58 -93l57 93h78l-83 -138h-105zM525 0h-441v723h441v-90h-343v-226h309v-87h-309v-229h343v-91z" />
    <glyph glyph-name="ecaron" unicode="&#x11b;" horiz-adv-x="542" 
d="M223 546l-82 138h77l58 -93l57 93h78l-83 -138h-105zM279 -12q-108 0 -175.5 71t-67.5 185q0 115 66.5 187t172.5 72q104 0 167 -66t63 -175v-35l-378 -1q5 -77 44.5 -118.5t109.5 -41.5q112 0 137 86h88q-18 -79 -77 -121.5t-150 -42.5zM275 424q-61 0 -99 -35t-47 -100
h282q0 61 -37 98t-99 37z" />
    <glyph glyph-name="Gcircumflex" unicode="&#x11c;" horiz-adv-x="765" 
d="M338 777h-78l82 137h105l83 -137h-78l-57 93zM394 643q-116 0 -183 -78t-67 -208q0 -129 68.5 -202.5t182.5 -73.5q98 0 160 52.5t62 156.5v21h-242v87h334v-399h-82l-7 98q-30 -49 -92.5 -79t-140.5 -30q-154 0 -250 102t-96 269q0 166 98 271t257 105q119 0 203 -63
t102 -167h-104q-20 67 -74.5 102.5t-128.5 35.5z" />
    <glyph glyph-name="gcircumflex" unicode="&#x11d;" horiz-adv-x="598" 
d="M225 553h-78l83 138h104l83 -138h-78l-57 93zM37 257q0 106 63.5 176t167.5 70q59 0 103.5 -25.5t67.5 -71.5l7 83h84v-469q0 -116 -66.5 -184t-178.5 -68q-100 0 -164 53t-78 146h94q9 -54 48 -84t100 -30q69 0 110.5 41.5t41.5 111.5v98q-24 -43 -69.5 -67t-103.5 -24
q-102 0 -164.5 69.5t-62.5 174.5zM131 259q0 -71 40.5 -117.5t108.5 -46.5q70 0 111.5 45.5t41.5 118.5q0 72 -40.5 117t-111.5 45q-69 0 -109.5 -46t-40.5 -116z" />
    <glyph glyph-name="Gbreve" unicode="&#x11e;" horiz-adv-x="765" 
d="M462 911h71q0 -64 -37 -102t-100 -38q-65 0 -102 37.5t-37 102.5h71q0 -35 17.5 -54t50.5 -19q66 0 66 73zM394 643q-116 0 -183 -78t-67 -208q0 -129 68.5 -202.5t182.5 -73.5q98 0 160 52.5t62 156.5v21h-242v87h334v-399h-82l-7 98q-30 -49 -92.5 -79t-140.5 -30
q-154 0 -250 102t-96 269q0 166 98 271t257 105q119 0 203 -63t102 -167h-104q-20 67 -74.5 102.5t-128.5 35.5z" />
    <glyph glyph-name="gbreve" unicode="&#x11f;" horiz-adv-x="598" 
d="M350 687h71q0 -64 -37.5 -102t-100.5 -38q-64 0 -101.5 37.5t-37.5 102.5h71q0 -72 68 -72q32 0 49.5 18.5t17.5 53.5zM37 257q0 106 63.5 176t167.5 70q59 0 103.5 -25.5t67.5 -71.5l7 83h84v-469q0 -116 -66.5 -184t-178.5 -68q-100 0 -164 53t-78 146h94q9 -54 48 -84
t100 -30q69 0 110.5 41.5t41.5 111.5v98q-24 -43 -69.5 -67t-103.5 -24q-102 0 -164.5 69.5t-62.5 174.5zM131 259q0 -71 40.5 -117.5t108.5 -46.5q70 0 111.5 45.5t41.5 118.5q0 72 -40.5 117t-111.5 45q-69 0 -109.5 -46t-40.5 -116z" />
    <glyph glyph-name="Gdotaccent" unicode="&#x120;" horiz-adv-x="765" 
d="M395 793q-25 0 -42.5 17t-17.5 42t17.5 42.5t42.5 17.5q24 0 41.5 -18t17.5 -42t-17.5 -41.5t-41.5 -17.5zM394 643q-116 0 -183 -78t-67 -208q0 -129 68.5 -202.5t182.5 -73.5q98 0 160 52.5t62 156.5v21h-242v87h334v-399h-82l-7 98q-30 -49 -92.5 -79t-140.5 -30
q-154 0 -250 102t-96 269q0 166 98 271t257 105q119 0 203 -63t102 -167h-104q-20 67 -74.5 102.5t-128.5 35.5z" />
    <glyph glyph-name="gdotaccent" unicode="&#x121;" horiz-adv-x="598" 
d="M282 569q-25 0 -42 17.5t-17 41.5q0 25 17.5 42.5t41.5 17.5t41.5 -18t17.5 -42t-17.5 -41.5t-41.5 -17.5zM37 257q0 106 63.5 176t167.5 70q59 0 103.5 -25.5t67.5 -71.5l7 83h84v-469q0 -116 -66.5 -184t-178.5 -68q-100 0 -164 53t-78 146h94q9 -54 48 -84t100 -30
q69 0 110.5 41.5t41.5 111.5v98q-24 -43 -69.5 -67t-103.5 -24q-102 0 -164.5 69.5t-62.5 174.5zM131 259q0 -71 40.5 -117.5t108.5 -46.5q70 0 111.5 45.5t41.5 118.5q0 72 -40.5 117t-111.5 45q-69 0 -109.5 -46t-40.5 -116z" />
    <glyph glyph-name="Gcommaaccent" unicode="&#x122;" horiz-adv-x="765" 
d="M394 643q-116 0 -183 -78t-67 -208q0 -129 68.5 -202.5t182.5 -73.5q98 0 160 52.5t62 156.5v21h-242v87h334v-399h-82l-7 98q-30 -49 -92.5 -79t-140.5 -30q-154 0 -250 102t-96 269q0 166 98 271t257 105q119 0 203 -63t102 -167h-104q-20 67 -74.5 102.5t-128.5 35.5z
M441 -106q0 -49 -29 -78t-74 -25v34q26 -2 41 8.5t17 31.5q-8 -4 -19 -4q-21 0 -35 14t-14 35q0 24 15.5 39t38.5 15q27 0 43 -18.5t16 -51.5z" />
    <glyph glyph-name="gcommaaccent" unicode="&#x123;" horiz-adv-x="598" 
d="M334 608q0 -23 -15.5 -38.5t-38.5 -15.5q-27 0 -43 18.5t-16 51.5q0 49 29.5 78.5t73.5 25.5v-35q-55 5 -58 -39q7 4 19 4q21 0 35 -14.5t14 -35.5zM37 257q0 106 63.5 176t167.5 70q59 0 103.5 -25.5t67.5 -71.5l7 83h84v-469q0 -116 -66.5 -184t-178.5 -68
q-100 0 -164 53t-78 146h94q9 -54 48 -84t100 -30q69 0 110.5 41.5t41.5 111.5v98q-24 -43 -69.5 -67t-103.5 -24q-102 0 -164.5 69.5t-62.5 174.5zM131 259q0 -71 40.5 -117.5t108.5 -46.5q70 0 111.5 45.5t41.5 118.5q0 72 -40.5 117t-111.5 45q-69 0 -109.5 -46
t-40.5 -116z" />
    <glyph glyph-name="Hbar" unicode="&#x126;" horiz-adv-x="722" 
d="M182 0h-98v540h-81v84h81v99h98v-99h358v99h98v-99h82v-84h-82v-540h-98v321h-358v-321zM182 412h358v128h-358v-128z" />
    <glyph glyph-name="hbar" unicode="&#x127;" horiz-adv-x="575" 
d="M162 1h-94v576h-62v60h62v99h94v-99h158v-60h-158v-163q24 41 67 65t99 24q92 0 138.5 -54t46.5 -150v-299h-94v278q0 139 -117 139q-66 0 -103 -42.5t-37 -107.5v-266z" />
    <glyph glyph-name="Itilde" unicode="&#x128;" horiz-adv-x="267" 
d="M39 789h-60q-4 56 18 89t64 33q32 0 72.5 -28t58.5 -28q35 0 35 56h60q4 -60 -19 -91t-68 -31q-35 0 -74.5 28t-53.5 28q-33 0 -33 -56zM182 723v-723h-98v723h98z" />
    <glyph glyph-name="itilde" unicode="&#x129;" horiz-adv-x="230" 
d="M21 559h-60q-4 56 18 89t64 33q32 0 72.5 -28t58.5 -28q35 0 35 56h60q4 -60 -19.5 -91t-67.5 -31q-35 0 -74.5 28t-53.5 28q-33 0 -33 -56zM68 0v489h94v-489h-94z" />
    <glyph glyph-name="Imacron" unicode="&#x12a;" horiz-adv-x="267" 
d="M9 823v69h249v-69h-249zM182 723v-723h-98v723h98z" />
    <glyph glyph-name="imacron" unicode="&#x12b;" horiz-adv-x="230" 
d="M-9 593v69h249v-69h-249zM68 0v489h94v-489h-94z" />
    <glyph glyph-name="Iogonek" unicode="&#x12e;" horiz-adv-x="267" 
d="M121 0h-37v723h98v-723q-31 -12 -47.5 -31.5t-16.5 -38.5q0 -34 37 -34q13 0 24 5v-67q-18 -7 -43 -7q-38 0 -61.5 23t-23.5 58q0 62 70 92z" />
    <glyph glyph-name="iogonek" unicode="&#x12f;" horiz-adv-x="230" 
d="M114 605q-26 0 -44 18.5t-18 43.5q0 26 18 44t44 18t44 -18t18 -44q0 -25 -18 -43.5t-44 -18.5zM68 0v489h94v-489h-1q-31 -12 -47.5 -31.5t-16.5 -38.5q0 -34 37 -34q13 0 24 5v-67q-18 -7 -43 -7q-38 0 -61.5 23t-23.5 58q0 28 18 52.5t52 39.5h-32z" />
    <glyph glyph-name="Idotaccent" unicode="&#x130;" horiz-adv-x="267" 
d="M133 792q-25 0 -42 17.5t-17 41.5q0 25 17.5 43t41.5 18t42 -18t18 -43q0 -24 -18 -41.5t-42 -17.5zM182 723v-723h-98v723h98z" />
    <glyph glyph-name="dotlessi" unicode="&#x131;" horiz-adv-x="230" 
d="M68 0v489h94v-489h-94z" />
    <glyph glyph-name="Jcircumflex" unicode="&#x134;" horiz-adv-x="529" 
d="M343 777h-77l82 137h105l83 -137h-78l-57 93zM20 201v36h95v-36q0 -55 30.5 -88.5t88.5 -33.5q60 0 89 33t29 92v519h98v-523q0 -97 -59.5 -154.5t-156.5 -57.5q-101 0 -157.5 58.5t-56.5 154.5z" />
    <glyph glyph-name="jcircumflex" unicode="&#x135;" horiz-adv-x="230" 
d="M58 546h-78l83 138h105l83 -138h-78l-57 94zM-56 -222l16 85q27 -7 45 -7q33 0 48 19.5t15 61.5v552h94v-561q0 -74 -39 -116.5t-110 -42.5q-37 0 -69 9z" />
    <glyph glyph-name="Kcommaaccent" unicode="&#x136;" horiz-adv-x="643" 
d="M182 723v-410l322 410h117l-242 -307l246 -416h-114l-197 333l-132 -167v-166h-98v723h98zM397 -106q0 -49 -29.5 -78t-73.5 -25v34q26 -2 41 8.5t16 30.5q-8 -3 -18 -3q-21 0 -35 14t-14 35q0 24 15 39t39 15q27 0 43 -18.5t16 -51.5z" />
    <glyph glyph-name="kcommaaccent" unicode="&#x137;" horiz-adv-x="508" 
d="M164 0h-94v736h94v-477l217 230h118l-187 -195l186 -294h-108l-143 226l-83 -87v-139zM316 -106q0 -49 -29 -78t-74 -25v34q26 -2 41 8.5t17 31.5q-7 -4 -19 -4q-21 0 -35 14t-14 35q0 24 15.5 39t39.5 15q27 0 42.5 -18.5t15.5 -51.5z" />
    <glyph glyph-name="Lacute" unicode="&#x139;" horiz-adv-x="522" 
d="M258 900l-87 -132h-72l67 132h92zM182 723v-632h318v-91h-416v723h98z" />
    <glyph glyph-name="lacute" unicode="&#x13a;" horiz-adv-x="234" 
d="M241 907l-86 -132h-73l68 132h91zM164 0h-94v736h94v-736z" />
    <glyph glyph-name="Lcommaaccent" unicode="&#x13b;" horiz-adv-x="522" 
d="M182 723v-632h318v-91h-416v723h98zM345 -106q0 -49 -29 -78t-74 -25v34q26 -2 41 8.5t17 31.5q-7 -4 -19 -4q-21 0 -35 14t-14 35q0 24 15.5 39t38.5 15q27 0 43 -18.5t16 -51.5z" />
    <glyph glyph-name="lcommaaccent" unicode="&#x13c;" horiz-adv-x="234" 
d="M164 0h-94v736h94v-736zM172 -106q0 -49 -29 -78t-74 -25v34q26 -2 41 8.5t17 31.5q-7 -4 -19 -4q-21 0 -35 14t-14 35q0 24 15.5 39t39.5 15q27 0 42.5 -18.5t15.5 -51.5z" />
    <glyph glyph-name="Lcaron" unicode="&#x13d;" horiz-adv-x="522" 
d="M182 723v-632h318v-91h-416v723h98zM235 556v167h82l-22 -167h-60z" />
    <glyph glyph-name="lcaron" unicode="&#x13e;" horiz-adv-x="234" 
d="M164 0h-94v736h94v-736zM216 569v167h82l-21 -167h-61z" />
    <glyph glyph-name="Ldot" unicode="&#x13f;" horiz-adv-x="522" 
d="M182 723v-632h318v-91h-416v723h98zM331 307q-23 0 -40.5 17t-17.5 40q0 24 17 40.5t41 16.5q23 0 40 -17t17 -40t-17 -40t-40 -17z" />
    <glyph glyph-name="ldot" unicode="&#x140;" horiz-adv-x="355" 
d="M164 0h-94v736h94v-736zM295 304q-25 0 -42.5 17t-17.5 41q0 25 17.5 42.5t42.5 17.5q24 0 41.5 -17.5t17.5 -42.5q0 -23 -17.5 -40.5t-41.5 -17.5z" />
    <glyph glyph-name="Lslash" unicode="&#x141;" horiz-adv-x="522" 
d="M16 256v80l68 32v355h98v-308l171 82v-80l-171 -82v-244h318v-91h-416v288z" />
    <glyph glyph-name="lslash" unicode="&#x142;" horiz-adv-x="234" 
d="M164 0h-94v326l-58 -28v71l58 28v339h94v-294l59 28v-71l-59 -28v-371z" />
    <glyph glyph-name="Nacute" unicode="&#x143;" horiz-adv-x="734" 
d="M493 909l-86 -133h-72l67 133h91zM182 0h-98v723h98l370 -559v559h98v-723h-98l-370 559v-559z" />
    <glyph glyph-name="nacute" unicode="&#x144;" horiz-adv-x="575" 
d="M416 679l-86 -133h-72l67 133h91zM162 0h-94v489h85l10 -75q23 42 66.5 65.5t95.5 23.5q94 0 141 -53.5t47 -150.5v-299h-94v278q0 139 -118 139q-65 0 -102 -43t-37 -115v-259z" />
    <glyph glyph-name="Ncommaaccent" unicode="&#x145;" horiz-adv-x="734" 
d="M182 0h-98v723h98l370 -559v559h98v-723h-98l-370 559v-559zM427 -106q0 -49 -29 -78t-74 -25v34q26 -2 41 8.5t17 31.5q-7 -4 -19 -4q-21 0 -35 14t-14 35q0 24 15.5 39t39.5 15q27 0 42.5 -18.5t15.5 -51.5z" />
    <glyph glyph-name="ncommaaccent" unicode="&#x146;" horiz-adv-x="575" 
d="M162 0h-94v489h85l10 -75q23 42 66.5 65.5t95.5 23.5q94 0 141 -53.5t47 -150.5v-299h-94v278q0 139 -118 139q-65 0 -102 -43t-37 -115v-259zM344 -106q0 -49 -29.5 -78t-73.5 -25v34q26 -2 40.5 8.5t16.5 31.5q-7 -4 -18 -4q-21 0 -35.5 14t-14.5 35q0 24 15.5 39
t39.5 15q27 0 43 -18.5t16 -51.5z" />
    <glyph glyph-name="Ncaron" unicode="&#x147;" horiz-adv-x="734" 
d="M317 776l-83 138h78l57 -93l57 93h78l-82 -138h-105zM182 0h-98v723h98l370 -559v559h98v-723h-98l-370 559v-559z" />
    <glyph glyph-name="ncaron" unicode="&#x148;" horiz-adv-x="575" 
d="M240 546l-83 138h78l57 -93l57 93h78l-82 -138h-105zM162 0h-94v489h85l10 -75q23 42 66.5 65.5t95.5 23.5q94 0 141 -53.5t47 -150.5v-299h-94v278q0 139 -118 139q-65 0 -102 -43t-37 -115v-259z" />
    <glyph glyph-name="Eng" unicode="&#x14a;" horiz-adv-x="734" 
d="M501 -231q-45 0 -84 12l17 84q29 -9 55 -9q67 0 67 81v57l-374 566v-560h-98v723h98l370 -559v559h98v-795q0 -74 -39 -116.5t-110 -42.5z" />
    <glyph glyph-name="eng" unicode="&#x14b;" horiz-adv-x="575" 
d="M162 0h-94v489h85l10 -75q23 42 66.5 65.5t95.5 23.5q94 0 141 -53.5t47 -150.5v-371q0 -74 -39 -116.5t-110 -42.5q-38 0 -69 9l16 85q27 -7 45 -7q33 0 48 19.5t15 61.5v341q0 139 -118 139q-65 0 -102 -43t-37 -115v-259z" />
    <glyph glyph-name="Omacron" unicode="&#x14c;" horiz-adv-x="777" 
d="M264 823v69h249v-69h-249zM736 362q0 -165 -97.5 -269.5t-251.5 -104.5q-153 0 -249.5 104.5t-96.5 269.5q0 164 97 269t250 105q154 0 251 -104.5t97 -269.5zM633 362q0 126 -67.5 202.5t-177.5 76.5t-177 -76.5t-67 -202.5t67 -203t177 -77t177.5 77.5t67.5 202.5z" />
    <glyph glyph-name="omacron" unicode="&#x14d;" horiz-adv-x="581" 
d="M166 593v69h249v-69h-249zM36 245q0 113 72 185t183 72q110 0 182 -72t72 -185t-72 -185t-182 -72q-111 0 -183 72t-72 185zM131 245q0 -77 44.5 -125t115.5 -48t115.5 48.5t44.5 124.5t-44.5 124.5t-115.5 48.5t-115.5 -48t-44.5 -125z" />
    <glyph glyph-name="Ohungarumlaut" unicode="&#x150;" horiz-adv-x="777" 
d="M448 909l-86 -133h-69l71 133h84zM583 909l-95 -133h-70l79 133h86zM736 362q0 -165 -97.5 -269.5t-251.5 -104.5q-153 0 -249.5 104.5t-96.5 269.5q0 164 97 269t250 105q154 0 251 -104.5t97 -269.5zM633 362q0 126 -67.5 202.5t-177.5 76.5t-177 -76.5t-67 -202.5
t67 -203t177 -77t177.5 77.5t67.5 202.5z" />
    <glyph glyph-name="ohungarumlaut" unicode="&#x151;" horiz-adv-x="581" 
d="M350 679l-85 -133h-69l70 133h84zM485 679l-95 -133h-70l79 133h86zM36 245q0 113 72 185t183 72q110 0 182 -72t72 -185t-72 -185t-182 -72q-111 0 -183 72t-72 185zM131 245q0 -77 44.5 -125t115.5 -48t115.5 48.5t44.5 124.5t-44.5 124.5t-115.5 48.5t-115.5 -48
t-44.5 -125z" />
    <glyph glyph-name="OE" unicode="&#x152;" horiz-adv-x="1144" 
d="M41 363q0 163 98 268t253 105q78 0 147 -32t107 -87v106h439v-90h-341v-226h308v-87h-308v-229h341v-91h-439v117q-32 -58 -101.5 -93.5t-153.5 -35.5q-155 0 -252.5 105.5t-97.5 269.5zM144 364q0 -126 71 -204t180 -78t179 77.5t70 203.5q0 125 -70 202t-180 77
q-109 0 -179.5 -76.5t-70.5 -201.5z" />
    <glyph glyph-name="oe" unicode="&#x153;" horiz-adv-x="960" 
d="M36 245q0 113 72 185t183 72q134 0 205 -103q66 104 197 104q104 0 167 -66t63 -175v-35l-378 -1q5 -77 44.5 -118.5t109.5 -41.5q112 0 137 86h88q-18 -79 -77 -121.5t-150 -42.5q-134 0 -200 104q-70 -104 -206 -104q-111 0 -183 72t-72 185zM693 424q-61 0 -99 -35
t-47 -100h283q0 61 -37.5 98t-99.5 37zM131 245q0 -77 44.5 -125t115.5 -48t115.5 48.5t44.5 124.5t-44.5 124.5t-115.5 48.5t-115.5 -48t-44.5 -125z" />
    <glyph glyph-name="Racute" unicode="&#x154;" horiz-adv-x="654" 
d="M433 909l-86 -132h-73l68 132h91zM182 0h-98v723h273q116 0 181.5 -58t65.5 -159q0 -75 -36.5 -127t-103.5 -74l147 -305h-109l-135 286h-185v-286zM182 635v-262h176q68 0 105.5 35t37.5 97q0 63 -38 96.5t-106 33.5h-175z" />
    <glyph glyph-name="racute" unicode="&#x155;" horiz-adv-x="368" 
d="M318 683l-86 -133h-73l67 133h92zM348 493v-86h-42q-67 0 -105.5 -39t-38.5 -109v-259h-94v488h88l6 -74q15 39 51 62t85 23q22 0 50 -6z" />
    <glyph glyph-name="Rcommaaccent" unicode="&#x156;" horiz-adv-x="654" 
d="M182 0h-98v723h273q116 0 181.5 -58t65.5 -159q0 -75 -36.5 -127t-103.5 -74l147 -305h-109l-135 286h-185v-286zM182 635v-262h176q68 0 105.5 35t37.5 97q0 63 -38 96.5t-106 33.5h-175zM398 -106q0 -49 -29.5 -78t-73.5 -25v34q26 -2 40.5 8.5t16.5 31.5q-7 -4 -18 -4
q-21 0 -35.5 14t-14.5 35q0 24 15.5 39t39.5 15q27 0 43 -18.5t16 -51.5z" />
    <glyph glyph-name="rcommaaccent" unicode="&#x157;" horiz-adv-x="368" 
d="M348 493v-86h-42q-67 0 -105.5 -39t-38.5 -109v-259h-94v488h88l6 -74q15 39 51 62t85 23q22 0 50 -6zM170 -106q0 -49 -29 -78t-74 -25v34q26 -2 41 8.5t17 31.5q-7 -4 -19 -4q-21 0 -35 14t-14 35q0 24 15.5 39t39.5 15q27 0 42.5 -18.5t15.5 -51.5z" />
    <glyph glyph-name="Rcaron" unicode="&#x158;" horiz-adv-x="654" 
d="M256 777l-82 137h78l57 -93l57 93h78l-83 -137h-105zM182 0h-98v723h273q116 0 181.5 -58t65.5 -159q0 -75 -36.5 -127t-103.5 -74l147 -305h-109l-135 286h-185v-286zM182 635v-262h176q68 0 105.5 35t37.5 97q0 63 -38 96.5t-106 33.5h-175z" />
    <glyph glyph-name="rcaron" unicode="&#x159;" horiz-adv-x="368" 
d="M141 550l-83 138h78l58 -94l57 94h78l-83 -138h-105zM348 493v-86h-42q-67 0 -105.5 -39t-38.5 -109v-259h-94v488h88l6 -74q15 39 51 62t85 23q22 0 50 -6z" />
    <glyph glyph-name="Sacute" unicode="&#x15a;" horiz-adv-x="577" 
d="M410 909l-86 -133h-72l67 133h91zM42 528q0 93 68.5 150.5t180.5 57.5q103 0 166 -54t69 -148h-99q-4 54 -40 84t-97 30q-68 0 -109 -32t-41 -85q0 -85 101 -109l119 -28q178 -41 178 -193q0 -97 -69.5 -155t-185.5 -58q-111 0 -179 54t-72 147h100q2 -52 42.5 -82.5
t108.5 -30.5q72 0 114.5 31.5t42.5 85.5q0 86 -100 109l-119 27q-179 41 -179 199z" />
    <glyph glyph-name="sacute" unicode="&#x15b;" horiz-adv-x="448" 
d="M349 696l-86 -133h-73l67 133h92zM28 142h90q0 -37 26.5 -58.5t73.5 -21.5q49 0 76.5 19t27.5 53q0 26 -15 41.5t-52 24.5l-86 20q-128 31 -128 136q0 67 51 107t133 40q80 0 128.5 -41.5t50.5 -111.5h-90q-2 37 -26 58.5t-66 21.5q-44 0 -68 -18.5t-24 -52.5
q0 -49 72 -67l86 -21q64 -15 94 -46t30 -85q0 -69 -54 -110.5t-142 -41.5q-86 0 -137 42t-51 112z" />
    <glyph glyph-name="Scircumflex" unicode="&#x15c;" horiz-adv-x="577" 
d="M229 776h-78l83 138h104l83 -138h-78l-57 94zM42 528q0 93 68.5 150.5t180.5 57.5q103 0 166 -54t69 -148h-99q-4 54 -40 84t-97 30q-68 0 -109 -32t-41 -85q0 -85 101 -109l119 -28q178 -41 178 -193q0 -97 -69.5 -155t-185.5 -58q-111 0 -179 54t-72 147h100
q2 -52 42.5 -82.5t108.5 -30.5q72 0 114.5 31.5t42.5 85.5q0 86 -100 109l-119 27q-179 41 -179 199z" />
    <glyph glyph-name="scircumflex" unicode="&#x15d;" horiz-adv-x="448" 
d="M167 563h-78l83 138h105l83 -138h-78l-57 93zM28 142h90q0 -37 26.5 -58.5t73.5 -21.5q49 0 76.5 19t27.5 53q0 26 -15 41.5t-52 24.5l-86 20q-128 31 -128 136q0 67 51 107t133 40q80 0 128.5 -41.5t50.5 -111.5h-90q-2 37 -26 58.5t-66 21.5q-44 0 -68 -18.5t-24 -52.5
q0 -49 72 -67l86 -21q64 -15 94 -46t30 -85q0 -69 -54 -110.5t-142 -41.5q-86 0 -137 42t-51 112z" />
    <glyph glyph-name="Scedilla" unicode="&#x15e;" horiz-adv-x="577" 
d="M221 -181v48q36 -17 61 -17q23 0 36.5 9.5t13.5 26.5q0 34 -41 34q-24 0 -49 -11l-11 29l24 51q-99 7 -159 60t-64 140h100q2 -52 42.5 -82.5t108.5 -30.5q72 0 114.5 31.5t42.5 85.5q0 86 -100 109l-119 27q-179 41 -179 199q0 93 68.5 150.5t180.5 57.5q103 0 166 -54
t69 -148h-99q-4 54 -40 84t-97 30q-68 0 -109 -32t-41 -85q0 -85 101 -109l119 -28q178 -41 178 -193q0 -94 -64.5 -151t-173.5 -62l-16 -33q17 5 31 5q31 0 52.5 -19t21.5 -53q0 -41 -29 -63t-71 -22q-40 0 -68 16z" />
    <glyph glyph-name="scedilla" unicode="&#x15f;" horiz-adv-x="448" 
d="M28 142h90q0 -37 26.5 -58.5t73.5 -21.5q49 0 76.5 19t27.5 53q0 26 -15 41.5t-52 24.5l-86 20q-128 31 -128 136q0 67 51 107t133 40q80 0 128.5 -41.5t50.5 -111.5h-90q-2 37 -26 58.5t-66 21.5q-44 0 -68 -18.5t-24 -52.5q0 -49 72 -67l86 -21q64 -15 94 -46t30 -85
q0 -65 -49 -106t-129 -45l-16 -34q17 5 31 5q31 0 52.5 -19t21.5 -53q0 -41 -28.5 -63t-71.5 -22q-40 0 -68 16v48q36 -17 62 -17q22 0 35.5 9.5t13.5 26.5q0 34 -41 34q-24 0 -49 -11l-11 29l24 51q-74 7 -117.5 48t-43.5 105z" />
    <glyph glyph-name="Scaron" unicode="&#x160;" horiz-adv-x="577" 
d="M234 776l-83 138h78l57 -93l57 93h78l-83 -138h-104zM42 528q0 93 68.5 150.5t180.5 57.5q103 0 166 -54t69 -148h-99q-4 54 -40 84t-97 30q-68 0 -109 -32t-41 -85q0 -85 101 -109l119 -28q178 -41 178 -193q0 -97 -69.5 -155t-185.5 -58q-111 0 -179 54t-72 147h100
q2 -52 42.5 -82.5t108.5 -30.5q72 0 114.5 31.5t42.5 85.5q0 86 -100 109l-119 27q-179 41 -179 199z" />
    <glyph glyph-name="scaron" unicode="&#x161;" horiz-adv-x="448" 
d="M172 563l-83 138h78l58 -94l57 94h78l-83 -138h-105zM28 142h90q0 -37 26.5 -58.5t73.5 -21.5q49 0 76.5 19t27.5 53q0 26 -15 41.5t-52 24.5l-86 20q-128 31 -128 136q0 67 51 107t133 40q80 0 128.5 -41.5t50.5 -111.5h-90q-2 37 -26 58.5t-66 21.5q-44 0 -68 -18.5
t-24 -52.5q0 -49 72 -67l86 -21q64 -15 94 -46t30 -85q0 -69 -54 -110.5t-142 -41.5q-86 0 -137 42t-51 112z" />
    <glyph glyph-name="Tcedilla" unicode="&#x162;" horiz-adv-x="562" 
d="M218 -181v48q36 -17 62 -17q22 0 35.5 9.5t13.5 26.5q0 34 -41 34q-24 0 -49 -11l-11 29l29 62h-25v633h-218v90h533v-90h-217v-633h-27l-22 -45q17 5 31 5q31 0 52.5 -19t21.5 -53q0 -41 -28.5 -63t-71.5 -22q-40 0 -68 16z" />
    <glyph glyph-name="tcedilla" unicode="&#x163;" horiz-adv-x="318" 
d="M98 -181v48q36 -17 62 -17q22 0 35.5 9.5t13.5 26.5q0 34 -41 34q-24 0 -49 -11l-11 29l29 62h-25v410h-96v79h96v153h94v-153h96v-79h-96v-410h-23l-22 -45q17 5 31 5q31 0 52.5 -19t21.5 -53q0 -41 -28.5 -63t-71.5 -22q-40 0 -68 16z" />
    <glyph glyph-name="Tcaron" unicode="&#x164;" horiz-adv-x="562" 
d="M228 776l-83 138h78l58 -93l57 93h78l-83 -138h-105zM14 633v90h533v-90h-217v-633h-98v633h-218z" />
    <glyph glyph-name="tcaron" unicode="&#x165;" horiz-adv-x="318" 
d="M249 557v167h82l-21 -167h-61zM206 0h-94v410h-96v79h96v153h94v-153h96v-79h-96v-410z" />
    <glyph glyph-name="Tbar" unicode="&#x166;" horiz-adv-x="562" 
d="M122 348v82h110v203h-218v90h533v-90h-217v-203h110v-82h-110v-348h-98v348h-110z" />
    <glyph glyph-name="tbar" unicode="&#x167;" horiz-adv-x="318" 
d="M206 0h-94v227h-71v73h71v110h-96v79h96v153h94v-153h96v-79h-96v-110h71v-73h-71v-227z" />
    <glyph glyph-name="Utilde" unicode="&#x168;" horiz-adv-x="711" 
d="M262 789h-60q-5 56 17.5 89t64.5 33q32 0 72 -28t59 -28q34 0 34 56h60q4 -60 -19 -91t-67 -31q-35 0 -74.5 28t-53.5 28q-33 0 -33 -56zM79 257v466h98v-460q0 -87 46.5 -133.5t132.5 -46.5q85 0 131 47t46 133v460h99v-466q0 -124 -74 -196.5t-202 -72.5t-202.5 72
t-74.5 197z" />
    <glyph glyph-name="utilde" unicode="&#x169;" horiz-adv-x="567" 
d="M185 559h-60q-5 56 17.5 89t64.5 33q32 0 72.5 -28t58.5 -28q34 0 34 56h61q3 -60 -20 -91t-67 -31q-35 0 -74.5 28t-53.5 28q-33 0 -33 -56zM406 489h93v-489h-84l-10 74q-21 -39 -66 -62.5t-99 -23.5q-84 0 -131 53t-47 144v304h94v-273q0 -145 117 -145q65 0 99 41
t34 119v258z" />
    <glyph glyph-name="Umacron" unicode="&#x16a;" horiz-adv-x="711" 
d="M231 823v69h249v-69h-249zM79 257v466h98v-460q0 -87 46.5 -133.5t132.5 -46.5q85 0 131 47t46 133v460h99v-466q0 -124 -74 -196.5t-202 -72.5t-202.5 72t-74.5 197z" />
    <glyph glyph-name="umacron" unicode="&#x16b;" horiz-adv-x="567" 
d="M155 593v69h248v-69h-248zM406 489h93v-489h-84l-10 74q-21 -39 -66 -62.5t-99 -23.5q-84 0 -131 53t-47 144v304h94v-273q0 -145 117 -145q65 0 99 41t34 119v258z" />
    <glyph glyph-name="Uring" unicode="&#x16e;" horiz-adv-x="711" 
d="M356 769q-52 0 -85 33t-33 84q0 50 34 83.5t84 33.5t83.5 -33.5t33.5 -83.5t-33.5 -83.5t-83.5 -33.5zM356 825q26 0 42 17t16 45q0 26 -16.5 43.5t-41.5 17.5q-26 0 -42 -17t-16 -44q0 -28 16 -45t42 -17zM79 257v466h98v-460q0 -87 46.5 -133.5t132.5 -46.5
q85 0 131 47t46 133v460h99v-466q0 -124 -74 -196.5t-202 -72.5t-202.5 72t-74.5 197z" />
    <glyph glyph-name="uring" unicode="&#x16f;" horiz-adv-x="567" 
d="M279 539q-52 0 -85 33t-33 84q0 50 34 83.5t84 33.5t83.5 -33.5t33.5 -83.5t-33.5 -83.5t-83.5 -33.5zM279 595q26 0 42 17t16 45q0 26 -16.5 43.5t-41.5 17.5q-26 0 -42 -17t-16 -44q0 -28 16 -45t42 -17zM406 489h93v-489h-84l-10 74q-21 -39 -66 -62.5t-99 -23.5
q-84 0 -131 53t-47 144v304h94v-273q0 -145 117 -145q65 0 99 41t34 119v258z" />
    <glyph glyph-name="Uhungarumlaut" unicode="&#x170;" horiz-adv-x="711" 
d="M415 909l-85 -133h-69l70 133h84zM550 909l-95 -133h-70l79 133h86zM79 257v466h98v-460q0 -87 46.5 -133.5t132.5 -46.5q85 0 131 47t46 133v460h99v-466q0 -124 -74 -196.5t-202 -72.5t-202.5 72t-74.5 197z" />
    <glyph glyph-name="uhungarumlaut" unicode="&#x171;" horiz-adv-x="567" 
d="M338 679l-85 -133h-69l70 133h84zM473 679l-95 -133h-70l79 133h86zM406 489h93v-489h-84l-10 74q-21 -39 -66 -62.5t-99 -23.5q-84 0 -131 53t-47 144v304h94v-273q0 -145 117 -145q65 0 99 41t34 119v258z" />
    <glyph glyph-name="Uogonek" unicode="&#x172;" horiz-adv-x="711" 
d="M79 257v466h98v-460q0 -87 46.5 -133.5t132.5 -46.5q85 0 131 47t46 133v460h99v-466q0 -101 -49.5 -168t-137.5 -90q-30 -12 -45.5 -31t-15.5 -38q0 -34 37 -34q13 0 24 5v-67q-18 -7 -43 -7q-38 0 -61.5 23t-23.5 58q0 48 48 80h-9q-128 0 -202.5 72t-74.5 197z" />
    <glyph glyph-name="uogonek" unicode="&#x173;" horiz-adv-x="567" 
d="M438 0h-23l-10 74q-21 -39 -66 -62.5t-99 -23.5q-84 0 -131 53t-47 144v304h94v-273q0 -145 117 -145q65 0 99 41t34 119v258h93v-489q-31 -12 -47.5 -31.5t-16.5 -38.5q0 -34 37 -34q13 0 24 5v-67q-18 -7 -43 -7q-38 0 -61.5 23t-23.5 58q0 62 70 92z" />
    <glyph glyph-name="Wcircumflex" unicode="&#x174;" horiz-adv-x="1005" 
d="M445 776h-78l83 138h105l82 -138h-77l-57 94zM230 0l-215 723h102l132 -442q20 -76 30 -131q10 47 34 131l137 442h106l136 -442q19 -61 33 -131q15 74 32 130l133 443h100l-218 -723h-94l-175 572l-177 -572h-96z" />
    <glyph glyph-name="wcircumflex" unicode="&#x175;" horiz-adv-x="768" 
d="M327 546h-78l83 138h105l82 -138h-77l-57 94zM173 0l-160 489h97l81 -254q18 -59 30 -116q9 50 32 116l82 254h96l81 -254q17 -52 32 -116q12 56 31 116l82 254h98l-167 -489h-89l-85 262q-23 70 -31 114q-7 -32 -32 -115l-85 -261h-93z" />
    <glyph glyph-name="Ycircumflex" unicode="&#x176;" horiz-adv-x="606" 
d="M247 776h-78l83 138h105l82 -138h-78l-57 94zM255 294l-245 429h110l161 -289q7 -12 24 -48l24 48l160 289h107l-243 -429v-294h-98v294z" />
    <glyph glyph-name="ycircumflex" unicode="&#x177;" horiz-adv-x="498" 
d="M194 546h-78l83 138h104l83 -138h-78l-57 94zM21 -219v77h63q40 0 64 13t40 56l17 47l-197 515h99l142 -394l145 394h97l-231 -599q-25 -62 -62.5 -90.5t-94.5 -28.5q-40 0 -82 10z" />
    <glyph glyph-name="Ydieresis" unicode="&#x178;" horiz-adv-x="606" 
d="M224 792q-24 0 -41 17t-17 41q0 23 17 40.5t41 17.5q23 0 40 -17.5t17 -40.5q0 -24 -17 -41t-40 -17zM385 792q-24 0 -41 17t-17 41q0 23 17.5 40.5t40.5 17.5t40 -17.5t17 -40.5q0 -24 -17 -41t-40 -17zM255 294l-245 429h110l161 -289q7 -12 24 -48l24 48l160 289h107
l-243 -429v-294h-98v294z" />
    <glyph glyph-name="Zacute" unicode="&#x179;" horiz-adv-x="583" 
d="M408 909l-86 -133h-73l68 133h91zM547 0h-511v91l388 542h-382v90h504v-88l-391 -544h392v-91z" />
    <glyph glyph-name="zacute" unicode="&#x17a;" horiz-adv-x="457" 
d="M353 679l-87 -133h-72l67 133h92zM419 0h-381v76l264 334h-264v79h381v-77l-266 -333h266v-79z" />
    <glyph glyph-name="Zdotaccent" unicode="&#x17b;" horiz-adv-x="583" 
d="M284 792q-25 0 -42 17.5t-17 41.5q0 25 17.5 43t41.5 18t41.5 -18t17.5 -43q0 -24 -17.5 -41.5t-41.5 -17.5zM547 0h-511v91l388 542h-382v90h504v-88l-391 -544h392v-91z" />
    <glyph glyph-name="zdotaccent" unicode="&#x17c;" horiz-adv-x="457" 
d="M228 562q-24 0 -41.5 17.5t-17.5 41.5q0 25 17.5 43t41.5 18t42 -18t18 -43q0 -24 -18 -41.5t-42 -17.5zM419 0h-381v76l264 334h-264v79h381v-77l-266 -333h266v-79z" />
    <glyph glyph-name="Zcaron" unicode="&#x17d;" horiz-adv-x="583" 
d="M231 776l-82 138h78l57 -93l57 93h78l-83 -138h-105zM547 0h-511v91l388 542h-382v90h504v-88l-391 -544h392v-91z" />
    <glyph glyph-name="zcaron" unicode="&#x17e;" horiz-adv-x="457" 
d="M176 546l-83 138h78l58 -93l57 93h78l-83 -138h-105zM419 0h-381v76l264 334h-264v79h381v-77l-266 -333h266v-79z" />
    <glyph glyph-name="florin" unicode="&#x192;" horiz-adv-x="589" 
d="M73 404h181l25 180q9 69 51.5 107t113.5 38h89v-90h-96q-53 0 -60 -59l-24 -176h176v-88h-188l-46 -335q-17 -133 -159 -133h-91v90h92q24 0 40.5 14t19.5 40l45 324h-169v88z" />
    <glyph glyph-name="Aringacute" unicode="&#x1fa;" horiz-adv-x="662" 
d="M455 1056l-86 -133h-72l67 133h91zM114 0h-102l252 689q-51 32 -51 98q0 50 33.5 83.5t83.5 33.5t84 -33.5t34 -83.5q0 -62 -51 -97l253 -690h-103l-65 180h-304zM330 726q26 0 42 17t16 45q0 26 -16.5 43.5t-41.5 17.5t-41 -17t-16 -44q0 -28 15.5 -45t41.5 -17z
M318 567l-110 -302h245l-111 302q-9 25 -12 42q-3 -15 -12 -42z" />
    <glyph glyph-name="aringacute" unicode="&#x1fb;" horiz-adv-x="534" 
d="M387 819l-83 -122h-68l64 122h87zM211 -12q-78 0 -122.5 40.5t-44.5 107.5t47.5 107.5t134.5 47.5l154 12v14q0 111 -115 111q-59 0 -91.5 -25t-32.5 -69h-82q0 56 31 96t87 59q-24 32 -24 75q0 50 33.5 83.5t83.5 33.5t84 -33.5t34 -83.5q0 -44 -27 -76
q111 -43 111 -181v-307h-80l-10 79q-19 -42 -65.5 -66.5t-105.5 -24.5zM270 503q26 0 42 17t16 44q0 26 -16.5 43.5t-41.5 17.5q-26 0 -42 -17t-16 -44t16 -44t42 -17zM238 61q67 0 105 40.5t38 109.5v26l-125 -10q-117 -11 -117 -88q0 -38 26 -58t73 -20z" />
    <glyph glyph-name="AEacute" unicode="&#x1fc;" horiz-adv-x="917" 
d="M686 909l-86 -133h-73l68 133h91zM7 0l290 723h562v-90h-341v-226h307v-87h-307v-229h341v-91h-439v195h-228l-76 -195h-109zM225 279h195v354h-57z" />
    <glyph glyph-name="aeacute" unicode="&#x1fd;" horiz-adv-x="882" 
d="M555 679l-86 -133h-73l67 133h92zM44 137q0 70 48 107.5t131 39.5l157 4v29q0 53 -31.5 82t-86.5 29q-57 0 -89 -25t-32 -69h-82q0 76 56.5 122.5t148.5 46.5q60 0 104 -23t65 -63q65 86 182 86q105 0 167.5 -66.5t62.5 -174.5v-35l-380 -1q6 -75 46 -117.5t110 -42.5
q113 0 136 86h89q-18 -78 -77 -121t-150 -43q-68 0 -121 30t-83 84q-24 -53 -76.5 -83.5t-121.5 -30.5q-82 0 -127.5 40t-45.5 109zM615 424q-62 0 -101 -37t-48 -99h285q0 61 -36.5 98.5t-99.5 37.5zM139 142q0 -40 27 -60.5t75 -20.5q64 0 102 36.5t38 97.5v30l-135 -4
q-55 -2 -81 -20.5t-26 -58.5z" />
    <glyph glyph-name="Oslashacute" unicode="&#x1fe;" horiz-adv-x="777" 
d="M508 902l-87 -132h-72l67 132h92zM736 362q0 -165 -97.5 -269.5t-251.5 -104.5q-107 0 -192 55l-33 -43h-95l70 93q-96 104 -96 269q0 164 97 269t250 105q111 0 196 -57l34 45h93l-71 -94q96 -104 96 -268zM144 362q0 -113 55 -188l325 427q-57 40 -136 40
q-110 0 -177 -76.5t-67 -202.5zM633 362q0 112 -55 187l-324 -428q58 -39 134 -39q110 0 177.5 77.5t67.5 202.5z" />
    <glyph glyph-name="oslashacute" unicode="&#x1ff;" horiz-adv-x="581" 
d="M415 679l-87 -133h-72l67 133h92zM36 245q0 113 72 185t183 72q59 0 107 -21l31 50h82l-54 -87q88 -74 88 -199q0 -113 -72 -185t-182 -72q-54 0 -103 19l-35 -57h-85l58 94q-90 72 -90 201zM131 245q0 -75 43 -124l178 286q-30 11 -61 11q-71 0 -115.5 -48t-44.5 -125z
M451 245q0 74 -42 121l-175 -284q24 -10 57 -10q71 0 115.5 48.5t44.5 124.5z" />
    <glyph glyph-name="Scommaaccent" unicode="&#x218;" horiz-adv-x="577" 
d="M42 528q0 93 68.5 150.5t180.5 57.5q103 0 166 -54t69 -148h-99q-4 54 -40 84t-97 30q-68 0 -109 -32t-41 -85q0 -85 101 -109l119 -28q178 -41 178 -193q0 -97 -69.5 -155t-185.5 -58q-111 0 -179 54t-72 147h100q2 -52 42.5 -82.5t108.5 -30.5q72 0 114.5 31.5
t42.5 85.5q0 86 -100 109l-119 27q-179 41 -179 199zM339 -106q0 -49 -29.5 -78t-73.5 -25v34q54 -4 57 39q-8 -3 -18 -3q-21 0 -35 14t-14 35q0 24 15 39t39 15q27 0 43 -18.5t16 -51.5z" />
    <glyph glyph-name="scommaaccent" unicode="&#x219;" horiz-adv-x="448" 
d="M28 142h90q0 -37 26.5 -58.5t73.5 -21.5q49 0 76.5 19t27.5 53q0 26 -15 41.5t-52 24.5l-86 20q-128 31 -128 136q0 67 51 107t133 40q80 0 128.5 -41.5t50.5 -111.5h-90q-2 37 -26 58.5t-66 21.5q-44 0 -68 -18.5t-24 -52.5q0 -49 72 -67l86 -21q64 -15 94 -46t30 -85
q0 -69 -54 -110.5t-142 -41.5q-86 0 -137 42t-51 112zM273 -106q0 -49 -29.5 -78t-73.5 -25v34q26 -2 41 8.5t16 30.5q-7 -3 -18 -3q-21 0 -35 14t-14 35q0 24 15 39t39 15q27 0 43 -18.5t16 -51.5z" />
    <glyph glyph-name="Tcommaaccent" unicode="&#x21a;" horiz-adv-x="562" 
d="M14 633v90h533v-90h-217v-633h-98v633h-218zM336 -106q0 -49 -29 -78t-74 -25v34q26 -2 41 8.5t17 31.5q-8 -4 -19 -4q-21 0 -35 14t-14 35q0 24 15.5 39t38.5 15q27 0 43 -18.5t16 -51.5z" />
    <glyph glyph-name="tcommaaccent" unicode="&#x21b;" horiz-adv-x="318" 
d="M206 0h-94v410h-96v79h96v153h94v-153h96v-79h-96v-410zM216 -106q0 -49 -29 -78t-74 -25v34q26 -2 41 8.5t17 31.5q-7 -4 -19 -4q-21 0 -35 14t-14 35q0 24 15.5 39t38.5 15q27 0 43 -18.5t16 -51.5z" />
    <glyph glyph-name="dotlessj" unicode="&#x237;" horiz-adv-x="230" 
d="M-56 -222l16 85q27 -7 45 -7q33 0 48 19.5t15 61.5v552h94v-561q0 -74 -39 -116.5t-110 -42.5q-37 0 -69 9z" />
    <glyph glyph-name="circumflex" unicode="&#x2c6;" horiz-adv-x="350" 
d="M118 768h-78l83 137h105l82 -137h-78l-57 93z" />
    <glyph glyph-name="caron" unicode="&#x2c7;" horiz-adv-x="350" 
d="M123 768l-83 137h78l57 -93l57 93h78l-82 -137h-105z" />
    <glyph glyph-name="breve" unicode="&#x2d8;" horiz-adv-x="380" 
d="M257 901h71q0 -64 -37.5 -101.5t-100.5 -37.5q-64 0 -101.5 37.5t-37.5 101.5h72q0 -72 67 -72t67 72z" />
    <glyph glyph-name="dotaccent" unicode="&#x2d9;" horiz-adv-x="211" 
d="M105 784q-24 0 -41.5 17t-17.5 42q0 24 17.5 42t41.5 18t42 -18t18 -42t-18 -41.5t-42 -17.5z" />
    <glyph glyph-name="ring" unicode="&#x2da;" horiz-adv-x="312" 
d="M156 760q-51 0 -84 33t-33 84q0 50 33.5 83.5t83.5 33.5t84 -33.5t34 -83.5t-34 -83.5t-84 -33.5zM156 816q26 0 42 17t16 45q0 26 -16.5 43.5t-41.5 17.5q-26 0 -42 -17t-16 -44q0 -28 16 -45t42 -17z" />
    <glyph glyph-name="ogonek" unicode="&#x2db;" horiz-adv-x="211" 
d="M113 0h60q-31 -12 -47 -31t-16 -39q0 -34 37 -34q13 0 23 5v-67q-18 -7 -42 -7q-38 0 -62 23t-24 58q0 28 18.5 52.5t52.5 39.5z" />
    <glyph glyph-name="tilde" unicode="&#x2dc;" horiz-adv-x="399" 
d="M106 780h-60q-5 56 17.5 89.5t64.5 33.5q32 0 72.5 -28.5t58.5 -28.5q34 0 34 57h60q4 -60 -19 -91.5t-67 -31.5q-35 0 -74.5 28t-53.5 28q-33 0 -33 -56z" />
    <glyph glyph-name="hungarumlaut" unicode="&#x2dd;" horiz-adv-x="384" 
d="M195 900l-85 -132h-69l71 132h83zM331 900l-95 -132h-70l78 132h87z" />
    <glyph glyph-name="gravecomb" unicode="&#x300;" horiz-adv-x="245" 
d="M202 768h-72l-86 133h92z" />
    <glyph glyph-name="acutecomb" unicode="&#x301;" horiz-adv-x="246" 
d="M202 900l-86 -132h-73l68 132h91z" />
    <glyph glyph-name="circumflexcomb" unicode="&#x302;" horiz-adv-x="350" 
d="M118 768h-78l83 137h105l82 -137h-78l-57 93z" />
    <glyph glyph-name="tildecomb" unicode="&#x303;" horiz-adv-x="399" 
d="M106 780h-60q-5 56 17.5 89.5t64.5 33.5q32 0 72.5 -28.5t58.5 -28.5q34 0 34 57h60q4 -60 -19 -91.5t-67 -31.5q-35 0 -74.5 28t-53.5 28q-33 0 -33 -56z" />
    <glyph glyph-name="macroncomb" unicode="&#x304;" horiz-adv-x="369" 
d="M60 814v69h249v-69h-249z" />
    <glyph glyph-name="brevecomb" unicode="&#x306;" horiz-adv-x="380" 
d="M257 901h71q0 -64 -37.5 -101.5t-100.5 -37.5q-64 0 -101.5 37.5t-37.5 101.5h72q0 -72 67 -72t67 72z" />
    <glyph glyph-name="dotaccentcomb" unicode="&#x307;" horiz-adv-x="211" 
d="M105 784q-24 0 -41.5 17t-17.5 42q0 24 17.5 42t41.5 18t42 -18t18 -42t-18 -41.5t-42 -17.5z" />
    <glyph glyph-name="dieresiscomb" unicode="&#x308;" horiz-adv-x="393" 
d="M116 784q-24 0 -40.5 16.5t-16.5 40.5q0 23 17 40.5t40 17.5t40.5 -17.5t17.5 -40.5t-17.5 -40t-40.5 -17zM277 784q-24 0 -40.5 16.5t-16.5 40.5q0 23 17 40.5t40 17.5t40.5 -17.5t17.5 -40.5t-17.5 -40t-40.5 -17z" />
    <glyph glyph-name="ringcomb" unicode="&#x30a;" horiz-adv-x="312" 
d="M156 760q-51 0 -84 33t-33 84q0 50 33.5 83.5t83.5 33.5t84 -33.5t34 -83.5t-34 -83.5t-84 -33.5zM156 816q26 0 42 17t16 45q0 26 -16.5 43.5t-41.5 17.5q-26 0 -42 -17t-16 -44q0 -28 16 -45t42 -17z" />
    <glyph glyph-name="hungarumlautcomb" unicode="&#x30b;" horiz-adv-x="384" 
d="M195 900l-85 -132h-69l71 132h83zM331 900l-95 -132h-70l78 132h87z" />
    <glyph glyph-name="caroncomb" unicode="&#x30c;" horiz-adv-x="350" 
d="M123 768l-83 137h78l57 -93l57 93h78l-82 -137h-105z" />
    <glyph glyph-name="commaturnedabovecomb" unicode="&#x312;" horiz-adv-x="197" 
d="M155 823q0 -24 -15 -39t-39 -15q-27 0 -43 18.5t-16 51.5q0 49 29.5 78t73.5 25v-34q-55 3 -57 -39q8 3 18 3q21 0 35 -14t14 -35z" />
    <glyph glyph-name="commaaccentcomb" unicode="&#x326;" horiz-adv-x="197" 
d="M153 -92q0 -49 -29.5 -78.5t-73.5 -25.5v35q55 -5 58 39q-7 -4 -19 -4q-21 0 -35 14.5t-14 35.5q0 23 15.5 38.5t39.5 15.5q27 0 42.5 -18.5t15.5 -51.5z" />
    <glyph glyph-name="cedillacomb" unicode="&#x327;" horiz-adv-x="243" 
d="M36 -181v48q34 -17 61 -17q22 0 35.5 9.5t13.5 26.5q0 34 -41 34q-24 0 -49 -11l-11 29l45 95h32v-29l-24 -49q17 5 31 5q31 0 52.5 -19t21.5 -53q0 -41 -28.5 -63t-71.5 -22q-41 0 -67 16z" />
    <glyph glyph-name="strokeshortcomb" unicode="&#x335;" horiz-adv-x="532" 
d="M51 625h314v-61h-314v61z" />
    <glyph glyph-name="slashshortcomb" unicode="&#x337;" horiz-adv-x="249" 
d="M20 310v70l211 101v-70z" />
    <glyph glyph-name="slashlongcomb" unicode="&#x338;" horiz-adv-x="524" 
d="M484 539l-359 -581h-85l361 581h83z" />
    <glyph glyph-name="Omega" unicode="&#x3a9;" horiz-adv-x="648" 
d="M285 0h-216v74h95q-90 77 -90 194q0 101 71 168t180 67q110 0 180 -67t70 -167q0 -119 -92 -195h96v-74h-216v74q62 24 95 75.5t33 111.5q0 72 -47.5 116.5t-119.5 44.5q-71 0 -119 -45t-48 -117q0 -62 34.5 -113t93.5 -73v-74z" />
    <glyph glyph-name="pi" unicode="&#x3c0;" horiz-adv-x="621" 
d="M111 0v410h-94v79h567v-79h-102v-275q0 -51 51 -53l51 -1v-77q-44 -6 -82 -6q-58 0 -85.5 28.5t-27.5 93.5v290h-184v-410h-94z" />
    <glyph glyph-name="Wgrave" unicode="&#x1e80;" horiz-adv-x="1005" 
d="M537 776h-73l-85 133h92zM230 0l-215 723h102l132 -442q20 -76 30 -131q10 47 34 131l137 442h106l136 -442q19 -61 33 -131q15 74 32 130l133 443h100l-218 -723h-94l-175 572l-177 -572h-96z" />
    <glyph glyph-name="wgrave" unicode="&#x1e81;" horiz-adv-x="768" 
d="M419 546h-73l-85 133h92zM173 0l-160 489h97l81 -254q18 -59 30 -116q9 50 32 116l82 254h96l81 -254q17 -52 32 -116q12 56 31 116l82 254h98l-167 -489h-89l-85 262q-23 70 -31 114q-7 -32 -32 -115l-85 -261h-93z" />
    <glyph glyph-name="Wacute" unicode="&#x1e82;" horiz-adv-x="1005" 
d="M627 909l-87 -133h-72l67 133h92zM230 0l-215 723h102l132 -442q20 -76 30 -131q10 47 34 131l137 442h106l136 -442q19 -61 33 -131q15 74 32 130l133 443h100l-218 -723h-94l-175 572l-177 -572h-96z" />
    <glyph glyph-name="wacute" unicode="&#x1e83;" horiz-adv-x="768" 
d="M509 679l-87 -133h-72l67 133h92zM173 0l-160 489h97l81 -254q18 -59 30 -116q9 50 32 116l82 254h96l81 -254q17 -52 32 -116q12 56 31 116l82 254h98l-167 -489h-89l-85 262q-23 70 -31 114q-7 -32 -32 -115l-85 -261h-93z" />
    <glyph glyph-name="Wdieresis" unicode="&#x1e84;" horiz-adv-x="1005" 
d="M422 792q-24 0 -40.5 17t-16.5 41q0 23 17 40.5t40 17.5t40 -17.5t17 -40.5q0 -24 -17 -41t-40 -17zM583 792q-24 0 -40.5 17t-16.5 41q0 23 17 40.5t40 17.5t40 -17.5t17 -40.5q0 -24 -17 -41t-40 -17zM230 0l-215 723h102l132 -442q20 -76 30 -131q10 47 34 131
l137 442h106l136 -442q19 -61 33 -131q15 74 32 130l133 443h100l-218 -723h-94l-175 572l-177 -572h-96z" />
    <glyph glyph-name="wdieresis" unicode="&#x1e85;" horiz-adv-x="768" 
d="M304 562q-24 0 -40.5 17t-16.5 41q0 23 17 40.5t40 17.5t40 -17.5t17 -40.5q0 -24 -17 -41t-40 -17zM465 562q-24 0 -40.5 17t-16.5 41q0 23 17 40.5t40 17.5t40 -17.5t17 -40.5q0 -24 -17 -41t-40 -17zM173 0l-160 489h97l81 -254q18 -59 30 -116q9 50 32 116l82 254h96
l81 -254q17 -52 32 -116q12 56 31 116l82 254h98l-167 -489h-89l-85 262q-23 70 -31 114q-7 -32 -32 -115l-85 -261h-93z" />
    <glyph glyph-name="Ygrave" unicode="&#x1ef2;" horiz-adv-x="606" 
d="M339 776h-73l-85 133h92zM255 294l-245 429h110l161 -289q7 -12 24 -48l24 48l160 289h107l-243 -429v-294h-98v294z" />
    <glyph glyph-name="ygrave" unicode="&#x1ef3;" horiz-adv-x="498" 
d="M286 546h-73l-85 133h91zM21 -219v77h63q40 0 64 13t40 56l17 47l-197 515h99l142 -394l145 394h97l-231 -599q-25 -62 -62.5 -90.5t-94.5 -28.5q-40 0 -82 10z" />
    <glyph glyph-name="endash" unicode="&#x2013;" horiz-adv-x="951" 
d="M67 222v84h817v-84h-817z" />
    <glyph glyph-name="emdash" unicode="&#x2014;" horiz-adv-x="1173" 
d="M67 222v84h1038v-84h-1038z" />
    <glyph glyph-name="quoteleft" unicode="&#x2018;" horiz-adv-x="262" 
d="M200 575q0 -29 -18 -47.5t-48 -18.5q-31 0 -51.5 23.5t-20.5 63.5q0 54 34 93.5t87 47.5v-42q-30 -6 -48.5 -24t-18.5 -42q12 7 28 7q24 0 40 -16.5t16 -44.5z" />
    <glyph glyph-name="quoteright" unicode="&#x2019;" horiz-adv-x="262" 
d="M200 650q0 -55 -34 -94.5t-87 -46.5v42q30 5 48.5 23t18.5 42q-10 -6 -28 -6q-24 0 -40 16.5t-16 44.5q0 29 18 47.5t48 18.5q31 0 51.5 -23.5t20.5 -63.5z" />
    <glyph glyph-name="quotesinglbase" unicode="&#x201a;" horiz-adv-x="262" 
d="M200 34q0 -54 -34 -93.5t-87 -47.5v43q30 5 48.5 23t18.5 42q-12 -7 -28 -7q-24 0 -40 16.5t-16 44.5q0 29 18 47.5t48 18.5q31 0 51.5 -23.5t20.5 -63.5z" />
    <glyph glyph-name="quotedblleft" unicode="&#x201c;" horiz-adv-x="441" 
d="M200 575q0 -29 -18 -47.5t-48 -18.5q-31 0 -51.5 23.5t-20.5 63.5q0 54 34 93.5t87 47.5v-42q-30 -6 -48.5 -24t-18.5 -42q12 7 28 7q24 0 40 -16.5t16 -44.5zM379 575q0 -29 -18.5 -47.5t-47.5 -18.5q-32 0 -52.5 23.5t-20.5 63.5q0 54 34.5 93.5t87.5 47.5v-42
q-30 -6 -48.5 -24t-18.5 -41q11 6 27 6q24 0 40.5 -16.5t16.5 -44.5z" />
    <glyph glyph-name="quotedblright" unicode="&#x201d;" horiz-adv-x="441" 
d="M200 650q0 -55 -34 -94.5t-87 -46.5v42q30 5 48.5 23t18.5 42q-10 -6 -28 -6q-24 0 -40 16.5t-16 44.5q0 29 18 47.5t48 18.5q31 0 51.5 -23.5t20.5 -63.5zM379 650q0 -55 -34.5 -94.5t-87.5 -46.5v42q30 5 48.5 23t18.5 42q-11 -6 -27 -6q-24 0 -40.5 16.5t-16.5 44.5
q0 29 18.5 47.5t47.5 18.5q32 0 52.5 -23.5t20.5 -63.5z" />
    <glyph glyph-name="quotedblbase" unicode="&#x201e;" horiz-adv-x="441" 
d="M200 34q0 -54 -34 -93.5t-87 -47.5v43q30 5 48.5 23t18.5 42q-12 -7 -28 -7q-24 0 -40 16.5t-16 44.5q0 29 18 47.5t48 18.5q31 0 51.5 -23.5t20.5 -63.5zM379 34q0 -55 -34.5 -94t-87.5 -47v43q29 5 48 23t19 41q-10 -6 -27 -6q-24 0 -40.5 16.5t-16.5 44.5
q0 29 18.5 47.5t47.5 18.5q32 0 52.5 -23.5t20.5 -63.5z" />
    <glyph glyph-name="dagger" unicode="&#x2020;" horiz-adv-x="315" 
d="M126 277v287h-103v59h103v100h62v-100h103v-59h-103v-287h-62z" />
    <glyph glyph-name="daggerdbl" unicode="&#x2021;" horiz-adv-x="316" 
d="M126 277v117h-101v59h101v94h-103v59h103v117h62v-117h103v-59h-103v-94h105v-59h-105v-117h-62z" />
    <glyph glyph-name="bullet" unicode="&#x2022;" horiz-adv-x="403" 
d="M202 121q-60 0 -104 43t-44 102t44 103t104 44t103 -43.5t43 -103.5q0 -59 -43.5 -102t-102.5 -43z" />
    <glyph glyph-name="ellipsis" unicode="&#x2026;" horiz-adv-x="737" 
d="M138 -12q-29 0 -50.5 21t-21.5 49q0 29 21.5 50t50.5 21t50 -21t21 -50q0 -28 -21 -49t-50 -21zM369 -12q-30 0 -51 20.5t-21 49.5t21 50t51 21q29 0 50 -21t21 -50q0 -28 -21 -49t-50 -21zM599 -12q-29 0 -50 20.5t-21 49.5t21 50t50 21t50.5 -21t21.5 -50
q0 -28 -21.5 -49t-50.5 -21z" />
    <glyph glyph-name="perthousand" unicode="&#x2030;" horiz-adv-x="1333" 
d="M407 552q0 -80 -51.5 -132t-131.5 -52q-79 0 -130.5 52t-51.5 132q0 81 51 133t131 52t131.5 -52t51.5 -133zM788 722l-549 -722h-96l549 722h96zM330 552q0 49 -29.5 79.5t-76.5 30.5t-76 -30.5t-29 -79.5q0 -48 29.5 -78.5t75.5 -30.5q47 0 76.5 30.5t29.5 78.5z
M891 171q0 -80 -51.5 -132t-131.5 -52t-131.5 52t-51.5 132q0 81 51.5 132.5t131.5 51.5t131.5 -51.5t51.5 -132.5zM1292 171q0 -80 -51.5 -132t-131.5 -52t-131.5 52t-51.5 132q0 81 51.5 132.5t131.5 51.5t131.5 -51.5t51.5 -132.5zM813 171q0 49 -29 79.5t-76 30.5
t-76 -30.5t-29 -79.5q0 -48 29.5 -78.5t75.5 -30.5t75.5 30.5t29.5 78.5zM1214 171q0 49 -29 79.5t-76 30.5t-76 -30.5t-29 -79.5q0 -48 29.5 -78.5t75.5 -30.5t75.5 30.5t29.5 78.5z" />
    <glyph glyph-name="minute" unicode="&#x2032;" horiz-adv-x="181" 
d="M134 683l-19 -186h-50l-19 186q-3 26 11 40t33 14q20 0 33.5 -14t10.5 -40z" />
    <glyph glyph-name="guilsinglleft" unicode="&#x2039;" horiz-adv-x="410" 
d="M254 0l-214 244l214 245h116l-214 -245l214 -244h-116z" />
    <glyph glyph-name="guilsinglright" unicode="&#x203a;" horiz-adv-x="410" 
d="M156 0h-116l214 244l-214 245h116l214 -245z" />
    <glyph glyph-name="asterism" unicode="&#x2042;" horiz-adv-x="904" 
d="M338 570l-64 24l20 51l62 -20q42 -15 77 -38q-9 37 -9 85v68h55v-68q0 -47 -8 -85q35 23 76 38l63 21l21 -52l-66 -24q-34 -13 -82 -19q26 -23 56 -63l38 -57l-46 -32l-39 55q-29 41 -41 75q-12 -36 -39 -75l-40 -55l-47 32l40 57q27 37 56 63q-46 6 -83 19zM92 185
l-65 24l20 53l63 -22q46 -18 76 -37q-9 56 -9 84v69h56v-69q0 -47 -8 -84q31 20 76 37l63 22l21 -53l-66 -23q-35 -13 -83 -19q27 -26 56 -64l38 -56l-46 -32l-39 55q-23 31 -41 74q-11 -35 -38 -74l-41 -55l-46 32l39 57q29 39 56 63q-51 7 -82 18zM585 185l-65 24l20 52
l62 -21q39 -13 77 -37q-9 45 -9 84v69h56v-69q0 -47 -8 -84q29 20 75 37l64 22l21 -53l-66 -23q-36 -13 -83 -19q27 -26 56 -64l38 -56l-46 -32l-39 55q-23 31 -41 74q-11 -35 -38 -74l-41 -55l-46 32l39 57q30 40 57 63q-51 7 -83 18z" />
    <glyph glyph-name="fraction" unicode="&#x2044;" horiz-adv-x="138" 
d="M342 710l-466 -710h-80l466 710h80z" />
    <glyph glyph-name="zero.superior" unicode="&#x2070;" horiz-adv-x="420" 
d="M28 541q0 102 50 165t133 63q85 0 133.5 -62.5t48.5 -165.5q0 -102 -49.5 -163.5t-133.5 -61.5q-85 0 -133.5 61.5t-48.5 163.5zM96 541q0 -77 30 -120t85 -43q54 0 83.5 43t29.5 120q0 79 -29.5 122.5t-83.5 43.5q-55 0 -85 -43.5t-30 -122.5z" />
    <glyph glyph-name="four.superior" unicode="&#x2074;" horiz-adv-x="375" 
d="M365 414h-52v-84h-66v84h-227v62l206 291h87v-292h52v-61zM97 475h150v215z" />
    <glyph glyph-name="five.superior" unicode="&#x2075;" horiz-adv-x="357" 
d="M20 472h67q0 -39 25.5 -63t65.5 -24q41 0 66 25t25 67t-25 67.5t-66 25.5q-51 0 -82 -40l-63 10l55 227h224v-63h-173l-26 -99q29 22 76 22q64 0 106 -42.5t42 -107.5q0 -68 -44 -111t-114 -43q-69 0 -114 42t-45 107z" />
    <glyph glyph-name="six.superior" unicode="&#x2076;" horiz-adv-x="379" 
d="M88 636l100 135h77l-107 -143q18 7 41 7q69 0 111.5 -42.5t42.5 -109.5q0 -70 -46 -115t-116 -45t-117.5 46t-47.5 114q0 39 13.5 72.5t48.5 80.5zM96 481q0 -42 26.5 -69.5t68.5 -27.5q40 0 66.5 27.5t26.5 69.5q0 41 -26.5 68.5t-66.5 27.5q-42 0 -68.5 -27t-26.5 -69z
" />
    <glyph glyph-name="seven.superior" unicode="&#x2077;" horiz-adv-x="330" 
d="M314 704l-153 -374h-68l156 374h-233v63h298v-63z" />
    <glyph glyph-name="eight.superior" unicode="&#x2078;" horiz-adv-x="376" 
d="M26 449q0 40 22 70.5t60 43.5q-62 25 -62 95q0 53 39 84.5t103 31.5t103 -31.5t39 -84.5q0 -70 -63 -96q38 -10 60 -41.5t22 -71.5q0 -57 -44.5 -91.5t-116.5 -34.5q-73 0 -117.5 34.5t-44.5 91.5zM105 653q0 -29 22 -47t61 -18q38 0 59.5 17.5t21.5 46.5q0 30 -22 46.5
t-59 16.5q-38 0 -60.5 -16.5t-22.5 -45.5zM95 458q0 -35 25.5 -54t67.5 -19t67.5 19t25.5 54q0 34 -26 53.5t-68 19.5q-41 0 -66.5 -19.5t-25.5 -53.5z" />
    <glyph glyph-name="nine.superior" unicode="&#x2079;" horiz-adv-x="379" 
d="M291 466l-100 -136h-77l110 145q-22 -8 -43 -8q-69 0 -112 42.5t-43 108.5q0 70 46.5 115.5t116.5 45.5t117 -46.5t47 -114.5q0 -39 -13.5 -72t-48.5 -80zM283 620q0 42 -26 69.5t-68 27.5q-41 0 -67 -27.5t-26 -69.5q0 -41 26 -68.5t67 -27.5t67.5 27.5t26.5 68.5z" />
    <glyph glyph-name="zero.inferior" unicode="&#x2080;" horiz-adv-x="421" 
d="M28 117q0 102 50 164.5t133 62.5q85 0 133.5 -62t48.5 -165q0 -102 -49.5 -163.5t-133.5 -61.5q-85 0 -133.5 61.5t-48.5 163.5zM96 117q0 -77 30 -120t85 -43q54 0 83.5 43t29.5 120q0 79 -29.5 122t-83.5 43q-55 0 -85 -43t-30 -122z" />
    <glyph glyph-name="one.inferior" unicode="&#x2081;" horiz-adv-x="235" 
d="M121 274h-100v63h168v-437h-68v374z" />
    <glyph glyph-name="two.inferior" unicode="&#x2082;" horiz-adv-x="351" 
d="M326 -100h-298v53l158 130q67 55 67 115q0 84 -78 84q-39 0 -60.5 -24.5t-21.5 -69.5h-67q2 72 42 114t107 42q68 0 107 -38t39 -105q0 -85 -90 -159l-97 -79h192v-63z" />
    <glyph glyph-name="three.inferior" unicode="&#x2083;" horiz-adv-x="351" 
d="M142 119h-30v46l122 109h-193v63h275v-61l-116 -103q55 -7 90.5 -43t35.5 -94q0 -65 -44.5 -104t-110.5 -39t-108 39.5t-42 105.5h67q0 -39 22.5 -61t61.5 -22q38 0 62 22t24 60q0 34 -20.5 55.5t-60.5 25.5q-11 1 -35 1z" />
    <glyph glyph-name="four.inferior" unicode="&#x2084;" horiz-adv-x="381" 
d="M365 -16h-52v-84h-66v84h-227v62l206 291h87v-292h52v-61zM97 45h150v215z" />
    <glyph glyph-name="five.inferior" unicode="&#x2085;" horiz-adv-x="357" 
d="M20 42h67q0 -39 25.5 -63t65.5 -24q41 0 66 25t25 67t-25 67.5t-66 25.5q-51 0 -82 -40l-63 10l55 227h224v-63h-173l-26 -99q29 22 76 22q64 0 106 -42.5t42 -107.5q0 -68 -44 -111t-114 -43q-69 0 -114 42t-45 107z" />
    <glyph glyph-name="six.inferior" unicode="&#x2086;" horiz-adv-x="379" 
d="M88 206l100 135h77l-107 -143q18 7 41 7q69 0 111.5 -42.5t42.5 -109.5q0 -70 -46 -115t-116 -45t-117.5 46t-47.5 114q0 39 13.5 72.5t48.5 80.5zM96 51q0 -42 26.5 -69.5t68.5 -27.5q40 0 66.5 27.5t26.5 69.5q0 41 -26.5 68.5t-66.5 27.5q-42 0 -68.5 -27t-26.5 -69z
" />
    <glyph glyph-name="seven.inferior" unicode="&#x2087;" horiz-adv-x="330" 
d="M314 274l-153 -374h-68l156 374h-233v63h298v-63z" />
    <glyph glyph-name="eight.inferior" unicode="&#x2088;" horiz-adv-x="376" 
d="M26 19q0 40 22 70.5t60 43.5q-62 25 -62 95q0 53 39 84.5t103 31.5t103 -31.5t39 -84.5q0 -70 -63 -96q38 -10 60 -41.5t22 -71.5q0 -57 -44.5 -91.5t-116.5 -34.5q-73 0 -117.5 34.5t-44.5 91.5zM105 223q0 -29 22 -47t61 -18q38 0 59.5 17.5t21.5 46.5q0 30 -22 46.5
t-59 16.5q-38 0 -60.5 -16.5t-22.5 -45.5zM95 28q0 -35 25.5 -54t67.5 -19t67.5 19t25.5 54q0 34 -26 53.5t-68 19.5q-41 0 -66.5 -19.5t-25.5 -53.5z" />
    <glyph glyph-name="nine.inferior" unicode="&#x2089;" horiz-adv-x="379" 
d="M291 36l-100 -136h-77l110 145q-22 -8 -43 -8q-69 0 -112 42.5t-43 108.5q0 70 46.5 115.5t116.5 45.5t117 -46.5t47 -114.5q0 -39 -13.5 -72t-48.5 -80zM283 190q0 42 -26 69.5t-68 27.5q-41 0 -67 -27.5t-26 -69.5q0 -41 26 -68.5t67 -27.5t67.5 27.5t26.5 68.5z" />
    <glyph glyph-name="Euro" unicode="&#x20ac;" horiz-adv-x="638" 
d="M456 -12q-134 0 -229.5 69t-126.5 192h-77v73h66q-2 26 -2 39q0 14 2 40h-66v73h78q32 122 128 192t234 70q67 0 121 -18v-92q-53 17 -118 17q-101 0 -169 -43.5t-95 -125.5h277v-73h-292q-2 -24 -2 -39q0 -14 2 -40h292v-73h-277q27 -82 94.5 -125.5t164.5 -43.5
q69 0 127 20v-95q-66 -17 -132 -17z" />
    <glyph glyph-name="numero" unicode="&#x2116;" horiz-adv-x="1260" 
d="M1212 502q0 -101 -68.5 -168.5t-171.5 -67.5q-101 0 -171 68.5t-70 167.5q0 100 69.5 167.5t171.5 67.5q103 0 171.5 -67t68.5 -168zM182 0h-98v723h98l370 -559v559h98v-723h-98l-370 559v-559zM1123 501q0 66 -42.5 108.5t-108.5 42.5t-109 -42.5t-43 -108.5
q0 -64 44 -108t108 -44q65 0 108 43.5t43 108.5zM1187 120h-430v83h430v-83z" />
    <glyph glyph-name="soundcopyright" unicode="&#x2117;" horiz-adv-x="492" 
d="M247 326q-88 0 -147.5 59t-59.5 146t59.5 146t147.5 59t146.5 -58.5t58.5 -146.5t-58.5 -146.5t-146.5 -58.5zM247 360q73 0 121 48.5t48 122.5t-48 122.5t-121 48.5t-121.5 -48.5t-48.5 -122.5t48.5 -122.5t121.5 -48.5zM215 414h-37v230h88q38 0 61.5 -21t23.5 -57
q0 -38 -23 -60t-62 -22h-51v-70zM215 609v-90h50q47 0 47 46q0 44 -47 44h-50z" />
    <glyph glyph-name="trademark" unicode="&#x2122;" horiz-adv-x="642" 
d="M120 681h-94v42h233v-42h-94v-238h-45v238zM336 443h-42v280h42l103 -235l101 235h42v-280h-42v189l-82 -189h-39l-83 186v-186z" />
    <glyph glyph-name="estimated" unicode="&#x212e;" horiz-adv-x="779" 
d="M60 353q0 158 92.5 257.5t237.5 99.5q147 0 238 -88.5t91 -240.5q0 -38 -1 -53h-558v-180q82 -117 242 -117q77 0 141.5 36.5t96.5 96.5l38 -14q-37 -74 -111 -116.5t-167 -42.5q-153 0 -246.5 100t-93.5 262zM160 546v-182h459v200q-37 51 -97 78.5t-132 27.5
q-73 0 -132.5 -33.5t-97.5 -90.5z" />
    <glyph glyph-name="oneeighth" unicode="&#x215b;" horiz-adv-x="698" 
d="M102 668h-84v55h144v-345h-60v290zM592 710l-467 -710h-79l465 710h81zM415 95q0 31 17.5 55t46.5 34q-48 22 -48 76q0 41 31 66.5t81 25.5t80.5 -25t30.5 -67q0 -56 -49 -76q30 -9 47.5 -33t17.5 -56q0 -46 -35 -73t-92 -27q-58 0 -93 27t-35 73zM484 253
q0 -21 15.5 -33.5t43.5 -12.5q27 0 42.5 13t15.5 34q0 20 -16 32.5t-42 12.5q-27 0 -43 -12.5t-16 -33.5zM476 102q0 -25 18.5 -39t48.5 -14t48 14t18 39t-18 39t-48 14t-48.5 -14t-18.5 -39z" />
    <glyph glyph-name="threeeighths" unicode="&#x215c;" horiz-adv-x="735" 
d="M20 488h61q0 -29 16.5 -45.5t45.5 -16.5q28 0 44.5 15.5t16.5 42.5q0 30 -20 47t-58 17h-35v40l88 80h-142v55h219v-52l-86 -79q42 -7 68 -34.5t26 -71.5q0 -53 -34 -84t-88 -31q-53 0 -87.5 31.5t-34.5 85.5zM629 710l-467 -710h-80l466 710h81zM452 95q0 31 17.5 55
t46.5 34q-48 22 -48 76q0 41 31 66.5t81 25.5t80.5 -25t30.5 -67q0 -56 -49 -76q30 -9 47.5 -33t17.5 -56q0 -46 -35 -73t-93 -27q-57 0 -92 27t-35 73zM521 253q0 -21 15 -33.5t43 -12.5q27 0 43 13t16 34q0 20 -16 32.5t-43 12.5q-26 0 -42 -12.5t-16 -33.5zM513 102
q0 -25 18.5 -39t47.5 -14q30 0 48.5 14t18.5 39t-18.5 39t-48.5 14q-29 0 -47.5 -14t-18.5 -39z" />
    <glyph glyph-name="fiveeighths" unicode="&#x215d;" horiz-adv-x="750" 
d="M149 372q-53 0 -88.5 32.5t-35.5 86.5h61q0 -30 17.5 -47t46.5 -17q30 0 48 19t18 49q0 31 -18 50t-49 19q-41 0 -61 -31l-57 9l45 181h184v-55h-142l-19 -72q23 18 59 18q55 0 87 -34t32 -85q0 -54 -35.5 -88.5t-92.5 -34.5zM644 710l-466 -710h-80l466 710h80zM468 95
q0 31 17 55t46 34q-48 22 -48 76q0 41 31.5 66.5t81.5 25.5q49 0 80 -25t31 -67q0 -56 -49 -76q30 -9 47.5 -33t17.5 -56q0 -45 -35.5 -72.5t-92.5 -27.5t-92 27t-35 73zM536 253q0 -21 15.5 -33.5t43.5 -12.5q27 0 43 13t16 34q0 20 -16.5 32.5t-42.5 12.5q-27 0 -43 -12.5
t-16 -33.5zM529 102q0 -25 18.5 -39t47.5 -14q30 0 48.5 14t18.5 39t-18.5 39t-48.5 14t-48 -14t-18 -39z" />
    <glyph glyph-name="seveneighths" unicode="&#x215e;" horiz-adv-x="676" 
d="M195 667h-183v56h244v-56l-128 -289h-62zM570 710l-466 -710h-80l466 710h80zM394 95q0 31 17.5 55t46.5 34q-48 22 -48 76q0 41 31 66.5t81 25.5t80.5 -25t30.5 -67q0 -56 -49 -76q30 -9 47.5 -33t17.5 -56q0 -45 -35.5 -72.5t-92.5 -27.5t-92 27t-35 73zM462 253
q0 -21 15.5 -33.5t43.5 -12.5q27 0 43 13t16 34q0 20 -16.5 32.5t-42.5 12.5t-42.5 -12.5t-16.5 -33.5zM455 102q0 -25 18.5 -39t47.5 -14q30 0 48.5 14t18.5 39t-18.5 39t-48.5 14t-48 -14t-18 -39z" />
    <glyph glyph-name="arrowleft" unicode="&#x2190;" horiz-adv-x="941" 
d="M443 -7l-53 -54l-330 329l330 330l53 -53l-238 -239h676v-75h-676z" />
    <glyph glyph-name="arrowup" unicode="&#x2191;" horiz-adv-x="784" 
d="M114 399l-54 54l332 327l332 -327l-53 -54l-242 237v-636h-74v636z" />
    <glyph glyph-name="arrowright" unicode="&#x2192;" horiz-adv-x="941" 
d="M498 576l53 52l330 -329l-330 -329l-53 53l238 239h-676v74l676 1z" />
    <glyph glyph-name="arrowdown" unicode="&#x2193;" horiz-adv-x="778" 
d="M666 273l52 -53l-329 -330l-329 330l53 53l239 -238v700h75v-700z" />
    <glyph glyph-name="arrowboth" unicode="&#x2194;" horiz-adv-x="1089" 
d="M60 264l244 245v-109l-100 -99l230 1v1h224l227 -1l-100 98v109l244 -244l-243 -247v110l99 99l-449 -1v1l-232 -1l101 -100v-108z" />
    <glyph glyph-name="arrowupdn" unicode="&#x2195;" horiz-adv-x="611" 
d="M304 -172l-244 244h108l99 -100l-1 231v223l1 227l-99 -100h-108l244 244l247 -244h-109l-99 100v-681l99 100h109z" />
    <glyph glyph-name="arrowNW" unicode="&#x2196;" horiz-adv-x="832" 
d="M60 723h466v-75l-338 -1l584 -594l-52 -53l-585 594v-337h-75v466z" />
    <glyph glyph-name="arrowNE" unicode="&#x2197;" horiz-adv-x="844" 
d="M318 648v75h466v-465h-76v337l-595 -595l-53 53l595 595h-337z" />
    <glyph glyph-name="arrowSE" unicode="&#x2198;" horiz-adv-x="842" 
d="M707 468l75 -1v-466l-466 1v75h337l-593 594l53 52l593 -593z" />
    <glyph glyph-name="arrowSW" unicode="&#x2199;" horiz-adv-x="845" 
d="M527 74l-1 -75h-466v466h76v-337l596 596l53 -52l-596 -597z" />
    <glyph glyph-name="partialdiff" unicode="&#x2202;" horiz-adv-x="633" 
d="M54 250q0 113 73.5 186.5t179.5 73.5q97 0 156 -67q-27 75 -80 142t-144 145h120q220 -199 220 -443q0 -141 -76 -220t-192 -79q-109 0 -183 72.5t-74 189.5zM148 249q0 -78 47 -128t120 -50t120.5 50.5t47.5 129.5q0 77 -46 125.5t-119 48.5q-74 0 -122 -49.5
t-48 -126.5z" />
    <glyph glyph-name="emptyset" unicode="&#x2205;" horiz-adv-x="821" 
d="M408 -12q-147 0 -247 102l-84 -77l-47 50l88 80q-62 97 -62 219q0 161 100.5 267.5t251.5 106.5q149 0 249 -103l88 80l46 -50l-92 -83q62 -95 62 -218q0 -161 -101 -267.5t-252 -106.5zM150 362q0 -86 38 -156l402 366q-72 75 -182 75q-112 0 -185 -80t-73 -205zM408 77
q113 0 186.5 80t73.5 205q0 89 -37 155l-402 -366q71 -74 179 -74z" />
    <glyph glyph-name="increment" unicode="&#x2206;" horiz-adv-x="681" 
d="M637 0h-593v84l244 639h103l246 -641v-82zM329 578l-187 -496h397l-190 496q-7 17 -10 30q-1 -5 -5.5 -17t-4.5 -13z" />
    <glyph glyph-name="product" unicode="&#x220f;" horiz-adv-x="688" 
d="M182 0h-98v723h519v-723h-98v633h-323v-633z" />
    <glyph glyph-name="summation" unicode="&#x2211;" horiz-adv-x="552" 
d="M507 0h-474v100l217 263l-217 260v100h474v-90h-363l223 -271l-224 -271h364v-91z" />
    <glyph glyph-name="minus" unicode="&#x2212;" 
d="M80 377h500v-80h-500v80z" />
    <glyph glyph-name="radical" unicode="&#x221a;" horiz-adv-x="712" 
d="M197 0l-197 488h98l145 -368l227 604h211v-87h-147l-246 -637h-91z" />
    <glyph glyph-name="infinity" unicode="&#x221e;" horiz-adv-x="878" 
d="M51 284q0 83 53.5 136.5t137.5 53.5q60 0 106.5 -30t90.5 -95q44 65 90.5 95t106.5 30q83 0 136.5 -53.5t53.5 -136.5q0 -82 -53.5 -135.5t-136.5 -53.5q-61 0 -106.5 30t-90.5 95q-44 -65 -90.5 -95t-106.5 -30q-83 0 -137 53.5t-54 135.5zM139 284q0 -48 29 -77t77 -29
q82 0 137 106q-54 106 -137 106q-49 0 -77.5 -28.5t-28.5 -77.5zM496 284q53 -106 137 -106q48 0 77 29t29 77t-29 77t-77 29q-85 0 -137 -106z" />
    <glyph glyph-name="integral" unicode="&#x222b;" horiz-adv-x="405" 
d="M110 -13h-80v85h74q24 0 37.5 15t13.5 43v462q0 64 39.5 104.5t101.5 40.5h79v-85h-74q-24 0 -37.5 -15t-13.5 -43v-462q0 -64 -39.5 -104.5t-100.5 -40.5z" />
    <glyph glyph-name="approxequal" unicode="&#x2248;" 
d="M505 473h75q0 -71 -36 -116t-95 -45q-41 0 -85 22t-82.5 44.5t-65.5 22.5q-31 0 -45 -19.5t-16 -59.5h-75q0 69 36 113t95 44q38 0 81 -22t82.5 -44t69.5 -22q58 0 61 82zM505 283h75q0 -71 -36 -116t-95 -45q-41 0 -85 22t-82.5 44t-65.5 22q-31 0 -45 -19.5t-16 -59.5
h-75q0 70 36 114t95 44q38 0 81 -22.5t82.5 -44.5t69.5 -22q58 0 61 83z" />
    <glyph glyph-name="notequal" unicode="&#x2260;" 
d="M133 19l73 134h-126v81h170l70 129h-240v81h284l73 134h90l-73 -134h126v-81h-170l-70 -129h240v-81h-284l-73 -134h-90z" />
    <glyph glyph-name="lessequal" unicode="&#x2264;" 
d="M580 210v-92l-500 173v98l500 173v-93l-403 -129zM80 0v81h500v-81h-500z" />
    <glyph glyph-name="greaterequal" unicode="&#x2265;" 
d="M580 291l-500 -173v92l403 130l-403 129v93l500 -173v-98zM80 81h500v-81h-500v81z" />
    <glyph glyph-name="filledbox" unicode="&#x25a0;" horiz-adv-x="830" 
d="M60 0v710h710v-710h-710z" />
    <glyph glyph-name="squarewhite" unicode="&#x25a1;" horiz-adv-x="830" 
d="M60 0v710h710v-710h-710zM695 635h-560v-560h560v560z" />
    <glyph glyph-name="triagup" unicode="&#x25b2;" horiz-adv-x="966" 
d="M60 0l423 710l423 -710h-846z" />
    <glyph glyph-name="triangleupwhite" unicode="&#x25b3;" horiz-adv-x="967" 
d="M484 713l423 -711h-847zM186 71h595l-297 499z" />
    <glyph glyph-name="lozenge" unicode="&#x25ca;" horiz-adv-x="621" 
d="M561 355l-204 -355h-93l-204 355l204 355h93zM465 355l-154 273l-154 -273l154 -273z" />
    <glyph glyph-name="circle" unicode="&#x25cb;" horiz-adv-x="898" 
d="M449 -56q-161 0 -275 114t-114 275t114 275t275 114t275 -114t114 -275t-114 -275t-275 -114zM449 18q131 0 223 92t92 223q0 130 -92.5 222.5t-222.5 92.5t-222.5 -92.5t-92.5 -222.5t92.5 -222.5t222.5 -92.5z" />
    <glyph glyph-name="circleblack" unicode="&#x25cf;" horiz-adv-x="898" 
d="M449 -56q-161 0 -275 114t-114 275t114 275t275 114t275 -114t114 -275t-114 -275t-275 -114z" />
    <glyph glyph-name="peace" unicode="&#x262e;" horiz-adv-x="898" 
d="M449 -56q-161 0 -275 114t-114 275t114 275t275 114t275 -114t114 -275t-114 -275t-275 -114zM134 333q0 -66 27 -128l255 169v272q-119 -12 -200.5 -101.5t-81.5 -211.5zM764 333q0 120 -81 209.5t-199 103.5v-272l253 -168q27 62 27 127zM195 147q84 -113 221 -127v273
zM484 293v-273q67 7 124 41t95 86z" />
    <glyph glyph-name="check" unicode="&#x2713;" horiz-adv-x="724" 
d="M250 7l-216 233l57 60l155 -167l324 389l64 -53z" />
    <glyph glyph-name="ITF" unicode="&#xf8ff;" horiz-adv-x="1739" 
d="M88 0v700h216v-700h-216zM349 496v204h216v-204h-216zM609 0v700h217v-700h-217zM870 496v204h216v-204h-216zM1130 0v700h217v-700h-217zM1391 496v204h216v-204h-216zM1391 247v205h216v-205h-216z" />
    <glyph glyph-name="G.ss01" horiz-adv-x="766" 
d="M41 359q0 167 97.5 272t256.5 105q122 0 207 -61t112 -174h-105q-24 71 -80 107t-135 36q-114 0 -182 -77.5t-68 -207.5q0 -131 67 -204.5t180 -73.5q100 0 161 56.5t65 160.5h-243v87h346v-67q0 -144 -90 -236.5t-240 -92.5q-157 0 -253 100.5t-96 269.5z" />
    <glyph glyph-name="idotaccent" horiz-adv-x="230" 
d="M115 562q-25 0 -42 17.5t-17 41.5q0 25 17.5 43t41.5 18t41.5 -18t17.5 -43q0 -24 -17.5 -41.5t-41.5 -17.5zM68 0v489h94v-489h-94z" />
    <glyph glyph-name="a.ss01" horiz-adv-x="602" 
d="M451 489h83v-489h-86l-8 89q-25 -48 -71 -75t-106 -27q-105 0 -166 73t-61 188q0 113 63 184t167 71q59 0 107 -26.5t71 -77.5zM438 244q0 78 -41.5 125.5t-112.5 47.5t-112 -48t-41 -125t40.5 -124.5t111.5 -47.5t113 47.5t42 124.5z" />
    <glyph glyph-name="g.ss02" horiz-adv-x="540" 
d="M54 308q0 85 59.5 140t151.5 55q65 0 119 -28q35 65 113 65q13 0 18 -1v-80q-8 2 -20 2q-46 0 -67 -29q53 -50 53 -127q0 -83 -59 -134.5t-153 -51.5q-53 0 -96 17q-49 -3 -49 -41q0 -40 65 -40h160q172 0 172 -130q0 -75 -69 -116.5t-194 -41.5q-119 0 -175 30t-56 95
q0 33 20.5 59t55.5 38q-57 22 -57 81q0 71 78 93q-70 53 -70 145zM145 309q0 -52 34 -83.5t89 -31.5t89 31.5t34 83.5t-34.5 85t-88.5 33q-55 0 -89 -32.5t-34 -85.5zM106 -84q0 -38 35.5 -54.5t118.5 -16.5q170 0 170 78q0 56 -83 56h-160q-81 -2 -81 -63z" />
    <glyph glyph-name="t.ss03" horiz-adv-x="337" 
d="M296 82l12 -78q-38 -15 -81 -15q-65 0 -100 37.5t-35 110.5v273h-76v79h76v153h94v-153h114v-79h-114v-260q0 -77 63 -77q23 0 47 9z" />
    <glyph glyph-name="f_y" horiz-adv-x="795" 
d="M318 -219v77h63q39 0 63.5 13.5t40.5 55.5l17 47l-167 436h-153v-410h-94v410h-72v79h72v78q0 86 42 127.5t113 41.5q33 0 57 -4v-81h-42q-43 0 -59.5 -20.5t-16.5 -63.5v-78h222l142 -394l145 394h96l-231 -599q-24 -61 -61 -90t-95 -29q-40 0 -82 10z" />
    <glyph glyph-name="t_i" horiz-adv-x="572" 
d="M458 609q-25 0 -42 17.5t-17 42.5t17 42.5t42 17.5q26 0 43 -17.5t17 -42.5t-17 -42.5t-43 -17.5zM206 0h-94v410h-96v79h96v153h94v-153h299v-489h-94v410h-205v-410z" />
    <glyph glyph-name="t_t" horiz-adv-x="630" 
d="M206 0h-94v411h-96v78h96v153h94v-153h219v153h93v-153h96v-78h-96v-411h-93v411h-219v-411z" />
    <glyph glyph-name="t_y" horiz-adv-x="807" 
d="M205 0h-93v411h-96v78h96v153h93v-153h211l143 -393l144 393h97l-231 -599q-24 -61 -61.5 -90t-95.5 -29q-40 0 -82 10v77h63q39 0 63.5 13.5t40.5 55.5l17 47l-167 437h-142v-411z" />
    <glyph glyph-name="zero.tf" 
d="M43 360q0 170 77 273t210 103t210 -103t77 -273q0 -172 -76 -273t-211 -101t-211 101t-76 273zM140 360q0 -135 48.5 -210.5t141.5 -75.5t141.5 75.5t48.5 210.5q0 136 -48.5 212t-141.5 76t-141.5 -76t-48.5 -212z" />
    <glyph glyph-name="one.tf" 
d="M300 87v548h-186v88h281v-636h186v-87h-477v87h196z" />
    <glyph glyph-name="two.tf" 
d="M577 1l-487 -1v75l233 201q88 76 119 122.5t31 104.5q0 68 -37 106.5t-102 38.5q-67 0 -107.5 -45.5t-42.5 -122.5h-97q1 116 69.5 186t178.5 70q109 0 173.5 -61.5t64.5 -165.5q0 -76 -40.5 -139t-138.5 -148l-150 -130h333v-91z" />
    <glyph glyph-name="three.tf" 
d="M298 374h-72v65l205 197h-324v87h448v-79l-198 -189q95 -12 155.5 -72.5t60.5 -155.5q0 -108 -72.5 -173.5t-184.5 -65.5q-109 0 -176.5 63.5t-67.5 173.5h97q0 -70 40 -109.5t109 -39.5q71 0 113 41.5t42 111.5q0 67 -45 106t-130 39z" />
    <glyph glyph-name="four.tf" 
d="M588 146h-86v-146h-94v146h-374v87l341 490h127v-490h86v-87zM140 233h268v386z" />
    <glyph glyph-name="five.tf" 
d="M321 -12q-112 0 -178 65t-66 173h97q0 -70 39.5 -110t109.5 -40q73 0 116.5 44.5t43.5 118.5q0 72 -42.5 117t-117.5 45q-45 0 -85 -19t-65 -51l-83 21l88 371h363v-90h-292l-47 -191q58 43 139 43q109 0 175.5 -68t66.5 -174q0 -113 -72.5 -184t-189.5 -71z" />
    <glyph glyph-name="six.tf" 
d="M166 494l169 229h113l-181 -241q36 16 77 16q111 0 180.5 -71t69.5 -180q0 -113 -75 -186t-188 -73q-112 0 -188.5 74.5t-76.5 184.5q0 64 21.5 117.5t78.5 129.5zM166 246q0 -74 46 -122t119 -48q72 0 118 48t46 122t-45.5 121.5t-118.5 47.5t-119 -47.5t-46 -121.5z
" />
    <glyph glyph-name="seven.tf" 
d="M77 723h505v-90l-273 -633h-102l276 633h-406v90z" />
    <glyph glyph-name="eight.tf" 
d="M64 201q0 65 35.5 115t96.5 71q-51 22 -78.5 63t-27.5 96q0 85 67 137.5t174 52.5t173 -52.5t66 -138.5q0 -55 -28 -96.5t-79 -61.5q61 -20 97 -70t36 -117q0 -95 -73 -153.5t-193 -58.5t-193 58.5t-73 154.5zM180 540q0 -53 41 -85t109 -32t108 31.5t40 83.5t-40 82.5
t-108 30.5t-109 -30.5t-41 -80.5zM160 208q0 -61 47 -97t124 -36t122.5 36t45.5 97q0 60 -46 95.5t-123 35.5q-78 0 -124 -35.5t-46 -95.5z" />
    <glyph glyph-name="nine.tf" 
d="M494 229l-169 -229h-113l181 241q-36 -16 -77 -16q-111 0 -180.5 71.5t-69.5 180.5q0 112 75 185.5t188 73.5q112 0 188.5 -75t76.5 -185q0 -64 -22 -117.5t-78 -129.5zM494 477q0 75 -46.5 123t-118.5 48t-118 -48.5t-46 -122.5t45.5 -121.5t118.5 -47.5t119 47.5
t46 121.5z" />
    <glyph glyph-name="zero.dnom" horiz-adv-x="356" 
d="M30 173q0 80 40 129.5t107 49.5q70 0 109.5 -49.5t39.5 -130.5t-40 -129.5t-108 -48.5q-70 0 -109 49t-39 130zM90 172q0 -59 22.5 -91t64.5 -32t65 32.5t23 90.5q0 60 -23 92.5t-65 32.5t-64.5 -32.5t-22.5 -92.5z" />
    <glyph glyph-name="one.dnom" horiz-adv-x="209" 
d="M102 291h-84v55h144v-346h-60v291z" />
    <glyph glyph-name="two.dnom" horiz-adv-x="297" 
d="M275 0h-245v43l113 91q62 51 62 99q0 30 -16 47t-44 17q-29 0 -45.5 -17t-16.5 -46h-61q0 52 34.5 85t89.5 33t87.5 -31.5t32.5 -84.5q0 -72 -83 -140l-51 -41h143v-55z" />
    <glyph glyph-name="three.dnom" horiz-adv-x="286" 
d="M20 111h61q0 -29 16.5 -45.5t45.5 -16.5q28 0 44.5 15.5t16.5 41.5q0 30 -20 47t-58 17h-35v40l88 81h-142v55h219v-53l-86 -79q42 -6 68 -33.5t26 -71.5q0 -53 -34 -84t-88 -31q-53 0 -87.5 31.5t-34.5 85.5z" />
    <glyph glyph-name="four.dnom" horiz-adv-x="314" 
d="M188 67h-174v51l159 228h73v-224h44v-55h-44v-67h-58v67zM80 122h108v154z" />
    <glyph glyph-name="five.dnom" horiz-adv-x="302" 
d="M149 -6q-53 0 -88.5 32.5t-35.5 86.5h61q0 -30 17.5 -47t46.5 -17q30 0 48 19t18 50q0 30 -18.5 49.5t-48.5 19.5q-41 0 -61 -31l-57 8l45 182h184v-55h-142l-19 -72q23 18 59 18q55 0 87 -34t32 -85q0 -55 -35.5 -89.5t-92.5 -34.5z" />
    <glyph glyph-name="six.dnom" horiz-adv-x="319" 
d="M76 244l75 102h71l-82 -108q12 4 27 4q55 0 89.5 -33.5t34.5 -86.5q0 -55 -37 -91.5t-93 -36.5t-94.5 37t-38.5 91q0 33 10 59t38 63zM88 121q0 -32 20.5 -52t52.5 -20q31 0 50.5 20t19.5 52q0 31 -20 50.5t-50 19.5q-32 0 -52.5 -19.5t-20.5 -50.5z" />
    <glyph glyph-name="seven.dnom" horiz-adv-x="268" 
d="M195 290h-183v56h244v-56l-128 -290h-62z" />
    <glyph glyph-name="eight.dnom" horiz-adv-x="310" 
d="M27 95q0 31 17.5 55t46.5 34q-48 22 -48 76q0 41 31 66.5t81 25.5t80.5 -25t30.5 -67q0 -56 -49 -76q30 -9 48 -33t18 -56q0 -45 -35.5 -72.5t-92.5 -27.5t-92.5 27.5t-35.5 72.5zM96 253q0 -21 15.5 -33.5t43.5 -12.5q27 0 42.5 13t15.5 34q0 20 -16 32.5t-42 12.5
q-27 0 -43 -12.5t-16 -33.5zM88 102q0 -25 18.5 -39t48.5 -14t48 14t18 39t-18 39t-48 14t-48.5 -14t-18.5 -39z" />
    <glyph glyph-name="nine.dnom" horiz-adv-x="319" 
d="M243 101l-75 -101h-71l82 108q-12 -4 -27 -4q-55 0 -89.5 33t-34.5 86q0 55 37.5 92t93.5 37t94 -37t38 -92q0 -33 -10 -59t-38 -63zM231 225q0 32 -20 51.5t-52 19.5q-31 0 -51 -20t-20 -51t20 -50.5t51 -19.5q32 0 52 19.5t20 50.5z" />
    <glyph glyph-name="zero.numr" horiz-adv-x="356" 
d="M30 550q0 81 40 130t107 49q70 0 109.5 -49.5t39.5 -130.5t-40 -129.5t-108 -48.5q-70 0 -109 49t-39 130zM90 550q0 -59 22.5 -91.5t64.5 -32.5t65 32.5t23 91.5t-22.5 91.5t-65.5 32.5q-42 0 -64.5 -32.5t-22.5 -91.5z" />
    <glyph glyph-name="one.numr" horiz-adv-x="209" 
d="M102 668h-84v55h144v-345h-60v290z" />
    <glyph glyph-name="two.numr" horiz-adv-x="297" 
d="M275 378h-245v43l113 90q62 52 62 100q0 29 -16 46t-44 17q-29 0 -45.5 -17t-16.5 -46h-61q0 53 34.5 85.5t89.5 32.5t87.5 -31.5t32.5 -84.5q0 -71 -83 -139l-51 -42h143v-54z" />
    <glyph glyph-name="three.numr" horiz-adv-x="286" 
d="M20 488h61q0 -29 16.5 -45.5t45.5 -16.5q28 0 44.5 15.5t16.5 42.5q0 30 -20 47t-58 17h-35v40l88 80h-142v55h219v-52l-86 -79q42 -7 68 -34.5t26 -71.5q0 -53 -34 -84t-88 -31q-53 0 -87.5 31.5t-34.5 85.5z" />
    <glyph glyph-name="four.numr" horiz-adv-x="314" 
d="M188 445h-174v50l159 228h73v-224h44v-54h-44v-67h-58v67zM80 499h108v154z" />
    <glyph glyph-name="five.numr" horiz-adv-x="302" 
d="M149 372q-53 0 -88.5 32.5t-35.5 86.5h61q0 -30 17.5 -47t46.5 -17q30 0 48 19t18 49q0 31 -18 50t-49 19q-41 0 -61 -31l-57 9l45 181h184v-55h-142l-19 -72q23 18 59 18q55 0 87 -34t32 -85q0 -54 -35.5 -88.5t-92.5 -34.5z" />
    <glyph glyph-name="six.numr" horiz-adv-x="319" 
d="M76 622l75 101h71l-82 -107q12 4 27 4q55 0 89.5 -33.5t34.5 -86.5q0 -55 -37 -91.5t-93 -36.5t-94.5 36.5t-38.5 91.5q0 33 10 59t38 63zM88 498q0 -32 20.5 -51.5t52.5 -19.5q31 0 50.5 20t19.5 51t-20 51t-50 20q-32 0 -52.5 -20t-20.5 -51z" />
    <glyph glyph-name="seven.numr" horiz-adv-x="268" 
d="M195 667h-183v56h244v-56l-128 -289h-62z" />
    <glyph glyph-name="eight.numr" horiz-adv-x="310" 
d="M27 472q0 31 17.5 55.5t46.5 34.5q-48 21 -48 76q0 41 31 66t81 25t80.5 -25t30.5 -67q0 -55 -48 -75q30 -9 47.5 -33.5t17.5 -56.5q0 -45 -35.5 -72.5t-92.5 -27.5t-92.5 27.5t-35.5 72.5zM96 631q0 -21 15.5 -33.5t43.5 -12.5q27 0 42.5 12.5t15.5 33.5t-16 33t-42 12
q-27 0 -43 -12t-16 -33zM88 480q0 -26 18.5 -40t48.5 -14t48 14.5t18 39.5t-18.5 39t-47.5 14t-48 -14t-19 -39z" />
    <glyph glyph-name="nine.numr" horiz-adv-x="319" 
d="M243 479l-75 -101h-71l82 107q-12 -4 -27 -4q-55 0 -89.5 33.5t-34.5 86.5q0 55 37.5 91.5t93.5 36.5t94 -37t38 -91q0 -33 -10 -59t-38 -63zM231 603q0 31 -20 51t-52 20q-31 0 -51 -20t-20 -51t20 -51t51 -20t51.5 20t20.5 51z" />
    <glyph glyph-name="registered.ss01" horiz-adv-x="606" 
d="M304 214q-112 0 -188 75.5t-76 185.5t76.5 185.5t187.5 75.5t186.5 -75.5t75.5 -185.5t-75.5 -185.5t-186.5 -75.5zM304 258q92 0 154 62.5t62 154.5q0 93 -62 155t-154 62q-94 0 -155.5 -61.5t-61.5 -155.5t61.5 -155.5t155.5 -61.5zM257 343h-45v268h104
q44 0 70.5 -22.5t26.5 -60.5q0 -53 -51 -77l57 -108h-51l-49 96h-62v-96zM365 526q0 43 -52 43h-56v-88h56q24 0 38 12.5t14 32.5z" />
    <glyph glyph-name="bracketleftsuperior" horiz-adv-x="217" 
d="M109 280h103v-55h-166v646h166v-55h-103v-536z" />
    <glyph glyph-name="bracketrightsuperior" horiz-adv-x="217" 
d="M108 816h-103v55h166v-646h-166v55h103v536z" />
    <glyph glyph-name="Gbreve.ss01" horiz-adv-x="766" 
d="M438 911h71q0 -64 -37.5 -102t-100.5 -38q-64 0 -101 37.5t-37 102.5h71q0 -73 67 -73t67 73zM41 359q0 167 97.5 272t256.5 105q122 0 207 -61t112 -174h-105q-24 71 -80 107t-135 36q-114 0 -182 -77.5t-68 -207.5q0 -131 67 -204.5t180 -73.5q100 0 161 56.5t65 160.5
h-243v87h346v-67q0 -144 -90 -236.5t-240 -92.5q-157 0 -253 100.5t-96 269.5z" />
    <glyph glyph-name="Gcircumflex.ss01" horiz-adv-x="766" 
d="M313 777h-78l83 137h105l83 -137h-78l-57 93zM41 359q0 167 97.5 272t256.5 105q122 0 207 -61t112 -174h-105q-24 71 -80 107t-135 36q-114 0 -182 -77.5t-68 -207.5q0 -131 67 -204.5t180 -73.5q100 0 161 56.5t65 160.5h-243v87h346v-67q0 -144 -90 -236.5t-240 -92.5
q-157 0 -253 100.5t-96 269.5z" />
    <glyph glyph-name="Gcommaaccent.ss01" horiz-adv-x="766" 
d="M41 359q0 167 97.5 272t256.5 105q122 0 207 -61t112 -174h-105q-24 71 -80 107t-135 36q-114 0 -182 -77.5t-68 -207.5q0 -131 67 -204.5t180 -73.5q100 0 161 56.5t65 160.5h-243v87h346v-67q0 -144 -90 -236.5t-240 -92.5q-157 0 -253 100.5t-96 269.5zM451 -106
q0 -49 -29.5 -78t-73.5 -25v34q54 -4 57 39q-7 -3 -18 -3q-21 0 -35 14t-14 35q0 24 15 39t39 15q27 0 43 -18.5t16 -51.5z" />
    <glyph glyph-name="Gdotaccent.ss01" horiz-adv-x="766" 
d="M371 793q-25 0 -42.5 17t-17.5 42t17.5 42.5t42.5 17.5q24 0 41.5 -18t17.5 -42t-17.5 -41.5t-41.5 -17.5zM41 359q0 167 97.5 272t256.5 105q122 0 207 -61t112 -174h-105q-24 71 -80 107t-135 36q-114 0 -182 -77.5t-68 -207.5q0 -131 67 -204.5t180 -73.5
q100 0 161 56.5t65 160.5h-243v87h346v-67q0 -144 -90 -236.5t-240 -92.5q-157 0 -253 100.5t-96 269.5z" />
    <glyph glyph-name="Q.ss04" horiz-adv-x="777" 
d="M655 -132l-258 120h-10q-153 0 -249.5 104.5t-96.5 269.5q0 164 97 269t250 105q154 0 251 -104.5t97 -269.5q0 -120 -53.5 -210.5t-146.5 -132.5l154 -72zM633 362q0 126 -67.5 202.5t-177.5 76.5t-177 -76.5t-67 -202.5t67 -203t177 -77t177.5 77.5t67.5 202.5z" />
    <glyph glyph-name="aacute.ss01" horiz-adv-x="602" 
d="M413 686l-86 -133h-73l68 133h91zM451 489h83v-489h-86l-8 89q-25 -48 -71 -75t-106 -27q-105 0 -166 73t-61 188q0 113 63 184t167 71q59 0 107 -26.5t71 -77.5zM438 244q0 78 -41.5 125.5t-112.5 47.5t-112 -48t-41 -125t40.5 -124.5t111.5 -47.5t113 47.5t42 124.5z
" />
    <glyph glyph-name="abreve.ss01" horiz-adv-x="602" 
d="M356 687h71q0 -64 -37 -102t-100 -38q-64 0 -101.5 37.5t-37.5 102.5h71q0 -72 68 -72q66 0 66 72zM451 489h83v-489h-86l-8 89q-25 -48 -71 -75t-106 -27q-105 0 -166 73t-61 188q0 113 63 184t167 71q59 0 107 -26.5t71 -77.5zM438 244q0 78 -41.5 125.5t-112.5 47.5
t-112 -48t-41 -125t40.5 -124.5t111.5 -47.5t113 47.5t42 124.5z" />
    <glyph glyph-name="acircumflex.ss01" horiz-adv-x="602" 
d="M232 553h-78l82 138h105l83 -138h-78l-57 93zM451 489h83v-489h-86l-8 89q-25 -48 -71 -75t-106 -27q-105 0 -166 73t-61 188q0 113 63 184t167 71q59 0 107 -26.5t71 -77.5zM438 244q0 78 -41.5 125.5t-112.5 47.5t-112 -48t-41 -125t40.5 -124.5t111.5 -47.5t113 47.5
t42 124.5z" />
    <glyph glyph-name="adieresis.ss01" horiz-adv-x="602" 
d="M209 569q-24 0 -41 17t-17 40q0 24 17 41t41 17q23 0 40 -17.5t17 -40.5t-17 -40t-40 -17zM370 569q-24 0 -41 17t-17 40q0 24 17 41t41 17q23 0 40 -17.5t17 -40.5t-17 -40t-40 -17zM451 489h83v-489h-86l-8 89q-25 -48 -71 -75t-106 -27q-105 0 -166 73t-61 188
q0 113 63 184t167 71q59 0 107 -26.5t71 -77.5zM438 244q0 78 -41.5 125.5t-112.5 47.5t-112 -48t-41 -125t40.5 -124.5t111.5 -47.5t113 47.5t42 124.5z" />
    <glyph glyph-name="agrave.ss01" horiz-adv-x="602" 
d="M323 553h-72l-85 133h91zM451 489h83v-489h-86l-8 89q-25 -48 -71 -75t-106 -27q-105 0 -166 73t-61 188q0 113 63 184t167 71q59 0 107 -26.5t71 -77.5zM438 244q0 78 -41.5 125.5t-112.5 47.5t-112 -48t-41 -125t40.5 -124.5t111.5 -47.5t113 47.5t42 124.5z" />
    <glyph glyph-name="amacron.ss01" horiz-adv-x="602" 
d="M165 600v69h248v-69h-248zM451 489h83v-489h-86l-8 89q-25 -48 -71 -75t-106 -27q-105 0 -166 73t-61 188q0 113 63 184t167 71q59 0 107 -26.5t71 -77.5zM438 244q0 78 -41.5 125.5t-112.5 47.5t-112 -48t-41 -125t40.5 -124.5t111.5 -47.5t113 47.5t42 124.5z" />
    <glyph glyph-name="aogonek.ss01" horiz-adv-x="602" 
d="M473 0h-25l-8 89q-25 -48 -71 -75t-106 -27q-105 0 -166 73t-61 188q0 113 63 184t167 71q59 0 107 -26.5t71 -77.5l7 90h83v-489q-31 -12 -47.5 -31.5t-16.5 -38.5q0 -34 37 -34q13 0 24 5v-67q-18 -7 -43 -7q-38 0 -61.5 23t-23.5 58q0 62 70 92zM438 244
q0 78 -41.5 125.5t-112.5 47.5t-112 -48t-41 -125t40.5 -124.5t111.5 -47.5t113 47.5t42 124.5z" />
    <glyph glyph-name="aring.ss01" horiz-adv-x="602" 
d="M289 546q-51 0 -84 33t-33 84q0 50 33.5 83.5t83.5 33.5t84 -33.5t34 -83.5t-34 -83.5t-84 -33.5zM289 602q26 0 42 17t16 45q0 26 -16.5 43t-41.5 17q-26 0 -42 -16.5t-16 -43.5q0 -28 16 -45t42 -17zM451 489h83v-489h-86l-8 89q-25 -48 -71 -75t-106 -27
q-105 0 -166 73t-61 188q0 113 63 184t167 71q59 0 107 -26.5t71 -77.5zM438 244q0 78 -41.5 125.5t-112.5 47.5t-112 -48t-41 -125t40.5 -124.5t111.5 -47.5t113 47.5t42 124.5z" />
    <glyph glyph-name="aringacute.ss01" horiz-adv-x="602" 
d="M387 819l-83 -122h-68l64 122h87zM451 489h83v-489h-86l-8 89q-25 -48 -71 -75t-106 -27q-105 0 -166 73t-61 188q0 87 37.5 150t104.5 89q-26 31 -26 77q0 50 34 83.5t84 33.5t83.5 -33.5t33.5 -83.5q0 -46 -29 -80q60 -28 86 -85zM270 503q26 0 42 17t16 44
q0 26 -16.5 43.5t-41.5 17.5q-26 0 -42 -17t-16 -44t16 -44t42 -17zM438 244q0 78 -41.5 125.5t-112.5 47.5t-112 -48t-41 -125t40.5 -124.5t111.5 -47.5t113 47.5t42 124.5z" />
    <glyph glyph-name="atilde.ss01" horiz-adv-x="602" 
d="M195 566l-60 -1q-4 57 18 90t64 33q32 0 72.5 -28t58.5 -28q34 0 34 56h61q4 -60 -19.5 -91.5t-67.5 -31.5q-35 0 -74.5 28.5t-53.5 28.5q-33 0 -33 -56zM451 489h83v-489h-86l-8 89q-25 -48 -71 -75t-106 -27q-105 0 -166 73t-61 188q0 113 63 184t167 71
q59 0 107 -26.5t71 -77.5zM438 244q0 78 -41.5 125.5t-112.5 47.5t-112 -48t-41 -125t40.5 -124.5t111.5 -47.5t113 47.5t42 124.5z" />
    <glyph glyph-name="gbreve.ss02" horiz-adv-x="540" 
d="M343 680h71q0 -64 -37.5 -102t-100.5 -38q-64 0 -101 37.5t-37 102.5h71q0 -72 67 -72t67 72zM54 308q0 85 59.5 140t151.5 55q65 0 119 -28q35 65 113 65q13 0 18 -1v-80q-8 2 -20 2q-46 0 -67 -29q53 -50 53 -127q0 -83 -59 -134.5t-153 -51.5q-53 0 -96 17
q-49 -3 -49 -41q0 -40 65 -40h160q172 0 172 -130q0 -75 -69 -116.5t-194 -41.5q-119 0 -175 30t-56 95q0 33 20.5 59t55.5 38q-57 22 -57 81q0 71 78 93q-70 53 -70 145zM145 309q0 -52 34 -83.5t89 -31.5t89 31.5t34 83.5t-34.5 85t-88.5 33q-55 0 -89 -32.5t-34 -85.5z
M106 -84q0 -38 35.5 -54.5t118.5 -16.5q170 0 170 78q0 56 -83 56h-160q-81 -2 -81 -63z" />
    <glyph glyph-name="gcircumflex.ss02" horiz-adv-x="540" 
d="M218 546h-77l82 138h105l83 -138h-78l-57 94zM54 308q0 85 59.5 140t151.5 55q65 0 119 -28q35 65 113 65q13 0 18 -1v-80q-8 2 -20 2q-46 0 -67 -29q53 -50 53 -127q0 -83 -59 -134.5t-153 -51.5q-53 0 -96 17q-49 -3 -49 -41q0 -40 65 -40h160q172 0 172 -130
q0 -75 -69 -116.5t-194 -41.5q-119 0 -175 30t-56 95q0 33 20.5 59t55.5 38q-57 22 -57 81q0 71 78 93q-70 53 -70 145zM145 309q0 -52 34 -83.5t89 -31.5t89 31.5t34 83.5t-34.5 85t-88.5 33q-55 0 -89 -32.5t-34 -85.5zM106 -84q0 -38 35.5 -54.5t118.5 -16.5
q170 0 170 78q0 56 -83 56h-160q-81 -2 -81 -63z" />
    <glyph glyph-name="gcommaaccent.ss02" horiz-adv-x="540" 
d="M328 601q0 -23 -15.5 -38.5t-39.5 -15.5q-27 0 -42.5 18.5t-15.5 51.5q0 50 29 79t74 25v-35q-55 5 -58 -39q7 4 19 4q21 0 35 -14t14 -36zM54 308q0 85 59.5 140t151.5 55q65 0 119 -28q35 65 113 65q13 0 18 -1v-80q-8 2 -20 2q-46 0 -67 -29q53 -50 53 -127
q0 -83 -59 -134.5t-153 -51.5q-53 0 -96 17q-49 -3 -49 -41q0 -40 65 -40h160q172 0 172 -130q0 -75 -69 -116.5t-194 -41.5q-119 0 -175 30t-56 95q0 33 20.5 59t55.5 38q-57 22 -57 81q0 71 78 93q-70 53 -70 145zM145 309q0 -52 34 -83.5t89 -31.5t89 31.5t34 83.5
t-34.5 85t-88.5 33q-55 0 -89 -32.5t-34 -85.5zM106 -84q0 -38 35.5 -54.5t118.5 -16.5q170 0 170 78q0 56 -83 56h-160q-81 -2 -81 -63z" />
    <glyph glyph-name="gdotaccent.ss02" horiz-adv-x="540" 
d="M276 562q-25 0 -42.5 17.5t-17.5 41.5q0 25 17.5 43t42.5 18q24 0 41.5 -18t17.5 -43q0 -24 -17.5 -41.5t-41.5 -17.5zM54 308q0 85 59.5 140t151.5 55q65 0 119 -28q35 65 113 65q13 0 18 -1v-80q-8 2 -20 2q-46 0 -67 -29q53 -50 53 -127q0 -83 -59 -134.5t-153 -51.5
q-53 0 -96 17q-49 -3 -49 -41q0 -40 65 -40h160q172 0 172 -130q0 -75 -69 -116.5t-194 -41.5q-119 0 -175 30t-56 95q0 33 20.5 59t55.5 38q-57 22 -57 81q0 71 78 93q-70 53 -70 145zM145 309q0 -52 34 -83.5t89 -31.5t89 31.5t34 83.5t-34.5 85t-88.5 33q-55 0 -89 -32.5
t-34 -85.5zM106 -84q0 -38 35.5 -54.5t118.5 -16.5q170 0 170 78q0 56 -83 56h-160q-81 -2 -81 -63z" />
    <glyph glyph-name="tbar.ss03" horiz-adv-x="325" 
d="M31 300h61v110h-76v79h76v153h94v-153h114v-79h-114v-110h80v-73h-80v-77q0 -77 63 -77q23 0 47 9l12 -78q-38 -15 -81 -15q-65 0 -100 37.5t-35 110.5v90h-61v73z" />
    <glyph glyph-name="tcaron.ss03" horiz-adv-x="337" 
d="M236 556v167h82l-22 -167h-60zM296 82l12 -78q-38 -15 -81 -15q-65 0 -100 37.5t-35 110.5v273h-76v79h76v153h94v-153h114v-79h-114v-260q0 -77 63 -77q23 0 47 9z" />
    <glyph glyph-name="tcedilla.ss03" horiz-adv-x="337" 
d="M147 -181v48q34 -17 61 -17q22 0 35.5 9.5t13.5 26.5q0 34 -41 34q-23 0 -49 -11l-10 29l27 56q-92 23 -92 143v273h-76v79h76v153h94v-153h114v-79h-114v-260q0 -77 63 -77q23 0 47 9l12 -78q-38 -15 -81 -15h-1l-17 -34q17 5 32 5q31 0 52.5 -19t21.5 -53
q0 -41 -29 -63t-71 -22q-40 0 -68 16z" />
    <glyph glyph-name="tcommaaccent.ss03" horiz-adv-x="337" 
d="M296 82l12 -78q-38 -15 -81 -15q-65 0 -100 37.5t-35 110.5v273h-76v79h76v153h94v-153h114v-79h-114v-260q0 -77 63 -77q23 0 47 9zM264 -106q0 -49 -29 -78t-73 -25v34q26 -2 40.5 8.5t16.5 31.5q-7 -4 -18 -4q-22 0 -36 14t-14 35q0 24 15.5 39t39.5 15
q27 0 42.5 -18.5t15.5 -51.5z" />
    <glyph glyph-name="caroncomb.alt" horiz-adv-x="581" 
d="M310 556v167h81l-21 -167h-60z" />
    <glyph glyph-name="strokeshortcomb.case" horiz-adv-x="358" 
d="M20 321v82h318v-82h-318z" />
    <glyph glyph-name="strokelongcomb.case" horiz-adv-x="738" 
d="M10 539v85h718v-85h-718z" />
    <glyph glyph-name="slashshortcomb.case" horiz-adv-x="377" 
d="M20 296v80l337 161v-80z" />
    <glyph glyph-name="slashlongcomb.case" horiz-adv-x="524" 
d="M584 723l-549 -723h-95l551 723h93z" />
    <glyph glyph-name="dotaccentcomb.i" horiz-adv-x="211" 
d="M105 827q-26 0 -44 17.5t-18 43.5t18 44.5t44 18.5q25 0 43.5 -18.5t18.5 -44.5q0 -25 -18.5 -43t-43.5 -18z" />
    </font>
</defs>
</svg>
